<svg width="1920" height="1672" viewBox="0 0 1920 1672" fill="none" xmlns="http://www.w3.org/2000/svg">
<path d="M695 469.988C250.2 491.913 47 738.562 1 859.146V1562.11C405 1571.25 293.411 1611.49 927 1584.04C1433 1562.11 1733 1396 1921 1595V2.26796C1685 -17.8294 1581 99.1007 1479 216.031C1377 332.961 1251 442.583 695 469.988Z" fill="#FFD998"/>
<path d="M694 788.383C249.2 799.503 46 924.606 0 985.768V1342.32C404 1346.95 291.816 1353.44 926 1353.44C1572 1353.44 1774 1359 1920 1359V551.15C1684 540.957 1580 600.265 1478 659.573C1376 718.881 1250 774.483 694 788.383Z" fill="#FFC158"/>
<path d="M676 1419.5C424.8 1374.4 120.667 1398.03 0 1415.47V1343L1920 1346.45V1405.12C1596.8 1323.67 1330.67 1363.51 1238 1393.62C1155.33 1421.03 927.2 1464.59 676 1419.5Z" fill="#FFC158"/>
<path d="M677 1635.44C425.8 1550.88 121.667 1595.17 1 1627.89V1492L1921 1498.47V1608.47C1597.8 1455.76 1331.67 1530.47 1239 1586.9C1156.33 1638.31 928.2 1719.99 677 1635.44Z" fill="#FFD998"/>
</svg>
