<svg width="428" height="188" viewBox="0 0 428 188" fill="none" xmlns="http://www.w3.org/2000/svg">
<g filter="url(#filter0_d_4658_8)">
<path d="M411.897 88.6326C411.5 44.1942 321.819 8.98375 211.589 9.98781C101.36 10.9919 12.3224 47.8303 12.7195 92.2686C13.1166 136.707 102.798 171.917 213.027 170.913C323.257 169.909 412.295 133.071 411.897 88.6326Z" fill="white"/>
</g>
<path d="M64.338 83L64.32 74.648L60.18 81.56H59.136L54.996 74.756V83H52.782V70.4H54.708L59.694 78.734L64.626 70.4H66.534L66.57 83H64.338ZM73.426 73.28C74.842 73.28 75.922 73.622 76.666 74.306C77.422 74.978 77.8 75.998 77.8 77.366V83H75.676V81.83C75.4 82.25 75.004 82.574 74.488 82.802C73.984 83.018 73.372 83.126 72.652 83.126C71.932 83.126 71.302 83.006 70.762 82.766C70.222 82.514 69.802 82.172 69.502 81.74C69.214 81.296 69.07 80.798 69.07 80.246C69.07 79.382 69.388 78.692 70.024 78.176C70.672 77.648 71.686 77.384 73.066 77.384H75.55V77.24C75.55 76.568 75.346 76.052 74.938 75.692C74.542 75.332 73.948 75.152 73.156 75.152C72.616 75.152 72.082 75.236 71.554 75.404C71.038 75.572 70.6 75.806 70.24 76.106L69.358 74.468C69.862 74.084 70.468 73.79 71.176 73.586C71.884 73.382 72.634 73.28 73.426 73.28ZM73.12 81.488C73.684 81.488 74.182 81.362 74.614 81.11C75.058 80.846 75.37 80.474 75.55 79.994V78.878H73.228C71.932 78.878 71.284 79.304 71.284 80.156C71.284 80.564 71.446 80.888 71.77 81.128C72.094 81.368 72.544 81.488 73.12 81.488ZM87.9643 75.296H82.8343V83H80.5843V73.388H87.9643V75.296ZM93.1838 73.28C94.5998 73.28 95.6798 73.622 96.4238 74.306C97.1798 74.978 97.5578 75.998 97.5578 77.366V83H95.4338V81.83C95.1578 82.25 94.7618 82.574 94.2458 82.802C93.7418 83.018 93.1298 83.126 92.4098 83.126C91.6898 83.126 91.0598 83.006 90.5198 82.766C89.9798 82.514 89.5598 82.172 89.2598 81.74C88.9718 81.296 88.8278 80.798 88.8278 80.246C88.8278 79.382 89.1458 78.692 89.7818 78.176C90.4298 77.648 91.4438 77.384 92.8238 77.384H95.3078V77.24C95.3078 76.568 95.1038 76.052 94.6958 75.692C94.2998 75.332 93.7058 75.152 92.9138 75.152C92.3738 75.152 91.8398 75.236 91.3118 75.404C90.7958 75.572 90.3578 75.806 89.9978 76.106L89.1158 74.468C89.6198 74.084 90.2258 73.79 90.9338 73.586C91.6418 73.382 92.3918 73.28 93.1838 73.28ZM92.8778 81.488C93.4418 81.488 93.9398 81.362 94.3718 81.11C94.8158 80.846 95.1278 80.474 95.3078 79.994V78.878H92.9858C91.6898 78.878 91.0418 79.304 91.0418 80.156C91.0418 80.564 91.2038 80.888 91.5278 81.128C91.8518 81.368 92.3018 81.488 92.8778 81.488ZM105.961 77.996C106.561 78.164 107.023 78.44 107.347 78.824C107.683 79.196 107.851 79.646 107.851 80.174C107.851 80.762 107.653 81.284 107.257 81.74C106.861 82.184 106.315 82.532 105.619 82.784C104.923 83.036 104.131 83.162 103.243 83.162C102.499 83.162 101.773 83.078 101.065 82.91C100.357 82.73 99.715 82.478 99.139 82.154L99.787 80.48C100.255 80.744 100.783 80.948 101.371 81.092C101.959 81.236 102.547 81.308 103.135 81.308C103.891 81.308 104.479 81.194 104.899 80.966C105.331 80.726 105.547 80.402 105.547 79.994C105.547 79.622 105.379 79.334 105.043 79.13C104.719 78.926 104.257 78.824 103.657 78.824H101.785V77.312H103.477C104.041 77.312 104.479 77.216 104.791 77.024C105.115 76.832 105.277 76.562 105.277 76.214C105.277 75.866 105.085 75.59 104.701 75.386C104.317 75.182 103.789 75.08 103.117 75.08C102.157 75.08 101.143 75.314 100.075 75.782L99.499 74.126C100.759 73.538 102.031 73.244 103.315 73.244C104.131 73.244 104.863 73.358 105.511 73.586C106.159 73.802 106.663 74.114 107.023 74.522C107.395 74.918 107.581 75.374 107.581 75.89C107.581 76.358 107.437 76.778 107.149 77.15C106.861 77.51 106.465 77.792 105.961 77.996ZM110.186 73.388H112.436V79.724L117.746 73.388H119.798V83H117.548V76.664L112.256 83H110.186V73.388ZM122.825 73.388H125.075V77.294H129.917V73.388H132.167V83H129.917V79.202H125.075V83H122.825V73.388ZM144.441 83.126C143.469 83.126 142.593 82.916 141.813 82.496C141.033 82.076 140.421 81.494 139.977 80.75C139.545 79.994 139.329 79.142 139.329 78.194C139.329 77.246 139.545 76.4 139.977 75.656C140.421 74.912 141.033 74.33 141.813 73.91C142.593 73.49 143.469 73.28 144.441 73.28C145.425 73.28 146.307 73.49 147.087 73.91C147.867 74.33 148.473 74.912 148.905 75.656C149.349 76.4 149.571 77.246 149.571 78.194C149.571 79.142 149.349 79.994 148.905 80.75C148.473 81.494 147.867 82.076 147.087 82.496C146.307 82.916 145.425 83.126 144.441 83.126ZM144.441 81.2C145.269 81.2 145.953 80.924 146.493 80.372C147.033 79.82 147.303 79.094 147.303 78.194C147.303 77.294 147.033 76.568 146.493 76.016C145.953 75.464 145.269 75.188 144.441 75.188C143.613 75.188 142.929 75.464 142.389 76.016C141.861 76.568 141.597 77.294 141.597 78.194C141.597 79.094 141.861 79.82 142.389 80.372C142.929 80.924 143.613 81.2 144.441 81.2ZM159.056 75.296H155.69V83H153.44V75.296H150.056V73.388H159.056V75.296ZM164.684 79.148H162.938V83H160.688V73.388H162.938V77.276H164.738L167.582 73.388H169.994L166.502 78.014L170.228 83H167.582L164.684 79.148ZM175.221 73.28C176.637 73.28 177.717 73.622 178.461 74.306C179.217 74.978 179.595 75.998 179.595 77.366V83H177.471V81.83C177.195 82.25 176.799 82.574 176.283 82.802C175.779 83.018 175.167 83.126 174.447 83.126C173.727 83.126 173.097 83.006 172.557 82.766C172.017 82.514 171.597 82.172 171.297 81.74C171.009 81.296 170.865 80.798 170.865 80.246C170.865 79.382 171.183 78.692 171.819 78.176C172.467 77.648 173.481 77.384 174.861 77.384H177.345V77.24C177.345 76.568 177.141 76.052 176.733 75.692C176.337 75.332 175.743 75.152 174.951 75.152C174.411 75.152 173.877 75.236 173.349 75.404C172.833 75.572 172.395 75.806 172.035 76.106L171.153 74.468C171.657 74.084 172.263 73.79 172.971 73.586C173.679 73.382 174.429 73.28 175.221 73.28ZM174.915 81.488C175.479 81.488 175.977 81.362 176.409 81.11C176.853 80.846 177.165 80.474 177.345 79.994V78.878H175.023C173.727 78.878 173.079 79.304 173.079 80.156C173.079 80.564 173.241 80.888 173.565 81.128C173.889 81.368 174.339 81.488 174.915 81.488ZM187.998 77.996C188.598 78.164 189.06 78.44 189.384 78.824C189.72 79.196 189.888 79.646 189.888 80.174C189.888 80.762 189.69 81.284 189.294 81.74C188.898 82.184 188.352 82.532 187.656 82.784C186.96 83.036 186.168 83.162 185.28 83.162C184.536 83.162 183.81 83.078 183.102 82.91C182.394 82.73 181.752 82.478 181.176 82.154L181.824 80.48C182.292 80.744 182.82 80.948 183.408 81.092C183.996 81.236 184.584 81.308 185.172 81.308C185.928 81.308 186.516 81.194 186.936 80.966C187.368 80.726 187.584 80.402 187.584 79.994C187.584 79.622 187.416 79.334 187.08 79.13C186.756 78.926 186.294 78.824 185.694 78.824H183.822V77.312H185.514C186.078 77.312 186.516 77.216 186.828 77.024C187.152 76.832 187.314 76.562 187.314 76.214C187.314 75.866 187.122 75.59 186.738 75.386C186.354 75.182 185.826 75.08 185.154 75.08C184.194 75.08 183.18 75.314 182.112 75.782L181.536 74.126C182.796 73.538 184.068 73.244 185.352 73.244C186.168 73.244 186.9 73.358 187.548 73.586C188.196 73.802 188.7 74.114 189.06 74.522C189.432 74.918 189.618 75.374 189.618 75.89C189.618 76.358 189.474 76.778 189.186 77.15C188.898 77.51 188.502 77.792 187.998 77.996ZM196.903 76.556C198.127 76.556 199.063 76.832 199.711 77.384C200.359 77.936 200.683 78.716 200.683 79.724C200.683 80.78 200.323 81.596 199.603 82.172C198.895 82.748 197.887 83.03 196.579 83.018L192.223 83V73.388H194.473V76.538L196.903 76.556ZM201.925 73.388H204.175V83H201.925V73.388ZM196.381 81.362C197.041 81.374 197.545 81.236 197.893 80.948C198.241 80.66 198.415 80.24 198.415 79.688C198.415 79.148 198.247 78.752 197.911 78.5C197.575 78.248 197.065 78.116 196.381 78.104L194.473 78.086V81.344L196.381 81.362ZM214.166 77.996C215.354 78.356 215.948 79.124 215.948 80.3C215.948 81.164 215.624 81.83 214.976 82.298C214.328 82.766 213.368 83 212.096 83H207.2V73.388H211.898C213.074 73.388 213.992 73.604 214.652 74.036C215.312 74.468 215.642 75.08 215.642 75.872C215.642 76.364 215.51 76.79 215.246 77.15C214.994 77.51 214.634 77.792 214.166 77.996ZM209.342 77.402H211.7C212.864 77.402 213.446 77 213.446 76.196C213.446 75.416 212.864 75.026 211.7 75.026H209.342V77.402ZM211.916 81.362C213.152 81.362 213.77 80.96 213.77 80.156C213.77 79.736 213.626 79.424 213.338 79.22C213.05 79.004 212.6 78.896 211.988 78.896H209.342V81.362H211.916ZM221.926 73.28C223.342 73.28 224.422 73.622 225.166 74.306C225.922 74.978 226.3 75.998 226.3 77.366V83H224.176V81.83C223.9 82.25 223.504 82.574 222.988 82.802C222.484 83.018 221.872 83.126 221.152 83.126C220.432 83.126 219.802 83.006 219.262 82.766C218.722 82.514 218.302 82.172 218.002 81.74C217.714 81.296 217.57 80.798 217.57 80.246C217.57 79.382 217.888 78.692 218.524 78.176C219.172 77.648 220.186 77.384 221.566 77.384H224.05V77.24C224.05 76.568 223.846 76.052 223.438 75.692C223.042 75.332 222.448 75.152 221.656 75.152C221.116 75.152 220.582 75.236 220.054 75.404C219.538 75.572 219.1 75.806 218.74 76.106L217.858 74.468C218.362 74.084 218.968 73.79 219.676 73.586C220.384 73.382 221.134 73.28 221.926 73.28ZM221.62 81.488C222.184 81.488 222.682 81.362 223.114 81.11C223.558 80.846 223.87 80.474 224.05 79.994V78.878H221.728C220.432 78.878 219.784 79.304 219.784 80.156C219.784 80.564 219.946 80.888 220.27 81.128C220.594 81.368 221.044 81.488 221.62 81.488ZM238.084 78.248C238.084 78.404 238.072 78.626 238.048 78.914H230.506C230.638 79.622 230.98 80.186 231.532 80.606C232.096 81.014 232.792 81.218 233.62 81.218C234.676 81.218 235.546 80.87 236.23 80.174L237.436 81.56C237.004 82.076 236.458 82.466 235.798 82.73C235.138 82.994 234.394 83.126 233.566 83.126C232.51 83.126 231.58 82.916 230.776 82.496C229.972 82.076 229.348 81.494 228.904 80.75C228.472 79.994 228.256 79.142 228.256 78.194C228.256 77.258 228.466 76.418 228.886 75.674C229.318 74.918 229.912 74.33 230.668 73.91C231.424 73.49 232.276 73.28 233.224 73.28C234.16 73.28 234.994 73.49 235.726 73.91C236.47 74.318 237.046 74.9 237.454 75.656C237.874 76.4 238.084 77.264 238.084 78.248ZM233.224 75.08C232.504 75.08 231.892 75.296 231.388 75.728C230.896 76.148 230.596 76.712 230.488 77.42H235.942C235.846 76.724 235.552 76.16 235.06 75.728C234.568 75.296 233.956 75.08 233.224 75.08ZM247.808 75.296H244.442V83H242.192V75.296H238.808V73.388H247.808V75.296ZM253.392 83.126C252.396 83.126 251.502 82.916 250.71 82.496C249.918 82.076 249.3 81.494 248.856 80.75C248.412 79.994 248.19 79.142 248.19 78.194C248.19 77.246 248.412 76.4 248.856 75.656C249.3 74.912 249.912 74.33 250.692 73.91C251.484 73.49 252.384 73.28 253.392 73.28C254.34 73.28 255.168 73.472 255.876 73.856C256.596 74.24 257.136 74.792 257.496 75.512L255.768 76.52C255.492 76.076 255.144 75.746 254.724 75.53C254.316 75.302 253.866 75.188 253.374 75.188C252.534 75.188 251.838 75.464 251.286 76.016C250.734 76.556 250.458 77.282 250.458 78.194C250.458 79.106 250.728 79.838 251.268 80.39C251.82 80.93 252.522 81.2 253.374 81.2C253.866 81.2 254.316 81.092 254.724 80.876C255.144 80.648 255.492 80.312 255.768 79.868L257.496 80.876C257.124 81.596 256.578 82.154 255.858 82.55C255.15 82.934 254.328 83.126 253.392 83.126ZM267.331 73.388V83H265.315V80.102H262.777L260.815 83H258.403L260.671 79.796C259.975 79.556 259.441 79.19 259.069 78.698C258.709 78.194 258.529 77.576 258.529 76.844C258.529 75.74 258.919 74.888 259.699 74.288C260.479 73.688 261.553 73.388 262.921 73.388H267.331ZM262.993 75.278C261.541 75.278 260.815 75.824 260.815 76.916C260.815 77.996 261.517 78.536 262.921 78.536H265.315V75.278H262.993ZM282.298 77.996C283.486 78.356 284.08 79.124 284.08 80.3C284.08 81.164 283.756 81.83 283.108 82.298C282.46 82.766 281.5 83 280.228 83H275.332V73.388H280.03C281.206 73.388 282.124 73.604 282.784 74.036C283.444 74.468 283.774 75.08 283.774 75.872C283.774 76.364 283.642 76.79 283.378 77.15C283.126 77.51 282.766 77.792 282.298 77.996ZM277.474 77.402H279.832C280.996 77.402 281.578 77 281.578 76.196C281.578 75.416 280.996 75.026 279.832 75.026H277.474V77.402ZM280.048 81.362C281.284 81.362 281.902 80.96 281.902 80.156C281.902 79.736 281.758 79.424 281.47 79.22C281.182 79.004 280.732 78.896 280.12 78.896H277.474V81.362H280.048ZM295.477 78.248C295.477 78.404 295.465 78.626 295.441 78.914H287.899C288.031 79.622 288.373 80.186 288.925 80.606C289.489 81.014 290.185 81.218 291.013 81.218C292.069 81.218 292.939 80.87 293.623 80.174L294.829 81.56C294.397 82.076 293.851 82.466 293.191 82.73C292.531 82.994 291.787 83.126 290.959 83.126C289.903 83.126 288.973 82.916 288.169 82.496C287.365 82.076 286.741 81.494 286.297 80.75C285.865 79.994 285.649 79.142 285.649 78.194C285.649 77.258 285.859 76.418 286.279 75.674C286.711 74.918 287.305 74.33 288.061 73.91C288.817 73.49 289.669 73.28 290.617 73.28C291.553 73.28 292.387 73.49 293.119 73.91C293.863 74.318 294.439 74.9 294.847 75.656C295.267 76.4 295.477 77.264 295.477 78.248ZM290.617 75.08C289.897 75.08 289.285 75.296 288.781 75.728C288.289 76.148 287.989 76.712 287.881 77.42H293.335C293.239 76.724 292.945 76.16 292.453 75.728C291.961 75.296 291.349 75.08 290.617 75.08ZM303.266 73.28C304.202 73.28 305.036 73.484 305.768 73.892C306.512 74.3 307.094 74.876 307.514 75.62C307.934 76.364 308.144 77.222 308.144 78.194C308.144 79.166 307.934 80.03 307.514 80.786C307.094 81.53 306.512 82.106 305.768 82.514C305.036 82.922 304.202 83.126 303.266 83.126C301.97 83.126 300.944 82.694 300.188 81.83V86.492H297.938V73.388H300.08V74.648C300.452 74.192 300.908 73.85 301.448 73.622C302 73.394 302.606 73.28 303.266 73.28ZM303.014 81.2C303.842 81.2 304.52 80.924 305.048 80.372C305.588 79.82 305.858 79.094 305.858 78.194C305.858 77.294 305.588 76.568 305.048 76.016C304.52 75.464 303.842 75.188 303.014 75.188C302.474 75.188 301.988 75.314 301.556 75.566C301.124 75.806 300.782 76.154 300.53 76.61C300.278 77.066 300.152 77.594 300.152 78.194C300.152 78.794 300.278 79.322 300.53 79.778C300.782 80.234 301.124 80.588 301.556 80.84C301.988 81.08 302.474 81.2 303.014 81.2ZM310.383 73.388H312.633V77.294H317.475V73.388H319.725V83H317.475V79.202H312.633V83H310.383V73.388ZM331.813 73.388L327.313 83.774C326.893 84.818 326.383 85.55 325.783 85.97C325.183 86.402 324.457 86.618 323.605 86.618C323.125 86.618 322.651 86.54 322.183 86.384C321.715 86.228 321.331 86.012 321.031 85.736L321.931 84.08C322.147 84.284 322.399 84.446 322.687 84.566C322.987 84.686 323.287 84.746 323.587 84.746C323.983 84.746 324.307 84.644 324.559 84.44C324.823 84.236 325.063 83.894 325.279 83.414L325.441 83.036L321.247 73.388H323.587L326.611 80.498L329.653 73.388H331.813ZM341.06 75.296H337.694V83H335.444V75.296H332.06V73.388H341.06V75.296ZM347.516 76.556C348.74 76.556 349.676 76.832 350.324 77.384C350.984 77.936 351.314 78.716 351.314 79.724C351.314 80.78 350.954 81.596 350.234 82.172C349.514 82.748 348.5 83.03 347.192 83.018L342.692 83V73.388H344.942V76.538L347.516 76.556ZM346.994 81.362C347.654 81.374 348.158 81.236 348.506 80.948C348.854 80.66 349.028 80.24 349.028 79.688C349.028 79.148 348.86 78.752 348.524 78.5C348.188 78.248 347.678 78.116 346.994 78.104L344.942 78.086V81.344L346.994 81.362ZM62.772 108.092V112.142H60.666V110H53.25V112.142H51.162V108.092H51.612C52.224 108.068 52.638 107.678 52.854 106.922C53.082 106.154 53.232 105.074 53.304 103.682L53.43 100.388H61.35V108.092H62.772ZM55.356 103.844C55.308 104.948 55.218 105.848 55.086 106.544C54.954 107.24 54.714 107.756 54.366 108.092H59.1V102.296H55.41L55.356 103.844ZM73.7815 105.248C73.7815 105.404 73.7695 105.626 73.7455 105.914H66.2035C66.3355 106.622 66.6775 107.186 67.2295 107.606C67.7935 108.014 68.4895 108.218 69.3175 108.218C70.3735 108.218 71.2435 107.87 71.9275 107.174L73.1335 108.56C72.7015 109.076 72.1555 109.466 71.4955 109.73C70.8355 109.994 70.0915 110.126 69.2635 110.126C68.2075 110.126 67.2775 109.916 66.4735 109.496C65.6695 109.076 65.0455 108.494 64.6015 107.75C64.1695 106.994 63.9535 106.142 63.9535 105.194C63.9535 104.258 64.1635 103.418 64.5835 102.674C65.0155 101.918 65.6095 101.33 66.3655 100.91C67.1215 100.49 67.9735 100.28 68.9215 100.28C69.8575 100.28 70.6915 100.49 71.4235 100.91C72.1675 101.318 72.7435 101.9 73.1515 102.656C73.5715 103.4 73.7815 104.264 73.7815 105.248ZM68.9215 102.08C68.2015 102.08 67.5895 102.296 67.0855 102.728C66.5935 103.148 66.2935 103.712 66.1855 104.42H71.6395C71.5435 103.724 71.2495 103.16 70.7575 102.728C70.2655 102.296 69.6535 102.08 68.9215 102.08ZM76.2425 100.388H78.4925V104.294H83.3345V100.388H85.5845V110H83.3345V106.202H78.4925V110H76.2425V100.388ZM93.4239 103.556C94.6479 103.556 95.5839 103.832 96.2319 104.384C96.8919 104.936 97.2219 105.716 97.2219 106.724C97.2219 107.78 96.8619 108.596 96.1419 109.172C95.4219 109.748 94.4079 110.03 93.0999 110.018L88.5999 110V100.388H90.8499V103.538L93.4239 103.556ZM92.9019 108.362C93.5619 108.374 94.0659 108.236 94.4139 107.948C94.7619 107.66 94.9359 107.24 94.9359 106.688C94.9359 106.148 94.7679 105.752 94.4319 105.5C94.0959 105.248 93.5859 105.116 92.9019 105.104L90.8499 105.086V108.344L92.9019 108.362ZM106.58 102.296H101.45V110H99.1995V100.388H106.58V102.296ZM108.217 100.388H110.467V106.724L115.777 100.388H117.829V110H115.579V103.664L110.287 110H108.217V100.388ZM131.572 104.996C132.172 105.164 132.634 105.44 132.958 105.824C133.294 106.196 133.462 106.646 133.462 107.174C133.462 107.762 133.264 108.284 132.868 108.74C132.472 109.184 131.926 109.532 131.23 109.784C130.534 110.036 129.742 110.162 128.854 110.162C128.11 110.162 127.384 110.078 126.676 109.91C125.968 109.73 125.326 109.478 124.75 109.154L125.398 107.48C125.866 107.744 126.394 107.948 126.982 108.092C127.57 108.236 128.158 108.308 128.746 108.308C129.502 108.308 130.09 108.194 130.51 107.966C130.942 107.726 131.158 107.402 131.158 106.994C131.158 106.622 130.99 106.334 130.654 106.13C130.33 105.926 129.868 105.824 129.268 105.824H127.396V104.312H129.088C129.652 104.312 130.09 104.216 130.402 104.024C130.726 103.832 130.888 103.562 130.888 103.214C130.888 102.866 130.696 102.59 130.312 102.386C129.928 102.182 129.4 102.08 128.728 102.08C127.768 102.08 126.754 102.314 125.686 102.782L125.11 101.126C126.37 100.538 127.642 100.244 128.926 100.244C129.742 100.244 130.474 100.358 131.122 100.586C131.77 100.802 132.274 101.114 132.634 101.522C133.006 101.918 133.192 102.374 133.192 102.89C133.192 103.358 133.048 103.778 132.76 104.15C132.472 104.51 132.076 104.792 131.572 104.996ZM139.379 100.28C140.795 100.28 141.875 100.622 142.619 101.306C143.375 101.978 143.753 102.998 143.753 104.366V110H141.629V108.83C141.353 109.25 140.957 109.574 140.441 109.802C139.937 110.018 139.325 110.126 138.605 110.126C137.885 110.126 137.255 110.006 136.715 109.766C136.175 109.514 135.755 109.172 135.455 108.74C135.167 108.296 135.023 107.798 135.023 107.246C135.023 106.382 135.341 105.692 135.977 105.176C136.625 104.648 137.639 104.384 139.019 104.384H141.503V104.24C141.503 103.568 141.299 103.052 140.891 102.692C140.495 102.332 139.901 102.152 139.109 102.152C138.569 102.152 138.035 102.236 137.507 102.404C136.991 102.572 136.553 102.806 136.193 103.106L135.311 101.468C135.815 101.084 136.421 100.79 137.129 100.586C137.837 100.382 138.587 100.28 139.379 100.28ZM139.073 108.488C139.637 108.488 140.135 108.362 140.567 108.11C141.011 107.846 141.323 107.474 141.503 106.994V105.878H139.181C137.885 105.878 137.237 106.304 137.237 107.156C137.237 107.564 137.399 107.888 137.723 108.128C138.047 108.368 138.497 108.488 139.073 108.488ZM151.512 100.388H153.762V104.294H158.604V100.388H160.854V110H158.604V106.202H153.762V110H151.512V100.388ZM172.869 105.248C172.869 105.404 172.857 105.626 172.833 105.914H165.291C165.423 106.622 165.765 107.186 166.317 107.606C166.881 108.014 167.577 108.218 168.405 108.218C169.461 108.218 170.331 107.87 171.015 107.174L172.221 108.56C171.789 109.076 171.243 109.466 170.583 109.73C169.923 109.994 169.179 110.126 168.351 110.126C167.295 110.126 166.365 109.916 165.561 109.496C164.757 109.076 164.133 108.494 163.689 107.75C163.257 106.994 163.041 106.142 163.041 105.194C163.041 104.258 163.251 103.418 163.671 102.674C164.103 101.918 164.697 101.33 165.453 100.91C166.209 100.49 167.061 100.28 168.009 100.28C168.945 100.28 169.779 100.49 170.511 100.91C171.255 101.318 171.831 101.9 172.239 102.656C172.659 103.4 172.869 104.264 172.869 105.248ZM168.009 102.08C167.289 102.08 166.677 102.296 166.173 102.728C165.681 103.148 165.381 103.712 165.273 104.42H170.727C170.631 103.724 170.337 103.16 169.845 102.728C169.353 102.296 168.741 102.08 168.009 102.08ZM179.326 106.148H177.58V110H175.33V100.388H177.58V104.276H179.38L182.224 100.388H184.636L181.144 105.014L184.87 110H182.224L179.326 106.148ZM189.864 100.28C191.28 100.28 192.36 100.622 193.104 101.306C193.86 101.978 194.238 102.998 194.238 104.366V110H192.114V108.83C191.838 109.25 191.442 109.574 190.926 109.802C190.422 110.018 189.81 110.126 189.09 110.126C188.37 110.126 187.74 110.006 187.2 109.766C186.66 109.514 186.24 109.172 185.94 108.74C185.652 108.296 185.508 107.798 185.508 107.246C185.508 106.382 185.826 105.692 186.462 105.176C187.11 104.648 188.124 104.384 189.504 104.384H191.988V104.24C191.988 103.568 191.784 103.052 191.376 102.692C190.98 102.332 190.386 102.152 189.594 102.152C189.054 102.152 188.52 102.236 187.992 102.404C187.476 102.572 187.038 102.806 186.678 103.106L185.796 101.468C186.3 101.084 186.906 100.79 187.614 100.586C188.322 100.382 189.072 100.28 189.864 100.28ZM189.558 108.488C190.122 108.488 190.62 108.362 191.052 108.11C191.496 107.846 191.808 107.474 191.988 106.994V105.878H189.666C188.37 105.878 187.722 106.304 187.722 107.156C187.722 107.564 187.884 107.888 188.208 108.128C188.532 108.368 188.982 108.488 189.558 108.488ZM205.176 100.388V110H202.926V106.274C202.002 106.718 201.036 106.94 200.028 106.94C198.792 106.94 197.844 106.658 197.184 106.094C196.524 105.518 196.194 104.642 196.194 103.466V100.388H198.444V103.322C198.444 103.934 198.624 104.39 198.984 104.69C199.344 104.99 199.854 105.14 200.514 105.14C201.354 105.14 202.158 104.96 202.926 104.6V100.388H205.176ZM217.201 105.248C217.201 105.404 217.189 105.626 217.165 105.914H209.623C209.755 106.622 210.097 107.186 210.649 107.606C211.213 108.014 211.909 108.218 212.737 108.218C213.793 108.218 214.663 107.87 215.347 107.174L216.553 108.56C216.121 109.076 215.575 109.466 214.915 109.73C214.255 109.994 213.511 110.126 212.683 110.126C211.627 110.126 210.697 109.916 209.893 109.496C209.089 109.076 208.465 108.494 208.021 107.75C207.589 106.994 207.373 106.142 207.373 105.194C207.373 104.258 207.583 103.418 208.003 102.674C208.435 101.918 209.029 101.33 209.785 100.91C210.541 100.49 211.393 100.28 212.341 100.28C213.277 100.28 214.111 100.49 214.843 100.91C215.587 101.318 216.163 101.9 216.571 102.656C216.991 103.4 217.201 104.264 217.201 105.248ZM212.341 102.08C211.621 102.08 211.009 102.296 210.505 102.728C210.013 103.148 209.713 103.712 209.605 104.42H215.059C214.963 103.724 214.669 103.16 214.177 102.728C213.685 102.296 213.073 102.08 212.341 102.08ZM224.036 110.126C223.04 110.126 222.146 109.916 221.354 109.496C220.562 109.076 219.944 108.494 219.5 107.75C219.056 106.994 218.834 106.142 218.834 105.194C218.834 104.246 219.056 103.4 219.5 102.656C219.944 101.912 220.556 101.33 221.336 100.91C222.128 100.49 223.028 100.28 224.036 100.28C224.984 100.28 225.812 100.472 226.52 100.856C227.24 101.24 227.78 101.792 228.14 102.512L226.412 103.52C226.136 103.076 225.788 102.746 225.368 102.53C224.96 102.302 224.51 102.188 224.018 102.188C223.178 102.188 222.482 102.464 221.93 103.016C221.378 103.556 221.102 104.282 221.102 105.194C221.102 106.106 221.372 106.838 221.912 107.39C222.464 107.93 223.166 108.2 224.018 108.2C224.51 108.2 224.96 108.092 225.368 107.876C225.788 107.648 226.136 107.312 226.412 106.868L228.14 107.876C227.768 108.596 227.222 109.154 226.502 109.55C225.794 109.934 224.972 110.126 224.036 110.126ZM237.647 102.296H234.281V110H232.031V102.296H228.647V100.388H237.647V102.296ZM246.246 104.996C247.434 105.356 248.028 106.124 248.028 107.3C248.028 108.164 247.704 108.83 247.056 109.298C246.408 109.766 245.448 110 244.176 110H239.28V100.388H243.978C245.154 100.388 246.072 100.604 246.732 101.036C247.392 101.468 247.722 102.08 247.722 102.872C247.722 103.364 247.59 103.79 247.326 104.15C247.074 104.51 246.714 104.792 246.246 104.996ZM241.422 104.402H243.78C244.944 104.402 245.526 104 245.526 103.196C245.526 102.416 244.944 102.026 243.78 102.026H241.422V104.402ZM243.996 108.362C245.232 108.362 245.85 107.96 245.85 107.156C245.85 106.736 245.706 106.424 245.418 106.22C245.13 106.004 244.68 105.896 244.068 105.896H241.422V108.362H243.996ZM259.424 105.248C259.424 105.404 259.412 105.626 259.388 105.914H251.846C251.978 106.622 252.32 107.186 252.872 107.606C253.436 108.014 254.132 108.218 254.96 108.218C256.016 108.218 256.886 107.87 257.57 107.174L258.776 108.56C258.344 109.076 257.798 109.466 257.138 109.73C256.478 109.994 255.734 110.126 254.906 110.126C253.85 110.126 252.92 109.916 252.116 109.496C251.312 109.076 250.688 108.494 250.244 107.75C249.812 106.994 249.596 106.142 249.596 105.194C249.596 104.258 249.806 103.418 250.226 102.674C250.658 101.918 251.252 101.33 252.008 100.91C252.764 100.49 253.616 100.28 254.564 100.28C255.5 100.28 256.334 100.49 257.066 100.91C257.81 101.318 258.386 101.9 258.794 102.656C259.214 103.4 259.424 104.264 259.424 105.248ZM254.564 102.08C253.844 102.08 253.232 102.296 252.728 102.728C252.236 103.148 251.936 103.712 251.828 104.42H257.282C257.186 103.724 256.892 103.16 256.4 102.728C255.908 102.296 255.296 102.08 254.564 102.08ZM261.885 100.388H264.135V104.294H268.977V100.388H271.227V110H268.977V106.202H264.135V110H261.885V100.388ZM274.242 100.388H276.492V104.294H281.334V100.388H283.584V110H281.334V106.202H276.492V110H274.242V100.388ZM291.28 103.556C292.504 103.556 293.44 103.832 294.088 104.384C294.736 104.936 295.06 105.716 295.06 106.724C295.06 107.78 294.7 108.596 293.98 109.172C293.272 109.748 292.264 110.03 290.956 110.018L286.6 110V100.388H288.85V103.538L291.28 103.556ZM296.302 100.388H298.552V110H296.302V100.388ZM290.758 108.362C291.418 108.374 291.922 108.236 292.27 107.948C292.618 107.66 292.792 107.24 292.792 106.688C292.792 106.148 292.624 105.752 292.288 105.5C291.952 105.248 291.442 105.116 290.758 105.104L288.85 105.086V108.344L290.758 108.362ZM301.576 100.388H303.826V106.724L309.136 100.388H311.188V110H308.938V103.664L303.646 110H301.576V100.388ZM306.238 99.254C305.266 99.254 304.522 99.032 304.006 98.588C303.502 98.132 303.244 97.472 303.232 96.608H304.726C304.738 97.04 304.87 97.382 305.122 97.634C305.386 97.886 305.752 98.012 306.22 98.012C306.676 98.012 307.036 97.886 307.3 97.634C307.576 97.382 307.72 97.04 307.732 96.608H309.262C309.25 97.472 308.986 98.132 308.47 98.588C307.954 99.032 307.21 99.254 306.238 99.254ZM326.804 102.296H323.438V110H321.188V102.296H317.804V100.388H326.804V102.296ZM332.298 110.126C331.326 110.126 330.45 109.916 329.67 109.496C328.89 109.076 328.278 108.494 327.834 107.75C327.402 106.994 327.186 106.142 327.186 105.194C327.186 104.246 327.402 103.4 327.834 102.656C328.278 101.912 328.89 101.33 329.67 100.91C330.45 100.49 331.326 100.28 332.298 100.28C333.282 100.28 334.164 100.49 334.944 100.91C335.724 101.33 336.33 101.912 336.762 102.656C337.206 103.4 337.428 104.246 337.428 105.194C337.428 106.142 337.206 106.994 336.762 107.75C336.33 108.494 335.724 109.076 334.944 109.496C334.164 109.916 333.282 110.126 332.298 110.126ZM332.298 108.2C333.126 108.2 333.81 107.924 334.35 107.372C334.89 106.82 335.16 106.094 335.16 105.194C335.16 104.294 334.89 103.568 334.35 103.016C333.81 102.464 333.126 102.188 332.298 102.188C331.47 102.188 330.786 102.464 330.246 103.016C329.718 103.568 329.454 104.294 329.454 105.194C329.454 106.094 329.718 106.82 330.246 107.372C330.786 107.924 331.47 108.2 332.298 108.2ZM346.617 104.996C347.805 105.356 348.399 106.124 348.399 107.3C348.399 108.164 348.075 108.83 347.427 109.298C346.779 109.766 345.819 110 344.547 110H339.651V100.388H344.349C345.525 100.388 346.443 100.604 347.103 101.036C347.763 101.468 348.093 102.08 348.093 102.872C348.093 103.364 347.961 103.79 347.697 104.15C347.445 104.51 347.085 104.792 346.617 104.996ZM341.793 104.402H344.151C345.315 104.402 345.897 104 345.897 103.196C345.897 102.416 345.315 102.026 344.151 102.026H341.793V104.402ZM344.367 108.362C345.603 108.362 346.221 107.96 346.221 107.156C346.221 106.736 346.077 106.424 345.789 106.22C345.501 106.004 345.051 105.896 344.439 105.896H341.793V108.362H344.367ZM354.377 100.28C355.793 100.28 356.873 100.622 357.617 101.306C358.373 101.978 358.751 102.998 358.751 104.366V110H356.627V108.83C356.351 109.25 355.955 109.574 355.439 109.802C354.935 110.018 354.323 110.126 353.603 110.126C352.883 110.126 352.253 110.006 351.713 109.766C351.173 109.514 350.753 109.172 350.453 108.74C350.165 108.296 350.021 107.798 350.021 107.246C350.021 106.382 350.339 105.692 350.975 105.176C351.623 104.648 352.637 104.384 354.017 104.384H356.501V104.24C356.501 103.568 356.297 103.052 355.889 102.692C355.493 102.332 354.899 102.152 354.107 102.152C353.567 102.152 353.033 102.236 352.505 102.404C351.989 102.572 351.551 102.806 351.191 103.106L350.309 101.468C350.813 101.084 351.419 100.79 352.127 100.586C352.835 100.382 353.585 100.28 354.377 100.28ZM354.071 108.488C354.635 108.488 355.133 108.362 355.565 108.11C356.009 107.846 356.321 107.474 356.501 106.994V105.878H354.179C352.883 105.878 352.235 106.304 352.235 107.156C352.235 107.564 352.397 107.888 352.721 108.128C353.045 108.368 353.495 108.488 354.071 108.488ZM366.863 100.28C367.799 100.28 368.633 100.484 369.365 100.892C370.109 101.3 370.691 101.876 371.111 102.62C371.531 103.364 371.741 104.222 371.741 105.194C371.741 106.166 371.531 107.03 371.111 107.786C370.691 108.53 370.109 109.106 369.365 109.514C368.633 109.922 367.799 110.126 366.863 110.126C365.567 110.126 364.541 109.694 363.785 108.83V113.492H361.535V100.388H363.677V101.648C364.049 101.192 364.505 100.85 365.045 100.622C365.597 100.394 366.203 100.28 366.863 100.28ZM366.611 108.2C367.439 108.2 368.117 107.924 368.645 107.372C369.185 106.82 369.455 106.094 369.455 105.194C369.455 104.294 369.185 103.568 368.645 103.016C368.117 102.464 367.439 102.188 366.611 102.188C366.071 102.188 365.585 102.314 365.153 102.566C364.721 102.806 364.379 103.154 364.127 103.61C363.875 104.066 363.749 104.594 363.749 105.194C363.749 105.794 363.875 106.322 364.127 106.778C364.379 107.234 364.721 107.588 365.153 107.84C365.585 108.08 366.071 108.2 366.611 108.2ZM375.656 105.824C375.656 105.176 375.8 104.642 376.088 104.222C376.388 103.79 376.82 103.322 377.384 102.818C377.816 102.434 378.134 102.104 378.338 101.828C378.554 101.54 378.662 101.216 378.662 100.856C378.662 100.352 378.458 99.944 378.05 99.632C377.642 99.32 377.096 99.164 376.412 99.164C375.116 99.164 374.138 99.626 373.478 100.55L371.732 99.416C372.248 98.708 372.914 98.168 373.73 97.796C374.546 97.412 375.506 97.22 376.61 97.22C377.954 97.22 379.022 97.514 379.814 98.102C380.618 98.678 381.02 99.476 381.02 100.496C381.02 100.988 380.936 101.42 380.768 101.792C380.612 102.164 380.42 102.482 380.192 102.746C379.964 102.998 379.664 103.292 379.292 103.628C378.836 104.036 378.494 104.396 378.266 104.708C378.05 105.02 377.942 105.392 377.942 105.824H375.656ZM376.808 110.126C376.388 110.126 376.04 109.994 375.764 109.73C375.5 109.454 375.368 109.118 375.368 108.722C375.368 108.326 375.5 107.996 375.764 107.732C376.04 107.468 376.388 107.336 376.808 107.336C377.216 107.336 377.552 107.468 377.816 107.732C378.092 107.996 378.23 108.326 378.23 108.722C378.23 109.118 378.092 109.454 377.816 109.73C377.552 109.994 377.216 110.126 376.808 110.126Z" fill="black"/>
<g filter="url(#filter1_d_4658_8)">
<path d="M407.42 124.763L411.974 90L380.023 115.519L407.42 124.763Z" fill="white"/>
</g>
<defs>
<filter id="filter0_d_4658_8" x="0.71814" y="0.966797" width="425.181" height="186.968" filterUnits="userSpaceOnUse" color-interpolation-filters="sRGB">
<feFlood flood-opacity="0" result="BackgroundImageFix"/>
<feColorMatrix in="SourceAlpha" type="matrix" values="0 0 0 0 0 0 0 0 0 0 0 0 0 0 0 0 0 0 127 0" result="hardAlpha"/>
<feMorphology radius="2" operator="dilate" in="SourceAlpha" result="effect1_dropShadow_4658_8"/>
<feOffset dx="1" dy="4"/>
<feGaussianBlur stdDeviation="5.5"/>
<feColorMatrix type="matrix" values="0 0 0 0 0 0 0 0 0 0 0 0 0 0 0 0 0 0 0.12 0"/>
<feBlend mode="normal" in2="BackgroundImageFix" result="effect1_dropShadow_4658_8"/>
<feBlend mode="normal" in="SourceGraphic" in2="effect1_dropShadow_4658_8" result="shape"/>
</filter>
<filter id="filter1_d_4658_8" x="376.023" y="90" width="39.9504" height="42.7637" filterUnits="userSpaceOnUse" color-interpolation-filters="sRGB">
<feFlood flood-opacity="0" result="BackgroundImageFix"/>
<feColorMatrix in="SourceAlpha" type="matrix" values="0 0 0 0 0 0 0 0 0 0 0 0 0 0 0 0 0 0 127 0" result="hardAlpha"/>
<feOffset dy="4"/>
<feGaussianBlur stdDeviation="2"/>
<feColorMatrix type="matrix" values="0 0 0 0 0 0 0 0 0 0 0 0 0 0 0 0 0 0 0.25 0"/>
<feBlend mode="normal" in2="BackgroundImageFix" result="effect1_dropShadow_4658_8"/>
<feBlend mode="normal" in="SourceGraphic" in2="effect1_dropShadow_4658_8" result="shape"/>
</filter>
</defs>
</svg>
