<svg width="417" height="237" viewBox="0 0 417 237" fill="none" xmlns="http://www.w3.org/2000/svg">
<g filter="url(#filter0_d_4658_9)">
<path d="M376.322 112.85C375.803 54.7354 294.036 8.36548 193.691 9.2795C93.346 10.1935 12.4213 58.0454 12.9406 116.16C13.4599 174.274 95.2265 220.644 195.572 219.73C295.916 218.816 376.841 170.964 376.322 112.85Z" fill="white"/>
</g>
<path d="M55.764 94V81.4H60.948C62.064 81.4 63.018 81.58 63.81 81.94C64.614 82.3 65.232 82.816 65.664 83.488C66.096 84.16 66.312 84.958 66.312 85.882C66.312 86.806 66.096 87.604 65.664 88.276C65.232 88.948 64.614 89.464 63.81 89.824C63.018 90.184 62.064 90.364 60.948 90.364H57.06L58.104 89.266V94H55.764ZM58.104 89.518L57.06 88.384H60.84C61.872 88.384 62.646 88.168 63.162 87.736C63.69 87.292 63.954 86.674 63.954 85.882C63.954 85.078 63.69 84.46 63.162 84.028C62.646 83.596 61.872 83.38 60.84 83.38H57.06L58.104 82.228V89.518ZM74.0178 94V92.056L73.8918 91.642V88.24C73.8918 87.58 73.6938 87.07 73.2978 86.71C72.9018 86.338 72.3018 86.152 71.4978 86.152C70.9578 86.152 70.4238 86.236 69.8958 86.404C69.3798 86.572 68.9418 86.806 68.5818 87.106L67.6998 85.468C68.2158 85.072 68.8278 84.778 69.5358 84.586C70.2558 84.382 70.9998 84.28 71.7678 84.28C73.1598 84.28 74.2338 84.616 74.9898 85.288C75.7578 85.948 76.1418 86.974 76.1418 88.366V94H74.0178ZM70.9938 94.126C70.2738 94.126 69.6438 94.006 69.1038 93.766C68.5638 93.514 68.1438 93.172 67.8438 92.74C67.5558 92.296 67.4118 91.798 67.4118 91.246C67.4118 90.706 67.5378 90.22 67.7898 89.788C68.0538 89.356 68.4798 89.014 69.0678 88.762C69.6558 88.51 70.4358 88.384 71.4078 88.384H74.1978V89.878H71.5698C70.8018 89.878 70.2858 90.004 70.0218 90.256C69.7578 90.496 69.6258 90.796 69.6258 91.156C69.6258 91.564 69.7878 91.888 70.1118 92.128C70.4358 92.368 70.8858 92.488 71.4618 92.488C72.0138 92.488 72.5058 92.362 72.9378 92.11C73.3818 91.858 73.6998 91.486 73.8918 90.994L74.2698 92.344C74.0538 92.908 73.6638 93.346 73.0998 93.658C72.5478 93.97 71.8458 94.126 70.9938 94.126ZM83.5161 94.18C82.7241 94.18 82.0161 94.06 81.3921 93.82C80.7681 93.58 80.2281 93.214 79.7721 92.722C79.3281 92.218 78.9861 91.582 78.7461 90.814C78.5061 90.046 78.3861 89.134 78.3861 88.078C78.3861 87.31 78.4521 86.608 78.5841 85.972C78.7161 85.336 78.9141 84.766 79.1781 84.262C79.4421 83.746 79.7721 83.29 80.1681 82.894C80.5761 82.498 81.0501 82.168 81.5901 81.904C82.1301 81.64 82.7421 81.436 83.4261 81.292L87.8901 80.338L88.2141 82.354L84.1641 83.182C83.9361 83.23 83.6601 83.302 83.3361 83.398C83.0241 83.482 82.7001 83.614 82.3641 83.794C82.0401 83.962 81.7341 84.208 81.4461 84.532C81.1701 84.844 80.9421 85.252 80.7621 85.756C80.5941 86.248 80.5101 86.866 80.5101 87.61C80.5101 87.838 80.5161 88.012 80.5281 88.132C80.5521 88.24 80.5701 88.36 80.5821 88.492C80.6061 88.612 80.6181 88.792 80.6181 89.032L79.7721 88.15C80.0121 87.538 80.3421 87.016 80.7621 86.584C81.1941 86.14 81.6921 85.804 82.2561 85.576C82.8321 85.336 83.4561 85.216 84.1281 85.216C85.0281 85.216 85.8261 85.402 86.5221 85.774C87.2181 86.146 87.7641 86.668 88.1601 87.34C88.5561 88.012 88.7541 88.774 88.7541 89.626C88.7541 90.514 88.5381 91.3 88.1061 91.984C87.6741 92.668 87.0621 93.208 86.2701 93.604C85.4901 93.988 84.5721 94.18 83.5161 94.18ZM83.6961 92.362C84.2361 92.362 84.7101 92.248 85.1181 92.02C85.5381 91.78 85.8621 91.456 86.0901 91.048C86.3301 90.64 86.4501 90.184 86.4501 89.68C86.4501 89.176 86.3301 88.738 86.0901 88.366C85.8621 87.982 85.5381 87.676 85.1181 87.448C84.7101 87.22 84.2241 87.106 83.6601 87.106C83.1201 87.106 82.6341 87.214 82.2021 87.43C81.7821 87.646 81.4521 87.946 81.2121 88.33C80.9841 88.702 80.8701 89.134 80.8701 89.626C80.8701 90.13 80.9901 90.592 81.2301 91.012C81.4701 91.432 81.8001 91.762 82.2201 92.002C82.6521 92.242 83.1441 92.362 83.6961 92.362ZM95.2159 94.126C94.2319 94.126 93.3559 93.916 92.5879 93.496C91.8199 93.064 91.2139 92.476 90.7699 91.732C90.3259 90.988 90.1039 90.142 90.1039 89.194C90.1039 88.234 90.3259 87.388 90.7699 86.656C91.2139 85.912 91.8199 85.33 92.5879 84.91C93.3559 84.49 94.2319 84.28 95.2159 84.28C96.2119 84.28 97.0939 84.49 97.8619 84.91C98.6419 85.33 99.2479 85.906 99.6799 86.638C100.124 87.37 100.346 88.222 100.346 89.194C100.346 90.142 100.124 90.988 99.6799 91.732C99.2479 92.476 98.6419 93.064 97.8619 93.496C97.0939 93.916 96.2119 94.126 95.2159 94.126ZM95.2159 92.2C95.7679 92.2 96.2599 92.08 96.6919 91.84C97.1239 91.6 97.4599 91.252 97.6999 90.796C97.9519 90.34 98.0779 89.806 98.0779 89.194C98.0779 88.57 97.9519 88.036 97.6999 87.592C97.4599 87.136 97.1239 86.788 96.6919 86.548C96.2599 86.308 95.7739 86.188 95.2339 86.188C94.6819 86.188 94.1899 86.308 93.7579 86.548C93.3379 86.788 93.0019 87.136 92.7499 87.592C92.4979 88.036 92.3719 88.57 92.3719 89.194C92.3719 89.806 92.4979 90.34 92.7499 90.796C93.0019 91.252 93.3379 91.6 93.7579 91.84C94.1899 92.08 94.6759 92.2 95.2159 92.2ZM104.215 94V85.756L104.737 86.296H100.831V84.388H109.831V86.296H105.943L106.465 85.756V94H104.215ZM115.325 94.126C114.341 94.126 113.465 93.916 112.697 93.496C111.929 93.064 111.323 92.476 110.879 91.732C110.435 90.988 110.213 90.142 110.213 89.194C110.213 88.234 110.435 87.388 110.879 86.656C111.323 85.912 111.929 85.33 112.697 84.91C113.465 84.49 114.341 84.28 115.325 84.28C116.321 84.28 117.203 84.49 117.971 84.91C118.751 85.33 119.357 85.906 119.789 86.638C120.233 87.37 120.455 88.222 120.455 89.194C120.455 90.142 120.233 90.988 119.789 91.732C119.357 92.476 118.751 93.064 117.971 93.496C117.203 93.916 116.321 94.126 115.325 94.126ZM115.325 92.2C115.877 92.2 116.369 92.08 116.801 91.84C117.233 91.6 117.569 91.252 117.809 90.796C118.061 90.34 118.187 89.806 118.187 89.194C118.187 88.57 118.061 88.036 117.809 87.592C117.569 87.136 117.233 86.788 116.801 86.548C116.369 86.308 115.883 86.188 115.343 86.188C114.791 86.188 114.299 86.308 113.867 86.548C113.447 86.788 113.111 87.136 112.859 87.592C112.607 88.036 112.481 88.57 112.481 89.194C112.481 89.806 112.607 90.34 112.859 90.796C113.111 91.252 113.447 91.6 113.867 91.84C114.299 92.08 114.785 92.2 115.325 92.2ZM129.161 92.956V86.296H125.471L125.417 87.844C125.393 88.396 125.357 88.93 125.309 89.446C125.261 89.95 125.183 90.418 125.075 90.85C124.967 91.27 124.811 91.618 124.607 91.894C124.403 92.17 124.133 92.35 123.797 92.434L121.565 92.092C121.925 92.092 122.213 91.978 122.429 91.75C122.657 91.51 122.831 91.186 122.951 90.778C123.083 90.358 123.179 89.884 123.239 89.356C123.299 88.816 123.341 88.258 123.365 87.682L123.491 84.388H131.411V92.956H129.161ZM121.223 96.142V92.092H132.833V96.142H130.727V94H123.311V96.142H121.223ZM140.674 94V92.056L140.548 91.642V88.24C140.548 87.58 140.35 87.07 139.954 86.71C139.558 86.338 138.958 86.152 138.154 86.152C137.614 86.152 137.08 86.236 136.552 86.404C136.036 86.572 135.598 86.806 135.238 87.106L134.356 85.468C134.872 85.072 135.484 84.778 136.192 84.586C136.912 84.382 137.656 84.28 138.424 84.28C139.816 84.28 140.89 84.616 141.646 85.288C142.414 85.948 142.798 86.974 142.798 88.366V94H140.674ZM137.65 94.126C136.93 94.126 136.3 94.006 135.76 93.766C135.22 93.514 134.8 93.172 134.5 92.74C134.212 92.296 134.068 91.798 134.068 91.246C134.068 90.706 134.194 90.22 134.446 89.788C134.71 89.356 135.136 89.014 135.724 88.762C136.312 88.51 137.092 88.384 138.064 88.384H140.854V89.878H138.226C137.458 89.878 136.942 90.004 136.678 90.256C136.414 90.496 136.282 90.796 136.282 91.156C136.282 91.564 136.444 91.888 136.768 92.128C137.092 92.368 137.542 92.488 138.118 92.488C138.67 92.488 139.162 92.362 139.594 92.11C140.038 91.858 140.356 91.486 140.548 90.994L140.926 92.344C140.71 92.908 140.32 93.346 139.756 93.658C139.204 93.97 138.502 94.126 137.65 94.126ZM147.58 94V85.756L148.102 86.296H144.196V84.388H153.196V86.296H149.308L149.83 85.756V94H147.58ZM158.889 94.126C157.821 94.126 156.885 93.916 156.081 93.496C155.289 93.064 154.671 92.476 154.227 91.732C153.795 90.988 153.579 90.142 153.579 89.194C153.579 88.234 153.789 87.388 154.209 86.656C154.641 85.912 155.229 85.33 155.973 84.91C156.729 84.49 157.587 84.28 158.547 84.28C159.483 84.28 160.317 84.484 161.049 84.892C161.781 85.3 162.357 85.876 162.777 86.62C163.197 87.364 163.407 88.24 163.407 89.248C163.407 89.344 163.401 89.452 163.389 89.572C163.389 89.692 163.383 89.806 163.371 89.914H155.361V88.42H162.183L161.301 88.888C161.313 88.336 161.199 87.85 160.959 87.43C160.719 87.01 160.389 86.68 159.969 86.44C159.561 86.2 159.087 86.08 158.547 86.08C157.995 86.08 157.509 86.2 157.089 86.44C156.681 86.68 156.357 87.016 156.117 87.448C155.889 87.868 155.775 88.366 155.775 88.942V89.302C155.775 89.878 155.907 90.388 156.171 90.832C156.435 91.276 156.807 91.618 157.287 91.858C157.767 92.098 158.319 92.218 158.943 92.218C159.483 92.218 159.969 92.134 160.401 91.966C160.833 91.798 161.217 91.534 161.553 91.174L162.759 92.56C162.327 93.064 161.781 93.454 161.121 93.73C160.473 93.994 159.729 94.126 158.889 94.126ZM164.34 93.982L164.448 92.092C164.532 92.104 164.61 92.116 164.682 92.128C164.754 92.14 164.82 92.146 164.88 92.146C165.252 92.146 165.54 92.032 165.744 91.804C165.948 91.576 166.098 91.27 166.194 90.886C166.302 90.49 166.374 90.052 166.41 89.572C166.458 89.08 166.494 88.588 166.518 88.096L166.68 84.388H174.456V94H172.206V85.684L172.728 86.296H168.156L168.642 85.666L168.516 88.204C168.48 89.056 168.408 89.848 168.3 90.58C168.204 91.3 168.048 91.93 167.832 92.47C167.628 93.01 167.34 93.43 166.968 93.73C166.608 94.03 166.146 94.18 165.582 94.18C165.402 94.18 165.204 94.162 164.988 94.126C164.784 94.09 164.568 94.042 164.34 93.982ZM182.311 87.556C183.547 87.556 184.489 87.832 185.137 88.384C185.785 88.936 186.109 89.716 186.109 90.724C186.109 91.768 185.749 92.584 185.029 93.172C184.309 93.748 183.295 94.03 181.987 94.018L177.487 94V84.388H179.737V87.538L182.311 87.556ZM181.789 92.362C182.449 92.374 182.953 92.236 183.301 91.948C183.649 91.66 183.823 91.24 183.823 90.688C183.823 90.136 183.649 89.74 183.301 89.5C182.965 89.248 182.461 89.116 181.789 89.104L179.737 89.086V92.344L181.789 92.362ZM193.061 94V84.388H195.311V88.294H200.153V84.388H202.403V94H200.153V90.202H195.311V94H193.061ZM209.9 94.126C208.832 94.126 207.896 93.916 207.092 93.496C206.3 93.064 205.682 92.476 205.238 91.732C204.806 90.988 204.59 90.142 204.59 89.194C204.59 88.234 204.8 87.388 205.22 86.656C205.652 85.912 206.24 85.33 206.984 84.91C207.74 84.49 208.598 84.28 209.558 84.28C210.494 84.28 211.328 84.484 212.06 84.892C212.792 85.3 213.368 85.876 213.788 86.62C214.208 87.364 214.418 88.24 214.418 89.248C214.418 89.344 214.412 89.452 214.4 89.572C214.4 89.692 214.394 89.806 214.382 89.914H206.372V88.42H213.194L212.312 88.888C212.324 88.336 212.21 87.85 211.97 87.43C211.73 87.01 211.4 86.68 210.98 86.44C210.572 86.2 210.098 86.08 209.558 86.08C209.006 86.08 208.52 86.2 208.1 86.44C207.692 86.68 207.368 87.016 207.128 87.448C206.9 87.868 206.786 88.366 206.786 88.942V89.302C206.786 89.878 206.918 90.388 207.182 90.832C207.446 91.276 207.818 91.618 208.298 91.858C208.778 92.098 209.33 92.218 209.954 92.218C210.494 92.218 210.98 92.134 211.412 91.966C211.844 91.798 212.228 91.534 212.564 91.174L213.77 92.56C213.338 93.064 212.792 93.454 212.132 93.73C211.484 93.994 210.74 94.126 209.9 94.126ZM221.854 94V84.388H226.552C227.716 84.388 228.628 84.604 229.288 85.036C229.96 85.468 230.296 86.08 230.296 86.872C230.296 87.652 229.984 88.264 229.36 88.708C228.736 89.14 227.908 89.356 226.876 89.356L227.146 88.798C228.31 88.798 229.174 89.014 229.738 89.446C230.314 89.866 230.602 90.484 230.602 91.3C230.602 92.152 230.284 92.818 229.648 93.298C229.012 93.766 228.046 94 226.75 94H221.854ZM223.996 92.362H226.57C227.182 92.362 227.644 92.266 227.956 92.074C228.268 91.87 228.424 91.564 228.424 91.156C228.424 90.724 228.28 90.406 227.992 90.202C227.704 89.998 227.254 89.896 226.642 89.896H223.996V92.362ZM223.996 88.402H226.354C226.93 88.402 227.362 88.3 227.65 88.096C227.95 87.88 228.1 87.58 228.1 87.196C228.1 86.8 227.95 86.506 227.65 86.314C227.362 86.122 226.93 86.026 226.354 86.026H223.996V88.402ZM242.7 94V84.388H244.95V94H242.7ZM237.678 87.556C238.914 87.556 239.85 87.832 240.486 88.384C241.134 88.936 241.458 89.716 241.458 90.724C241.458 91.768 241.098 92.584 240.378 93.172C239.67 93.748 238.662 94.03 237.354 94.018L232.998 94V84.388H235.248V87.538L237.678 87.556ZM237.156 92.362C237.816 92.374 238.32 92.236 238.668 91.948C239.016 91.66 239.19 91.24 239.19 90.688C239.19 90.136 239.016 89.74 238.668 89.5C238.332 89.248 237.828 89.116 237.156 89.104L235.248 89.086V92.344L237.156 92.362ZM247.975 94V84.388H257.191V94H254.959V85.774L255.481 86.296H249.703L250.225 85.774V94H247.975ZM258.823 93.982L258.931 92.092C259.015 92.104 259.093 92.116 259.165 92.128C259.237 92.14 259.303 92.146 259.363 92.146C259.735 92.146 260.023 92.032 260.227 91.804C260.431 91.576 260.581 91.27 260.677 90.886C260.785 90.49 260.857 90.052 260.893 89.572C260.941 89.08 260.977 88.588 261.001 88.096L261.163 84.388H268.939V94H266.689V85.684L267.211 86.296H262.639L263.125 85.666L262.999 88.204C262.963 89.056 262.891 89.848 262.783 90.58C262.687 91.3 262.531 91.93 262.315 92.47C262.111 93.01 261.823 93.43 261.451 93.73C261.091 94.03 260.629 94.18 260.065 94.18C259.885 94.18 259.687 94.162 259.471 94.126C259.267 94.09 259.051 94.042 258.823 93.982ZM277.801 94V92.056L277.675 91.642V88.24C277.675 87.58 277.477 87.07 277.081 86.71C276.685 86.338 276.085 86.152 275.281 86.152C274.741 86.152 274.207 86.236 273.679 86.404C273.163 86.572 272.725 86.806 272.365 87.106L271.483 85.468C271.999 85.072 272.611 84.778 273.319 84.586C274.039 84.382 274.783 84.28 275.551 84.28C276.943 84.28 278.017 84.616 278.773 85.288C279.541 85.948 279.925 86.974 279.925 88.366V94H277.801ZM274.777 94.126C274.057 94.126 273.427 94.006 272.887 93.766C272.347 93.514 271.927 93.172 271.627 92.74C271.339 92.296 271.195 91.798 271.195 91.246C271.195 90.706 271.321 90.22 271.573 89.788C271.837 89.356 272.263 89.014 272.851 88.762C273.439 88.51 274.219 88.384 275.191 88.384H277.981V89.878H275.353C274.585 89.878 274.069 90.004 273.805 90.256C273.541 90.496 273.409 90.796 273.409 91.156C273.409 91.564 273.571 91.888 273.895 92.128C274.219 92.368 274.669 92.488 275.245 92.488C275.797 92.488 276.289 92.362 276.721 92.11C277.165 91.858 277.483 91.486 277.675 90.994L278.053 92.344C277.837 92.908 277.447 93.346 276.883 93.658C276.331 93.97 275.629 94.126 274.777 94.126ZM288.775 90.202C288.319 90.418 287.833 90.598 287.317 90.742C286.813 90.874 286.279 90.94 285.715 90.94C284.503 90.94 283.561 90.658 282.889 90.094C282.217 89.53 281.881 88.654 281.881 87.466V84.388H284.131V87.322C284.131 87.958 284.311 88.42 284.671 88.708C285.043 88.996 285.553 89.14 286.201 89.14C286.633 89.14 287.065 89.086 287.497 88.978C287.929 88.87 288.355 88.72 288.775 88.528V90.202ZM288.613 94V84.388H290.863V94H288.613ZM293.889 94V84.388H296.139V90.724L301.449 84.388H303.501V94H301.251V87.664L295.959 94H293.889ZM306.528 94V84.388H311.226C312.39 84.388 313.302 84.604 313.962 85.036C314.634 85.468 314.97 86.08 314.97 86.872C314.97 87.652 314.658 88.264 314.034 88.708C313.41 89.14 312.582 89.356 311.55 89.356L311.82 88.798C312.984 88.798 313.848 89.014 314.412 89.446C314.988 89.866 315.276 90.484 315.276 91.3C315.276 92.152 314.958 92.818 314.322 93.298C313.686 93.766 312.72 94 311.424 94H306.528ZM308.67 92.362H311.244C311.856 92.362 312.318 92.266 312.63 92.074C312.942 91.87 313.098 91.564 313.098 91.156C313.098 90.724 312.954 90.406 312.666 90.202C312.378 89.998 311.928 89.896 311.316 89.896H308.67V92.362ZM308.67 88.402H311.028C311.604 88.402 312.036 88.3 312.324 88.096C312.624 87.88 312.774 87.58 312.774 87.196C312.774 86.8 312.624 86.506 312.324 86.314C312.036 86.122 311.604 86.026 311.028 86.026H308.67V88.402ZM323.504 94V92.056L323.378 91.642V88.24C323.378 87.58 323.18 87.07 322.784 86.71C322.388 86.338 321.788 86.152 320.984 86.152C320.444 86.152 319.91 86.236 319.382 86.404C318.866 86.572 318.428 86.806 318.068 87.106L317.186 85.468C317.702 85.072 318.314 84.778 319.022 84.586C319.742 84.382 320.486 84.28 321.254 84.28C322.646 84.28 323.72 84.616 324.476 85.288C325.244 85.948 325.628 86.974 325.628 88.366V94H323.504ZM320.48 94.126C319.76 94.126 319.13 94.006 318.59 93.766C318.05 93.514 317.63 93.172 317.33 92.74C317.042 92.296 316.898 91.798 316.898 91.246C316.898 90.706 317.024 90.22 317.276 89.788C317.54 89.356 317.966 89.014 318.554 88.762C319.142 88.51 319.922 88.384 320.894 88.384H323.684V89.878H321.056C320.288 89.878 319.772 90.004 319.508 90.256C319.244 90.496 319.112 90.796 319.112 91.156C319.112 91.564 319.274 91.888 319.598 92.128C319.922 92.368 320.372 92.488 320.948 92.488C321.5 92.488 321.992 92.362 322.424 92.11C322.868 91.858 323.186 91.486 323.378 90.994L323.756 92.344C323.54 92.908 323.15 93.346 322.586 93.658C322.034 93.97 321.332 94.126 320.48 94.126ZM332.894 94.126C331.826 94.126 330.89 93.916 330.086 93.496C329.294 93.064 328.676 92.476 328.232 91.732C327.8 90.988 327.584 90.142 327.584 89.194C327.584 88.234 327.794 87.388 328.214 86.656C328.646 85.912 329.234 85.33 329.978 84.91C330.734 84.49 331.592 84.28 332.552 84.28C333.488 84.28 334.322 84.484 335.054 84.892C335.786 85.3 336.362 85.876 336.782 86.62C337.202 87.364 337.412 88.24 337.412 89.248C337.412 89.344 337.406 89.452 337.394 89.572C337.394 89.692 337.388 89.806 337.376 89.914H329.366V88.42H336.188L335.306 88.888C335.318 88.336 335.204 87.85 334.964 87.43C334.724 87.01 334.394 86.68 333.974 86.44C333.566 86.2 333.092 86.08 332.552 86.08C332 86.08 331.514 86.2 331.094 86.44C330.686 86.68 330.362 87.016 330.122 87.448C329.894 87.868 329.78 88.366 329.78 88.942V89.302C329.78 89.878 329.912 90.388 330.176 90.832C330.44 91.276 330.812 91.618 331.292 91.858C331.772 92.098 332.324 92.218 332.948 92.218C333.488 92.218 333.974 92.134 334.406 91.966C334.838 91.798 335.222 91.534 335.558 91.174L336.764 92.56C336.332 93.064 335.786 93.454 335.126 93.73C334.478 93.994 333.734 94.126 332.894 94.126ZM341.502 94V85.756L342.024 86.296H338.118V84.388H347.118V86.296H343.23L343.752 85.756V94H341.502ZM58.554 121.162C57.822 121.162 57.096 121.078 56.376 120.91C55.668 120.73 55.026 120.478 54.45 120.154L55.08 118.48C55.548 118.744 56.076 118.948 56.664 119.092C57.252 119.236 57.84 119.308 58.428 119.308C58.932 119.308 59.364 119.26 59.724 119.164C60.084 119.056 60.36 118.9 60.552 118.696C60.756 118.492 60.858 118.258 60.858 117.994C60.858 117.61 60.69 117.322 60.354 117.13C60.03 116.926 59.562 116.824 58.95 116.824H57.096V115.312H58.77C59.154 115.312 59.478 115.27 59.742 115.186C60.018 115.102 60.228 114.976 60.372 114.808C60.516 114.64 60.588 114.442 60.588 114.214C60.588 113.986 60.498 113.788 60.318 113.62C60.15 113.44 59.904 113.308 59.58 113.224C59.256 113.128 58.866 113.08 58.41 113.08C57.93 113.08 57.432 113.14 56.916 113.26C56.412 113.38 55.896 113.554 55.368 113.782L54.792 112.126C55.404 111.85 55.998 111.64 56.574 111.496C57.162 111.34 57.744 111.256 58.32 111.244C59.196 111.208 59.976 111.298 60.66 111.514C61.344 111.73 61.884 112.042 62.28 112.45C62.676 112.858 62.874 113.338 62.874 113.89C62.874 114.346 62.73 114.76 62.442 115.132C62.166 115.492 61.782 115.774 61.29 115.978C60.81 116.182 60.258 116.284 59.634 116.284L59.706 115.798C60.774 115.798 61.614 116.014 62.226 116.446C62.838 116.866 63.144 117.442 63.144 118.174C63.144 118.762 62.946 119.284 62.55 119.74C62.154 120.184 61.608 120.532 60.912 120.784C60.228 121.036 59.442 121.162 58.554 121.162ZM71.2932 121V119.056L71.1672 118.642V115.24C71.1672 114.58 70.9692 114.07 70.5732 113.71C70.1772 113.338 69.5772 113.152 68.7732 113.152C68.2332 113.152 67.6992 113.236 67.1712 113.404C66.6552 113.572 66.2172 113.806 65.8572 114.106L64.9752 112.468C65.4912 112.072 66.1032 111.778 66.8112 111.586C67.5312 111.382 68.2752 111.28 69.0432 111.28C70.4352 111.28 71.5092 111.616 72.2652 112.288C73.0332 112.948 73.4172 113.974 73.4172 115.366V121H71.2932ZM68.2692 121.126C67.5492 121.126 66.9192 121.006 66.3792 120.766C65.8392 120.514 65.4192 120.172 65.1192 119.74C64.8312 119.296 64.6872 118.798 64.6872 118.246C64.6872 117.706 64.8132 117.22 65.0652 116.788C65.3292 116.356 65.7552 116.014 66.3432 115.762C66.9312 115.51 67.7112 115.384 68.6832 115.384H71.4732V116.878H68.8452C68.0772 116.878 67.5612 117.004 67.2972 117.256C67.0332 117.496 66.9012 117.796 66.9012 118.156C66.9012 118.564 67.0632 118.888 67.3872 119.128C67.7112 119.368 68.1612 119.488 68.7372 119.488C69.2892 119.488 69.7812 119.362 70.2132 119.11C70.6572 118.858 70.9752 118.486 71.1672 117.994L71.5452 119.344C71.3292 119.908 70.9392 120.346 70.3752 120.658C69.8232 120.97 69.1212 121.126 68.2692 121.126ZM81.5295 121.126C80.7495 121.126 80.0355 120.946 79.3875 120.586C78.7515 120.226 78.2415 119.686 77.8575 118.966C77.4855 118.234 77.2995 117.31 77.2995 116.194C77.2995 115.066 77.4795 114.142 77.8395 113.422C78.2115 112.702 78.7155 112.168 79.3515 111.82C79.9875 111.46 80.7135 111.28 81.5295 111.28C82.4775 111.28 83.3115 111.484 84.0315 111.892C84.7635 112.3 85.3395 112.87 85.7595 113.602C86.1915 114.334 86.4075 115.198 86.4075 116.194C86.4075 117.19 86.1915 118.06 85.7595 118.804C85.3395 119.536 84.7635 120.106 84.0315 120.514C83.3115 120.922 82.4775 121.126 81.5295 121.126ZM76.2015 124.492V111.388H78.3435V113.656L78.2715 116.212L78.4515 118.768V124.492H76.2015ZM81.2775 119.2C81.8175 119.2 82.2975 119.08 82.7175 118.84C83.1495 118.6 83.4915 118.252 83.7435 117.796C83.9955 117.34 84.1215 116.806 84.1215 116.194C84.1215 115.57 83.9955 115.036 83.7435 114.592C83.4915 114.136 83.1495 113.788 82.7175 113.548C82.2975 113.308 81.8175 113.188 81.2775 113.188C80.7375 113.188 80.2515 113.308 79.8195 113.548C79.3875 113.788 79.0455 114.136 78.7935 114.592C78.5415 115.036 78.4155 115.57 78.4155 116.194C78.4155 116.806 78.5415 117.34 78.7935 117.796C79.0455 118.252 79.3875 118.6 79.8195 118.84C80.2515 119.08 80.7375 119.2 81.2775 119.2ZM94.3557 121V119.056L94.2297 118.642V115.24C94.2297 114.58 94.0317 114.07 93.6357 113.71C93.2397 113.338 92.6397 113.152 91.8357 113.152C91.2957 113.152 90.7617 113.236 90.2337 113.404C89.7177 113.572 89.2797 113.806 88.9197 114.106L88.0377 112.468C88.5537 112.072 89.1657 111.778 89.8737 111.586C90.5937 111.382 91.3377 111.28 92.1057 111.28C93.4977 111.28 94.5717 111.616 95.3277 112.288C96.0957 112.948 96.4797 113.974 96.4797 115.366V121H94.3557ZM91.3317 121.126C90.6117 121.126 89.9817 121.006 89.4417 120.766C88.9017 120.514 88.4817 120.172 88.1817 119.74C87.8937 119.296 87.7497 118.798 87.7497 118.246C87.7497 117.706 87.8757 117.22 88.1277 116.788C88.3917 116.356 88.8177 116.014 89.4057 115.762C89.9937 115.51 90.7737 115.384 91.7457 115.384H94.5357V116.878H91.9077C91.1397 116.878 90.6237 117.004 90.3597 117.256C90.0957 117.496 89.9637 117.796 89.9637 118.156C89.9637 118.564 90.1257 118.888 90.4497 119.128C90.7737 119.368 91.2237 119.488 91.7997 119.488C92.3517 119.488 92.8437 119.362 93.2757 119.11C93.7197 118.858 94.0377 118.486 94.2297 117.994L94.6077 119.344C94.3917 119.908 94.0017 120.346 93.4377 120.658C92.8857 120.97 92.1837 121.126 91.3317 121.126ZM103.854 121.18C103.062 121.18 102.354 121.06 101.73 120.82C101.106 120.58 100.566 120.214 100.11 119.722C99.666 119.218 99.324 118.582 99.084 117.814C98.844 117.046 98.724 116.134 98.724 115.078C98.724 114.31 98.79 113.608 98.922 112.972C99.054 112.336 99.252 111.766 99.516 111.262C99.78 110.746 100.11 110.29 100.506 109.894C100.914 109.498 101.388 109.168 101.928 108.904C102.468 108.64 103.08 108.436 103.764 108.292L108.228 107.338L108.552 109.354L104.502 110.182C104.274 110.23 103.998 110.302 103.674 110.398C103.362 110.482 103.038 110.614 102.702 110.794C102.378 110.962 102.072 111.208 101.784 111.532C101.508 111.844 101.28 112.252 101.1 112.756C100.932 113.248 100.848 113.866 100.848 114.61C100.848 114.838 100.854 115.012 100.866 115.132C100.89 115.24 100.908 115.36 100.92 115.492C100.944 115.612 100.956 115.792 100.956 116.032L100.11 115.15C100.35 114.538 100.68 114.016 101.1 113.584C101.532 113.14 102.03 112.804 102.594 112.576C103.17 112.336 103.794 112.216 104.466 112.216C105.366 112.216 106.164 112.402 106.86 112.774C107.556 113.146 108.102 113.668 108.498 114.34C108.894 115.012 109.092 115.774 109.092 116.626C109.092 117.514 108.876 118.3 108.444 118.984C108.012 119.668 107.4 120.208 106.608 120.604C105.828 120.988 104.91 121.18 103.854 121.18ZM104.034 119.362C104.574 119.362 105.048 119.248 105.456 119.02C105.876 118.78 106.2 118.456 106.428 118.048C106.668 117.64 106.788 117.184 106.788 116.68C106.788 116.176 106.668 115.738 106.428 115.366C106.2 114.982 105.876 114.676 105.456 114.448C105.048 114.22 104.562 114.106 103.998 114.106C103.458 114.106 102.972 114.214 102.54 114.43C102.12 114.646 101.79 114.946 101.55 115.33C101.322 115.702 101.208 116.134 101.208 116.626C101.208 117.13 101.328 117.592 101.568 118.012C101.808 118.432 102.138 118.762 102.558 119.002C102.99 119.242 103.482 119.362 104.034 119.362ZM115.554 121.126C114.57 121.126 113.694 120.916 112.926 120.496C112.158 120.064 111.552 119.476 111.108 118.732C110.664 117.988 110.442 117.142 110.442 116.194C110.442 115.234 110.664 114.388 111.108 113.656C111.552 112.912 112.158 112.33 112.926 111.91C113.694 111.49 114.57 111.28 115.554 111.28C116.55 111.28 117.432 111.49 118.2 111.91C118.98 112.33 119.586 112.906 120.018 113.638C120.462 114.37 120.684 115.222 120.684 116.194C120.684 117.142 120.462 117.988 120.018 118.732C119.586 119.476 118.98 120.064 118.2 120.496C117.432 120.916 116.55 121.126 115.554 121.126ZM115.554 119.2C116.106 119.2 116.598 119.08 117.03 118.84C117.462 118.6 117.798 118.252 118.038 117.796C118.29 117.34 118.416 116.806 118.416 116.194C118.416 115.57 118.29 115.036 118.038 114.592C117.798 114.136 117.462 113.788 117.03 113.548C116.598 113.308 116.112 113.188 115.572 113.188C115.02 113.188 114.528 113.308 114.096 113.548C113.676 113.788 113.34 114.136 113.088 114.592C112.836 115.036 112.71 115.57 112.71 116.194C112.71 116.806 112.836 117.34 113.088 117.796C113.34 118.252 113.676 118.6 114.096 118.84C114.528 119.08 115.014 119.2 115.554 119.2ZM124.553 121V112.756L125.075 113.296H121.169V111.388H130.169V113.296H126.281L126.803 112.756V121H124.553ZM131.801 121V111.388H134.051V115.294H138.893V111.388H141.143V121H138.893V117.202H134.051V121H131.801ZM145.022 124.618C144.554 124.618 144.086 124.54 143.618 124.384C143.15 124.228 142.76 124.012 142.448 123.736L143.348 122.08C143.576 122.284 143.834 122.446 144.122 122.566C144.41 122.686 144.704 122.746 145.004 122.746C145.412 122.746 145.742 122.644 145.994 122.44C146.246 122.236 146.48 121.894 146.696 121.414L147.254 120.154L147.434 119.884L151.07 111.388H153.23L148.73 121.774C148.43 122.494 148.094 123.064 147.722 123.484C147.362 123.904 146.954 124.198 146.498 124.366C146.054 124.534 145.562 124.618 145.022 124.618ZM147.002 121.342L142.664 111.388H145.004L148.532 119.686L147.002 121.342ZM154.793 121V111.388H157.043V115.114H159.905V117.148H157.043V121H154.793ZM163.577 121.126C162.617 121.126 161.759 120.916 161.003 120.496C160.259 120.064 159.671 119.476 159.239 118.732C158.807 117.988 158.591 117.142 158.591 116.194C158.591 115.234 158.807 114.382 159.239 113.638C159.671 112.894 160.259 112.318 161.003 111.91C161.759 111.49 162.617 111.28 163.577 111.28C164.549 111.28 165.407 111.49 166.151 111.91C166.907 112.318 167.501 112.894 167.933 113.638C168.365 114.382 168.581 115.234 168.581 116.194C168.581 117.142 168.365 117.994 167.933 118.75C167.501 119.494 166.907 120.076 166.151 120.496C165.407 120.916 164.549 121.126 163.577 121.126ZM163.577 119.218C164.117 119.218 164.591 119.092 164.999 118.84C165.419 118.588 165.749 118.24 165.989 117.796C166.229 117.352 166.349 116.818 166.349 116.194C166.349 115.57 166.229 115.036 165.989 114.592C165.749 114.136 165.419 113.788 164.999 113.548C164.591 113.308 164.123 113.188 163.595 113.188C163.067 113.188 162.593 113.308 162.173 113.548C161.753 113.788 161.423 114.136 161.183 114.592C160.943 115.036 160.823 115.57 160.823 116.194C160.823 116.818 160.943 117.352 161.183 117.796C161.423 118.24 161.753 118.588 162.173 118.84C162.593 119.092 163.061 119.218 163.577 119.218ZM175.764 121V111.388H184.98V121H182.748V112.774L183.27 113.296H177.492L178.014 112.774V121H175.764ZM186.612 120.982L186.72 119.092C186.804 119.104 186.882 119.116 186.954 119.128C187.026 119.14 187.092 119.146 187.152 119.146C187.524 119.146 187.812 119.032 188.016 118.804C188.22 118.576 188.37 118.27 188.466 117.886C188.574 117.49 188.646 117.052 188.682 116.572C188.73 116.08 188.766 115.588 188.79 115.096L188.952 111.388H196.728V121H194.478V112.684L195 113.296H190.428L190.914 112.666L190.788 115.204C190.752 116.056 190.68 116.848 190.572 117.58C190.476 118.3 190.32 118.93 190.104 119.47C189.9 120.01 189.612 120.43 189.24 120.73C188.88 121.03 188.418 121.18 187.854 121.18C187.674 121.18 187.476 121.162 187.26 121.126C187.056 121.09 186.84 121.042 186.612 120.982ZM205.59 121V119.056L205.464 118.642V115.24C205.464 114.58 205.266 114.07 204.87 113.71C204.474 113.338 203.874 113.152 203.07 113.152C202.53 113.152 201.996 113.236 201.468 113.404C200.952 113.572 200.514 113.806 200.154 114.106L199.272 112.468C199.788 112.072 200.4 111.778 201.108 111.586C201.828 111.382 202.572 111.28 203.34 111.28C204.732 111.28 205.806 111.616 206.562 112.288C207.33 112.948 207.714 113.974 207.714 115.366V121H205.59ZM202.566 121.126C201.846 121.126 201.216 121.006 200.676 120.766C200.136 120.514 199.716 120.172 199.416 119.74C199.128 119.296 198.984 118.798 198.984 118.246C198.984 117.706 199.11 117.22 199.362 116.788C199.626 116.356 200.052 116.014 200.64 115.762C201.228 115.51 202.008 115.384 202.98 115.384H205.77V116.878H203.142C202.374 116.878 201.858 117.004 201.594 117.256C201.33 117.496 201.198 117.796 201.198 118.156C201.198 118.564 201.36 118.888 201.684 119.128C202.008 119.368 202.458 119.488 203.034 119.488C203.586 119.488 204.078 119.362 204.51 119.11C204.954 118.858 205.272 118.486 205.464 117.994L205.842 119.344C205.626 119.908 205.236 120.346 204.672 120.658C204.12 120.97 203.418 121.126 202.566 121.126ZM212.496 121V112.756L213.018 113.296H209.112V111.388H218.112V113.296H214.224L214.746 112.756V121H212.496ZM220.626 124.618C220.158 124.618 219.69 124.54 219.222 124.384C218.754 124.228 218.364 124.012 218.052 123.736L218.952 122.08C219.18 122.284 219.438 122.446 219.726 122.566C220.014 122.686 220.308 122.746 220.608 122.746C221.016 122.746 221.346 122.644 221.598 122.44C221.85 122.236 222.084 121.894 222.3 121.414L222.858 120.154L223.038 119.884L226.674 111.388H228.834L224.334 121.774C224.034 122.494 223.698 123.064 223.326 123.484C222.966 123.904 222.558 124.198 222.102 124.366C221.658 124.534 221.166 124.618 220.626 124.618ZM222.606 121.342L218.268 111.388H220.608L224.136 119.686L222.606 121.342ZM235.371 121V111.388H237.621V117.724L242.931 111.388H244.983V121H242.733V114.664L237.441 121H235.371ZM246.606 120.982L246.714 119.092C246.798 119.104 246.876 119.116 246.948 119.128C247.02 119.14 247.086 119.146 247.146 119.146C247.518 119.146 247.806 119.032 248.01 118.804C248.214 118.576 248.364 118.27 248.46 117.886C248.568 117.49 248.64 117.052 248.676 116.572C248.724 116.08 248.76 115.588 248.784 115.096L248.946 111.388H256.722V121H254.472V112.684L254.994 113.296H250.422L250.908 112.666L250.782 115.204C250.746 116.056 250.674 116.848 250.566 117.58C250.47 118.3 250.314 118.93 250.098 119.47C249.894 120.01 249.606 120.43 249.234 120.73C248.874 121.03 248.412 121.18 247.848 121.18C247.668 121.18 247.47 121.162 247.254 121.126C247.05 121.09 246.834 121.042 246.606 120.982ZM259.752 121V111.388H262.002V117.724L267.312 111.388H269.364V121H267.114V114.664L261.822 121H259.752ZM55.512 148V138.388H64.728V148H62.496V139.774L63.018 140.296H57.24L57.762 139.774V148H55.512ZM73.092 148.126C72.312 148.126 71.598 147.946 70.95 147.586C70.314 147.226 69.804 146.686 69.42 145.966C69.048 145.234 68.862 144.31 68.862 143.194C68.862 142.066 69.042 141.142 69.402 140.422C69.774 139.702 70.278 139.168 70.914 138.82C71.55 138.46 72.276 138.28 73.092 138.28C74.04 138.28 74.874 138.484 75.594 138.892C76.326 139.3 76.902 139.87 77.322 140.602C77.754 141.334 77.97 142.198 77.97 143.194C77.97 144.19 77.754 145.06 77.322 145.804C76.902 146.536 76.326 147.106 75.594 147.514C74.874 147.922 74.04 148.126 73.092 148.126ZM67.764 151.492V138.388H69.906V140.656L69.834 143.212L70.014 145.768V151.492H67.764ZM72.84 146.2C73.38 146.2 73.86 146.08 74.28 145.84C74.712 145.6 75.054 145.252 75.306 144.796C75.558 144.34 75.684 143.806 75.684 143.194C75.684 142.57 75.558 142.036 75.306 141.592C75.054 141.136 74.712 140.788 74.28 140.548C73.86 140.308 73.38 140.188 72.84 140.188C72.3 140.188 71.814 140.308 71.382 140.548C70.95 140.788 70.608 141.136 70.356 141.592C70.104 142.036 69.978 142.57 69.978 143.194C69.978 143.806 70.104 144.34 70.356 144.796C70.608 145.252 70.95 145.6 71.382 145.84C71.814 146.08 72.3 146.2 72.84 146.2ZM84.4933 148.126C83.5093 148.126 82.6333 147.916 81.8653 147.496C81.0973 147.064 80.4913 146.476 80.0473 145.732C79.6033 144.988 79.3813 144.142 79.3813 143.194C79.3813 142.234 79.6033 141.388 80.0473 140.656C80.4913 139.912 81.0973 139.33 81.8653 138.91C82.6333 138.49 83.5093 138.28 84.4933 138.28C85.4893 138.28 86.3713 138.49 87.1393 138.91C87.9193 139.33 88.5253 139.906 88.9573 140.638C89.4013 141.37 89.6233 142.222 89.6233 143.194C89.6233 144.142 89.4013 144.988 88.9573 145.732C88.5253 146.476 87.9193 147.064 87.1393 147.496C86.3713 147.916 85.4893 148.126 84.4933 148.126ZM84.4933 146.2C85.0453 146.2 85.5373 146.08 85.9693 145.84C86.4013 145.6 86.7373 145.252 86.9773 144.796C87.2293 144.34 87.3553 143.806 87.3553 143.194C87.3553 142.57 87.2293 142.036 86.9773 141.592C86.7373 141.136 86.4013 140.788 85.9693 140.548C85.5373 140.308 85.0513 140.188 84.5113 140.188C83.9593 140.188 83.4673 140.308 83.0353 140.548C82.6153 140.788 82.2793 141.136 82.0273 141.592C81.7753 142.036 81.6493 142.57 81.6493 143.194C81.6493 143.806 81.7753 144.34 82.0273 144.796C82.2793 145.252 82.6153 145.6 83.0353 145.84C83.4673 146.08 83.9533 146.2 84.4933 146.2ZM91.846 148V138.388H94.096V144.724L99.406 138.388H101.458V148H99.208V141.664L93.916 148H91.846ZM107.404 148.162C106.672 148.162 105.946 148.078 105.226 147.91C104.518 147.73 103.876 147.478 103.3 147.154L103.93 145.48C104.398 145.744 104.926 145.948 105.514 146.092C106.102 146.236 106.69 146.308 107.278 146.308C107.782 146.308 108.214 146.26 108.574 146.164C108.934 146.056 109.21 145.9 109.402 145.696C109.606 145.492 109.708 145.258 109.708 144.994C109.708 144.61 109.54 144.322 109.204 144.13C108.88 143.926 108.412 143.824 107.8 143.824H105.946V142.312H107.62C108.004 142.312 108.328 142.27 108.592 142.186C108.868 142.102 109.078 141.976 109.222 141.808C109.366 141.64 109.438 141.442 109.438 141.214C109.438 140.986 109.348 140.788 109.168 140.62C109 140.44 108.754 140.308 108.43 140.224C108.106 140.128 107.716 140.08 107.26 140.08C106.78 140.08 106.282 140.14 105.766 140.26C105.262 140.38 104.746 140.554 104.218 140.782L103.642 139.126C104.254 138.85 104.848 138.64 105.424 138.496C106.012 138.34 106.594 138.256 107.17 138.244C108.046 138.208 108.826 138.298 109.51 138.514C110.194 138.73 110.734 139.042 111.13 139.45C111.526 139.858 111.724 140.338 111.724 140.89C111.724 141.346 111.58 141.76 111.292 142.132C111.016 142.492 110.632 142.774 110.14 142.978C109.66 143.182 109.108 143.284 108.484 143.284L108.556 142.798C109.624 142.798 110.464 143.014 111.076 143.446C111.688 143.866 111.994 144.442 111.994 145.174C111.994 145.762 111.796 146.284 111.4 146.74C111.004 147.184 110.458 147.532 109.762 147.784C109.078 148.036 108.292 148.162 107.404 148.162ZM114.311 148V138.388H119.009C120.173 138.388 121.085 138.604 121.745 139.036C122.417 139.468 122.753 140.08 122.753 140.872C122.753 141.652 122.441 142.264 121.817 142.708C121.193 143.14 120.365 143.356 119.333 143.356L119.603 142.798C120.767 142.798 121.631 143.014 122.195 143.446C122.771 143.866 123.059 144.484 123.059 145.3C123.059 146.152 122.741 146.818 122.105 147.298C121.469 147.766 120.503 148 119.207 148H114.311ZM116.453 146.362H119.027C119.639 146.362 120.101 146.266 120.413 146.074C120.725 145.87 120.881 145.564 120.881 145.156C120.881 144.724 120.737 144.406 120.449 144.202C120.161 143.998 119.711 143.896 119.099 143.896H116.453V146.362ZM116.453 142.402H118.811C119.387 142.402 119.819 142.3 120.107 142.096C120.407 141.88 120.557 141.58 120.557 141.196C120.557 140.8 120.407 140.506 120.107 140.314C119.819 140.122 119.387 140.026 118.811 140.026H116.453V142.402ZM129.739 148.126C128.755 148.126 127.879 147.916 127.111 147.496C126.343 147.064 125.737 146.476 125.293 145.732C124.849 144.988 124.627 144.142 124.627 143.194C124.627 142.234 124.849 141.388 125.293 140.656C125.737 139.912 126.343 139.33 127.111 138.91C127.879 138.49 128.755 138.28 129.739 138.28C130.735 138.28 131.617 138.49 132.385 138.91C133.165 139.33 133.771 139.906 134.203 140.638C134.647 141.37 134.869 142.222 134.869 143.194C134.869 144.142 134.647 144.988 134.203 145.732C133.771 146.476 133.165 147.064 132.385 147.496C131.617 147.916 130.735 148.126 129.739 148.126ZM129.739 146.2C130.291 146.2 130.783 146.08 131.215 145.84C131.647 145.6 131.983 145.252 132.223 144.796C132.475 144.34 132.601 143.806 132.601 143.194C132.601 142.57 132.475 142.036 132.223 141.592C131.983 141.136 131.647 140.788 131.215 140.548C130.783 140.308 130.297 140.188 129.757 140.188C129.205 140.188 128.713 140.308 128.281 140.548C127.861 140.788 127.525 141.136 127.273 141.592C127.021 142.036 126.895 142.57 126.895 143.194C126.895 143.806 127.021 144.34 127.273 144.796C127.525 145.252 127.861 145.6 128.281 145.84C128.713 146.08 129.199 146.2 129.739 146.2ZM143.575 146.956V140.296H139.885L139.831 141.844C139.807 142.396 139.771 142.93 139.723 143.446C139.675 143.95 139.597 144.418 139.489 144.85C139.381 145.27 139.225 145.618 139.021 145.894C138.817 146.17 138.547 146.35 138.211 146.434L135.979 146.092C136.339 146.092 136.627 145.978 136.843 145.75C137.071 145.51 137.245 145.186 137.365 144.778C137.497 144.358 137.593 143.884 137.653 143.356C137.713 142.816 137.755 142.258 137.779 141.682L137.905 138.388H145.825V146.956H143.575ZM135.637 150.142V146.092H147.247V150.142H145.141V148H137.725V150.142H135.637ZM149.256 148V138.388H151.506V144.724L156.816 138.388H158.868V148H156.618V141.664L151.326 148H149.256ZM163.893 148V139.756L164.415 140.296H160.509V138.388H169.509V140.296H165.621L166.143 139.756V148H163.893ZM176.98 151.618C176.512 151.618 176.044 151.54 175.576 151.384C175.108 151.228 174.718 151.012 174.406 150.736L175.306 149.08C175.534 149.284 175.792 149.446 176.08 149.566C176.368 149.686 176.662 149.746 176.962 149.746C177.37 149.746 177.7 149.644 177.952 149.44C178.204 149.236 178.438 148.894 178.654 148.414L179.212 147.154L179.392 146.884L183.028 138.388H185.188L180.688 148.774C180.388 149.494 180.052 150.064 179.68 150.484C179.32 150.904 178.912 151.198 178.456 151.366C178.012 151.534 177.52 151.618 176.98 151.618ZM178.96 148.342L174.622 138.388H176.962L180.49 146.686L178.96 148.342ZM192.758 146.956V140.296H189.068L189.014 141.844C188.99 142.396 188.954 142.93 188.906 143.446C188.858 143.95 188.78 144.418 188.672 144.85C188.564 145.27 188.408 145.618 188.204 145.894C188 146.17 187.73 146.35 187.394 146.434L185.162 146.092C185.522 146.092 185.81 145.978 186.026 145.75C186.254 145.51 186.428 145.186 186.548 144.778C186.68 144.358 186.776 143.884 186.836 143.356C186.896 142.816 186.938 142.258 186.962 141.682L187.088 138.388H195.008V146.956H192.758ZM184.82 150.142V146.092H196.43V150.142H194.324V148H186.908V150.142H184.82ZM202.922 148.126C201.854 148.126 200.918 147.916 200.114 147.496C199.322 147.064 198.704 146.476 198.26 145.732C197.828 144.988 197.612 144.142 197.612 143.194C197.612 142.234 197.822 141.388 198.242 140.656C198.674 139.912 199.262 139.33 200.006 138.91C200.762 138.49 201.62 138.28 202.58 138.28C203.516 138.28 204.35 138.484 205.082 138.892C205.814 139.3 206.39 139.876 206.81 140.62C207.23 141.364 207.44 142.24 207.44 143.248C207.44 143.344 207.434 143.452 207.422 143.572C207.422 143.692 207.416 143.806 207.404 143.914H199.394V142.42H206.216L205.334 142.888C205.346 142.336 205.232 141.85 204.992 141.43C204.752 141.01 204.422 140.68 204.002 140.44C203.594 140.2 203.12 140.08 202.58 140.08C202.028 140.08 201.542 140.2 201.122 140.44C200.714 140.68 200.39 141.016 200.15 141.448C199.922 141.868 199.808 142.366 199.808 142.942V143.302C199.808 143.878 199.94 144.388 200.204 144.832C200.468 145.276 200.84 145.618 201.32 145.858C201.8 146.098 202.352 146.218 202.976 146.218C203.516 146.218 204.002 146.134 204.434 145.966C204.866 145.798 205.25 145.534 205.586 145.174L206.792 146.56C206.36 147.064 205.814 147.454 205.154 147.73C204.506 147.994 203.762 148.126 202.922 148.126ZM215.229 148.126C214.449 148.126 213.735 147.946 213.087 147.586C212.451 147.226 211.941 146.686 211.557 145.966C211.185 145.234 210.999 144.31 210.999 143.194C210.999 142.066 211.179 141.142 211.539 140.422C211.911 139.702 212.415 139.168 213.051 138.82C213.687 138.46 214.413 138.28 215.229 138.28C216.177 138.28 217.011 138.484 217.731 138.892C218.463 139.3 219.039 139.87 219.459 140.602C219.891 141.334 220.107 142.198 220.107 143.194C220.107 144.19 219.891 145.06 219.459 145.804C219.039 146.536 218.463 147.106 217.731 147.514C217.011 147.922 216.177 148.126 215.229 148.126ZM209.901 151.492V138.388H212.043V140.656L211.971 143.212L212.151 145.768V151.492H209.901ZM214.977 146.2C215.517 146.2 215.997 146.08 216.417 145.84C216.849 145.6 217.191 145.252 217.443 144.796C217.695 144.34 217.821 143.806 217.821 143.194C217.821 142.57 217.695 142.036 217.443 141.592C217.191 141.136 216.849 140.788 216.417 140.548C215.997 140.308 215.517 140.188 214.977 140.188C214.437 140.188 213.951 140.308 213.519 140.548C213.087 140.788 212.745 141.136 212.493 141.592C212.241 142.036 212.115 142.57 212.115 143.194C212.115 143.806 212.241 144.34 212.493 144.796C212.745 145.252 213.087 145.6 213.519 145.84C213.951 146.08 214.437 146.2 214.977 146.2ZM233.496 148L230.688 143.392L232.524 142.258L236.178 148H233.496ZM228.87 144.148V142.276H232.092V144.148H228.87ZM232.74 143.464L230.616 143.212L233.532 138.388H235.926L232.74 143.464ZM223.344 148H220.68L224.316 142.258L226.152 143.392L223.344 148ZM229.536 148H227.304V138.388H229.536V148ZM227.97 144.148H224.766V142.276H227.97V144.148ZM224.1 143.464L220.914 138.388H223.308L226.206 143.212L224.1 143.464ZM243.506 148V146.056L243.38 145.642V142.24C243.38 141.58 243.182 141.07 242.786 140.71C242.39 140.338 241.79 140.152 240.986 140.152C240.446 140.152 239.912 140.236 239.384 140.404C238.868 140.572 238.43 140.806 238.07 141.106L237.188 139.468C237.704 139.072 238.316 138.778 239.024 138.586C239.744 138.382 240.488 138.28 241.256 138.28C242.648 138.28 243.722 138.616 244.478 139.288C245.246 139.948 245.63 140.974 245.63 142.366V148H243.506ZM240.482 148.126C239.762 148.126 239.132 148.006 238.592 147.766C238.052 147.514 237.632 147.172 237.332 146.74C237.044 146.296 236.9 145.798 236.9 145.246C236.9 144.706 237.026 144.22 237.278 143.788C237.542 143.356 237.968 143.014 238.556 142.762C239.144 142.51 239.924 142.384 240.896 142.384H243.686V143.878H241.058C240.29 143.878 239.774 144.004 239.51 144.256C239.246 144.496 239.114 144.796 239.114 145.156C239.114 145.564 239.276 145.888 239.6 146.128C239.924 146.368 240.374 146.488 240.95 146.488C241.502 146.488 241.994 146.362 242.426 146.11C242.87 145.858 243.188 145.486 243.38 144.994L243.758 146.344C243.542 146.908 243.152 147.346 242.588 147.658C242.036 147.97 241.334 148.126 240.482 148.126ZM248.414 148V138.388H250.664V142.294H255.506V138.388H257.756V148H255.506V144.202H250.664V148H248.414ZM260.772 148V138.388H263.022V144.724L268.332 138.388H270.384V148H268.134V141.664L262.842 148H260.772ZM279.512 148V144.724L279.836 145.102H276.956C275.636 145.102 274.598 144.826 273.842 144.274C273.098 143.71 272.726 142.9 272.726 141.844C272.726 140.716 273.122 139.858 273.914 139.27C274.718 138.682 275.786 138.388 277.118 138.388H281.528V148H279.512ZM272.6 148L275.192 144.328H277.496L275.012 148H272.6ZM279.512 144.004V139.684L279.836 140.278H277.19C276.494 140.278 275.954 140.41 275.57 140.674C275.198 140.926 275.012 141.34 275.012 141.916C275.012 142.996 275.714 143.536 277.118 143.536H279.836L279.512 144.004ZM287.391 143.824C287.391 143.38 287.463 142.99 287.607 142.654C287.751 142.318 287.937 142.018 288.165 141.754C288.393 141.49 288.633 141.244 288.885 141.016C289.149 140.788 289.395 140.566 289.623 140.35C289.851 140.134 290.037 139.906 290.181 139.666C290.325 139.426 290.397 139.156 290.397 138.856C290.397 138.352 290.193 137.944 289.785 137.632C289.377 137.32 288.831 137.164 288.147 137.164C287.487 137.164 286.911 137.284 286.419 137.524C285.939 137.764 285.537 138.106 285.213 138.55L283.467 137.416C283.971 136.732 284.631 136.198 285.447 135.814C286.263 135.418 287.229 135.22 288.345 135.22C289.221 135.22 289.989 135.352 290.649 135.616C291.309 135.868 291.825 136.24 292.197 136.732C292.569 137.212 292.755 137.8 292.755 138.496C292.755 138.976 292.677 139.396 292.521 139.756C292.377 140.116 292.185 140.434 291.945 140.71C291.717 140.974 291.471 141.226 291.207 141.466C290.943 141.694 290.691 141.922 290.451 142.15C290.223 142.378 290.037 142.624 289.893 142.888C289.749 143.152 289.677 143.464 289.677 143.824H287.391ZM288.543 148.126C288.123 148.126 287.775 147.988 287.499 147.712C287.235 147.436 287.103 147.106 287.103 146.722C287.103 146.338 287.235 146.014 287.499 145.75C287.775 145.474 288.123 145.336 288.543 145.336C288.963 145.336 289.305 145.474 289.569 145.75C289.833 146.014 289.965 146.338 289.965 146.722C289.965 147.106 289.833 147.436 289.569 147.712C289.305 147.988 288.963 148.126 288.543 148.126Z" fill="black"/>
<g filter="url(#filter1_d_4658_9)">
<path d="M407.598 170.159L369 129L352 166L407.598 170.159Z" fill="white"/>
</g>
<defs>
<filter id="filter0_d_4658_9" x="0.937988" y="0.266602" width="389.386" height="236.477" filterUnits="userSpaceOnUse" color-interpolation-filters="sRGB">
<feFlood flood-opacity="0" result="BackgroundImageFix"/>
<feColorMatrix in="SourceAlpha" type="matrix" values="0 0 0 0 0 0 0 0 0 0 0 0 0 0 0 0 0 0 127 0" result="hardAlpha"/>
<feMorphology radius="2" operator="dilate" in="SourceAlpha" result="effect1_dropShadow_4658_9"/>
<feOffset dx="1" dy="4"/>
<feGaussianBlur stdDeviation="5.5"/>
<feColorMatrix type="matrix" values="0 0 0 0 0 0 0 0 0 0 0 0 0 0 0 0 0 0 0.12 0"/>
<feBlend mode="normal" in2="BackgroundImageFix" result="effect1_dropShadow_4658_9"/>
<feBlend mode="normal" in="SourceGraphic" in2="effect1_dropShadow_4658_9" result="shape"/>
</filter>
<filter id="filter1_d_4658_9" x="348" y="129" width="63.5979" height="49.1592" filterUnits="userSpaceOnUse" color-interpolation-filters="sRGB">
<feFlood flood-opacity="0" result="BackgroundImageFix"/>
<feColorMatrix in="SourceAlpha" type="matrix" values="0 0 0 0 0 0 0 0 0 0 0 0 0 0 0 0 0 0 127 0" result="hardAlpha"/>
<feOffset dy="4"/>
<feGaussianBlur stdDeviation="2"/>
<feColorMatrix type="matrix" values="0 0 0 0 0 0 0 0 0 0 0 0 0 0 0 0 0 0 0.25 0"/>
<feBlend mode="normal" in2="BackgroundImageFix" result="effect1_dropShadow_4658_9"/>
<feBlend mode="normal" in="SourceGraphic" in2="effect1_dropShadow_4658_9" result="shape"/>
</filter>
</defs>
</svg>
