<svg width="391" height="208" viewBox="0 0 391 208" fill="none" xmlns="http://www.w3.org/2000/svg">
<g filter="url(#filter0_d_4658_10)">
<path d="M376.134 92.6822C375.718 46.1015 294.035 9.08129 193.69 9.99532C93.3452 10.9093 12.3369 49.4114 12.7532 95.9921C13.1694 142.573 94.8525 179.593 195.197 178.679C295.542 177.765 376.551 139.263 376.134 92.6822Z" fill="white"/>
</g>
<path d="M57.0945 89.38H52.9185V100H50.5965V89.38H46.4385V87.4H57.0945V89.38ZM66.8763 95.248C66.8763 95.404 66.8643 95.626 66.8403 95.914H59.2983C59.4303 96.622 59.7723 97.186 60.3243 97.606C60.8883 98.014 61.5843 98.218 62.4123 98.218C63.4683 98.218 64.3383 97.87 65.0223 97.174L66.2283 98.56C65.7963 99.076 65.2503 99.466 64.5903 99.73C63.9303 99.994 63.1863 100.126 62.3583 100.126C61.3023 100.126 60.3723 99.916 59.5683 99.496C58.7643 99.076 58.1403 98.494 57.6963 97.75C57.2643 96.994 57.0483 96.142 57.0483 95.194C57.0483 94.258 57.2583 93.418 57.6783 92.674C58.1103 91.918 58.7043 91.33 59.4603 90.91C60.2163 90.49 61.0683 90.28 62.0163 90.28C62.9523 90.28 63.7863 90.49 64.5183 90.91C65.2623 91.318 65.8383 91.9 66.2463 92.656C66.6663 93.4 66.8763 94.264 66.8763 95.248ZM62.0163 92.08C61.2963 92.08 60.6843 92.296 60.1803 92.728C59.6883 93.148 59.3883 93.712 59.2803 94.42H64.7343C64.6383 93.724 64.3443 93.16 63.8523 92.728C63.3603 92.296 62.7483 92.08 62.0163 92.08ZM74.5392 90.856C75.4512 90.856 76.2552 91.054 76.9512 91.45C77.6472 91.834 78.1872 92.374 78.5712 93.07C78.9672 93.766 79.1652 94.564 79.1652 95.464C79.1652 96.388 78.9492 97.21 78.5172 97.93C78.0852 98.638 77.4792 99.19 76.6992 99.586C75.9192 99.982 75.0312 100.18 74.0352 100.18C72.3672 100.18 71.0772 99.628 70.1652 98.524C69.2532 97.42 68.7972 95.83 68.7972 93.754C68.7972 91.822 69.2112 90.292 70.0392 89.164C70.8672 88.036 72.1332 87.292 73.8372 86.932L78.3012 85.978L78.6252 87.994L74.5752 88.822C73.4112 89.062 72.5412 89.47 71.9652 90.046C71.3892 90.622 71.0532 91.432 70.9572 92.476C71.3892 91.96 71.9112 91.564 72.5232 91.288C73.1352 91 73.8072 90.856 74.5392 90.856ZM74.0892 98.362C74.9172 98.362 75.5832 98.098 76.0872 97.57C76.6032 97.03 76.8612 96.346 76.8612 95.518C76.8612 94.69 76.6032 94.024 76.0872 93.52C75.5832 93.016 74.9172 92.764 74.0892 92.764C73.2492 92.764 72.5712 93.016 72.0552 93.52C71.5392 94.024 71.2812 94.69 71.2812 95.518C71.2812 96.358 71.5392 97.042 72.0552 97.57C72.5832 98.098 73.2612 98.362 74.0892 98.362ZM89.1446 90.388V100H87.1286V97.102H84.5906L82.6286 100H80.2166L82.4846 96.796C81.7886 96.556 81.2546 96.19 80.8826 95.698C80.5226 95.194 80.3426 94.576 80.3426 93.844C80.3426 92.74 80.7326 91.888 81.5126 91.288C82.2926 90.688 83.3666 90.388 84.7346 90.388H89.1446ZM84.8066 92.278C83.3546 92.278 82.6286 92.824 82.6286 93.916C82.6286 94.996 83.3306 95.536 84.7346 95.536H87.1286V92.278H84.8066ZM102.348 90.856C103.26 90.856 104.064 91.054 104.76 91.45C105.456 91.834 105.996 92.374 106.38 93.07C106.776 93.766 106.974 94.564 106.974 95.464C106.974 96.388 106.758 97.21 106.326 97.93C105.894 98.638 105.288 99.19 104.508 99.586C103.728 99.982 102.84 100.18 101.844 100.18C100.176 100.18 98.8858 99.628 97.9738 98.524C97.0618 97.42 96.6058 95.83 96.6058 93.754C96.6058 91.822 97.0198 90.292 97.8478 89.164C98.6758 88.036 99.9418 87.292 101.646 86.932L106.11 85.978L106.434 87.994L102.384 88.822C101.22 89.062 100.35 89.47 99.7738 90.046C99.1978 90.622 98.8618 91.432 98.7658 92.476C99.1978 91.96 99.7198 91.564 100.332 91.288C100.944 91 101.616 90.856 102.348 90.856ZM101.898 98.362C102.726 98.362 103.392 98.098 103.896 97.57C104.412 97.03 104.67 96.346 104.67 95.518C104.67 94.69 104.412 94.024 103.896 93.52C103.392 93.016 102.726 92.764 101.898 92.764C101.058 92.764 100.38 93.016 99.8638 93.52C99.3478 94.024 99.0898 94.69 99.0898 95.518C99.0898 96.358 99.3478 97.042 99.8638 97.57C100.392 98.098 101.07 98.362 101.898 98.362ZM118.152 95.248C118.152 95.404 118.14 95.626 118.116 95.914H110.574C110.706 96.622 111.048 97.186 111.6 97.606C112.164 98.014 112.86 98.218 113.688 98.218C114.744 98.218 115.614 97.87 116.298 97.174L117.504 98.56C117.072 99.076 116.526 99.466 115.866 99.73C115.206 99.994 114.462 100.126 113.634 100.126C112.578 100.126 111.648 99.916 110.844 99.496C110.04 99.076 109.416 98.494 108.972 97.75C108.54 96.994 108.324 96.142 108.324 95.194C108.324 94.258 108.534 93.418 108.954 92.674C109.386 91.918 109.98 91.33 110.736 90.91C111.492 90.49 112.344 90.28 113.292 90.28C114.228 90.28 115.062 90.49 115.794 90.91C116.538 91.318 117.114 91.9 117.522 92.656C117.942 93.4 118.152 94.264 118.152 95.248ZM113.292 92.08C112.572 92.08 111.96 92.296 111.456 92.728C110.964 93.148 110.664 93.712 110.556 94.42H116.01C115.914 93.724 115.62 93.16 115.128 92.728C114.636 92.296 114.024 92.08 113.292 92.08ZM126.179 94.996C126.779 95.164 127.241 95.44 127.565 95.824C127.901 96.196 128.069 96.646 128.069 97.174C128.069 97.762 127.871 98.284 127.475 98.74C127.079 99.184 126.533 99.532 125.837 99.784C125.141 100.036 124.349 100.162 123.461 100.162C122.717 100.162 121.991 100.078 121.283 99.91C120.575 99.73 119.933 99.478 119.357 99.154L120.005 97.48C120.473 97.744 121.001 97.948 121.589 98.092C122.177 98.236 122.765 98.308 123.353 98.308C124.109 98.308 124.697 98.194 125.117 97.966C125.549 97.726 125.765 97.402 125.765 96.994C125.765 96.622 125.597 96.334 125.261 96.13C124.937 95.926 124.475 95.824 123.875 95.824H122.003V94.312H123.695C124.259 94.312 124.697 94.216 125.009 94.024C125.333 93.832 125.495 93.562 125.495 93.214C125.495 92.866 125.303 92.59 124.919 92.386C124.535 92.182 124.007 92.08 123.335 92.08C122.375 92.08 121.361 92.314 120.293 92.782L119.717 91.126C120.977 90.538 122.249 90.244 123.533 90.244C124.349 90.244 125.081 90.358 125.729 90.586C126.377 90.802 126.881 91.114 127.241 91.522C127.613 91.918 127.799 92.374 127.799 92.89C127.799 93.358 127.655 93.778 127.367 94.15C127.079 94.51 126.683 94.792 126.179 94.996ZM139.662 100.126C138.69 100.126 137.814 99.916 137.034 99.496C136.254 99.076 135.642 98.494 135.198 97.75C134.766 96.994 134.55 96.142 134.55 95.194C134.55 94.246 134.766 93.4 135.198 92.656C135.642 91.912 136.254 91.33 137.034 90.91C137.814 90.49 138.69 90.28 139.662 90.28C140.646 90.28 141.528 90.49 142.308 90.91C143.088 91.33 143.694 91.912 144.126 92.656C144.57 93.4 144.792 94.246 144.792 95.194C144.792 96.142 144.57 96.994 144.126 97.75C143.694 98.494 143.088 99.076 142.308 99.496C141.528 99.916 140.646 100.126 139.662 100.126ZM139.662 98.2C140.49 98.2 141.174 97.924 141.714 97.372C142.254 96.82 142.524 96.094 142.524 95.194C142.524 94.294 142.254 93.568 141.714 93.016C141.174 92.464 140.49 92.188 139.662 92.188C138.834 92.188 138.15 92.464 137.61 93.016C137.082 93.568 136.818 94.294 136.818 95.194C136.818 96.094 137.082 96.82 137.61 97.372C138.15 97.924 138.834 98.2 139.662 98.2ZM151.389 100.126C150.393 100.126 149.499 99.916 148.707 99.496C147.915 99.076 147.297 98.494 146.853 97.75C146.409 96.994 146.187 96.142 146.187 95.194C146.187 94.246 146.409 93.4 146.853 92.656C147.297 91.912 147.909 91.33 148.689 90.91C149.481 90.49 150.381 90.28 151.389 90.28C152.337 90.28 153.165 90.472 153.873 90.856C154.593 91.24 155.133 91.792 155.493 92.512L153.765 93.52C153.489 93.076 153.141 92.746 152.721 92.53C152.313 92.302 151.863 92.188 151.371 92.188C150.531 92.188 149.835 92.464 149.283 93.016C148.731 93.556 148.455 94.282 148.455 95.194C148.455 96.106 148.725 96.838 149.265 97.39C149.817 97.93 150.519 98.2 151.371 98.2C151.863 98.2 152.313 98.092 152.721 97.876C153.141 97.648 153.489 97.312 153.765 96.868L155.493 97.876C155.121 98.596 154.575 99.154 153.855 99.55C153.147 99.934 152.325 100.126 151.389 100.126ZM157.474 90.388H159.724V94.294H164.566V90.388H166.816V100H164.566V96.202H159.724V100H157.474V90.388ZM174.115 100.126C173.143 100.126 172.267 99.916 171.487 99.496C170.707 99.076 170.095 98.494 169.651 97.75C169.219 96.994 169.003 96.142 169.003 95.194C169.003 94.246 169.219 93.4 169.651 92.656C170.095 91.912 170.707 91.33 171.487 90.91C172.267 90.49 173.143 90.28 174.115 90.28C175.099 90.28 175.981 90.49 176.761 90.91C177.541 91.33 178.147 91.912 178.579 92.656C179.023 93.4 179.245 94.246 179.245 95.194C179.245 96.142 179.023 96.994 178.579 97.75C178.147 98.494 177.541 99.076 176.761 99.496C175.981 99.916 175.099 100.126 174.115 100.126ZM174.115 98.2C174.943 98.2 175.627 97.924 176.167 97.372C176.707 96.82 176.977 96.094 176.977 95.194C176.977 94.294 176.707 93.568 176.167 93.016C175.627 92.464 174.943 92.188 174.115 92.188C173.287 92.188 172.603 92.464 172.063 93.016C171.535 93.568 171.271 94.294 171.271 95.194C171.271 96.094 171.535 96.82 172.063 97.372C172.603 97.924 173.287 98.2 174.115 98.2ZM188.434 94.996C189.622 95.356 190.216 96.124 190.216 97.3C190.216 98.164 189.892 98.83 189.244 99.298C188.596 99.766 187.636 100 186.364 100H181.468V90.388H186.166C187.342 90.388 188.26 90.604 188.92 91.036C189.58 91.468 189.91 92.08 189.91 92.872C189.91 93.364 189.778 93.79 189.514 94.15C189.262 94.51 188.902 94.792 188.434 94.996ZM183.61 94.402H185.968C187.132 94.402 187.714 94 187.714 93.196C187.714 92.416 187.132 92.026 185.968 92.026H183.61V94.402ZM186.184 98.362C187.42 98.362 188.038 97.96 188.038 97.156C188.038 96.736 187.894 96.424 187.606 96.22C187.318 96.004 186.868 95.896 186.256 95.896H183.61V98.362H186.184ZM196.195 90.28C197.611 90.28 198.691 90.622 199.435 91.306C200.191 91.978 200.569 92.998 200.569 94.366V100H198.445V98.83C198.169 99.25 197.773 99.574 197.257 99.802C196.753 100.018 196.141 100.126 195.421 100.126C194.701 100.126 194.071 100.006 193.531 99.766C192.991 99.514 192.571 99.172 192.271 98.74C191.983 98.296 191.839 97.798 191.839 97.246C191.839 96.382 192.157 95.692 192.793 95.176C193.441 94.648 194.455 94.384 195.835 94.384H198.319V94.24C198.319 93.568 198.115 93.052 197.707 92.692C197.311 92.332 196.717 92.152 195.925 92.152C195.385 92.152 194.851 92.236 194.323 92.404C193.807 92.572 193.369 92.806 193.009 93.106L192.127 91.468C192.631 91.084 193.237 90.79 193.945 90.586C194.653 90.382 195.403 90.28 196.195 90.28ZM195.889 98.488C196.453 98.488 196.951 98.362 197.383 98.11C197.827 97.846 198.139 97.474 198.319 96.994V95.878H195.997C194.701 95.878 194.053 96.304 194.053 97.156C194.053 97.564 194.215 97.888 194.539 98.128C194.863 98.368 195.313 98.488 195.889 98.488ZM203.353 90.388H205.603V94.294H210.445V90.388H212.695V100H210.445V96.202H205.603V100H203.353V90.388ZM215.71 90.388H217.96V96.724L223.27 90.388H225.322V100H223.072V93.664L217.78 100H215.71V90.388ZM236.467 90.388V100H234.451V97.102H231.913L229.951 100H227.539L229.807 96.796C229.111 96.556 228.577 96.19 228.205 95.698C227.845 95.194 227.665 94.576 227.665 93.844C227.665 92.74 228.055 91.888 228.835 91.288C229.615 90.688 230.689 90.388 232.057 90.388H236.467ZM232.129 92.278C230.677 92.278 229.951 92.824 229.951 93.916C229.951 94.996 230.653 95.536 232.057 95.536H234.451V92.278H232.129ZM253.54 90.388L249.04 100.774C248.62 101.818 248.11 102.55 247.51 102.97C246.91 103.402 246.184 103.618 245.332 103.618C244.852 103.618 244.378 103.54 243.91 103.384C243.442 103.228 243.058 103.012 242.758 102.736L243.658 101.08C243.874 101.284 244.126 101.446 244.414 101.566C244.714 101.686 245.014 101.746 245.314 101.746C245.71 101.746 246.034 101.644 246.286 101.44C246.55 101.236 246.79 100.894 247.006 100.414L247.168 100.036L242.974 90.388H245.314L248.338 97.498L251.38 90.388H253.54ZM262.069 94.996C263.257 95.356 263.851 96.124 263.851 97.3C263.851 98.164 263.527 98.83 262.879 99.298C262.231 99.766 261.271 100 259.999 100H255.103V90.388H259.801C260.977 90.388 261.895 90.604 262.555 91.036C263.215 91.468 263.545 92.08 263.545 92.872C263.545 93.364 263.413 93.79 263.149 94.15C262.897 94.51 262.537 94.792 262.069 94.996ZM257.245 94.402H259.603C260.767 94.402 261.349 94 261.349 93.196C261.349 92.416 260.767 92.026 259.603 92.026H257.245V94.402ZM259.819 98.362C261.055 98.362 261.673 97.96 261.673 97.156C261.673 96.736 261.529 96.424 261.241 96.22C260.953 96.004 260.503 95.896 259.891 95.896H257.245V98.362H259.819ZM270.531 100.126C269.559 100.126 268.683 99.916 267.903 99.496C267.123 99.076 266.511 98.494 266.067 97.75C265.635 96.994 265.419 96.142 265.419 95.194C265.419 94.246 265.635 93.4 266.067 92.656C266.511 91.912 267.123 91.33 267.903 90.91C268.683 90.49 269.559 90.28 270.531 90.28C271.515 90.28 272.397 90.49 273.177 90.91C273.957 91.33 274.563 91.912 274.995 92.656C275.439 93.4 275.661 94.246 275.661 95.194C275.661 96.142 275.439 96.994 274.995 97.75C274.563 98.494 273.957 99.076 273.177 99.496C272.397 99.916 271.515 100.126 270.531 100.126ZM270.531 98.2C271.359 98.2 272.043 97.924 272.583 97.372C273.123 96.82 273.393 96.094 273.393 95.194C273.393 94.294 273.123 93.568 272.583 93.016C272.043 92.464 271.359 92.188 270.531 92.188C269.703 92.188 269.019 92.464 268.479 93.016C267.951 93.568 267.687 94.294 267.687 95.194C267.687 96.094 267.951 96.82 268.479 97.372C269.019 97.924 269.703 98.2 270.531 98.2ZM286.491 90.388V100H284.241V92.296H280.641L280.551 94.204C280.491 95.476 280.371 96.544 280.191 97.408C280.023 98.26 279.729 98.938 279.309 99.442C278.901 99.934 278.337 100.18 277.617 100.18C277.281 100.18 276.867 100.114 276.375 99.982L276.483 98.092C276.651 98.128 276.795 98.146 276.915 98.146C277.371 98.146 277.713 97.966 277.941 97.606C278.169 97.234 278.313 96.796 278.373 96.292C278.445 95.776 278.505 95.044 278.553 94.096L278.715 90.388H286.491ZM289.521 90.388H291.771V96.724L297.081 90.388H299.133V100H296.883V93.664L291.591 100H289.521V90.388ZM310.871 90.388V100H308.621V92.296H305.021L304.931 94.204C304.871 95.476 304.751 96.544 304.571 97.408C304.403 98.26 304.109 98.938 303.689 99.442C303.281 99.934 302.717 100.18 301.997 100.18C301.661 100.18 301.247 100.114 300.755 99.982L300.863 98.092C301.031 98.128 301.175 98.146 301.295 98.146C301.751 98.146 302.093 97.966 302.321 97.606C302.549 97.234 302.693 96.796 302.753 96.292C302.825 95.776 302.885 95.044 302.933 94.096L303.095 90.388H310.871ZM313.902 90.388H316.152V96.724L321.462 90.388H323.514V100H321.264V93.664L315.972 100H313.902V90.388ZM329.376 95.824C329.376 95.176 329.52 94.642 329.808 94.222C330.108 93.79 330.54 93.322 331.104 92.818C331.536 92.434 331.854 92.104 332.058 91.828C332.274 91.54 332.382 91.216 332.382 90.856C332.382 90.352 332.178 89.944 331.77 89.632C331.362 89.32 330.816 89.164 330.132 89.164C328.836 89.164 327.858 89.626 327.198 90.55L325.452 89.416C325.968 88.708 326.634 88.168 327.45 87.796C328.266 87.412 329.226 87.22 330.33 87.22C331.674 87.22 332.742 87.514 333.534 88.102C334.338 88.678 334.74 89.476 334.74 90.496C334.74 90.988 334.656 91.42 334.488 91.792C334.332 92.164 334.14 92.482 333.912 92.746C333.684 92.998 333.384 93.292 333.012 93.628C332.556 94.036 332.214 94.396 331.986 94.708C331.77 95.02 331.662 95.392 331.662 95.824H329.376ZM330.528 100.126C330.108 100.126 329.76 99.994 329.484 99.73C329.22 99.454 329.088 99.118 329.088 98.722C329.088 98.326 329.22 97.996 329.484 97.732C329.76 97.468 330.108 97.336 330.528 97.336C330.936 97.336 331.272 97.468 331.536 97.732C331.812 97.996 331.95 98.326 331.95 98.722C331.95 99.118 331.812 99.454 331.536 99.73C331.272 99.994 330.936 100.126 330.528 100.126Z" fill="black"/>
<g filter="url(#filter1_d_4658_10)">
<path d="M326.356 198.473L321.137 154.001L284.001 166.999L326.356 198.473Z" fill="white"/>
</g>
<defs>
<filter id="filter0_d_4658_10" x="0.751465" y="0.978516" width="389.385" height="194.717" filterUnits="userSpaceOnUse" color-interpolation-filters="sRGB">
<feFlood flood-opacity="0" result="BackgroundImageFix"/>
<feColorMatrix in="SourceAlpha" type="matrix" values="0 0 0 0 0 0 0 0 0 0 0 0 0 0 0 0 0 0 127 0" result="hardAlpha"/>
<feMorphology radius="2" operator="dilate" in="SourceAlpha" result="effect1_dropShadow_4658_10"/>
<feOffset dx="1" dy="4"/>
<feGaussianBlur stdDeviation="5.5"/>
<feColorMatrix type="matrix" values="0 0 0 0 0 0 0 0 0 0 0 0 0 0 0 0 0 0 0.12 0"/>
<feBlend mode="normal" in2="BackgroundImageFix" result="effect1_dropShadow_4658_10"/>
<feBlend mode="normal" in="SourceGraphic" in2="effect1_dropShadow_4658_10" result="shape"/>
</filter>
<filter id="filter1_d_4658_10" x="280" y="154.001" width="50.3555" height="52.4717" filterUnits="userSpaceOnUse" color-interpolation-filters="sRGB">
<feFlood flood-opacity="0" result="BackgroundImageFix"/>
<feColorMatrix in="SourceAlpha" type="matrix" values="0 0 0 0 0 0 0 0 0 0 0 0 0 0 0 0 0 0 127 0" result="hardAlpha"/>
<feOffset dy="4"/>
<feGaussianBlur stdDeviation="2"/>
<feColorMatrix type="matrix" values="0 0 0 0 0 0 0 0 0 0 0 0 0 0 0 0 0 0 0.25 0"/>
<feBlend mode="normal" in2="BackgroundImageFix" result="effect1_dropShadow_4658_10"/>
<feBlend mode="normal" in="SourceGraphic" in2="effect1_dropShadow_4658_10" result="shape"/>
</filter>
</defs>
</svg>
