<svg width="361" height="171" viewBox="0 0 361 171" fill="none" xmlns="http://www.w3.org/2000/svg">
<g filter="url(#filter0_d_4658_11)">
<path d="M334.669 80.1442C334.313 40.3777 261.938 8.79726 173.013 9.60726C84.0881 10.4173 12.2884 43.311 12.6437 83.0775C12.999 122.844 85.3749 154.424 174.3 153.614C263.224 152.804 335.024 119.911 334.669 80.1442Z" fill="white"/>
</g>
<path d="M67.924 56.4V69H65.62V58.38H59.086V69H56.782V56.4H67.924ZM76.5529 59.28C77.4889 59.28 78.3229 59.484 79.0549 59.892C79.7989 60.3 80.3809 60.876 80.8009 61.62C81.2209 62.364 81.4309 63.222 81.4309 64.194C81.4309 65.166 81.2209 66.03 80.8009 66.786C80.3809 67.53 79.7989 68.106 79.0549 68.514C78.3229 68.922 77.4889 69.126 76.5529 69.126C75.2569 69.126 74.2309 68.694 73.4749 67.83V72.492H71.2249V59.388H73.3669V60.648C73.7389 60.192 74.1949 59.85 74.7349 59.622C75.2869 59.394 75.8929 59.28 76.5529 59.28ZM76.3009 67.2C77.1289 67.2 77.8069 66.924 78.3349 66.372C78.8749 65.82 79.1449 65.094 79.1449 64.194C79.1449 63.294 78.8749 62.568 78.3349 62.016C77.8069 61.464 77.1289 61.188 76.3009 61.188C75.7609 61.188 75.2749 61.314 74.8429 61.566C74.4109 61.806 74.0689 62.154 73.8169 62.61C73.5649 63.066 73.4389 63.594 73.4389 64.194C73.4389 64.794 73.5649 65.322 73.8169 65.778C74.0689 66.234 74.4109 66.588 74.8429 66.84C75.2749 67.08 75.7609 67.2 76.3009 67.2ZM92.6702 64.248C92.6702 64.404 92.6582 64.626 92.6342 64.914H85.0922C85.2242 65.622 85.5662 66.186 86.1182 66.606C86.6822 67.014 87.3782 67.218 88.2062 67.218C89.2622 67.218 90.1322 66.87 90.8162 66.174L92.0222 67.56C91.5902 68.076 91.0442 68.466 90.3842 68.73C89.7242 68.994 88.9802 69.126 88.1522 69.126C87.0962 69.126 86.1662 68.916 85.3622 68.496C84.5582 68.076 83.9342 67.494 83.4902 66.75C83.0582 65.994 82.8422 65.142 82.8422 64.194C82.8422 63.258 83.0522 62.418 83.4722 61.674C83.9042 60.918 84.4982 60.33 85.2542 59.91C86.0102 59.49 86.8622 59.28 87.8102 59.28C88.7462 59.28 89.5802 59.49 90.3122 59.91C91.0562 60.318 91.6322 60.9 92.0402 61.656C92.4602 62.4 92.6702 63.264 92.6702 64.248ZM87.8102 61.08C87.0902 61.08 86.4782 61.296 85.9742 61.728C85.4822 62.148 85.1822 62.712 85.0742 63.42H90.5282C90.4322 62.724 90.1382 62.16 89.6462 61.728C89.1542 61.296 88.5422 61.08 87.8102 61.08ZM104.347 59.388V69H102.115V61.296H97.3811V69H95.1311V59.388H104.347ZM111.667 69.126C110.695 69.126 109.819 68.916 109.039 68.496C108.259 68.076 107.647 67.494 107.203 66.75C106.771 65.994 106.555 65.142 106.555 64.194C106.555 63.246 106.771 62.4 107.203 61.656C107.647 60.912 108.259 60.33 109.039 59.91C109.819 59.49 110.695 59.28 111.667 59.28C112.651 59.28 113.533 59.49 114.313 59.91C115.093 60.33 115.699 60.912 116.131 61.656C116.575 62.4 116.797 63.246 116.797 64.194C116.797 65.142 116.575 65.994 116.131 66.75C115.699 67.494 115.093 68.076 114.313 68.496C113.533 68.916 112.651 69.126 111.667 69.126ZM111.667 67.2C112.495 67.2 113.179 66.924 113.719 66.372C114.259 65.82 114.529 65.094 114.529 64.194C114.529 63.294 114.259 62.568 113.719 62.016C113.179 61.464 112.495 61.188 111.667 61.188C110.839 61.188 110.155 61.464 109.615 62.016C109.087 62.568 108.823 63.294 108.823 64.194C108.823 65.094 109.087 65.82 109.615 66.372C110.155 66.924 110.839 67.2 111.667 67.2ZM129.174 67.092V71.142H127.068V69H119.652V71.142H117.564V67.092H118.014C118.626 67.068 119.04 66.678 119.256 65.922C119.484 65.154 119.634 64.074 119.706 62.682L119.832 59.388H127.752V67.092H129.174ZM121.758 62.844C121.71 63.948 121.62 64.848 121.488 65.544C121.356 66.24 121.116 66.756 120.768 67.092H125.502V61.296H121.812L121.758 62.844ZM134.766 59.28C136.182 59.28 137.262 59.622 138.006 60.306C138.762 60.978 139.14 61.998 139.14 63.366V69H137.016V67.83C136.74 68.25 136.344 68.574 135.828 68.802C135.324 69.018 134.712 69.126 133.992 69.126C133.272 69.126 132.642 69.006 132.102 68.766C131.562 68.514 131.142 68.172 130.842 67.74C130.554 67.296 130.41 66.798 130.41 66.246C130.41 65.382 130.728 64.692 131.364 64.176C132.012 63.648 133.026 63.384 134.406 63.384H136.89V63.24C136.89 62.568 136.686 62.052 136.278 61.692C135.882 61.332 135.288 61.152 134.496 61.152C133.956 61.152 133.422 61.236 132.894 61.404C132.378 61.572 131.94 61.806 131.58 62.106L130.698 60.468C131.202 60.084 131.808 59.79 132.516 59.586C133.224 59.382 133.974 59.28 134.766 59.28ZM134.46 67.488C135.024 67.488 135.522 67.362 135.954 67.11C136.398 66.846 136.71 66.474 136.89 65.994V64.878H134.568C133.272 64.878 132.624 65.304 132.624 66.156C132.624 66.564 132.786 66.888 133.11 67.128C133.434 67.368 133.884 67.488 134.46 67.488ZM148.89 63.996C150.078 64.356 150.672 65.124 150.672 66.3C150.672 67.164 150.348 67.83 149.7 68.298C149.052 68.766 148.092 69 146.82 69H141.924V59.388H146.622C147.798 59.388 148.716 59.604 149.376 60.036C150.036 60.468 150.366 61.08 150.366 61.872C150.366 62.364 150.234 62.79 149.97 63.15C149.718 63.51 149.358 63.792 148.89 63.996ZM144.066 63.402H146.424C147.588 63.402 148.17 63 148.17 62.196C148.17 61.416 147.588 61.026 146.424 61.026H144.066V63.402ZM146.64 67.362C147.876 67.362 148.494 66.96 148.494 66.156C148.494 65.736 148.35 65.424 148.062 65.22C147.774 65.004 147.324 64.896 146.712 64.896H144.066V67.362H146.64ZM156.651 59.28C158.067 59.28 159.147 59.622 159.891 60.306C160.647 60.978 161.025 61.998 161.025 63.366V69H158.901V67.83C158.625 68.25 158.229 68.574 157.713 68.802C157.209 69.018 156.597 69.126 155.877 69.126C155.157 69.126 154.527 69.006 153.987 68.766C153.447 68.514 153.027 68.172 152.727 67.74C152.439 67.296 152.295 66.798 152.295 66.246C152.295 65.382 152.613 64.692 153.249 64.176C153.897 63.648 154.911 63.384 156.291 63.384H158.775V63.24C158.775 62.568 158.571 62.052 158.163 61.692C157.767 61.332 157.173 61.152 156.381 61.152C155.841 61.152 155.307 61.236 154.779 61.404C154.263 61.572 153.825 61.806 153.465 62.106L152.583 60.468C153.087 60.084 153.693 59.79 154.401 59.586C155.109 59.382 155.859 59.28 156.651 59.28ZM156.345 67.488C156.909 67.488 157.407 67.362 157.839 67.11C158.283 66.846 158.595 66.474 158.775 65.994V64.878H156.453C155.157 64.878 154.509 65.304 154.509 66.156C154.509 66.564 154.671 66.888 154.995 67.128C155.319 67.368 155.769 67.488 156.345 67.488ZM171.423 61.296H168.057V69H165.807V61.296H162.423V59.388H171.423V61.296ZM181.633 64.248C181.633 64.404 181.621 64.626 181.597 64.914H174.055C174.187 65.622 174.529 66.186 175.081 66.606C175.645 67.014 176.341 67.218 177.169 67.218C178.225 67.218 179.095 66.87 179.779 66.174L180.985 67.56C180.553 68.076 180.007 68.466 179.347 68.73C178.687 68.994 177.943 69.126 177.115 69.126C176.059 69.126 175.129 68.916 174.325 68.496C173.521 68.076 172.897 67.494 172.453 66.75C172.021 65.994 171.805 65.142 171.805 64.194C171.805 63.258 172.015 62.418 172.435 61.674C172.867 60.918 173.461 60.33 174.217 59.91C174.973 59.49 175.825 59.28 176.773 59.28C177.709 59.28 178.543 59.49 179.275 59.91C180.019 60.318 180.595 60.9 181.003 61.656C181.423 62.4 181.633 63.264 181.633 64.248ZM176.773 61.08C176.053 61.08 175.441 61.296 174.937 61.728C174.445 62.148 174.145 62.712 174.037 63.42H179.491C179.395 62.724 179.101 62.16 178.609 61.728C178.117 61.296 177.505 61.08 176.773 61.08ZM192.683 59.388V69H190.433V61.296H186.833L186.743 63.204C186.683 64.476 186.563 65.544 186.383 66.408C186.215 67.26 185.921 67.938 185.501 68.442C185.093 68.934 184.529 69.18 183.809 69.18C183.473 69.18 183.059 69.114 182.567 68.982L182.675 67.092C182.843 67.128 182.987 67.146 183.107 67.146C183.563 67.146 183.905 66.966 184.133 66.606C184.361 66.234 184.505 65.796 184.565 65.292C184.637 64.776 184.697 64.044 184.745 63.096L184.907 59.388H192.683ZM200.537 62.556C201.761 62.556 202.697 62.832 203.345 63.384C204.005 63.936 204.335 64.716 204.335 65.724C204.335 66.78 203.975 67.596 203.255 68.172C202.535 68.748 201.521 69.03 200.213 69.018L195.713 69V59.388H197.963V62.538L200.537 62.556ZM200.015 67.362C200.675 67.374 201.179 67.236 201.527 66.948C201.875 66.66 202.049 66.24 202.049 65.688C202.049 65.148 201.881 64.752 201.545 64.5C201.209 64.248 200.699 64.116 200.015 64.104L197.963 64.086V67.344L200.015 67.362ZM211.287 59.388H213.537V63.294H218.379V59.388H220.629V69H218.379V65.202H213.537V69H211.287V59.388ZM232.645 64.248C232.645 64.404 232.633 64.626 232.609 64.914H225.067C225.199 65.622 225.541 66.186 226.093 66.606C226.657 67.014 227.353 67.218 228.181 67.218C229.237 67.218 230.107 66.87 230.791 66.174L231.997 67.56C231.565 68.076 231.019 68.466 230.359 68.73C229.699 68.994 228.955 69.126 228.127 69.126C227.071 69.126 226.141 68.916 225.337 68.496C224.533 68.076 223.909 67.494 223.465 66.75C223.033 65.994 222.817 65.142 222.817 64.194C222.817 63.258 223.027 62.418 223.447 61.674C223.879 60.918 224.473 60.33 225.229 59.91C225.985 59.49 226.837 59.28 227.785 59.28C228.721 59.28 229.555 59.49 230.287 59.91C231.031 60.318 231.607 60.9 232.015 61.656C232.435 62.4 232.645 63.264 232.645 64.248ZM227.785 61.08C227.065 61.08 226.453 61.296 225.949 61.728C225.457 62.148 225.157 62.712 225.049 63.42H230.503C230.407 62.724 230.113 62.16 229.621 61.728C229.129 61.296 228.517 61.08 227.785 61.08ZM242.072 63.996C243.26 64.356 243.854 65.124 243.854 66.3C243.854 67.164 243.53 67.83 242.882 68.298C242.234 68.766 241.274 69 240.002 69H235.106V59.388H239.804C240.98 59.388 241.898 59.604 242.558 60.036C243.218 60.468 243.548 61.08 243.548 61.872C243.548 62.364 243.416 62.79 243.152 63.15C242.9 63.51 242.54 63.792 242.072 63.996ZM237.248 63.402H239.606C240.77 63.402 241.352 63 241.352 62.196C241.352 61.416 240.77 61.026 239.606 61.026H237.248V63.402ZM239.822 67.362C241.058 67.362 241.676 66.96 241.676 66.156C241.676 65.736 241.532 65.424 241.244 65.22C240.956 65.004 240.506 64.896 239.894 64.896H237.248V67.362H239.822ZM255.25 64.248C255.25 64.404 255.238 64.626 255.214 64.914H247.672C247.804 65.622 248.146 66.186 248.698 66.606C249.262 67.014 249.958 67.218 250.786 67.218C251.842 67.218 252.712 66.87 253.396 66.174L254.602 67.56C254.17 68.076 253.624 68.466 252.964 68.73C252.304 68.994 251.56 69.126 250.732 69.126C249.676 69.126 248.746 68.916 247.942 68.496C247.138 68.076 246.514 67.494 246.07 66.75C245.638 65.994 245.422 65.142 245.422 64.194C245.422 63.258 245.632 62.418 246.052 61.674C246.484 60.918 247.078 60.33 247.834 59.91C248.59 59.49 249.442 59.28 250.39 59.28C251.326 59.28 252.16 59.49 252.892 59.91C253.636 60.318 254.212 60.9 254.62 61.656C255.04 62.4 255.25 63.264 255.25 64.248ZM250.39 61.08C249.67 61.08 249.058 61.296 248.554 61.728C248.062 62.148 247.762 62.712 247.654 63.42H253.108C253.012 62.724 252.718 62.16 252.226 61.728C251.734 61.296 251.122 61.08 250.39 61.08ZM263.039 59.28C263.975 59.28 264.809 59.484 265.541 59.892C266.285 60.3 266.867 60.876 267.287 61.62C267.707 62.364 267.917 63.222 267.917 64.194C267.917 65.166 267.707 66.03 267.287 66.786C266.867 67.53 266.285 68.106 265.541 68.514C264.809 68.922 263.975 69.126 263.039 69.126C261.743 69.126 260.717 68.694 259.961 67.83V72.492H257.711V59.388H259.853V60.648C260.225 60.192 260.681 59.85 261.221 59.622C261.773 59.394 262.379 59.28 263.039 59.28ZM262.787 67.2C263.615 67.2 264.293 66.924 264.821 66.372C265.361 65.82 265.631 65.094 265.631 64.194C265.631 63.294 265.361 62.568 264.821 62.016C264.293 61.464 263.615 61.188 262.787 61.188C262.247 61.188 261.761 61.314 261.329 61.566C260.897 61.806 260.555 62.154 260.303 62.61C260.051 63.066 259.925 63.594 259.925 64.194C259.925 64.794 260.051 65.322 260.303 65.778C260.555 66.234 260.897 66.588 261.329 66.84C261.761 67.08 262.247 67.2 262.787 67.2ZM270.157 59.388H272.407V63.294H277.249V59.388H279.499V69H277.249V65.202H272.407V69H270.157V59.388ZM286.798 69.126C285.826 69.126 284.95 68.916 284.17 68.496C283.39 68.076 282.778 67.494 282.334 66.75C281.902 65.994 281.686 65.142 281.686 64.194C281.686 63.246 281.902 62.4 282.334 61.656C282.778 60.912 283.39 60.33 284.17 59.91C284.95 59.49 285.826 59.28 286.798 59.28C287.782 59.28 288.664 59.49 289.444 59.91C290.224 60.33 290.83 60.912 291.262 61.656C291.706 62.4 291.928 63.246 291.928 64.194C291.928 65.142 291.706 65.994 291.262 66.75C290.83 67.494 290.224 68.076 289.444 68.496C288.664 68.916 287.782 69.126 286.798 69.126ZM286.798 67.2C287.626 67.2 288.31 66.924 288.85 66.372C289.39 65.82 289.66 65.094 289.66 64.194C289.66 63.294 289.39 62.568 288.85 62.016C288.31 61.464 287.626 61.188 286.798 61.188C285.97 61.188 285.286 61.464 284.746 62.016C284.218 62.568 283.954 63.294 283.954 64.194C283.954 65.094 284.218 65.82 284.746 66.372C285.286 66.924 285.97 67.2 286.798 67.2ZM60.796 96.126C59.824 96.126 58.948 95.916 58.168 95.496C57.388 95.076 56.776 94.494 56.332 93.75C55.9 92.994 55.684 92.142 55.684 91.194C55.684 90.246 55.9 89.4 56.332 88.656C56.776 87.912 57.388 87.33 58.168 86.91C58.948 86.49 59.824 86.28 60.796 86.28C61.78 86.28 62.662 86.49 63.442 86.91C64.222 87.33 64.828 87.912 65.26 88.656C65.704 89.4 65.926 90.246 65.926 91.194C65.926 92.142 65.704 92.994 65.26 93.75C64.828 94.494 64.222 95.076 63.442 95.496C62.662 95.916 61.78 96.126 60.796 96.126ZM60.796 94.2C61.624 94.2 62.308 93.924 62.848 93.372C63.388 92.82 63.658 92.094 63.658 91.194C63.658 90.294 63.388 89.568 62.848 89.016C62.308 88.464 61.624 88.188 60.796 88.188C59.968 88.188 59.284 88.464 58.744 89.016C58.216 89.568 57.952 90.294 57.952 91.194C57.952 92.094 58.216 92.82 58.744 93.372C59.284 93.924 59.968 94.2 60.796 94.2ZM78.6967 94.092V98.214H76.5907V96H68.1487V86.388H70.3987V94.092H74.9887V86.388H77.2387V94.092H78.6967ZM89.6995 91.248C89.6995 91.404 89.6875 91.626 89.6635 91.914H82.1215C82.2535 92.622 82.5955 93.186 83.1475 93.606C83.7115 94.014 84.4075 94.218 85.2355 94.218C86.2915 94.218 87.1615 93.87 87.8455 93.174L89.0515 94.56C88.6195 95.076 88.0735 95.466 87.4135 95.73C86.7535 95.994 86.0095 96.126 85.1815 96.126C84.1255 96.126 83.1955 95.916 82.3915 95.496C81.5875 95.076 80.9635 94.494 80.5195 93.75C80.0875 92.994 79.8715 92.142 79.8715 91.194C79.8715 90.258 80.0815 89.418 80.5015 88.674C80.9335 87.918 81.5275 87.33 82.2835 86.91C83.0395 86.49 83.8915 86.28 84.8395 86.28C85.7755 86.28 86.6095 86.49 87.3415 86.91C88.0855 87.318 88.6615 87.9 89.0695 88.656C89.4895 89.4 89.6995 90.264 89.6995 91.248ZM84.8395 88.08C84.1195 88.08 83.5075 88.296 83.0035 88.728C82.5115 89.148 82.2115 89.712 82.1035 90.42H87.5575C87.4615 89.724 87.1675 89.16 86.6755 88.728C86.1835 88.296 85.5715 88.08 84.8395 88.08ZM92.1604 86.388H94.4104V90.294H99.2524V86.388H101.502V96H99.2524V92.202H94.4104V96H92.1604V86.388ZM104.518 86.388H106.768V92.724L112.078 86.388H114.13V96H111.88V89.664L106.588 96H104.518V86.388ZM125.869 86.388V96H123.619V88.296H120.019L119.929 90.204C119.869 91.476 119.749 92.544 119.569 93.408C119.401 94.26 119.107 94.938 118.687 95.442C118.279 95.934 117.715 96.18 116.995 96.18C116.659 96.18 116.245 96.114 115.753 95.982L115.861 94.092C116.029 94.128 116.173 94.146 116.293 94.146C116.749 94.146 117.091 93.966 117.319 93.606C117.547 93.234 117.691 92.796 117.751 92.292C117.823 91.776 117.883 91.044 117.931 90.096L118.093 86.388H125.869ZM143.269 85.38H139.093V96H136.771V85.38H132.613V83.4H143.269V85.38ZM151.773 90.996C152.961 91.356 153.555 92.124 153.555 93.3C153.555 94.164 153.231 94.83 152.583 95.298C151.935 95.766 150.975 96 149.703 96H144.807V86.388H149.505C150.681 86.388 151.599 86.604 152.259 87.036C152.919 87.468 153.249 88.08 153.249 88.872C153.249 89.364 153.117 89.79 152.853 90.15C152.601 90.51 152.241 90.792 151.773 90.996ZM146.949 90.402H149.307C150.471 90.402 151.053 90 151.053 89.196C151.053 88.416 150.471 88.026 149.307 88.026H146.949V90.402ZM149.523 94.362C150.759 94.362 151.377 93.96 151.377 93.156C151.377 92.736 151.233 92.424 150.945 92.22C150.657 92.004 150.207 91.896 149.595 91.896H146.949V94.362H149.523ZM160.235 96.126C159.263 96.126 158.387 95.916 157.607 95.496C156.827 95.076 156.215 94.494 155.771 93.75C155.339 92.994 155.123 92.142 155.123 91.194C155.123 90.246 155.339 89.4 155.771 88.656C156.215 87.912 156.827 87.33 157.607 86.91C158.387 86.49 159.263 86.28 160.235 86.28C161.219 86.28 162.101 86.49 162.881 86.91C163.661 87.33 164.267 87.912 164.699 88.656C165.143 89.4 165.365 90.246 165.365 91.194C165.365 92.142 165.143 92.994 164.699 93.75C164.267 94.494 163.661 95.076 162.881 95.496C162.101 95.916 161.219 96.126 160.235 96.126ZM160.235 94.2C161.063 94.2 161.747 93.924 162.287 93.372C162.827 92.82 163.097 92.094 163.097 91.194C163.097 90.294 162.827 89.568 162.287 89.016C161.747 88.464 161.063 88.188 160.235 88.188C159.407 88.188 158.723 88.464 158.183 89.016C157.655 89.568 157.391 90.294 157.391 91.194C157.391 92.094 157.655 92.82 158.183 93.372C158.723 93.924 159.407 94.2 160.235 94.2ZM176.372 86.28C177.332 86.28 178.19 86.49 178.946 86.91C179.702 87.318 180.296 87.9 180.728 88.656C181.16 89.4 181.376 90.246 181.376 91.194C181.376 92.142 181.16 92.994 180.728 93.75C180.296 94.494 179.702 95.076 178.946 95.496C178.19 95.916 177.332 96.126 176.372 96.126C175.532 96.126 174.764 95.964 174.068 95.64C173.372 95.304 172.796 94.836 172.34 94.236C171.884 93.624 171.59 92.928 171.458 92.148H169.838V96H167.588V86.388H169.838V90.114H171.494C171.638 89.358 171.938 88.692 172.394 88.116C172.85 87.528 173.42 87.078 174.104 86.766C174.788 86.442 175.544 86.28 176.372 86.28ZM176.372 94.218C176.9 94.218 177.374 94.098 177.794 93.858C178.214 93.606 178.544 93.252 178.784 92.796C179.024 92.328 179.144 91.794 179.144 91.194C179.144 90.282 178.88 89.556 178.352 89.016C177.836 88.464 177.176 88.188 176.372 88.188C175.568 88.188 174.908 88.464 174.392 89.016C173.876 89.556 173.618 90.282 173.618 91.194C173.618 92.106 173.876 92.838 174.392 93.39C174.92 93.942 175.58 94.218 176.372 94.218ZM193.887 86.28C194.823 86.28 195.657 86.484 196.389 86.892C197.133 87.3 197.715 87.876 198.135 88.62C198.555 89.364 198.765 90.222 198.765 91.194C198.765 92.166 198.555 93.03 198.135 93.786C197.715 94.53 197.133 95.106 196.389 95.514C195.657 95.922 194.823 96.126 193.887 96.126C192.591 96.126 191.565 95.694 190.809 94.83V99.492H188.559V86.388H190.701V87.648C191.073 87.192 191.529 86.85 192.069 86.622C192.621 86.394 193.227 86.28 193.887 86.28ZM193.635 94.2C194.463 94.2 195.141 93.924 195.669 93.372C196.209 92.82 196.479 92.094 196.479 91.194C196.479 90.294 196.209 89.568 195.669 89.016C195.141 88.464 194.463 88.188 193.635 88.188C193.095 88.188 192.609 88.314 192.177 88.566C191.745 88.806 191.403 89.154 191.151 89.61C190.899 90.066 190.773 90.594 190.773 91.194C190.773 91.794 190.899 92.322 191.151 92.778C191.403 93.234 191.745 93.588 192.177 93.84C192.609 94.08 193.095 94.2 193.635 94.2ZM204.463 86.28C205.879 86.28 206.959 86.622 207.703 87.306C208.459 87.978 208.837 88.998 208.837 90.366V96H206.713V94.83C206.437 95.25 206.041 95.574 205.525 95.802C205.021 96.018 204.409 96.126 203.689 96.126C202.969 96.126 202.339 96.006 201.799 95.766C201.259 95.514 200.839 95.172 200.539 94.74C200.251 94.296 200.107 93.798 200.107 93.246C200.107 92.382 200.425 91.692 201.061 91.176C201.709 90.648 202.723 90.384 204.103 90.384H206.587V90.24C206.587 89.568 206.383 89.052 205.975 88.692C205.579 88.332 204.985 88.152 204.193 88.152C203.653 88.152 203.119 88.236 202.591 88.404C202.075 88.572 201.637 88.806 201.277 89.106L200.395 87.468C200.899 87.084 201.505 86.79 202.213 86.586C202.921 86.382 203.671 86.28 204.463 86.28ZM204.157 94.488C204.721 94.488 205.219 94.362 205.651 94.11C206.095 93.846 206.407 93.474 206.587 92.994V91.878H204.265C202.969 91.878 202.321 92.304 202.321 93.156C202.321 93.564 202.483 93.888 202.807 94.128C203.131 94.368 203.581 94.488 204.157 94.488ZM216.823 86.856C217.735 86.856 218.539 87.054 219.235 87.45C219.931 87.834 220.471 88.374 220.855 89.07C221.251 89.766 221.449 90.564 221.449 91.464C221.449 92.388 221.233 93.21 220.801 93.93C220.369 94.638 219.763 95.19 218.983 95.586C218.203 95.982 217.315 96.18 216.319 96.18C214.651 96.18 213.361 95.628 212.449 94.524C211.537 93.42 211.081 91.83 211.081 89.754C211.081 87.822 211.495 86.292 212.323 85.164C213.151 84.036 214.417 83.292 216.121 82.932L220.585 81.978L220.909 83.994L216.859 84.822C215.695 85.062 214.825 85.47 214.249 86.046C213.673 86.622 213.337 87.432 213.241 88.476C213.673 87.96 214.195 87.564 214.807 87.288C215.419 87 216.091 86.856 216.823 86.856ZM216.373 94.362C217.201 94.362 217.867 94.098 218.371 93.57C218.887 93.03 219.145 92.346 219.145 91.518C219.145 90.69 218.887 90.024 218.371 89.52C217.867 89.016 217.201 88.764 216.373 88.764C215.533 88.764 214.855 89.016 214.339 89.52C213.823 90.024 213.565 90.69 213.565 91.518C213.565 92.358 213.823 93.042 214.339 93.57C214.867 94.098 215.545 94.362 216.373 94.362ZM227.911 96.126C226.939 96.126 226.063 95.916 225.283 95.496C224.503 95.076 223.891 94.494 223.447 93.75C223.015 92.994 222.799 92.142 222.799 91.194C222.799 90.246 223.015 89.4 223.447 88.656C223.891 87.912 224.503 87.33 225.283 86.91C226.063 86.49 226.939 86.28 227.911 86.28C228.895 86.28 229.777 86.49 230.557 86.91C231.337 87.33 231.943 87.912 232.375 88.656C232.819 89.4 233.041 90.246 233.041 91.194C233.041 92.142 232.819 92.994 232.375 93.75C231.943 94.494 231.337 95.076 230.557 95.496C229.777 95.916 228.895 96.126 227.911 96.126ZM227.911 94.2C228.739 94.2 229.423 93.924 229.963 93.372C230.503 92.82 230.773 92.094 230.773 91.194C230.773 90.294 230.503 89.568 229.963 89.016C229.423 88.464 228.739 88.188 227.911 88.188C227.083 88.188 226.399 88.464 225.859 89.016C225.331 89.568 225.067 90.294 225.067 91.194C225.067 92.094 225.331 92.82 225.859 93.372C226.399 93.924 227.083 94.2 227.911 94.2ZM242.526 88.296H239.16V96H236.91V88.296H233.526V86.388H242.526V88.296ZM253.301 86.388L248.801 96.774C248.381 97.818 247.871 98.55 247.271 98.97C246.671 99.402 245.945 99.618 245.093 99.618C244.613 99.618 244.139 99.54 243.671 99.384C243.203 99.228 242.819 99.012 242.519 98.736L243.419 97.08C243.635 97.284 243.887 97.446 244.175 97.566C244.475 97.686 244.775 97.746 245.075 97.746C245.471 97.746 245.795 97.644 246.047 97.44C246.311 97.236 246.551 96.894 246.767 96.414L246.929 96.036L242.735 86.388H245.075L248.099 93.498L251.141 86.388H253.301ZM257.98 91.824C257.98 91.176 258.124 90.642 258.412 90.222C258.712 89.79 259.144 89.322 259.708 88.818C260.14 88.434 260.458 88.104 260.662 87.828C260.878 87.54 260.986 87.216 260.986 86.856C260.986 86.352 260.782 85.944 260.374 85.632C259.966 85.32 259.42 85.164 258.736 85.164C257.44 85.164 256.462 85.626 255.802 86.55L254.056 85.416C254.572 84.708 255.238 84.168 256.054 83.796C256.87 83.412 257.83 83.22 258.934 83.22C260.278 83.22 261.346 83.514 262.138 84.102C262.942 84.678 263.344 85.476 263.344 86.496C263.344 86.988 263.26 87.42 263.092 87.792C262.936 88.164 262.744 88.482 262.516 88.746C262.288 88.998 261.988 89.292 261.616 89.628C261.16 90.036 260.818 90.396 260.59 90.708C260.374 91.02 260.266 91.392 260.266 91.824H257.98ZM259.132 96.126C258.712 96.126 258.364 95.994 258.088 95.73C257.824 95.454 257.692 95.118 257.692 94.722C257.692 94.326 257.824 93.996 258.088 93.732C258.364 93.468 258.712 93.336 259.132 93.336C259.54 93.336 259.876 93.468 260.14 93.732C260.416 93.996 260.554 94.326 260.554 94.722C260.554 95.118 260.416 95.454 260.14 95.73C259.876 95.994 259.54 96.126 259.132 96.126Z" fill="black"/>
<g filter="url(#filter1_d_4658_11)">
<path d="M342.271 121.122L334.059 75L304.041 102.767L342.271 121.122Z" fill="white"/>
</g>
<defs>
<filter id="filter0_d_4658_11" x="0.642334" y="0.591797" width="348.028" height="170.038" filterUnits="userSpaceOnUse" color-interpolation-filters="sRGB">
<feFlood flood-opacity="0" result="BackgroundImageFix"/>
<feColorMatrix in="SourceAlpha" type="matrix" values="0 0 0 0 0 0 0 0 0 0 0 0 0 0 0 0 0 0 127 0" result="hardAlpha"/>
<feMorphology radius="2" operator="dilate" in="SourceAlpha" result="effect1_dropShadow_4658_11"/>
<feOffset dx="1" dy="4"/>
<feGaussianBlur stdDeviation="5.5"/>
<feColorMatrix type="matrix" values="0 0 0 0 0 0 0 0 0 0 0 0 0 0 0 0 0 0 0.12 0"/>
<feBlend mode="normal" in2="BackgroundImageFix" result="effect1_dropShadow_4658_11"/>
<feBlend mode="normal" in="SourceGraphic" in2="effect1_dropShadow_4658_11" result="shape"/>
</filter>
<filter id="filter1_d_4658_11" x="300.041" y="75" width="46.2302" height="54.1211" filterUnits="userSpaceOnUse" color-interpolation-filters="sRGB">
<feFlood flood-opacity="0" result="BackgroundImageFix"/>
<feColorMatrix in="SourceAlpha" type="matrix" values="0 0 0 0 0 0 0 0 0 0 0 0 0 0 0 0 0 0 127 0" result="hardAlpha"/>
<feOffset dy="4"/>
<feGaussianBlur stdDeviation="2"/>
<feColorMatrix type="matrix" values="0 0 0 0 0 0 0 0 0 0 0 0 0 0 0 0 0 0 0.25 0"/>
<feBlend mode="normal" in2="BackgroundImageFix" result="effect1_dropShadow_4658_11"/>
<feBlend mode="normal" in="SourceGraphic" in2="effect1_dropShadow_4658_11" result="shape"/>
</filter>
</defs>
</svg>
