<svg width="414" height="192" viewBox="0 0 414 192" fill="none" xmlns="http://www.w3.org/2000/svg">
<g filter="url(#filter0_d_4658_12)">
<path d="M376.119 90.419C375.712 44.8541 294.036 8.65744 193.691 9.57147C93.3459 10.4855 12.3304 48.1641 12.7375 93.7289C13.1447 139.294 94.8204 175.49 195.165 174.576C295.51 173.662 376.526 135.984 376.119 90.419Z" fill="white"/>
</g>
<path d="M68.5935 92.691H66.2535V98.001H63.9495V85.401H66.2535V90.675H68.6655L72.2835 85.401H74.7675L70.4655 91.503L74.9295 98.001H72.2835L68.5935 92.691ZM83.3174 90.297H79.9514V98.001H77.7014V90.297H74.3174V88.389H83.3174V90.297ZM88.8116 98.127C87.8396 98.127 86.9636 97.917 86.1836 97.497C85.4036 97.077 84.7916 96.495 84.3476 95.751C83.9156 94.995 83.6996 94.143 83.6996 93.195C83.6996 92.247 83.9156 91.401 84.3476 90.657C84.7916 89.913 85.4036 89.331 86.1836 88.911C86.9636 88.491 87.8396 88.281 88.8116 88.281C89.7956 88.281 90.6776 88.491 91.4576 88.911C92.2376 89.331 92.8436 89.913 93.2756 90.657C93.7196 91.401 93.9416 92.247 93.9416 93.195C93.9416 94.143 93.7196 94.995 93.2756 95.751C92.8436 96.495 92.2376 97.077 91.4576 97.497C90.6776 97.917 89.7956 98.127 88.8116 98.127ZM88.8116 96.201C89.6396 96.201 90.3236 95.925 90.8636 95.373C91.4036 94.821 91.6736 94.095 91.6736 93.195C91.6736 92.295 91.4036 91.569 90.8636 91.017C90.3236 90.465 89.6396 90.189 88.8116 90.189C87.9836 90.189 87.2996 90.465 86.7596 91.017C86.2316 91.569 85.9676 92.295 85.9676 93.195C85.9676 94.095 86.2316 94.821 86.7596 95.373C87.2996 95.925 87.9836 96.201 88.8116 96.201ZM95.8181 92.061H100.768V93.933H95.8181V92.061ZM110.616 90.297H107.25V98.001H105V90.297H101.616V88.389H110.616V90.297ZM116.11 98.127C115.138 98.127 114.262 97.917 113.482 97.497C112.702 97.077 112.09 96.495 111.646 95.751C111.214 94.995 110.998 94.143 110.998 93.195C110.998 92.247 111.214 91.401 111.646 90.657C112.09 89.913 112.702 89.331 113.482 88.911C114.262 88.491 115.138 88.281 116.11 88.281C117.094 88.281 117.976 88.491 118.756 88.911C119.536 89.331 120.142 89.913 120.574 90.657C121.018 91.401 121.24 92.247 121.24 93.195C121.24 94.143 121.018 94.995 120.574 95.751C120.142 96.495 119.536 97.077 118.756 97.497C117.976 97.917 117.094 98.127 116.11 98.127ZM116.11 96.201C116.938 96.201 117.622 95.925 118.162 95.373C118.702 94.821 118.972 94.095 118.972 93.195C118.972 92.295 118.702 91.569 118.162 91.017C117.622 90.465 116.938 90.189 116.11 90.189C115.282 90.189 114.598 90.465 114.058 91.017C113.53 91.569 113.266 92.295 113.266 93.195C113.266 94.095 113.53 94.821 114.058 95.373C114.598 95.925 115.282 96.201 116.11 96.201ZM128.438 88.389H130.688V92.295H135.53V88.389H137.78V98.001H135.53V94.203H130.688V98.001H128.438V88.389ZM149.795 93.249C149.795 93.405 149.783 93.627 149.759 93.915H142.217C142.349 94.623 142.691 95.187 143.243 95.607C143.807 96.015 144.503 96.219 145.331 96.219C146.387 96.219 147.257 95.871 147.941 95.175L149.147 96.561C148.715 97.077 148.169 97.467 147.509 97.731C146.849 97.995 146.105 98.127 145.277 98.127C144.221 98.127 143.291 97.917 142.487 97.497C141.683 97.077 141.059 96.495 140.615 95.751C140.183 94.995 139.967 94.143 139.967 93.195C139.967 92.259 140.177 91.419 140.597 90.675C141.029 89.919 141.623 89.331 142.379 88.911C143.135 88.491 143.987 88.281 144.935 88.281C145.871 88.281 146.705 88.491 147.437 88.911C148.181 89.319 148.757 89.901 149.165 90.657C149.585 91.401 149.795 92.265 149.795 93.249ZM144.935 90.081C144.215 90.081 143.603 90.297 143.099 90.729C142.607 91.149 142.307 91.713 142.199 92.421H147.653C147.557 91.725 147.263 91.161 146.771 90.729C146.279 90.297 145.667 90.081 144.935 90.081ZM164.197 92.997C165.385 93.357 165.979 94.125 165.979 95.301C165.979 96.165 165.655 96.831 165.007 97.299C164.359 97.767 163.399 98.001 162.127 98.001H157.231V88.389H161.929C163.105 88.389 164.023 88.605 164.683 89.037C165.343 89.469 165.673 90.081 165.673 90.873C165.673 91.365 165.541 91.791 165.277 92.151C165.025 92.511 164.665 92.793 164.197 92.997ZM159.373 92.403H161.731C162.895 92.403 163.477 92.001 163.477 91.197C163.477 90.417 162.895 90.027 161.731 90.027H159.373V92.403ZM161.947 96.363C163.183 96.363 163.801 95.961 163.801 95.157C163.801 94.737 163.657 94.425 163.369 94.221C163.081 94.005 162.631 93.897 162.019 93.897H159.373V96.363H161.947ZM172.659 98.127C171.687 98.127 170.811 97.917 170.031 97.497C169.251 97.077 168.639 96.495 168.195 95.751C167.763 94.995 167.547 94.143 167.547 93.195C167.547 92.247 167.763 91.401 168.195 90.657C168.639 89.913 169.251 89.331 170.031 88.911C170.811 88.491 171.687 88.281 172.659 88.281C173.643 88.281 174.525 88.491 175.305 88.911C176.085 89.331 176.691 89.913 177.123 90.657C177.567 91.401 177.789 92.247 177.789 93.195C177.789 94.143 177.567 94.995 177.123 95.751C176.691 96.495 176.085 97.077 175.305 97.497C174.525 97.917 173.643 98.127 172.659 98.127ZM172.659 96.201C173.487 96.201 174.171 95.925 174.711 95.373C175.251 94.821 175.521 94.095 175.521 93.195C175.521 92.295 175.251 91.569 174.711 91.017C174.171 90.465 173.487 90.189 172.659 90.189C171.831 90.189 171.147 90.465 170.607 91.017C170.079 91.569 169.815 92.295 169.815 93.195C169.815 94.095 170.079 94.821 170.607 95.373C171.147 95.925 171.831 96.201 172.659 96.201ZM185.613 92.997C186.213 93.165 186.675 93.441 186.999 93.825C187.335 94.197 187.503 94.647 187.503 95.175C187.503 95.763 187.305 96.285 186.909 96.741C186.513 97.185 185.967 97.533 185.271 97.785C184.575 98.037 183.783 98.163 182.895 98.163C182.151 98.163 181.425 98.079 180.717 97.911C180.009 97.731 179.367 97.479 178.791 97.155L179.439 95.481C179.907 95.745 180.435 95.949 181.023 96.093C181.611 96.237 182.199 96.309 182.787 96.309C183.543 96.309 184.131 96.195 184.551 95.967C184.983 95.727 185.199 95.403 185.199 94.995C185.199 94.623 185.031 94.335 184.695 94.131C184.371 93.927 183.909 93.825 183.309 93.825H181.437V92.313H183.129C183.693 92.313 184.131 92.217 184.443 92.025C184.767 91.833 184.929 91.563 184.929 91.215C184.929 90.867 184.737 90.591 184.353 90.387C183.969 90.183 183.441 90.081 182.769 90.081C181.809 90.081 180.795 90.315 179.727 90.783L179.151 89.127C180.411 88.539 181.683 88.245 182.967 88.245C183.783 88.245 184.515 88.359 185.163 88.587C185.811 88.803 186.315 89.115 186.675 89.523C187.047 89.919 187.233 90.375 187.233 90.891C187.233 91.359 187.089 91.779 186.801 92.151C186.513 92.511 186.117 92.793 185.613 92.997ZM196.804 92.997C197.992 93.357 198.586 94.125 198.586 95.301C198.586 96.165 198.262 96.831 197.614 97.299C196.966 97.767 196.006 98.001 194.734 98.001H189.838V88.389H194.536C195.712 88.389 196.63 88.605 197.29 89.037C197.95 89.469 198.28 90.081 198.28 90.873C198.28 91.365 198.148 91.791 197.884 92.151C197.632 92.511 197.272 92.793 196.804 92.997ZM191.98 92.403H194.338C195.502 92.403 196.084 92.001 196.084 91.197C196.084 90.417 195.502 90.027 194.338 90.027H191.98V92.403ZM194.554 96.363C195.79 96.363 196.408 95.961 196.408 95.157C196.408 94.737 196.264 94.425 195.976 94.221C195.688 94.005 195.238 93.897 194.626 93.897H191.98V96.363H194.554ZM206.311 88.281C207.247 88.281 208.081 88.485 208.813 88.893C209.557 89.301 210.139 89.877 210.559 90.621C210.979 91.365 211.189 92.223 211.189 93.195C211.189 94.167 210.979 95.031 210.559 95.787C210.139 96.531 209.557 97.107 208.813 97.515C208.081 97.923 207.247 98.127 206.311 98.127C205.015 98.127 203.989 97.695 203.233 96.831V101.493H200.983V88.389H203.125V89.649C203.497 89.193 203.953 88.851 204.493 88.623C205.045 88.395 205.651 88.281 206.311 88.281ZM206.059 96.201C206.887 96.201 207.565 95.925 208.093 95.373C208.633 94.821 208.903 94.095 208.903 93.195C208.903 92.295 208.633 91.569 208.093 91.017C207.565 90.465 206.887 90.189 206.059 90.189C205.519 90.189 205.033 90.315 204.601 90.567C204.169 90.807 203.827 91.155 203.575 91.611C203.323 92.067 203.197 92.595 203.197 93.195C203.197 93.795 203.323 94.323 203.575 94.779C203.827 95.235 204.169 95.589 204.601 95.841C205.033 96.081 205.519 96.201 206.059 96.201ZM216.887 88.281C218.303 88.281 219.383 88.623 220.127 89.307C220.883 89.979 221.261 90.999 221.261 92.367V98.001H219.137V96.831C218.861 97.251 218.465 97.575 217.949 97.803C217.445 98.019 216.833 98.127 216.113 98.127C215.393 98.127 214.763 98.007 214.223 97.767C213.683 97.515 213.263 97.173 212.963 96.741C212.675 96.297 212.531 95.799 212.531 95.247C212.531 94.383 212.849 93.693 213.485 93.177C214.133 92.649 215.147 92.385 216.527 92.385H219.011V92.241C219.011 91.569 218.807 91.053 218.399 90.693C218.003 90.333 217.409 90.153 216.617 90.153C216.077 90.153 215.543 90.237 215.015 90.405C214.499 90.573 214.061 90.807 213.701 91.107L212.819 89.469C213.323 89.085 213.929 88.791 214.637 88.587C215.345 88.383 216.095 88.281 216.887 88.281ZM216.581 96.489C217.145 96.489 217.643 96.363 218.075 96.111C218.519 95.847 218.831 95.475 219.011 94.995V93.879H216.689C215.393 93.879 214.745 94.305 214.745 95.157C214.745 95.565 214.907 95.889 215.231 96.129C215.555 96.369 216.005 96.489 216.581 96.489ZM238.211 88.389V98.001H224.045V88.389H226.295V96.093H230.021V88.389H232.271V96.093H235.961V88.389H238.211ZM239.597 96.093V99.981H237.491V98.001H235.889V96.093H239.597ZM244.819 88.281C246.235 88.281 247.315 88.623 248.059 89.307C248.815 89.979 249.193 90.999 249.193 92.367V98.001H247.069V96.831C246.793 97.251 246.397 97.575 245.881 97.803C245.377 98.019 244.765 98.127 244.045 98.127C243.325 98.127 242.695 98.007 242.155 97.767C241.615 97.515 241.195 97.173 240.895 96.741C240.607 96.297 240.463 95.799 240.463 95.247C240.463 94.383 240.781 93.693 241.417 93.177C242.065 92.649 243.079 92.385 244.459 92.385H246.943V92.241C246.943 91.569 246.739 91.053 246.331 90.693C245.935 90.333 245.341 90.153 244.549 90.153C244.009 90.153 243.475 90.237 242.947 90.405C242.431 90.573 241.993 90.807 241.633 91.107L240.751 89.469C241.255 89.085 241.861 88.791 242.569 88.587C243.277 88.383 244.027 88.281 244.819 88.281ZM244.513 96.489C245.077 96.489 245.575 96.363 246.007 96.111C246.451 95.847 246.763 95.475 246.943 94.995V93.879H244.621C243.325 93.879 242.677 94.305 242.677 95.157C242.677 95.565 242.839 95.889 243.163 96.129C243.487 96.369 243.937 96.489 244.513 96.489ZM260.977 93.249C260.977 93.405 260.965 93.627 260.941 93.915H253.399C253.531 94.623 253.873 95.187 254.425 95.607C254.989 96.015 255.685 96.219 256.513 96.219C257.569 96.219 258.439 95.871 259.123 95.175L260.329 96.561C259.897 97.077 259.351 97.467 258.691 97.731C258.031 97.995 257.287 98.127 256.459 98.127C255.403 98.127 254.473 97.917 253.669 97.497C252.865 97.077 252.241 96.495 251.797 95.751C251.365 94.995 251.149 94.143 251.149 93.195C251.149 92.259 251.359 91.419 251.779 90.675C252.211 89.919 252.805 89.331 253.561 88.911C254.317 88.491 255.169 88.281 256.117 88.281C257.053 88.281 257.887 88.491 258.619 88.911C259.363 89.319 259.939 89.901 260.347 90.657C260.767 91.401 260.977 92.265 260.977 93.249ZM256.117 90.081C255.397 90.081 254.785 90.297 254.281 90.729C253.789 91.149 253.489 91.713 253.381 92.421H258.835C258.739 91.725 258.445 91.161 257.953 90.729C257.461 90.297 256.849 90.081 256.117 90.081ZM270.7 90.297H267.334V98.001H265.084V90.297H261.7V88.389H270.7V90.297ZM287.567 96.093V100.143H285.461V98.001H278.045V100.143H275.957V96.093H276.407C277.019 96.069 277.433 95.679 277.649 94.923C277.877 94.155 278.027 93.075 278.099 91.683L278.225 88.389H286.145V96.093H287.567ZM280.151 91.845C280.103 92.949 280.013 93.849 279.881 94.545C279.749 95.241 279.509 95.757 279.161 96.093H283.895V90.297H280.205L280.151 91.845ZM293.86 98.127C292.888 98.127 292.012 97.917 291.232 97.497C290.452 97.077 289.84 96.495 289.396 95.751C288.964 94.995 288.748 94.143 288.748 93.195C288.748 92.247 288.964 91.401 289.396 90.657C289.84 89.913 290.452 89.331 291.232 88.911C292.012 88.491 292.888 88.281 293.86 88.281C294.844 88.281 295.726 88.491 296.506 88.911C297.286 89.331 297.892 89.913 298.324 90.657C298.768 91.401 298.99 92.247 298.99 93.195C298.99 94.143 298.768 94.995 298.324 95.751C297.892 96.495 297.286 97.077 296.506 97.497C295.726 97.917 294.844 98.127 293.86 98.127ZM293.86 96.201C294.688 96.201 295.372 95.925 295.912 95.373C296.452 94.821 296.722 94.095 296.722 93.195C296.722 92.295 296.452 91.569 295.912 91.017C295.372 90.465 294.688 90.189 293.86 90.189C293.032 90.189 292.348 90.465 291.808 91.017C291.28 91.569 291.016 92.295 291.016 93.195C291.016 94.095 291.28 94.821 291.808 95.373C292.348 95.925 293.032 96.201 293.86 96.201ZM309.82 88.389V98.001H307.57V90.297H303.97L303.88 92.205C303.82 93.477 303.7 94.545 303.52 95.409C303.352 96.261 303.058 96.939 302.638 97.443C302.23 97.935 301.666 98.181 300.946 98.181C300.61 98.181 300.196 98.115 299.704 97.983L299.812 96.093C299.98 96.129 300.124 96.147 300.244 96.147C300.7 96.147 301.042 95.967 301.27 95.607C301.498 95.235 301.642 94.797 301.702 94.293C301.774 93.777 301.834 93.045 301.882 92.097L302.044 88.389H309.82ZM320.23 90.297H315.1V98.001H312.85V88.389H320.23V90.297ZM324.351 93.825C324.351 93.177 324.495 92.643 324.783 92.223C325.083 91.791 325.515 91.323 326.079 90.819C326.511 90.435 326.829 90.105 327.033 89.829C327.249 89.541 327.357 89.217 327.357 88.857C327.357 88.353 327.153 87.945 326.745 87.633C326.337 87.321 325.791 87.165 325.107 87.165C323.811 87.165 322.833 87.627 322.173 88.551L320.427 87.417C320.943 86.709 321.609 86.169 322.425 85.797C323.241 85.413 324.201 85.221 325.305 85.221C326.649 85.221 327.717 85.515 328.509 86.103C329.313 86.679 329.715 87.477 329.715 88.497C329.715 88.989 329.631 89.421 329.463 89.793C329.307 90.165 329.115 90.483 328.887 90.747C328.659 90.999 328.359 91.293 327.987 91.629C327.531 92.037 327.189 92.397 326.961 92.709C326.745 93.021 326.637 93.393 326.637 93.825H324.351ZM325.503 98.127C325.083 98.127 324.735 97.995 324.459 97.731C324.195 97.455 324.063 97.119 324.063 96.723C324.063 96.327 324.195 95.997 324.459 95.733C324.735 95.469 325.083 95.337 325.503 95.337C325.911 95.337 326.247 95.469 326.511 95.733C326.787 95.997 326.925 96.327 326.925 96.723C326.925 97.119 326.787 97.455 326.511 97.731C326.247 97.995 325.911 98.127 325.503 98.127Z" fill="black"/>
<g filter="url(#filter1_d_4658_12)">
<path d="M410 131.001L371 109.001L345 136.001L410 131.001Z" fill="white"/>
</g>
<defs>
<filter id="filter0_d_4658_12" x="0.735962" y="0.554688" width="389.384" height="191.039" filterUnits="userSpaceOnUse" color-interpolation-filters="sRGB">
<feFlood flood-opacity="0" result="BackgroundImageFix"/>
<feColorMatrix in="SourceAlpha" type="matrix" values="0 0 0 0 0 0 0 0 0 0 0 0 0 0 0 0 0 0 127 0" result="hardAlpha"/>
<feMorphology radius="2" operator="dilate" in="SourceAlpha" result="effect1_dropShadow_4658_12"/>
<feOffset dx="1" dy="4"/>
<feGaussianBlur stdDeviation="5.5"/>
<feColorMatrix type="matrix" values="0 0 0 0 0 0 0 0 0 0 0 0 0 0 0 0 0 0 0.12 0"/>
<feBlend mode="normal" in2="BackgroundImageFix" result="effect1_dropShadow_4658_12"/>
<feBlend mode="normal" in="SourceGraphic" in2="effect1_dropShadow_4658_12" result="shape"/>
</filter>
<filter id="filter1_d_4658_12" x="341" y="109.001" width="73" height="35" filterUnits="userSpaceOnUse" color-interpolation-filters="sRGB">
<feFlood flood-opacity="0" result="BackgroundImageFix"/>
<feColorMatrix in="SourceAlpha" type="matrix" values="0 0 0 0 0 0 0 0 0 0 0 0 0 0 0 0 0 0 127 0" result="hardAlpha"/>
<feOffset dy="4"/>
<feGaussianBlur stdDeviation="2"/>
<feColorMatrix type="matrix" values="0 0 0 0 0 0 0 0 0 0 0 0 0 0 0 0 0 0 0.25 0"/>
<feBlend mode="normal" in2="BackgroundImageFix" result="effect1_dropShadow_4658_12"/>
<feBlend mode="normal" in="SourceGraphic" in2="effect1_dropShadow_4658_12" result="shape"/>
</filter>
</defs>
</svg>
