<svg width="391" height="191" viewBox="0 0 391 191" fill="none" xmlns="http://www.w3.org/2000/svg">
<g filter="url(#filter0_d_4658_13)">
<path d="M376.113 89.8633C375.709 44.6512 294.036 8.74047 193.691 9.6545C93.3458 10.5685 12.3276 47.9612 12.7316 93.1733C13.1356 138.385 94.8088 174.296 195.154 173.382C295.499 172.468 376.517 135.075 376.113 89.8633Z" fill="white"/>
</g>
<path d="M62.3263 83.4V96H60.0223V85.38H53.4883V96H51.1843V83.4H62.3263ZM69.9112 96.126C68.9392 96.126 68.0632 95.916 67.2832 95.496C66.5032 95.076 65.8912 94.494 65.4472 93.75C65.0152 92.994 64.7992 92.142 64.7992 91.194C64.7992 90.246 65.0152 89.4 65.4472 88.656C65.8912 87.912 66.5032 87.33 67.2832 86.91C68.0632 86.49 68.9392 86.28 69.9112 86.28C70.8952 86.28 71.7772 86.49 72.5572 86.91C73.3372 87.33 73.9432 87.912 74.3752 88.656C74.8192 89.4 75.0412 90.246 75.0412 91.194C75.0412 92.142 74.8192 92.994 74.3752 93.75C73.9432 94.494 73.3372 95.076 72.5572 95.496C71.7772 95.916 70.8952 96.126 69.9112 96.126ZM69.9112 94.2C70.7392 94.2 71.4232 93.924 71.9632 93.372C72.5032 92.82 72.7732 92.094 72.7732 91.194C72.7732 90.294 72.5032 89.568 71.9632 89.016C71.4232 88.464 70.7392 88.188 69.9112 88.188C69.0832 88.188 68.3992 88.464 67.8592 89.016C67.3312 89.568 67.0672 90.294 67.0672 91.194C67.0672 92.094 67.3312 92.82 67.8592 93.372C68.3992 93.924 69.0832 94.2 69.9112 94.2ZM85.8705 86.388V96H83.6205V88.296H80.0205L79.9305 90.204C79.8705 91.476 79.7505 92.544 79.5705 93.408C79.4025 94.26 79.1085 94.938 78.6885 95.442C78.2805 95.934 77.7165 96.18 76.9965 96.18C76.6605 96.18 76.2465 96.114 75.7545 95.982L75.8625 94.092C76.0305 94.128 76.1745 94.146 76.2945 94.146C76.7505 94.146 77.0925 93.966 77.3205 93.606C77.5485 93.234 77.6925 92.796 77.7525 92.292C77.8245 91.776 77.8845 91.044 77.9325 90.096L78.0945 86.388H85.8705ZM88.9007 86.388H91.1507V92.724L96.4607 86.388H98.5127V96H96.2627V89.664L90.9707 96H88.9007V86.388ZM112.087 94.092V98.214H109.981V96H101.539V86.388H103.789V94.092H108.379V86.388H110.629V94.092H112.087ZM114.09 86.388H116.34V92.724L121.65 86.388H123.702V96H121.452V89.664L116.16 96H114.09V86.388ZM134.847 86.388V96H132.831V93.102H130.293L128.331 96H125.919L128.187 92.796C127.491 92.556 126.957 92.19 126.585 91.698C126.225 91.194 126.045 90.576 126.045 89.844C126.045 88.74 126.435 87.888 127.215 87.288C127.995 86.688 129.069 86.388 130.437 86.388H134.847ZM130.509 88.278C129.057 88.278 128.331 88.824 128.331 89.916C128.331 90.996 129.033 91.536 130.437 91.536H132.831V88.278H130.509ZM152.244 85.38H148.068V96H145.746V85.38H141.588V83.4H152.244V85.38ZM162.026 91.248C162.026 91.404 162.014 91.626 161.99 91.914H154.448C154.58 92.622 154.922 93.186 155.474 93.606C156.038 94.014 156.734 94.218 157.562 94.218C158.618 94.218 159.488 93.87 160.172 93.174L161.378 94.56C160.946 95.076 160.4 95.466 159.74 95.73C159.08 95.994 158.336 96.126 157.508 96.126C156.452 96.126 155.522 95.916 154.718 95.496C153.914 95.076 153.29 94.494 152.846 93.75C152.414 92.994 152.198 92.142 152.198 91.194C152.198 90.258 152.408 89.418 152.828 88.674C153.26 87.918 153.854 87.33 154.61 86.91C155.366 86.49 156.218 86.28 157.166 86.28C158.102 86.28 158.936 86.49 159.668 86.91C160.412 87.318 160.988 87.9 161.396 88.656C161.816 89.4 162.026 90.264 162.026 91.248ZM157.166 88.08C156.446 88.08 155.834 88.296 155.33 88.728C154.838 89.148 154.538 89.712 154.43 90.42H159.884C159.788 89.724 159.494 89.16 159.002 88.728C158.51 88.296 157.898 88.08 157.166 88.08ZM169.689 86.856C170.601 86.856 171.405 87.054 172.101 87.45C172.797 87.834 173.337 88.374 173.721 89.07C174.117 89.766 174.315 90.564 174.315 91.464C174.315 92.388 174.099 93.21 173.667 93.93C173.235 94.638 172.629 95.19 171.849 95.586C171.069 95.982 170.181 96.18 169.185 96.18C167.517 96.18 166.227 95.628 165.315 94.524C164.403 93.42 163.947 91.83 163.947 89.754C163.947 87.822 164.361 86.292 165.189 85.164C166.017 84.036 167.283 83.292 168.987 82.932L173.451 81.978L173.775 83.994L169.725 84.822C168.561 85.062 167.691 85.47 167.115 86.046C166.539 86.622 166.203 87.432 166.107 88.476C166.539 87.96 167.061 87.564 167.673 87.288C168.285 87 168.957 86.856 169.689 86.856ZM169.239 94.362C170.067 94.362 170.733 94.098 171.237 93.57C171.753 93.03 172.011 92.346 172.011 91.518C172.011 90.69 171.753 90.024 171.237 89.52C170.733 89.016 170.067 88.764 169.239 88.764C168.399 88.764 167.721 89.016 167.205 89.52C166.689 90.024 166.431 90.69 166.431 91.518C166.431 92.358 166.689 93.042 167.205 93.57C167.733 94.098 168.411 94.362 169.239 94.362ZM184.294 86.388V96H182.278V93.102H179.74L177.778 96H175.366L177.634 92.796C176.938 92.556 176.404 92.19 176.032 91.698C175.672 91.194 175.492 90.576 175.492 89.844C175.492 88.74 175.882 87.888 176.662 87.288C177.442 86.688 178.516 86.388 179.884 86.388H184.294ZM179.956 88.278C178.504 88.278 177.778 88.824 177.778 89.916C177.778 90.996 178.48 91.536 179.884 91.536H182.278V88.278H179.956ZM196.579 96.126C195.607 96.126 194.731 95.916 193.951 95.496C193.171 95.076 192.559 94.494 192.115 93.75C191.683 92.994 191.467 92.142 191.467 91.194C191.467 90.246 191.683 89.4 192.115 88.656C192.559 87.912 193.171 87.33 193.951 86.91C194.731 86.49 195.607 86.28 196.579 86.28C197.563 86.28 198.445 86.49 199.225 86.91C200.005 87.33 200.611 87.912 201.043 88.656C201.487 89.4 201.709 90.246 201.709 91.194C201.709 92.142 201.487 92.994 201.043 93.75C200.611 94.494 200.005 95.076 199.225 95.496C198.445 95.916 197.563 96.126 196.579 96.126ZM196.579 94.2C197.407 94.2 198.091 93.924 198.631 93.372C199.171 92.82 199.441 92.094 199.441 91.194C199.441 90.294 199.171 89.568 198.631 89.016C198.091 88.464 197.407 88.188 196.579 88.188C195.751 88.188 195.067 88.464 194.527 89.016C193.999 89.568 193.735 90.294 193.735 91.194C193.735 92.094 193.999 92.82 194.527 93.372C195.067 93.924 195.751 94.2 196.579 94.2ZM218.098 86.388V96H203.932V86.388H206.182V94.092H209.908V86.388H212.158V94.092H215.848V86.388H218.098ZM228.737 88.296H225.371V96H223.121V88.296H219.737V86.388H228.737V88.296ZM235.697 86.28C236.633 86.28 237.467 86.484 238.199 86.892C238.943 87.3 239.525 87.876 239.945 88.62C240.365 89.364 240.575 90.222 240.575 91.194C240.575 92.166 240.365 93.03 239.945 93.786C239.525 94.53 238.943 95.106 238.199 95.514C237.467 95.922 236.633 96.126 235.697 96.126C234.401 96.126 233.375 95.694 232.619 94.83V99.492H230.369V86.388H232.511V87.648C232.883 87.192 233.339 86.85 233.879 86.622C234.431 86.394 235.037 86.28 235.697 86.28ZM235.445 94.2C236.273 94.2 236.951 93.924 237.479 93.372C238.019 92.82 238.289 92.094 238.289 91.194C238.289 90.294 238.019 89.568 237.479 89.016C236.951 88.464 236.273 88.188 235.445 88.188C234.905 88.188 234.419 88.314 233.987 88.566C233.555 88.806 233.213 89.154 232.961 89.61C232.709 90.066 232.583 90.594 232.583 91.194C232.583 91.794 232.709 92.322 232.961 92.778C233.213 93.234 233.555 93.588 233.987 93.84C234.419 94.08 234.905 94.2 235.445 94.2ZM246.274 86.28C247.69 86.28 248.77 86.622 249.514 87.306C250.27 87.978 250.648 88.998 250.648 90.366V96H248.524V94.83C248.248 95.25 247.852 95.574 247.336 95.802C246.832 96.018 246.22 96.126 245.5 96.126C244.78 96.126 244.15 96.006 243.61 95.766C243.07 95.514 242.65 95.172 242.35 94.74C242.062 94.296 241.918 93.798 241.918 93.246C241.918 92.382 242.236 91.692 242.872 91.176C243.52 90.648 244.534 90.384 245.914 90.384H248.398V90.24C248.398 89.568 248.194 89.052 247.786 88.692C247.39 88.332 246.796 88.152 246.004 88.152C245.464 88.152 244.93 88.236 244.402 88.404C243.886 88.572 243.448 88.806 243.088 89.106L242.206 87.468C242.71 87.084 243.316 86.79 244.024 86.586C244.732 86.382 245.482 86.28 246.274 86.28ZM245.968 94.488C246.532 94.488 247.03 94.362 247.462 94.11C247.906 93.846 248.218 93.474 248.398 92.994V91.878H246.076C244.78 91.878 244.132 92.304 244.132 93.156C244.132 93.564 244.294 93.888 244.618 94.128C244.942 94.368 245.392 94.488 245.968 94.488ZM266.14 91.176C266.14 92.664 265.642 93.834 264.646 94.686C263.662 95.538 262.252 96.024 260.416 96.144V99.492H258.292V96.162C256.456 96.042 255.046 95.556 254.062 94.704C253.078 93.852 252.586 92.676 252.586 91.176C252.586 89.688 253.078 88.53 254.062 87.702C255.046 86.862 256.456 86.382 258.292 86.262V82.644H260.416V86.262C262.252 86.382 263.662 86.862 264.646 87.702C265.642 88.542 266.14 89.7 266.14 91.176ZM254.8 91.176C254.8 92.1 255.082 92.82 255.646 93.336C256.222 93.852 257.104 94.164 258.292 94.272V88.17C257.104 88.266 256.222 88.566 255.646 89.07C255.082 89.574 254.8 90.276 254.8 91.176ZM260.416 94.272C262.768 94.056 263.944 93.024 263.944 91.176C263.944 90.264 263.65 89.562 263.062 89.07C262.486 88.566 261.604 88.266 260.416 88.17V94.272ZM272.605 96.126C271.633 96.126 270.757 95.916 269.977 95.496C269.197 95.076 268.585 94.494 268.141 93.75C267.709 92.994 267.493 92.142 267.493 91.194C267.493 90.246 267.709 89.4 268.141 88.656C268.585 87.912 269.197 87.33 269.977 86.91C270.757 86.49 271.633 86.28 272.605 86.28C273.589 86.28 274.471 86.49 275.251 86.91C276.031 87.33 276.637 87.912 277.069 88.656C277.513 89.4 277.735 90.246 277.735 91.194C277.735 92.142 277.513 92.994 277.069 93.75C276.637 94.494 276.031 95.076 275.251 95.496C274.471 95.916 273.589 96.126 272.605 96.126ZM272.605 94.2C273.433 94.2 274.117 93.924 274.657 93.372C275.197 92.82 275.467 92.094 275.467 91.194C275.467 90.294 275.197 89.568 274.657 89.016C274.117 88.464 273.433 88.188 272.605 88.188C271.777 88.188 271.093 88.464 270.553 89.016C270.025 89.568 269.761 90.294 269.761 91.194C269.761 92.094 270.025 92.82 270.553 93.372C271.093 93.924 271.777 94.2 272.605 94.2ZM286.923 90.996C288.111 91.356 288.705 92.124 288.705 93.3C288.705 94.164 288.381 94.83 287.733 95.298C287.085 95.766 286.125 96 284.853 96H279.957V86.388H284.655C285.831 86.388 286.749 86.604 287.409 87.036C288.069 87.468 288.399 88.08 288.399 88.872C288.399 89.364 288.267 89.79 288.003 90.15C287.751 90.51 287.391 90.792 286.923 90.996ZM282.099 90.402H284.457C285.621 90.402 286.203 90 286.203 89.196C286.203 88.416 285.621 88.026 284.457 88.026H282.099V90.402ZM284.673 94.362C285.909 94.362 286.527 93.96 286.527 93.156C286.527 92.736 286.383 92.424 286.095 92.22C285.807 92.004 285.357 91.896 284.745 91.896H282.099V94.362H284.673ZM294.684 86.28C296.1 86.28 297.18 86.622 297.924 87.306C298.68 87.978 299.058 88.998 299.058 90.366V96H296.934V94.83C296.658 95.25 296.262 95.574 295.746 95.802C295.242 96.018 294.63 96.126 293.91 96.126C293.19 96.126 292.56 96.006 292.02 95.766C291.48 95.514 291.06 95.172 290.76 94.74C290.472 94.296 290.328 93.798 290.328 93.246C290.328 92.382 290.646 91.692 291.282 91.176C291.93 90.648 292.944 90.384 294.324 90.384H296.808V90.24C296.808 89.568 296.604 89.052 296.196 88.692C295.8 88.332 295.206 88.152 294.414 88.152C293.874 88.152 293.34 88.236 292.812 88.404C292.296 88.572 291.858 88.806 291.498 89.106L290.616 87.468C291.12 87.084 291.726 86.79 292.434 86.586C293.142 86.382 293.892 86.28 294.684 86.28ZM294.378 94.488C294.942 94.488 295.44 94.362 295.872 94.11C296.316 93.846 296.628 93.474 296.808 92.994V91.878H294.486C293.19 91.878 292.542 92.304 292.542 93.156C292.542 93.564 292.704 93.888 293.028 94.128C293.352 94.368 293.802 94.488 294.378 94.488ZM310.554 86.388V96H308.304V88.296H304.704L304.614 90.204C304.554 91.476 304.434 92.544 304.254 93.408C304.086 94.26 303.792 94.938 303.372 95.442C302.964 95.934 302.4 96.18 301.68 96.18C301.344 96.18 300.93 96.114 300.438 95.982L300.546 94.092C300.714 94.128 300.858 94.146 300.978 94.146C301.434 94.146 301.776 93.966 302.004 93.606C302.232 93.234 302.376 92.796 302.436 92.292C302.508 91.776 302.568 91.044 302.616 90.096L302.778 86.388H310.554ZM317.166 86.28C318.582 86.28 319.662 86.622 320.406 87.306C321.162 87.978 321.54 88.998 321.54 90.366V96H319.416V94.83C319.14 95.25 318.744 95.574 318.228 95.802C317.724 96.018 317.112 96.126 316.392 96.126C315.672 96.126 315.042 96.006 314.502 95.766C313.962 95.514 313.542 95.172 313.242 94.74C312.954 94.296 312.81 93.798 312.81 93.246C312.81 92.382 313.128 91.692 313.764 91.176C314.412 90.648 315.426 90.384 316.806 90.384H319.29V90.24C319.29 89.568 319.086 89.052 318.678 88.692C318.282 88.332 317.688 88.152 316.896 88.152C316.356 88.152 315.822 88.236 315.294 88.404C314.778 88.572 314.34 88.806 313.98 89.106L313.098 87.468C313.602 87.084 314.208 86.79 314.916 86.586C315.624 86.382 316.374 86.28 317.166 86.28ZM316.86 94.488C317.424 94.488 317.922 94.362 318.354 94.11C318.798 93.846 319.11 93.474 319.29 92.994V91.878H316.968C315.672 91.878 315.024 92.304 315.024 93.156C315.024 93.564 315.186 93.888 315.51 94.128C315.834 94.368 316.284 94.488 316.86 94.488ZM327.16 91.824C327.16 91.176 327.304 90.642 327.592 90.222C327.892 89.79 328.324 89.322 328.888 88.818C329.32 88.434 329.638 88.104 329.842 87.828C330.058 87.54 330.166 87.216 330.166 86.856C330.166 86.352 329.962 85.944 329.554 85.632C329.146 85.32 328.6 85.164 327.916 85.164C326.62 85.164 325.642 85.626 324.982 86.55L323.236 85.416C323.752 84.708 324.418 84.168 325.234 83.796C326.05 83.412 327.01 83.22 328.114 83.22C329.458 83.22 330.526 83.514 331.318 84.102C332.122 84.678 332.524 85.476 332.524 86.496C332.524 86.988 332.44 87.42 332.272 87.792C332.116 88.164 331.924 88.482 331.696 88.746C331.468 88.998 331.168 89.292 330.796 89.628C330.34 90.036 329.998 90.396 329.77 90.708C329.554 91.02 329.446 91.392 329.446 91.824H327.16ZM328.312 96.126C327.892 96.126 327.544 95.994 327.268 95.73C327.004 95.454 326.872 95.118 326.872 94.722C326.872 94.326 327.004 93.996 327.268 93.732C327.544 93.468 327.892 93.336 328.312 93.336C328.72 93.336 329.056 93.468 329.32 93.732C329.596 93.996 329.734 94.326 329.734 94.722C329.734 95.118 329.596 95.454 329.32 95.73C329.056 95.994 328.72 96.126 328.312 96.126Z" fill="black"/>
<g filter="url(#filter1_d_4658_13)">
<path d="M349 158L310 136L284 163L349 158Z" fill="white"/>
</g>
<defs>
<filter id="filter0_d_4658_13" x="0.730225" y="0.637695" width="389.384" height="189.762" filterUnits="userSpaceOnUse" color-interpolation-filters="sRGB">
<feFlood flood-opacity="0" result="BackgroundImageFix"/>
<feColorMatrix in="SourceAlpha" type="matrix" values="0 0 0 0 0 0 0 0 0 0 0 0 0 0 0 0 0 0 127 0" result="hardAlpha"/>
<feMorphology radius="2" operator="dilate" in="SourceAlpha" result="effect1_dropShadow_4658_13"/>
<feOffset dx="1" dy="4"/>
<feGaussianBlur stdDeviation="5.5"/>
<feColorMatrix type="matrix" values="0 0 0 0 0 0 0 0 0 0 0 0 0 0 0 0 0 0 0.12 0"/>
<feBlend mode="normal" in2="BackgroundImageFix" result="effect1_dropShadow_4658_13"/>
<feBlend mode="normal" in="SourceGraphic" in2="effect1_dropShadow_4658_13" result="shape"/>
</filter>
<filter id="filter1_d_4658_13" x="280" y="136" width="73" height="35" filterUnits="userSpaceOnUse" color-interpolation-filters="sRGB">
<feFlood flood-opacity="0" result="BackgroundImageFix"/>
<feColorMatrix in="SourceAlpha" type="matrix" values="0 0 0 0 0 0 0 0 0 0 0 0 0 0 0 0 0 0 127 0" result="hardAlpha"/>
<feOffset dy="4"/>
<feGaussianBlur stdDeviation="2"/>
<feColorMatrix type="matrix" values="0 0 0 0 0 0 0 0 0 0 0 0 0 0 0 0 0 0 0.25 0"/>
<feBlend mode="normal" in2="BackgroundImageFix" result="effect1_dropShadow_4658_13"/>
<feBlend mode="normal" in="SourceGraphic" in2="effect1_dropShadow_4658_13" result="shape"/>
</filter>
</defs>
</svg>
