<svg width="386" height="188" viewBox="0 0 386 188" fill="none" xmlns="http://www.w3.org/2000/svg">
<g filter="url(#filter0_d_4658_14)">
<path d="M371.414 88.4505C371.017 44.0121 290.398 8.71908 191.348 9.62132C92.297 10.5236 12.3224 47.2794 12.7195 91.7178C13.1166 136.156 93.735 171.449 192.786 170.547C291.836 169.645 371.811 132.889 371.414 88.4505Z" fill="white"/>
</g>
<path d="M54.314 72.38H48.068L48.086 83H45.782V70.4H54.332L54.314 72.38ZM57.7237 83.126C56.7517 83.126 55.8757 82.916 55.0957 82.496C54.3157 82.076 53.7037 81.494 53.2597 80.75C52.8277 79.994 52.6117 79.142 52.6117 78.194C52.6117 77.246 52.8277 76.4 53.2597 75.656C53.7037 74.912 54.3157 74.33 55.0957 73.91C55.8757 73.49 56.7517 73.28 57.7237 73.28C58.7077 73.28 59.5897 73.49 60.3697 73.91C61.1497 74.33 61.7557 74.912 62.1877 75.656C62.6317 76.4 62.8537 77.246 62.8537 78.194C62.8537 79.142 62.6317 79.994 62.1877 80.75C61.7557 81.494 61.1497 82.076 60.3697 82.496C59.5897 82.916 58.7077 83.126 57.7237 83.126ZM57.7237 81.2C58.5517 81.2 59.2357 80.924 59.7757 80.372C60.3157 79.82 60.5857 79.094 60.5857 78.194C60.5857 77.294 60.3157 76.568 59.7757 76.016C59.2357 75.464 58.5517 75.188 57.7237 75.188C56.8957 75.188 56.2117 75.464 55.6717 76.016C55.1437 76.568 54.8797 77.294 54.8797 78.194C54.8797 79.094 55.1437 79.82 55.6717 80.372C56.2117 80.924 56.8957 81.2 57.7237 81.2ZM69.4505 83.126C68.4545 83.126 67.5605 82.916 66.7685 82.496C65.9765 82.076 65.3585 81.494 64.9145 80.75C64.4705 79.994 64.2485 79.142 64.2485 78.194C64.2485 77.246 64.4705 76.4 64.9145 75.656C65.3585 74.912 65.9705 74.33 66.7505 73.91C67.5425 73.49 68.4425 73.28 69.4505 73.28C70.3985 73.28 71.2265 73.472 71.9345 73.856C72.6545 74.24 73.1945 74.792 73.5545 75.512L71.8265 76.52C71.5505 76.076 71.2025 75.746 70.7825 75.53C70.3745 75.302 69.9245 75.188 69.4325 75.188C68.5925 75.188 67.8965 75.464 67.3445 76.016C66.7925 76.556 66.5165 77.282 66.5165 78.194C66.5165 79.106 66.7865 79.838 67.3265 80.39C67.8785 80.93 68.5805 81.2 69.4325 81.2C69.9245 81.2 70.3745 81.092 70.7825 80.876C71.2025 80.648 71.5505 80.312 71.8265 79.868L73.5545 80.876C73.1825 81.596 72.6365 82.154 71.9165 82.55C71.2085 82.934 70.3865 83.126 69.4505 83.126ZM84.4844 73.388L79.9844 83.774C79.5644 84.818 79.0544 85.55 78.4544 85.97C77.8544 86.402 77.1284 86.618 76.2764 86.618C75.7964 86.618 75.3224 86.54 74.8544 86.384C74.3864 86.228 74.0024 86.012 73.7024 85.736L74.6024 84.08C74.8184 84.284 75.0704 84.446 75.3584 84.566C75.6584 84.686 75.9584 84.746 76.2584 84.746C76.6544 84.746 76.9784 84.644 77.2304 84.44C77.4944 84.236 77.7344 83.894 77.9504 83.414L78.1124 83.036L73.9184 73.388H76.2584L79.2824 80.498L82.3244 73.388H84.4844ZM95.7095 81.092V85.142H93.6035V83H86.1875V85.142H84.0995V81.092H84.5495C85.1615 81.068 85.5755 80.678 85.7915 79.922C86.0195 79.154 86.1695 78.074 86.2415 76.682L86.3675 73.388H94.2875V81.092H95.7095ZM88.2935 76.844C88.2455 77.948 88.1555 78.848 88.0235 79.544C87.8915 80.24 87.6515 80.756 87.3035 81.092H92.0375V75.296H88.3475L88.2935 76.844ZM101.301 73.28C102.717 73.28 103.797 73.622 104.541 74.306C105.297 74.978 105.675 75.998 105.675 77.366V83H103.551V81.83C103.275 82.25 102.879 82.574 102.363 82.802C101.859 83.018 101.247 83.126 100.527 83.126C99.807 83.126 99.177 83.006 98.637 82.766C98.097 82.514 97.677 82.172 97.377 81.74C97.089 81.296 96.945 80.798 96.945 80.246C96.945 79.382 97.263 78.692 97.899 78.176C98.547 77.648 99.561 77.384 100.941 77.384H103.425V77.24C103.425 76.568 103.221 76.052 102.813 75.692C102.417 75.332 101.823 75.152 101.031 75.152C100.491 75.152 99.957 75.236 99.429 75.404C98.913 75.572 98.475 75.806 98.115 76.106L97.233 74.468C97.737 74.084 98.343 73.79 99.051 73.586C99.759 73.382 100.509 73.28 101.301 73.28ZM100.995 81.488C101.559 81.488 102.057 81.362 102.489 81.11C102.933 80.846 103.245 80.474 103.425 79.994V78.878H101.103C99.807 78.878 99.159 79.304 99.159 80.156C99.159 80.564 99.321 80.888 99.645 81.128C99.969 81.368 100.419 81.488 100.995 81.488ZM113.787 73.28C114.723 73.28 115.557 73.484 116.289 73.892C117.033 74.3 117.615 74.876 118.035 75.62C118.455 76.364 118.665 77.222 118.665 78.194C118.665 79.166 118.455 80.03 118.035 80.786C117.615 81.53 117.033 82.106 116.289 82.514C115.557 82.922 114.723 83.126 113.787 83.126C112.491 83.126 111.465 82.694 110.709 81.83V86.492H108.459V73.388H110.601V74.648C110.973 74.192 111.429 73.85 111.969 73.622C112.521 73.394 113.127 73.28 113.787 73.28ZM113.535 81.2C114.363 81.2 115.041 80.924 115.569 80.372C116.109 79.82 116.379 79.094 116.379 78.194C116.379 77.294 116.109 76.568 115.569 76.016C115.041 75.464 114.363 75.188 113.535 75.188C112.995 75.188 112.509 75.314 112.077 75.566C111.645 75.806 111.303 76.154 111.051 76.61C110.799 77.066 110.673 77.594 110.673 78.194C110.673 78.794 110.799 79.322 111.051 79.778C111.303 80.234 111.645 80.588 112.077 80.84C112.509 81.08 112.995 81.2 113.535 81.2ZM125.279 83.126C124.283 83.126 123.389 82.916 122.597 82.496C121.805 82.076 121.187 81.494 120.743 80.75C120.299 79.994 120.077 79.142 120.077 78.194C120.077 77.246 120.299 76.4 120.743 75.656C121.187 74.912 121.799 74.33 122.579 73.91C123.371 73.49 124.271 73.28 125.279 73.28C126.227 73.28 127.055 73.472 127.763 73.856C128.483 74.24 129.023 74.792 129.383 75.512L127.655 76.52C127.379 76.076 127.031 75.746 126.611 75.53C126.203 75.302 125.753 75.188 125.261 75.188C124.421 75.188 123.725 75.464 123.173 76.016C122.621 76.556 122.345 77.282 122.345 78.194C122.345 79.106 122.615 79.838 123.155 80.39C123.707 80.93 124.409 81.2 125.261 81.2C125.753 81.2 126.203 81.092 126.611 80.876C127.031 80.648 127.379 80.312 127.655 79.868L129.383 80.876C129.011 81.596 128.465 82.154 127.745 82.55C127.037 82.934 126.215 83.126 125.279 83.126ZM138.89 75.296H135.524V83H133.274V75.296H129.89V73.388H138.89V75.296ZM147.488 77.996C148.676 78.356 149.27 79.124 149.27 80.3C149.27 81.164 148.946 81.83 148.298 82.298C147.65 82.766 146.69 83 145.418 83H140.522V73.388H145.22C146.396 73.388 147.314 73.604 147.974 74.036C148.634 74.468 148.964 75.08 148.964 75.872C148.964 76.364 148.832 76.79 148.568 77.15C148.316 77.51 147.956 77.792 147.488 77.996ZM142.664 77.402H145.022C146.186 77.402 146.768 77 146.768 76.196C146.768 75.416 146.186 75.026 145.022 75.026H142.664V77.402ZM145.238 81.362C146.474 81.362 147.092 80.96 147.092 80.156C147.092 79.736 146.948 79.424 146.66 79.22C146.372 79.004 145.922 78.896 145.31 78.896H142.664V81.362H145.238ZM160.666 78.248C160.666 78.404 160.654 78.626 160.63 78.914H153.088C153.22 79.622 153.562 80.186 154.114 80.606C154.678 81.014 155.374 81.218 156.202 81.218C157.258 81.218 158.128 80.87 158.812 80.174L160.018 81.56C159.586 82.076 159.04 82.466 158.38 82.73C157.72 82.994 156.976 83.126 156.148 83.126C155.092 83.126 154.162 82.916 153.358 82.496C152.554 82.076 151.93 81.494 151.486 80.75C151.054 79.994 150.838 79.142 150.838 78.194C150.838 77.258 151.048 76.418 151.468 75.674C151.9 74.918 152.494 74.33 153.25 73.91C154.006 73.49 154.858 73.28 155.806 73.28C156.742 73.28 157.576 73.49 158.308 73.91C159.052 74.318 159.628 74.9 160.036 75.656C160.456 76.4 160.666 77.264 160.666 78.248ZM155.806 75.08C155.086 75.08 154.474 75.296 153.97 75.728C153.478 76.148 153.178 76.712 153.07 77.42H158.524C158.428 76.724 158.134 76.16 157.642 75.728C157.15 75.296 156.538 75.08 155.806 75.08ZM163.127 73.388H165.377V77.294H170.219V73.388H172.469V83H170.219V79.202H165.377V83H163.127V73.388ZM175.485 73.388H177.735V77.294H182.577V73.388H184.827V83H182.577V79.202H177.735V83H175.485V73.388ZM192.126 83.126C191.154 83.126 190.278 82.916 189.498 82.496C188.718 82.076 188.106 81.494 187.662 80.75C187.23 79.994 187.014 79.142 187.014 78.194C187.014 77.246 187.23 76.4 187.662 75.656C188.106 74.912 188.718 74.33 189.498 73.91C190.278 73.49 191.154 73.28 192.126 73.28C193.11 73.28 193.992 73.49 194.772 73.91C195.552 74.33 196.158 74.912 196.59 75.656C197.034 76.4 197.256 77.246 197.256 78.194C197.256 79.142 197.034 79.994 196.59 80.75C196.158 81.494 195.552 82.076 194.772 82.496C193.992 82.916 193.11 83.126 192.126 83.126ZM192.126 81.2C192.954 81.2 193.638 80.924 194.178 80.372C194.718 79.82 194.988 79.094 194.988 78.194C194.988 77.294 194.718 76.568 194.178 76.016C193.638 75.464 192.954 75.188 192.126 75.188C191.298 75.188 190.614 75.464 190.074 76.016C189.546 76.568 189.282 77.294 189.282 78.194C189.282 79.094 189.546 79.82 190.074 80.372C190.614 80.924 191.298 81.2 192.126 81.2ZM208.479 78.248C208.479 78.404 208.467 78.626 208.443 78.914H200.901C201.033 79.622 201.375 80.186 201.927 80.606C202.491 81.014 203.187 81.218 204.015 81.218C205.071 81.218 205.941 80.87 206.625 80.174L207.831 81.56C207.399 82.076 206.853 82.466 206.193 82.73C205.533 82.994 204.789 83.126 203.961 83.126C202.905 83.126 201.975 82.916 201.171 82.496C200.367 82.076 199.743 81.494 199.299 80.75C198.867 79.994 198.651 79.142 198.651 78.194C198.651 77.258 198.861 76.418 199.281 75.674C199.713 74.918 200.307 74.33 201.063 73.91C201.819 73.49 202.671 73.28 203.619 73.28C204.555 73.28 205.389 73.49 206.121 73.91C206.865 74.318 207.441 74.9 207.849 75.656C208.269 76.4 208.479 77.264 208.479 78.248ZM203.619 75.08C202.899 75.08 202.287 75.296 201.783 75.728C201.291 76.148 200.991 76.712 200.883 77.42H206.337C206.241 76.724 205.947 76.16 205.455 75.728C204.963 75.296 204.351 75.08 203.619 75.08ZM224.986 73.388L220.486 83.774C220.066 84.818 219.556 85.55 218.956 85.97C218.356 86.402 217.63 86.618 216.778 86.618C216.298 86.618 215.824 86.54 215.356 86.384C214.888 86.228 214.504 86.012 214.204 85.736L215.104 84.08C215.32 84.284 215.572 84.446 215.86 84.566C216.16 84.686 216.46 84.746 216.76 84.746C217.156 84.746 217.48 84.644 217.732 84.44C217.996 84.236 218.236 83.894 218.452 83.414L218.614 83.036L214.42 73.388H216.76L219.784 80.498L222.826 73.388H224.986ZM234.703 73.388V83H232.453V79.274C231.529 79.718 230.563 79.94 229.555 79.94C228.319 79.94 227.371 79.658 226.711 79.094C226.051 78.518 225.721 77.642 225.721 76.466V73.388H227.971V76.322C227.971 76.934 228.151 77.39 228.511 77.69C228.871 77.99 229.381 78.14 230.041 78.14C230.881 78.14 231.685 77.96 232.453 77.6V73.388H234.703ZM243.057 73.28C243.993 73.28 244.827 73.484 245.559 73.892C246.303 74.3 246.885 74.876 247.305 75.62C247.725 76.364 247.935 77.222 247.935 78.194C247.935 79.166 247.725 80.03 247.305 80.786C246.885 81.53 246.303 82.106 245.559 82.514C244.827 82.922 243.993 83.126 243.057 83.126C241.761 83.126 240.735 82.694 239.979 81.83V86.492H237.729V73.388H239.871V74.648C240.243 74.192 240.699 73.85 241.239 73.622C241.791 73.394 242.397 73.28 243.057 73.28ZM242.805 81.2C243.633 81.2 244.311 80.924 244.839 80.372C245.379 79.82 245.649 79.094 245.649 78.194C245.649 77.294 245.379 76.568 244.839 76.016C244.311 75.464 243.633 75.188 242.805 75.188C242.265 75.188 241.779 75.314 241.347 75.566C240.915 75.806 240.573 76.154 240.321 76.61C240.069 77.066 239.943 77.594 239.943 78.194C239.943 78.794 240.069 79.322 240.321 79.778C240.573 80.234 240.915 80.588 241.347 80.84C241.779 81.08 242.265 81.2 242.805 81.2ZM259.174 78.248C259.174 78.404 259.162 78.626 259.138 78.914H251.596C251.728 79.622 252.07 80.186 252.622 80.606C253.186 81.014 253.882 81.218 254.71 81.218C255.766 81.218 256.636 80.87 257.32 80.174L258.526 81.56C258.094 82.076 257.548 82.466 256.888 82.73C256.228 82.994 255.484 83.126 254.656 83.126C253.6 83.126 252.67 82.916 251.866 82.496C251.062 82.076 250.438 81.494 249.994 80.75C249.562 79.994 249.346 79.142 249.346 78.194C249.346 77.258 249.556 76.418 249.976 75.674C250.408 74.918 251.002 74.33 251.758 73.91C252.514 73.49 253.366 73.28 254.314 73.28C255.25 73.28 256.084 73.49 256.816 73.91C257.56 74.318 258.136 74.9 258.544 75.656C258.964 76.4 259.174 77.264 259.174 78.248ZM254.314 75.08C253.594 75.08 252.982 75.296 252.478 75.728C251.986 76.148 251.686 76.712 251.578 77.42H257.032C256.936 76.724 256.642 76.16 256.15 75.728C255.658 75.296 255.046 75.08 254.314 75.08ZM270.497 79.148H268.877V83H266.645V79.148H265.025L262.685 83H260.021L263.171 78.032L260.255 73.388H262.649L264.989 77.276H266.645V73.388H268.877V77.276H270.515L272.873 73.388H275.267L272.351 78.032L275.519 83H272.837L270.497 79.148ZM287.452 81.092V85.142H285.346V83H277.93V85.142H275.842V81.092H276.292C276.904 81.068 277.318 80.678 277.534 79.922C277.762 79.154 277.912 78.074 277.984 76.682L278.11 73.388H286.03V81.092H287.452ZM280.036 76.844C279.988 77.948 279.898 78.848 279.766 79.544C279.634 80.24 279.394 80.756 279.046 81.092H283.78V75.296H280.09L280.036 76.844ZM298.461 78.248C298.461 78.404 298.449 78.626 298.425 78.914H290.883C291.015 79.622 291.357 80.186 291.909 80.606C292.473 81.014 293.169 81.218 293.997 81.218C295.053 81.218 295.923 80.87 296.607 80.174L297.813 81.56C297.381 82.076 296.835 82.466 296.175 82.73C295.515 82.994 294.771 83.126 293.943 83.126C292.887 83.126 291.957 82.916 291.153 82.496C290.349 82.076 289.725 81.494 289.281 80.75C288.849 79.994 288.633 79.142 288.633 78.194C288.633 77.258 288.843 76.418 289.263 75.674C289.695 74.918 290.289 74.33 291.045 73.91C291.801 73.49 292.653 73.28 293.601 73.28C294.537 73.28 295.371 73.49 296.103 73.91C296.847 74.318 297.423 74.9 297.831 75.656C298.251 76.4 298.461 77.264 298.461 78.248ZM293.601 75.08C292.881 75.08 292.269 75.296 291.765 75.728C291.273 76.148 290.973 76.712 290.865 77.42H296.319C296.223 76.724 295.929 76.16 295.437 75.728C294.945 75.296 294.333 75.08 293.601 75.08ZM300.922 73.388H303.172V77.294H308.014V73.388H310.264V83H308.014V79.202H303.172V83H300.922V73.388ZM313.28 73.388H315.53V79.724L320.84 73.388H322.892V83H320.642V76.664L315.35 83H313.28V73.388ZM334.918 78.248C334.918 78.404 334.906 78.626 334.882 78.914H327.34C327.472 79.622 327.814 80.186 328.366 80.606C328.93 81.014 329.626 81.218 330.454 81.218C331.51 81.218 332.38 80.87 333.064 80.174L334.27 81.56C333.838 82.076 333.292 82.466 332.632 82.73C331.972 82.994 331.228 83.126 330.4 83.126C329.344 83.126 328.414 82.916 327.61 82.496C326.806 82.076 326.182 81.494 325.738 80.75C325.306 79.994 325.09 79.142 325.09 78.194C325.09 77.258 325.3 76.418 325.72 75.674C326.152 74.918 326.746 74.33 327.502 73.91C328.258 73.49 329.11 73.28 330.058 73.28C330.994 73.28 331.828 73.49 332.56 73.91C333.304 74.318 333.88 74.9 334.288 75.656C334.708 76.4 334.918 77.264 334.918 78.248ZM330.058 75.08C329.338 75.08 328.726 75.296 328.222 75.728C327.73 76.148 327.43 76.712 327.322 77.42H332.776C332.68 76.724 332.386 76.16 331.894 75.728C331.402 75.296 330.79 75.08 330.058 75.08ZM45.512 100.388H47.762V104.294H52.604V100.388H54.854V110H52.604V106.202H47.762V110H45.512V100.388ZM66.8694 105.248C66.8694 105.404 66.8574 105.626 66.8334 105.914H59.2914C59.4234 106.622 59.7654 107.186 60.3174 107.606C60.8814 108.014 61.5774 108.218 62.4054 108.218C63.4614 108.218 64.3314 107.87 65.0154 107.174L66.2214 108.56C65.7894 109.076 65.2434 109.466 64.5834 109.73C63.9234 109.994 63.1794 110.126 62.3514 110.126C61.2954 110.126 60.3654 109.916 59.5614 109.496C58.7574 109.076 58.1334 108.494 57.6894 107.75C57.2574 106.994 57.0414 106.142 57.0414 105.194C57.0414 104.258 57.2514 103.418 57.6714 102.674C58.1034 101.918 58.6974 101.33 59.4534 100.91C60.2094 100.49 61.0614 100.28 62.0094 100.28C62.9454 100.28 63.7794 100.49 64.5114 100.91C65.2554 101.318 65.8314 101.9 66.2394 102.656C66.6594 103.4 66.8694 104.264 66.8694 105.248ZM62.0094 102.08C61.2894 102.08 60.6774 102.296 60.1734 102.728C59.6814 103.148 59.3814 103.712 59.2734 104.42H64.7274C64.6314 103.724 64.3374 103.16 63.8454 102.728C63.3534 102.296 62.7414 102.08 62.0094 102.08ZM78.589 110.126C77.617 110.126 76.741 109.916 75.961 109.496C75.181 109.076 74.569 108.494 74.125 107.75C73.693 106.994 73.477 106.142 73.477 105.194C73.477 104.246 73.693 103.4 74.125 102.656C74.569 101.912 75.181 101.33 75.961 100.91C76.741 100.49 77.617 100.28 78.589 100.28C79.573 100.28 80.455 100.49 81.235 100.91C82.015 101.33 82.621 101.912 83.053 102.656C83.497 103.4 83.719 104.246 83.719 105.194C83.719 106.142 83.497 106.994 83.053 107.75C82.621 108.494 82.015 109.076 81.235 109.496C80.455 109.916 79.573 110.126 78.589 110.126ZM78.589 108.2C79.417 108.2 80.101 107.924 80.641 107.372C81.181 106.82 81.451 106.094 81.451 105.194C81.451 104.294 81.181 103.568 80.641 103.016C80.101 102.464 79.417 102.188 78.589 102.188C77.761 102.188 77.077 102.464 76.537 103.016C76.009 103.568 75.745 104.294 75.745 105.194C75.745 106.094 76.009 106.82 76.537 107.372C77.077 107.924 77.761 108.2 78.589 108.2ZM93.2041 102.296H89.8381V110H87.5881V102.296H84.2041V100.388H93.2041V102.296ZM101.802 104.996C102.99 105.356 103.584 106.124 103.584 107.3C103.584 108.164 103.26 108.83 102.612 109.298C101.964 109.766 101.004 110 99.7322 110H94.8362V100.388H99.5342C100.71 100.388 101.628 100.604 102.288 101.036C102.948 101.468 103.278 102.08 103.278 102.872C103.278 103.364 103.146 103.79 102.882 104.15C102.63 104.51 102.27 104.792 101.802 104.996ZM96.9782 104.402H99.3362C100.5 104.402 101.082 104 101.082 103.196C101.082 102.416 100.5 102.026 99.3362 102.026H96.9782V104.402ZM99.5522 108.362C100.788 108.362 101.406 107.96 101.406 107.156C101.406 106.736 101.262 106.424 100.974 106.22C100.686 106.004 100.236 105.896 99.6242 105.896H96.9782V108.362H99.5522ZM114.981 105.248C114.981 105.404 114.969 105.626 114.945 105.914H107.403C107.535 106.622 107.877 107.186 108.429 107.606C108.993 108.014 109.689 108.218 110.517 108.218C111.573 108.218 112.443 107.87 113.127 107.174L114.333 108.56C113.901 109.076 113.355 109.466 112.695 109.73C112.035 109.994 111.291 110.126 110.463 110.126C109.407 110.126 108.477 109.916 107.673 109.496C106.869 109.076 106.245 108.494 105.801 107.75C105.369 106.994 105.153 106.142 105.153 105.194C105.153 104.258 105.363 103.418 105.783 102.674C106.215 101.918 106.809 101.33 107.565 100.91C108.321 100.49 109.173 100.28 110.121 100.28C111.057 100.28 111.891 100.49 112.623 100.91C113.367 101.318 113.943 101.9 114.351 102.656C114.771 103.4 114.981 104.264 114.981 105.248ZM110.121 102.08C109.401 102.08 108.789 102.296 108.285 102.728C107.793 103.148 107.493 103.712 107.385 104.42H112.839C112.743 103.724 112.449 103.16 111.957 102.728C111.465 102.296 110.853 102.08 110.121 102.08ZM125.596 100.388V110H123.346V106.274C122.422 106.718 121.456 106.94 120.448 106.94C119.212 106.94 118.264 106.658 117.604 106.094C116.944 105.518 116.614 104.642 116.614 103.466V100.388H118.864V103.322C118.864 103.934 119.044 104.39 119.404 104.69C119.764 104.99 120.274 105.14 120.934 105.14C121.774 105.14 122.578 104.96 123.346 104.6V100.388H125.596ZM132.203 100.28C133.619 100.28 134.699 100.622 135.443 101.306C136.199 101.978 136.577 102.998 136.577 104.366V110H134.453V108.83C134.177 109.25 133.781 109.574 133.265 109.802C132.761 110.018 132.149 110.126 131.429 110.126C130.709 110.126 130.079 110.006 129.539 109.766C128.999 109.514 128.579 109.172 128.279 108.74C127.991 108.296 127.847 107.798 127.847 107.246C127.847 106.382 128.165 105.692 128.801 105.176C129.449 104.648 130.463 104.384 131.843 104.384H134.327V104.24C134.327 103.568 134.123 103.052 133.715 102.692C133.319 102.332 132.725 102.152 131.933 102.152C131.393 102.152 130.859 102.236 130.331 102.404C129.815 102.572 129.377 102.806 129.017 103.106L128.135 101.468C128.639 101.084 129.245 100.79 129.953 100.586C130.661 100.382 131.411 100.28 132.203 100.28ZM131.897 108.488C132.461 108.488 132.959 108.362 133.391 108.11C133.835 107.846 134.147 107.474 134.327 106.994V105.878H132.005C130.709 105.878 130.061 106.304 130.061 107.156C130.061 107.564 130.223 107.888 130.547 108.128C130.871 108.368 131.321 108.488 131.897 108.488ZM148.362 105.248C148.362 105.404 148.35 105.626 148.326 105.914H140.784C140.916 106.622 141.258 107.186 141.81 107.606C142.374 108.014 143.07 108.218 143.898 108.218C144.954 108.218 145.824 107.87 146.508 107.174L147.714 108.56C147.282 109.076 146.736 109.466 146.076 109.73C145.416 109.994 144.672 110.126 143.844 110.126C142.788 110.126 141.858 109.916 141.054 109.496C140.25 109.076 139.626 108.494 139.182 107.75C138.75 106.994 138.534 106.142 138.534 105.194C138.534 104.258 138.744 103.418 139.164 102.674C139.596 101.918 140.19 101.33 140.946 100.91C141.702 100.49 142.554 100.28 143.502 100.28C144.438 100.28 145.272 100.49 146.004 100.91C146.748 101.318 147.324 101.9 147.732 102.656C148.152 103.4 148.362 104.264 148.362 105.248ZM143.502 102.08C142.782 102.08 142.17 102.296 141.666 102.728C141.174 103.148 140.874 103.712 140.766 104.42H146.22C146.124 103.724 145.83 103.16 145.338 102.728C144.846 102.296 144.234 102.08 143.502 102.08ZM158.085 102.296H154.719V110H152.469V102.296H149.085V100.388H158.085V102.296ZM164.692 100.388H166.942V104.294H171.784V100.388H174.034V110H171.784V106.202H166.942V110H164.692V100.388ZM180.631 100.28C182.047 100.28 183.127 100.622 183.871 101.306C184.627 101.978 185.005 102.998 185.005 104.366V110H182.881V108.83C182.605 109.25 182.209 109.574 181.693 109.802C181.189 110.018 180.577 110.126 179.857 110.126C179.137 110.126 178.507 110.006 177.967 109.766C177.427 109.514 177.007 109.172 176.707 108.74C176.419 108.296 176.275 107.798 176.275 107.246C176.275 106.382 176.593 105.692 177.229 105.176C177.877 104.648 178.891 104.384 180.271 104.384H182.755V104.24C182.755 103.568 182.551 103.052 182.143 102.692C181.747 102.332 181.153 102.152 180.361 102.152C179.821 102.152 179.287 102.236 178.759 102.404C178.243 102.572 177.805 102.806 177.445 103.106L176.563 101.468C177.067 101.084 177.673 100.79 178.381 100.586C179.089 100.382 179.839 100.28 180.631 100.28ZM180.325 108.488C180.889 108.488 181.387 108.362 181.819 108.11C182.263 107.846 182.575 107.474 182.755 106.994V105.878H180.433C179.137 105.878 178.489 106.304 178.489 107.156C178.489 107.564 178.651 107.888 178.975 108.128C179.299 108.368 179.749 108.488 180.325 108.488ZM198.506 104.996C199.106 105.164 199.568 105.44 199.892 105.824C200.228 106.196 200.396 106.646 200.396 107.174C200.396 107.762 200.198 108.284 199.802 108.74C199.406 109.184 198.86 109.532 198.164 109.784C197.468 110.036 196.676 110.162 195.788 110.162C195.044 110.162 194.318 110.078 193.61 109.91C192.902 109.73 192.26 109.478 191.684 109.154L192.332 107.48C192.8 107.744 193.328 107.948 193.916 108.092C194.504 108.236 195.092 108.308 195.68 108.308C196.436 108.308 197.024 108.194 197.444 107.966C197.876 107.726 198.092 107.402 198.092 106.994C198.092 106.622 197.924 106.334 197.588 106.13C197.264 105.926 196.802 105.824 196.202 105.824H194.33V104.312H196.022C196.586 104.312 197.024 104.216 197.336 104.024C197.66 103.832 197.822 103.562 197.822 103.214C197.822 102.866 197.63 102.59 197.246 102.386C196.862 102.182 196.334 102.08 195.662 102.08C194.702 102.08 193.688 102.314 192.62 102.782L192.044 101.126C193.304 100.538 194.576 100.244 195.86 100.244C196.676 100.244 197.408 100.358 198.056 100.586C198.704 100.802 199.208 101.114 199.568 101.522C199.94 101.918 200.126 102.374 200.126 102.89C200.126 103.358 199.982 103.778 199.694 104.15C199.406 104.51 199.01 104.792 198.506 104.996ZM206.313 100.28C207.729 100.28 208.809 100.622 209.553 101.306C210.309 101.978 210.687 102.998 210.687 104.366V110H208.563V108.83C208.287 109.25 207.891 109.574 207.375 109.802C206.871 110.018 206.259 110.126 205.539 110.126C204.819 110.126 204.189 110.006 203.649 109.766C203.109 109.514 202.689 109.172 202.389 108.74C202.101 108.296 201.957 107.798 201.957 107.246C201.957 106.382 202.275 105.692 202.911 105.176C203.559 104.648 204.573 104.384 205.953 104.384H208.437V104.24C208.437 103.568 208.233 103.052 207.825 102.692C207.429 102.332 206.835 102.152 206.043 102.152C205.503 102.152 204.969 102.236 204.441 102.404C203.925 102.572 203.487 102.806 203.127 103.106L202.245 101.468C202.749 101.084 203.355 100.79 204.063 100.586C204.771 100.382 205.521 100.28 206.313 100.28ZM206.007 108.488C206.571 108.488 207.069 108.362 207.501 108.11C207.945 107.846 208.257 107.474 208.437 106.994V105.878H206.115C204.819 105.878 204.171 106.304 204.171 107.156C204.171 107.564 204.333 107.888 204.657 108.128C204.981 108.368 205.431 108.488 206.007 108.488ZM221.589 100.388V110H219.573V107.102H217.035L215.073 110H212.661L214.929 106.796C214.233 106.556 213.699 106.19 213.327 105.698C212.967 105.194 212.787 104.576 212.787 103.844C212.787 102.74 213.177 101.888 213.957 101.288C214.737 100.688 215.811 100.388 217.179 100.388H221.589ZM217.251 102.278C215.799 102.278 215.073 102.824 215.073 103.916C215.073 104.996 215.775 105.536 217.179 105.536H219.573V102.278H217.251ZM231.582 104.996C232.77 105.356 233.364 106.124 233.364 107.3C233.364 108.164 233.04 108.83 232.392 109.298C231.744 109.766 230.784 110 229.512 110H224.616V100.388H229.314C230.49 100.388 231.408 100.604 232.068 101.036C232.728 101.468 233.058 102.08 233.058 102.872C233.058 103.364 232.926 103.79 232.662 104.15C232.41 104.51 232.05 104.792 231.582 104.996ZM226.758 104.402H229.116C230.28 104.402 230.862 104 230.862 103.196C230.862 102.416 230.28 102.026 229.116 102.026H226.758V104.402ZM229.332 108.362C230.568 108.362 231.186 107.96 231.186 107.156C231.186 106.736 231.042 106.424 230.754 106.22C230.466 106.004 230.016 105.896 229.404 105.896H226.758V108.362H229.332ZM239.756 106.148H238.01V110H235.76V100.388H238.01V104.276H239.81L242.654 100.388H245.066L241.574 105.014L245.3 110H242.654L239.756 106.148ZM255.414 100.388L250.914 110.774C250.494 111.818 249.984 112.55 249.384 112.97C248.784 113.402 248.058 113.618 247.206 113.618C246.726 113.618 246.252 113.54 245.784 113.384C245.316 113.228 244.932 113.012 244.632 112.736L245.532 111.08C245.748 111.284 246 111.446 246.288 111.566C246.588 111.686 246.888 111.746 247.188 111.746C247.584 111.746 247.908 111.644 248.16 111.44C248.424 111.236 248.664 110.894 248.88 110.414L249.042 110.036L244.848 100.388H247.188L250.212 107.498L253.254 100.388H255.414ZM260.094 105.824C260.094 105.176 260.238 104.642 260.526 104.222C260.826 103.79 261.258 103.322 261.822 102.818C262.254 102.434 262.572 102.104 262.776 101.828C262.992 101.54 263.1 101.216 263.1 100.856C263.1 100.352 262.896 99.944 262.488 99.632C262.08 99.32 261.534 99.164 260.85 99.164C259.554 99.164 258.576 99.626 257.916 100.55L256.17 99.416C256.686 98.708 257.352 98.168 258.168 97.796C258.984 97.412 259.944 97.22 261.048 97.22C262.392 97.22 263.46 97.514 264.252 98.102C265.056 98.678 265.458 99.476 265.458 100.496C265.458 100.988 265.374 101.42 265.206 101.792C265.05 102.164 264.858 102.482 264.63 102.746C264.402 102.998 264.102 103.292 263.73 103.628C263.274 104.036 262.932 104.396 262.704 104.708C262.488 105.02 262.38 105.392 262.38 105.824H260.094ZM261.246 110.126C260.826 110.126 260.478 109.994 260.202 109.73C259.938 109.454 259.806 109.118 259.806 108.722C259.806 108.326 259.938 107.996 260.202 107.732C260.478 107.468 260.826 107.336 261.246 107.336C261.654 107.336 261.99 107.468 262.254 107.732C262.53 107.996 262.668 108.326 262.668 108.722C262.668 109.118 262.53 109.454 262.254 109.73C261.99 109.994 261.654 110.126 261.246 110.126Z" fill="black"/>
<g filter="url(#filter1_d_4658_14)">
<path d="M379 142L340 120L314 147L379 142Z" fill="white"/>
</g>
<defs>
<filter id="filter0_d_4658_14" x="0.718018" y="0.604492" width="384.698" height="186.959" filterUnits="userSpaceOnUse" color-interpolation-filters="sRGB">
<feFlood flood-opacity="0" result="BackgroundImageFix"/>
<feColorMatrix in="SourceAlpha" type="matrix" values="0 0 0 0 0 0 0 0 0 0 0 0 0 0 0 0 0 0 127 0" result="hardAlpha"/>
<feMorphology radius="2" operator="dilate" in="SourceAlpha" result="effect1_dropShadow_4658_14"/>
<feOffset dx="1" dy="4"/>
<feGaussianBlur stdDeviation="5.5"/>
<feColorMatrix type="matrix" values="0 0 0 0 0 0 0 0 0 0 0 0 0 0 0 0 0 0 0.12 0"/>
<feBlend mode="normal" in2="BackgroundImageFix" result="effect1_dropShadow_4658_14"/>
<feBlend mode="normal" in="SourceGraphic" in2="effect1_dropShadow_4658_14" result="shape"/>
</filter>
<filter id="filter1_d_4658_14" x="310" y="120" width="73" height="35" filterUnits="userSpaceOnUse" color-interpolation-filters="sRGB">
<feFlood flood-opacity="0" result="BackgroundImageFix"/>
<feColorMatrix in="SourceAlpha" type="matrix" values="0 0 0 0 0 0 0 0 0 0 0 0 0 0 0 0 0 0 127 0" result="hardAlpha"/>
<feOffset dy="4"/>
<feGaussianBlur stdDeviation="2"/>
<feColorMatrix type="matrix" values="0 0 0 0 0 0 0 0 0 0 0 0 0 0 0 0 0 0 0.25 0"/>
<feBlend mode="normal" in2="BackgroundImageFix" result="effect1_dropShadow_4658_14"/>
<feBlend mode="normal" in="SourceGraphic" in2="effect1_dropShadow_4658_14" result="shape"/>
</filter>
</defs>
</svg>
