<svg width="369" height="188" viewBox="0 0 369 188" fill="none" xmlns="http://www.w3.org/2000/svg">
<g filter="url(#filter0_d_4658_15)">
<path d="M354.015 88.4763C353.618 44.038 276.894 8.70948 182.648 9.56795C88.4021 10.4264 12.3224 47.1467 12.7195 91.5851C13.1166 136.023 89.8401 171.352 184.086 170.493C278.332 169.635 354.412 132.915 354.015 88.4763Z" fill="white"/>
</g>
<path d="M74.908 72.38H70.732V83H68.41V72.38H64.252V70.4H74.908V72.38ZM81.1256 76.556C82.3496 76.556 83.2856 76.832 83.9336 77.384C84.5816 77.936 84.9056 78.716 84.9056 79.724C84.9056 80.78 84.5456 81.596 83.8256 82.172C83.1176 82.748 82.1096 83.03 80.8016 83.018L76.4456 83V73.388H78.6956V76.538L81.1256 76.556ZM86.1476 73.388H88.3976V83H86.1476V73.388ZM80.6036 81.362C81.2636 81.374 81.7676 81.236 82.1156 80.948C82.4636 80.66 82.6376 80.24 82.6376 79.688C82.6376 79.148 82.4696 78.752 82.1336 78.5C81.7976 78.248 81.2876 78.116 80.6036 78.104L78.6956 78.086V81.344L80.6036 81.362ZM100.771 83.126C99.7748 83.126 98.8808 82.916 98.0888 82.496C97.2968 82.076 96.6788 81.494 96.2348 80.75C95.7908 79.994 95.5688 79.142 95.5688 78.194C95.5688 77.246 95.7908 76.4 96.2348 75.656C96.6788 74.912 97.2908 74.33 98.0708 73.91C98.8628 73.49 99.7628 73.28 100.771 73.28C101.719 73.28 102.547 73.472 103.255 73.856C103.975 74.24 104.515 74.792 104.875 75.512L103.147 76.52C102.871 76.076 102.523 75.746 102.103 75.53C101.695 75.302 101.245 75.188 100.753 75.188C99.9128 75.188 99.2168 75.464 98.6648 76.016C98.1128 76.556 97.8368 77.282 97.8368 78.194C97.8368 79.106 98.1068 79.838 98.6468 80.39C99.1988 80.93 99.9008 81.2 100.753 81.2C101.245 81.2 101.695 81.092 102.103 80.876C102.523 80.648 102.871 80.312 103.147 79.868L104.875 80.876C104.503 81.596 103.957 82.154 103.237 82.55C102.529 82.934 101.707 83.126 100.771 83.126ZM114.382 75.296H111.016V83H108.766V75.296H105.382V73.388H114.382V75.296ZM119.876 83.126C118.904 83.126 118.028 82.916 117.248 82.496C116.468 82.076 115.856 81.494 115.412 80.75C114.98 79.994 114.764 79.142 114.764 78.194C114.764 77.246 114.98 76.4 115.412 75.656C115.856 74.912 116.468 74.33 117.248 73.91C118.028 73.49 118.904 73.28 119.876 73.28C120.86 73.28 121.742 73.49 122.522 73.91C123.302 74.33 123.908 74.912 124.34 75.656C124.784 76.4 125.006 77.246 125.006 78.194C125.006 79.142 124.784 79.994 124.34 80.75C123.908 81.494 123.302 82.076 122.522 82.496C121.742 82.916 120.86 83.126 119.876 83.126ZM119.876 81.2C120.704 81.2 121.388 80.924 121.928 80.372C122.468 79.82 122.738 79.094 122.738 78.194C122.738 77.294 122.468 76.568 121.928 76.016C121.388 75.464 120.704 75.188 119.876 75.188C119.048 75.188 118.364 75.464 117.824 76.016C117.296 76.568 117.032 77.294 117.032 78.194C117.032 79.094 117.296 79.82 117.824 80.372C118.364 80.924 119.048 81.2 119.876 81.2ZM135.835 73.388V83H133.585V75.296H129.985L129.895 77.204C129.835 78.476 129.715 79.544 129.535 80.408C129.367 81.26 129.073 81.938 128.653 82.442C128.245 82.934 127.681 83.18 126.961 83.18C126.625 83.18 126.211 83.114 125.719 82.982L125.827 81.092C125.995 81.128 126.139 81.146 126.259 81.146C126.715 81.146 127.057 80.966 127.285 80.606C127.513 80.234 127.657 79.796 127.717 79.292C127.789 78.776 127.849 78.044 127.897 77.096L128.059 73.388H135.835ZM142.862 79.148H141.116V83H138.866V73.388H141.116V77.276H142.916L145.76 73.388H148.172L144.68 78.014L148.406 83H145.76L142.862 79.148ZM149.992 73.388H152.242V77.294H157.084V73.388H159.334V83H157.084V79.202H152.242V83H149.992V73.388ZM171.422 73.388L166.922 83.774C166.502 84.818 165.992 85.55 165.392 85.97C164.792 86.402 164.066 86.618 163.214 86.618C162.734 86.618 162.26 86.54 161.792 86.384C161.324 86.228 160.94 86.012 160.64 85.736L161.54 84.08C161.756 84.284 162.008 84.446 162.296 84.566C162.596 84.686 162.896 84.746 163.196 84.746C163.592 84.746 163.916 84.644 164.168 84.44C164.432 84.236 164.672 83.894 164.888 83.414L165.05 83.036L160.856 73.388H163.196L166.22 80.498L169.262 73.388H171.422ZM181.099 73.388V83H178.849V75.296H175.249L175.159 77.204C175.099 78.476 174.979 79.544 174.799 80.408C174.631 81.26 174.337 81.938 173.917 82.442C173.509 82.934 172.945 83.18 172.225 83.18C171.889 83.18 171.475 83.114 170.983 82.982L171.091 81.092C171.259 81.128 171.403 81.146 171.523 81.146C171.979 81.146 172.321 80.966 172.549 80.606C172.777 80.234 172.921 79.796 172.981 79.292C173.053 78.776 173.113 78.044 173.161 77.096L173.323 73.388H181.099ZM188.503 83.126C187.507 83.126 186.613 82.916 185.821 82.496C185.029 82.076 184.411 81.494 183.967 80.75C183.523 79.994 183.301 79.142 183.301 78.194C183.301 77.246 183.523 76.4 183.967 75.656C184.411 74.912 185.023 74.33 185.803 73.91C186.595 73.49 187.495 73.28 188.503 73.28C189.451 73.28 190.279 73.472 190.987 73.856C191.707 74.24 192.247 74.792 192.607 75.512L190.879 76.52C190.603 76.076 190.255 75.746 189.835 75.53C189.427 75.302 188.977 75.188 188.485 75.188C187.645 75.188 186.949 75.464 186.397 76.016C185.845 76.556 185.569 77.282 185.569 78.194C185.569 79.106 185.839 79.838 186.379 80.39C186.931 80.93 187.633 81.2 188.485 81.2C188.977 81.2 189.427 81.092 189.835 80.876C190.255 80.648 190.603 80.312 190.879 79.868L192.607 80.876C192.235 81.596 191.689 82.154 190.969 82.55C190.261 82.934 189.439 83.126 188.503 83.126ZM202.443 73.388V83H200.427V80.102H197.889L195.927 83H193.515L195.783 79.796C195.087 79.556 194.553 79.19 194.181 78.698C193.821 78.194 193.641 77.576 193.641 76.844C193.641 75.74 194.031 74.888 194.811 74.288C195.591 73.688 196.665 73.388 198.033 73.388H202.443ZM198.104 75.278C196.653 75.278 195.927 75.824 195.927 76.916C195.927 77.996 196.629 78.536 198.033 78.536H200.427V75.278H198.104ZM214.818 83.126C213.822 83.126 212.928 82.916 212.136 82.496C211.344 82.076 210.726 81.494 210.282 80.75C209.838 79.994 209.616 79.142 209.616 78.194C209.616 77.246 209.838 76.4 210.282 75.656C210.726 74.912 211.338 74.33 212.118 73.91C212.91 73.49 213.81 73.28 214.818 73.28C215.766 73.28 216.594 73.472 217.302 73.856C218.022 74.24 218.562 74.792 218.922 75.512L217.194 76.52C216.918 76.076 216.57 75.746 216.15 75.53C215.742 75.302 215.292 75.188 214.8 75.188C213.96 75.188 213.264 75.464 212.712 76.016C212.16 76.556 211.884 77.282 211.884 78.194C211.884 79.106 212.154 79.838 212.694 80.39C213.246 80.93 213.948 81.2 214.8 81.2C215.292 81.2 215.742 81.092 216.15 80.876C216.57 80.648 216.918 80.312 217.194 79.868L218.922 80.876C218.55 81.596 218.004 82.154 217.284 82.55C216.576 82.934 215.754 83.126 214.818 83.126ZM236.137 81.092V85.142H234.031V83H226.615V85.142H224.527V81.092H224.977C225.589 81.068 226.003 80.678 226.219 79.922C226.447 79.154 226.597 78.074 226.669 76.682L226.795 73.388H234.715V81.092H236.137ZM228.721 76.844C228.673 77.948 228.583 78.848 228.451 79.544C228.319 80.24 228.079 80.756 227.731 81.092H232.465V75.296H228.775L228.721 76.844ZM243.475 73.28C244.411 73.28 245.245 73.484 245.977 73.892C246.721 74.3 247.303 74.876 247.723 75.62C248.143 76.364 248.353 77.222 248.353 78.194C248.353 79.166 248.143 80.03 247.723 80.786C247.303 81.53 246.721 82.106 245.977 82.514C245.245 82.922 244.411 83.126 243.475 83.126C242.179 83.126 241.153 82.694 240.397 81.83V86.492H238.147V73.388H240.289V74.648C240.661 74.192 241.117 73.85 241.657 73.622C242.209 73.394 242.815 73.28 243.475 73.28ZM243.223 81.2C244.051 81.2 244.729 80.924 245.257 80.372C245.797 79.82 246.067 79.094 246.067 78.194C246.067 77.294 245.797 76.568 245.257 76.016C244.729 75.464 244.051 75.188 243.223 75.188C242.683 75.188 242.197 75.314 241.765 75.566C241.333 75.806 240.991 76.154 240.739 76.61C240.487 77.066 240.361 77.594 240.361 78.194C240.361 78.794 240.487 79.322 240.739 79.778C240.991 80.234 241.333 80.588 241.765 80.84C242.197 81.08 242.683 81.2 243.223 81.2ZM259.4 73.388L254.9 83.774C254.48 84.818 253.97 85.55 253.37 85.97C252.77 86.402 252.044 86.618 251.192 86.618C250.712 86.618 250.238 86.54 249.77 86.384C249.302 86.228 248.918 86.012 248.618 85.736L249.518 84.08C249.734 84.284 249.986 84.446 250.274 84.566C250.574 84.686 250.874 84.746 251.174 84.746C251.57 84.746 251.894 84.644 252.146 84.44C252.41 84.236 252.65 83.894 252.866 83.414L253.028 83.036L248.834 73.388H251.174L254.198 80.498L257.24 73.388H259.4ZM268.343 75.296H263.213V83H260.963V73.388H268.343V75.296ZM273.843 83.126C272.871 83.126 271.995 82.916 271.215 82.496C270.435 82.076 269.823 81.494 269.379 80.75C268.947 79.994 268.731 79.142 268.731 78.194C268.731 77.246 268.947 76.4 269.379 75.656C269.823 74.912 270.435 74.33 271.215 73.91C271.995 73.49 272.871 73.28 273.843 73.28C274.827 73.28 275.709 73.49 276.489 73.91C277.269 74.33 277.875 74.912 278.307 75.656C278.751 76.4 278.973 77.246 278.973 78.194C278.973 79.142 278.751 79.994 278.307 80.75C277.875 81.494 277.269 82.076 276.489 82.496C275.709 82.916 274.827 83.126 273.843 83.126ZM273.843 81.2C274.671 81.2 275.355 80.924 275.895 80.372C276.435 79.82 276.705 79.094 276.705 78.194C276.705 77.294 276.435 76.568 275.895 76.016C275.355 75.464 274.671 75.188 273.843 75.188C273.015 75.188 272.331 75.464 271.791 76.016C271.263 76.568 270.999 77.294 270.999 78.194C270.999 79.094 271.263 79.82 271.791 80.372C272.331 80.924 273.015 81.2 273.843 81.2ZM281.196 73.388H283.446V79.724L288.756 73.388H290.808V83H288.558V76.664L283.266 83H281.196V73.388ZM285.858 72.254C284.886 72.254 284.142 72.032 283.626 71.588C283.122 71.132 282.864 70.472 282.852 69.608H284.346C284.358 70.04 284.49 70.382 284.742 70.634C285.006 70.886 285.372 71.012 285.84 71.012C286.296 71.012 286.656 70.886 286.92 70.634C287.196 70.382 287.34 70.04 287.352 69.608H288.882C288.87 70.472 288.606 71.132 288.09 71.588C287.574 72.032 286.83 72.254 285.858 72.254ZM74.296 100.28C75.256 100.28 76.114 100.49 76.87 100.91C77.626 101.318 78.22 101.9 78.652 102.656C79.084 103.4 79.3 104.246 79.3 105.194C79.3 106.142 79.084 106.994 78.652 107.75C78.22 108.494 77.626 109.076 76.87 109.496C76.114 109.916 75.256 110.126 74.296 110.126C73.456 110.126 72.688 109.964 71.992 109.64C71.296 109.304 70.72 108.836 70.264 108.236C69.808 107.624 69.514 106.928 69.382 106.148H67.762V110H65.512V100.388H67.762V104.114H69.418C69.562 103.358 69.862 102.692 70.318 102.116C70.774 101.528 71.344 101.078 72.028 100.766C72.712 100.442 73.468 100.28 74.296 100.28ZM74.296 108.218C74.824 108.218 75.298 108.098 75.718 107.858C76.138 107.606 76.468 107.252 76.708 106.796C76.948 106.328 77.068 105.794 77.068 105.194C77.068 104.282 76.804 103.556 76.276 103.016C75.76 102.464 75.1 102.188 74.296 102.188C73.492 102.188 72.832 102.464 72.316 103.016C71.8 103.556 71.542 104.282 71.542 105.194C71.542 106.106 71.8 106.838 72.316 107.39C72.844 107.942 73.504 108.218 74.296 108.218ZM86.8361 100.28C87.7721 100.28 88.6061 100.484 89.3381 100.892C90.0821 101.3 90.6641 101.876 91.0841 102.62C91.5041 103.364 91.7141 104.222 91.7141 105.194C91.7141 106.166 91.5041 107.03 91.0841 107.786C90.6641 108.53 90.0821 109.106 89.3381 109.514C88.6061 109.922 87.7721 110.126 86.8361 110.126C85.5401 110.126 84.5141 109.694 83.7581 108.83V113.492H81.5081V100.388H83.6501V101.648C84.0221 101.192 84.4781 100.85 85.0181 100.622C85.5701 100.394 86.1761 100.28 86.8361 100.28ZM86.5841 108.2C87.4121 108.2 88.0901 107.924 88.6181 107.372C89.1581 106.82 89.4281 106.094 89.4281 105.194C89.4281 104.294 89.1581 103.568 88.6181 103.016C88.0901 102.464 87.4121 102.188 86.5841 102.188C86.0441 102.188 85.5581 102.314 85.1261 102.566C84.6941 102.806 84.3521 103.154 84.1001 103.61C83.8481 104.066 83.7221 104.594 83.7221 105.194C83.7221 105.794 83.8481 106.322 84.1001 106.778C84.3521 107.234 84.6941 107.588 85.1261 107.84C85.5581 108.08 86.0441 108.2 86.5841 108.2ZM93.9534 100.388H96.2034V106.724L101.513 100.388H103.565V110H101.315V103.664L96.0234 110H93.9534V100.388ZM116.852 108.092V112.142H114.746V110H107.33V112.142H105.242V108.092H105.692C106.304 108.068 106.718 107.678 106.934 106.922C107.162 106.154 107.312 105.074 107.384 103.682L107.51 100.388H115.43V108.092H116.852ZM109.436 103.844C109.388 104.948 109.298 105.848 109.166 106.544C109.034 107.24 108.794 107.756 108.446 108.092H113.18V102.296H109.49L109.436 103.844ZM118.862 100.388H121.112V106.724L126.422 100.388H128.474V110H126.224V103.664L120.932 110H118.862V100.388ZM139.654 100.388V110H137.404V106.274C136.48 106.718 135.514 106.94 134.506 106.94C133.27 106.94 132.322 106.658 131.662 106.094C131.002 105.518 130.672 104.642 130.672 103.466V100.388H132.922V103.322C132.922 103.934 133.102 104.39 133.462 104.69C133.822 104.99 134.332 105.14 134.992 105.14C135.832 105.14 136.636 104.96 137.404 104.6V100.388H139.654ZM151.68 105.248C151.68 105.404 151.668 105.626 151.644 105.914H144.102C144.234 106.622 144.576 107.186 145.128 107.606C145.692 108.014 146.388 108.218 147.216 108.218C148.272 108.218 149.142 107.87 149.826 107.174L151.032 108.56C150.6 109.076 150.054 109.466 149.394 109.73C148.734 109.994 147.99 110.126 147.162 110.126C146.106 110.126 145.176 109.916 144.372 109.496C143.568 109.076 142.944 108.494 142.5 107.75C142.068 106.994 141.852 106.142 141.852 105.194C141.852 104.258 142.062 103.418 142.482 102.674C142.914 101.918 143.508 101.33 144.264 100.91C145.02 100.49 145.872 100.28 146.82 100.28C147.756 100.28 148.59 100.49 149.322 100.91C150.066 101.318 150.642 101.9 151.05 102.656C151.47 103.4 151.68 104.264 151.68 105.248ZM146.82 102.08C146.1 102.08 145.488 102.296 144.984 102.728C144.492 103.148 144.192 103.712 144.084 104.42H149.538C149.442 103.724 149.148 103.16 148.656 102.728C148.164 102.296 147.552 102.08 146.82 102.08ZM158.515 110.126C157.519 110.126 156.625 109.916 155.833 109.496C155.041 109.076 154.423 108.494 153.979 107.75C153.535 106.994 153.313 106.142 153.313 105.194C153.313 104.246 153.535 103.4 153.979 102.656C154.423 101.912 155.035 101.33 155.815 100.91C156.607 100.49 157.507 100.28 158.515 100.28C159.463 100.28 160.291 100.472 160.999 100.856C161.719 101.24 162.259 101.792 162.619 102.512L160.891 103.52C160.615 103.076 160.267 102.746 159.847 102.53C159.439 102.302 158.989 102.188 158.497 102.188C157.657 102.188 156.961 102.464 156.409 103.016C155.857 103.556 155.581 104.282 155.581 105.194C155.581 106.106 155.851 106.838 156.391 107.39C156.943 107.93 157.645 108.2 158.497 108.2C158.989 108.2 159.439 108.092 159.847 107.876C160.267 107.648 160.615 107.312 160.891 106.868L162.619 107.876C162.247 108.596 161.701 109.154 160.981 109.55C160.273 109.934 159.451 110.126 158.515 110.126ZM168.596 106.148H166.85V110H164.6V100.388H166.85V104.276H168.65L171.494 100.388H173.906L170.414 105.014L174.14 110H171.494L168.596 106.148ZM179.694 110.126C178.722 110.126 177.846 109.916 177.066 109.496C176.286 109.076 175.674 108.494 175.23 107.75C174.798 106.994 174.582 106.142 174.582 105.194C174.582 104.246 174.798 103.4 175.23 102.656C175.674 101.912 176.286 101.33 177.066 100.91C177.846 100.49 178.722 100.28 179.694 100.28C180.678 100.28 181.56 100.49 182.34 100.91C183.12 101.33 183.726 101.912 184.158 102.656C184.602 103.4 184.824 104.246 184.824 105.194C184.824 106.142 184.602 106.994 184.158 107.75C183.726 108.494 183.12 109.076 182.34 109.496C181.56 109.916 180.678 110.126 179.694 110.126ZM179.694 108.2C180.522 108.2 181.206 107.924 181.746 107.372C182.286 106.82 182.556 106.094 182.556 105.194C182.556 104.294 182.286 103.568 181.746 103.016C181.206 102.464 180.522 102.188 179.694 102.188C178.866 102.188 178.182 102.464 177.642 103.016C177.114 103.568 176.85 104.294 176.85 105.194C176.85 106.094 177.114 106.82 177.642 107.372C178.182 107.924 178.866 108.2 179.694 108.2ZM187.047 100.388H189.297V106.724L194.607 100.388H196.659V110H194.409V103.664L189.117 110H187.047V100.388ZM191.709 99.254C190.737 99.254 189.993 99.032 189.477 98.588C188.973 98.132 188.715 97.472 188.703 96.608H190.197C190.209 97.04 190.341 97.382 190.593 97.634C190.857 97.886 191.223 98.012 191.691 98.012C192.147 98.012 192.507 97.886 192.771 97.634C193.047 97.382 193.191 97.04 193.203 96.608H194.733C194.721 97.472 194.457 98.132 193.941 98.588C193.425 99.032 192.681 99.254 191.709 99.254ZM213.876 100.388V110H211.644V102.296H206.91V110H204.66V100.388H213.876ZM222.24 100.28C223.176 100.28 224.01 100.484 224.742 100.892C225.486 101.3 226.068 101.876 226.488 102.62C226.908 103.364 227.118 104.222 227.118 105.194C227.118 106.166 226.908 107.03 226.488 107.786C226.068 108.53 225.486 109.106 224.742 109.514C224.01 109.922 223.176 110.126 222.24 110.126C220.944 110.126 219.918 109.694 219.162 108.83V113.492H216.912V100.388H219.054V101.648C219.426 101.192 219.882 100.85 220.422 100.622C220.974 100.394 221.58 100.28 222.24 100.28ZM221.988 108.2C222.816 108.2 223.494 107.924 224.022 107.372C224.562 106.82 224.832 106.094 224.832 105.194C224.832 104.294 224.562 103.568 224.022 103.016C223.494 102.464 222.816 102.188 221.988 102.188C221.448 102.188 220.962 102.314 220.53 102.566C220.098 102.806 219.756 103.154 219.504 103.61C219.252 104.066 219.126 104.594 219.126 105.194C219.126 105.794 219.252 106.322 219.504 106.778C219.756 107.234 220.098 107.588 220.53 107.84C220.962 108.08 221.448 108.2 221.988 108.2ZM233.642 110.126C232.67 110.126 231.794 109.916 231.014 109.496C230.234 109.076 229.622 108.494 229.178 107.75C228.746 106.994 228.53 106.142 228.53 105.194C228.53 104.246 228.746 103.4 229.178 102.656C229.622 101.912 230.234 101.33 231.014 100.91C231.794 100.49 232.67 100.28 233.642 100.28C234.626 100.28 235.508 100.49 236.288 100.91C237.068 101.33 237.674 101.912 238.106 102.656C238.55 103.4 238.772 104.246 238.772 105.194C238.772 106.142 238.55 106.994 238.106 107.75C237.674 108.494 237.068 109.076 236.288 109.496C235.508 109.916 234.626 110.126 233.642 110.126ZM233.642 108.2C234.47 108.2 235.154 107.924 235.694 107.372C236.234 106.82 236.504 106.094 236.504 105.194C236.504 104.294 236.234 103.568 235.694 103.016C235.154 102.464 234.47 102.188 233.642 102.188C232.814 102.188 232.13 102.464 231.59 103.016C231.062 103.568 230.798 104.294 230.798 105.194C230.798 106.094 231.062 106.82 231.59 107.372C232.13 107.924 232.814 108.2 233.642 108.2ZM246.196 100.856C247.108 100.856 247.912 101.054 248.608 101.45C249.304 101.834 249.844 102.374 250.228 103.07C250.624 103.766 250.822 104.564 250.822 105.464C250.822 106.388 250.606 107.21 250.174 107.93C249.742 108.638 249.136 109.19 248.356 109.586C247.576 109.982 246.688 110.18 245.692 110.18C244.024 110.18 242.734 109.628 241.822 108.524C240.91 107.42 240.454 105.83 240.454 103.754C240.454 101.822 240.868 100.292 241.696 99.164C242.524 98.036 243.79 97.292 245.494 96.932L249.958 95.978L250.282 97.994L246.232 98.822C245.068 99.062 244.198 99.47 243.622 100.046C243.046 100.622 242.71 101.432 242.614 102.476C243.046 101.96 243.568 101.564 244.18 101.288C244.792 101 245.464 100.856 246.196 100.856ZM245.746 108.362C246.574 108.362 247.24 108.098 247.744 107.57C248.26 107.03 248.518 106.346 248.518 105.518C248.518 104.69 248.26 104.024 247.744 103.52C247.24 103.016 246.574 102.764 245.746 102.764C244.906 102.764 244.228 103.016 243.712 103.52C243.196 104.024 242.938 104.69 242.938 105.518C242.938 106.358 243.196 107.042 243.712 107.57C244.24 108.098 244.918 108.362 245.746 108.362ZM261.607 100.388V110H259.357V102.296H255.757L255.667 104.204C255.607 105.476 255.487 106.544 255.307 107.408C255.139 108.26 254.845 108.938 254.425 109.442C254.017 109.934 253.453 110.18 252.733 110.18C252.397 110.18 251.983 110.114 251.491 109.982L251.599 108.092C251.767 108.128 251.911 108.146 252.031 108.146C252.487 108.146 252.829 107.966 253.057 107.606C253.285 107.234 253.429 106.796 253.489 106.292C253.561 105.776 253.621 105.044 253.669 104.096L253.831 100.388H261.607ZM273.637 105.248C273.637 105.404 273.625 105.626 273.601 105.914H266.059C266.191 106.622 266.533 107.186 267.085 107.606C267.649 108.014 268.345 108.218 269.173 108.218C270.229 108.218 271.099 107.87 271.783 107.174L272.989 108.56C272.557 109.076 272.011 109.466 271.351 109.73C270.691 109.994 269.947 110.126 269.119 110.126C268.063 110.126 267.133 109.916 266.329 109.496C265.525 109.076 264.901 108.494 264.457 107.75C264.025 106.994 263.809 106.142 263.809 105.194C263.809 104.258 264.019 103.418 264.439 102.674C264.871 101.918 265.465 101.33 266.221 100.91C266.977 100.49 267.829 100.28 268.777 100.28C269.713 100.28 270.547 100.49 271.279 100.91C272.023 101.318 272.599 101.9 273.007 102.656C273.427 103.4 273.637 104.264 273.637 105.248ZM268.777 102.08C268.057 102.08 267.445 102.296 266.941 102.728C266.449 103.148 266.149 103.712 266.041 104.42H271.495C271.399 103.724 271.105 103.16 270.613 102.728C270.121 102.296 269.509 102.08 268.777 102.08ZM285.548 110V103.628L282.308 108.992H281.336L278.15 103.61V110H276.098V100.388H278.456L281.876 106.4L285.458 100.388H287.564L287.582 110H285.548ZM294.884 110.126C293.912 110.126 293.036 109.916 292.256 109.496C291.476 109.076 290.864 108.494 290.42 107.75C289.988 106.994 289.772 106.142 289.772 105.194C289.772 104.246 289.988 103.4 290.42 102.656C290.864 101.912 291.476 101.33 292.256 100.91C293.036 100.49 293.912 100.28 294.884 100.28C295.868 100.28 296.75 100.49 297.53 100.91C298.31 101.33 298.916 101.912 299.348 102.656C299.792 103.4 300.014 104.246 300.014 105.194C300.014 106.142 299.792 106.994 299.348 107.75C298.916 108.494 298.31 109.076 297.53 109.496C296.75 109.916 295.868 110.126 294.884 110.126ZM294.884 108.2C295.712 108.2 296.396 107.924 296.936 107.372C297.476 106.82 297.746 106.094 297.746 105.194C297.746 104.294 297.476 103.568 296.936 103.016C296.396 102.464 295.712 102.188 294.884 102.188C294.056 102.188 293.372 102.464 292.832 103.016C292.304 103.568 292.04 104.294 292.04 105.194C292.04 106.094 292.304 106.82 292.832 107.372C293.372 107.924 294.056 108.2 294.884 108.2ZM302.237 100.388H304.487V106.724L309.797 100.388H311.849V110H309.599V103.664L304.307 110H302.237V100.388ZM306.899 99.254C305.927 99.254 305.183 99.032 304.667 98.588C304.163 98.132 303.905 97.472 303.893 96.608H305.387C305.399 97.04 305.531 97.382 305.783 97.634C306.047 97.886 306.413 98.012 306.881 98.012C307.337 98.012 307.697 97.886 307.961 97.634C308.237 97.382 308.381 97.04 308.393 96.608H309.923C309.911 97.472 309.647 98.132 309.131 98.588C308.615 99.032 307.871 99.254 306.899 99.254ZM317.711 105.824C317.711 105.176 317.855 104.642 318.143 104.222C318.443 103.79 318.875 103.322 319.439 102.818C319.871 102.434 320.189 102.104 320.393 101.828C320.609 101.54 320.717 101.216 320.717 100.856C320.717 100.352 320.513 99.944 320.105 99.632C319.697 99.32 319.151 99.164 318.467 99.164C317.171 99.164 316.193 99.626 315.533 100.55L313.787 99.416C314.303 98.708 314.969 98.168 315.785 97.796C316.601 97.412 317.561 97.22 318.665 97.22C320.009 97.22 321.077 97.514 321.869 98.102C322.673 98.678 323.075 99.476 323.075 100.496C323.075 100.988 322.991 101.42 322.823 101.792C322.667 102.164 322.475 102.482 322.247 102.746C322.019 102.998 321.719 103.292 321.347 103.628C320.891 104.036 320.549 104.396 320.321 104.708C320.105 105.02 319.997 105.392 319.997 105.824H317.711ZM318.863 110.126C318.443 110.126 318.095 109.994 317.819 109.73C317.555 109.454 317.423 109.118 317.423 108.722C317.423 108.326 317.555 107.996 317.819 107.732C318.095 107.468 318.443 107.336 318.863 107.336C319.271 107.336 319.607 107.468 319.871 107.732C320.147 107.996 320.285 108.326 320.285 108.722C320.285 109.118 320.147 109.454 319.871 109.73C319.607 109.994 319.271 110.126 318.863 110.126Z" fill="black"/>
<g filter="url(#filter1_d_4658_15)">
<path d="M365 142L326 120L300 147L365 142Z" fill="white"/>
</g>
<defs>
<filter id="filter0_d_4658_15" x="0.718018" y="0.552734" width="367.299" height="186.956" filterUnits="userSpaceOnUse" color-interpolation-filters="sRGB">
<feFlood flood-opacity="0" result="BackgroundImageFix"/>
<feColorMatrix in="SourceAlpha" type="matrix" values="0 0 0 0 0 0 0 0 0 0 0 0 0 0 0 0 0 0 127 0" result="hardAlpha"/>
<feMorphology radius="2" operator="dilate" in="SourceAlpha" result="effect1_dropShadow_4658_15"/>
<feOffset dx="1" dy="4"/>
<feGaussianBlur stdDeviation="5.5"/>
<feColorMatrix type="matrix" values="0 0 0 0 0 0 0 0 0 0 0 0 0 0 0 0 0 0 0.12 0"/>
<feBlend mode="normal" in2="BackgroundImageFix" result="effect1_dropShadow_4658_15"/>
<feBlend mode="normal" in="SourceGraphic" in2="effect1_dropShadow_4658_15" result="shape"/>
</filter>
<filter id="filter1_d_4658_15" x="296" y="120" width="73" height="35" filterUnits="userSpaceOnUse" color-interpolation-filters="sRGB">
<feFlood flood-opacity="0" result="BackgroundImageFix"/>
<feColorMatrix in="SourceAlpha" type="matrix" values="0 0 0 0 0 0 0 0 0 0 0 0 0 0 0 0 0 0 127 0" result="hardAlpha"/>
<feOffset dy="4"/>
<feGaussianBlur stdDeviation="2"/>
<feColorMatrix type="matrix" values="0 0 0 0 0 0 0 0 0 0 0 0 0 0 0 0 0 0 0.25 0"/>
<feBlend mode="normal" in2="BackgroundImageFix" result="effect1_dropShadow_4658_15"/>
<feBlend mode="normal" in="SourceGraphic" in2="effect1_dropShadow_4658_15" result="shape"/>
</filter>
</defs>
</svg>
