<svg width="651" height="543" viewBox="0 0 651 543" fill="none" xmlns="http://www.w3.org/2000/svg">
<g clip-path="url(#clip0_124_2288)">
<rect width="651" height="543" fill="white"/>
<path d="M640.959 398.131C631.34 376.249 612.878 357.988 590.693 349.003C567.586 339.643 541.061 343.047 516.725 339.914C495.582 337.188 480.338 327.748 467.72 310.963C455.628 294.881 444.785 277.071 425.013 269.631C409.391 263.755 391.63 265.384 376.107 271.511C347.496 282.795 325.885 306.796 307.689 330.701C291.078 352.531 277.522 376.433 246.791 377.203C216.061 377.974 186.759 360.439 155.794 365.085C114.87 371.232 80.7931 405.32 73.6441 445.898C66.9539 483.933 83.7493 520.819 112.604 542.494H608.573C644.932 503.907 664.009 450.596 640.959 398.131Z" fill="#F7F0E3"/>
<path d="M192.608 542.501H193.972C203.662 531.76 211.022 519.128 215.591 505.399C223.226 482.684 222.903 458.842 214.681 438.269C210.528 427.891 204.528 418.184 198.724 408.812C192.839 399.312 186.755 389.485 182.622 378.955C180.889 374.501 179.64 369.873 178.896 365.152L177.871 365.032C178.62 369.92 179.903 374.711 181.697 379.318C185.858 389.932 191.966 399.799 197.874 409.339C203.655 418.675 209.631 428.326 213.752 438.641C221.886 458.998 222.201 482.592 214.641 505.084C210.021 518.974 202.512 531.726 192.608 542.501Z" fill="white"/>
<path d="M606.175 499.221C616.396 501.4 626.242 503.356 635.765 504.585C635.928 504.27 636.088 503.951 636.247 503.635C626.645 502.414 616.699 500.442 606.383 498.247C590.664 494.894 573.67 491.269 556.779 491.269C546.334 491.269 535.938 492.658 525.941 496.367C522.141 497.78 518.487 499.558 515.03 501.675C506.002 497.824 496.926 493.62 487.934 489.01C494.46 484.093 501.051 479.275 507.713 474.641C557.182 440.086 602.82 420.495 646.919 414.935C646.831 414.611 646.735 414.288 646.644 413.965C602.429 419.553 556.683 439.211 507.143 473.838C500.337 478.592 493.607 483.514 486.948 488.535C476.736 483.282 466.801 477.506 457.184 471.228C439.63 459.732 418.79 443.323 400.57 421.521C471.162 413.594 543.035 403.611 601.723 364.366C603.953 362.873 606.423 361.117 608.98 359.125C608.697 358.921 608.409 358.726 608.126 358.526C605.673 360.426 603.311 362.118 601.169 363.535C542.493 402.772 470.492 412.68 399.808 420.615C386.935 405.048 375.433 386.738 367.442 365.531C354.992 332.497 355.65 300.126 369.246 276.663C369.836 275.641 370.442 274.639 371.105 273.646C370.534 273.909 369.972 274.18 369.409 274.444C369.058 275.011 368.716 275.581 368.384 276.156C354.656 299.886 353.954 332.577 366.509 365.859C374.46 386.926 385.857 405.151 398.623 420.699C394.536 421.154 390.448 421.606 386.36 422.056C371.643 423.684 356.42 425.365 341.643 427.269C336.245 427.963 330.76 428.773 325.287 429.787C313.586 405.076 300.732 380.971 284.116 360.294C283.877 360.534 283.633 360.761 283.394 360.997C299.87 381.513 312.644 405.443 324.273 429.979C300.481 434.521 277.362 443.063 265.019 462.941C253.49 481.506 253.498 507.168 265.047 539.212C265.446 540.322 265.845 541.415 266.276 542.501H267.345C266.886 541.304 266.431 540.106 265.988 538.873C254.547 507.132 254.507 481.761 265.865 463.468C278.064 443.826 301.055 435.4 324.732 430.909C328.861 439.655 332.85 448.472 336.82 457.229L337.251 458.183C351.022 488.607 365.268 517.965 383.927 542.501H385.171C366.349 517.921 352.023 488.383 338.164 457.772L337.729 456.818C333.8 448.133 329.842 439.391 325.761 430.721C331.115 429.731 336.493 428.937 341.787 428.259C356.547 426.355 371.771 424.666 386.468 423.05C390.768 422.576 395.074 422.098 399.385 421.617C417.773 443.762 438.9 460.399 456.633 472.026C466.148 478.242 475.972 483.971 486.067 489.19C469.104 502.027 452.6 515.534 436.487 528.706C430.902 533.273 425.265 537.871 419.576 542.501H421.171C426.537 538.146 431.867 533.787 437.129 529.477C453.358 516.197 469.978 502.589 487.064 489.677C496.004 494.279 505.016 498.458 514.008 502.318C501.721 510.133 491.712 522.236 485.66 536.937C484.902 538.777 484.24 540.633 483.625 542.501H484.675C485.253 540.761 485.871 539.032 486.581 537.312C492.649 522.575 502.746 510.481 515.125 502.789C540.223 513.458 564.893 521.378 586.089 527.652L586.887 527.888C595.819 530.534 604.954 533.241 613.037 537.591L613.715 536.817C605.501 532.358 596.23 529.612 587.17 526.934L586.372 526.698C565.392 520.484 541.005 512.664 516.159 502.15C519.38 500.23 522.769 498.605 526.284 497.297C552.163 487.709 580.855 493.824 606.175 499.221Z" fill="white"/>
<path d="M115.102 434.585C119.49 452.623 117.543 472.106 109.712 488.04C104.582 498.474 97.1736 507.922 88.0459 516.033C88.2294 516.317 88.4129 516.596 88.6004 516.876C97.8718 508.657 105.4 499.073 110.606 488.48C118.541 472.342 120.532 452.611 116.071 434.346C112.589 420.076 105.583 408.002 95.901 399.244C95.6856 399.496 95.4741 399.751 95.2587 400.007C104.777 408.62 111.671 420.523 115.102 434.585Z" fill="white"/>
<path d="M340.83 206.044C349.518 214.926 353.412 229.89 348.625 243.689C343.985 257.048 333.816 268.113 321.601 275.222C311.771 280.946 298.949 284.103 289.287 278.108C282.062 273.629 278.316 264.84 278.116 256.342C277.917 247.844 280.761 239.557 284.296 231.822C289.271 220.917 295.973 210.347 305.954 203.717C319.698 194.585 332.48 197.502 340.83 206.044Z" fill="#F7F0E3"/>
<path d="M635.011 115.313C630.351 99.8148 622.157 85.5689 610.428 72.5751C598.699 59.5812 582.67 48.8279 562.34 40.3153C542.034 31.8212 516.236 27.5742 484.946 27.5742C459.98 27.5742 434.539 30.9431 408.621 37.6809C382.703 44.4186 360.194 54.0489 341.093 66.5718L365.935 134.827L352.622 145.605L371.923 151.281C390.989 141.299 408.356 134.05 424.024 129.535C439.692 125.019 456.33 122.776 473.939 122.805C491.548 122.805 504.878 127.052 513.929 135.546C522.985 144.064 527.493 154.306 527.493 166.301C527.493 180.798 522.851 193.668 513.566 204.911C504.281 216.154 493.998 227.529 482.716 239.035C474.905 247.018 467.325 255.259 459.976 263.759C452.644 272.252 446.134 281.422 440.532 291.145C434.814 301.082 430.263 311.648 426.968 322.63C423.529 333.884 421.817 346.503 421.83 360.486C421.83 365.001 421.926 370.369 422.189 376.62C422.233 377.77 422.293 378.895 422.365 380.005H404.105L424.028 393.485H520.894C520.361 390.013 520.113 386.503 520.152 382.991V373.982C520.183 365.351 521.93 356.812 525.291 348.863C528.745 340.564 533.051 332.646 538.141 325.237C543.321 317.676 549.089 310.536 555.391 303.882C561.744 297.12 567.861 290.742 573.742 284.746C581.553 276.763 589.62 268.269 597.941 259.264C606.115 250.45 613.482 240.918 619.951 230.785C626.423 220.538 631.713 209.59 635.717 198.15C639.874 186.409 641.96 173.539 641.976 159.539C641.992 145.539 639.67 130.797 635.011 115.313Z" fill="#E49B31"/>
<path d="M453.422 118.043C435.996 118.043 419.556 120.217 404.101 124.565C388.646 128.913 371.484 135.927 352.614 145.608L322.135 63.6217C340.997 51.5272 363.243 42.2136 388.873 35.6807C414.504 29.1479 439.648 25.8881 464.305 25.9014C495.23 25.9014 520.728 30.0114 540.797 38.2313C560.867 46.4513 576.707 56.852 588.319 69.4334C599.912 82.0281 608.01 95.8163 612.614 110.798C617.218 125.78 619.516 140.047 619.508 153.599C619.508 167.155 617.445 179.611 613.32 190.968C609.352 202.058 604.124 212.655 597.738 222.55C591.328 232.376 584.043 241.602 575.972 250.115C567.759 258.833 559.78 267.053 552.035 274.775C546.232 280.587 540.188 286.761 533.904 293.296C527.686 299.724 521.987 306.635 516.861 313.964C511.837 321.119 507.58 328.782 504.159 336.828C500.843 344.505 499.117 352.774 499.084 361.137V369.85C499.045 373.251 499.289 376.649 499.814 380.009H404.069C403.025 374.626 402.418 369.168 402.254 363.687C401.995 357.64 401.899 352.443 401.899 348.072C401.899 334.536 403.59 322.323 406.973 311.434C410.24 300.789 414.741 290.563 420.386 280.966C425.931 271.538 432.366 262.663 439.603 254.462C446.847 246.24 454.338 238.256 462.075 230.513C473.197 219.387 483.357 208.38 492.554 197.491C501.751 186.602 506.338 174.145 506.317 160.122C506.317 148.498 501.857 138.603 492.909 130.357C483.961 122.11 470.819 118.043 453.422 118.043Z" fill="#FBC343"/>
<path d="M527.525 487.565C527.525 505.035 521.871 518.524 510.562 528.032C499.253 537.54 486.469 542.299 472.208 542.31C457.918 542.31 445.125 537.55 433.83 528.032C422.535 518.513 416.888 505.024 416.891 487.565C416.891 470.109 422.539 456.619 433.834 447.095C451.24 432.398 476.991 429.133 497.369 439.439C515.449 448.592 527.525 467.176 527.525 487.565Z" fill="#E49B31"/>
<path d="M508.575 487.566C508.575 505.035 502.921 518.524 491.612 528.032C480.304 537.54 467.519 542.299 453.258 542.31C438.968 542.31 426.176 537.551 414.88 528.032C403.585 518.514 397.938 505.025 397.938 487.566C397.938 470.109 403.585 456.619 414.88 447.095C426.176 437.571 438.968 432.812 453.258 432.817C467.524 432.817 480.309 437.577 491.612 447.095C502.916 456.614 508.57 470.104 508.575 487.566Z" fill="#FBC343"/>
<g filter="url(#filter0_d_124_2288)">
<path d="M221.882 240.21C222.928 234.626 219.253 229.251 213.672 228.204C208.091 227.157 202.719 230.835 201.673 236.418C200.626 242.002 204.302 247.377 209.883 248.424C215.463 249.471 220.835 245.793 221.882 240.21Z" fill="white"/>
</g>
<g filter="url(#filter1_d_124_2288)">
<path d="M225.093 259.046C225.668 255.914 223.578 252.904 220.426 252.325C217.273 251.746 214.252 253.816 213.676 256.948C213.101 260.081 215.191 263.09 218.343 263.669C221.496 264.248 224.517 262.179 225.093 259.046Z" fill="white"/>
</g>
<path d="M156.384 521.737L160.222 536.542C161.223 540.402 164.953 543.012 169.083 542.729C181.665 541.874 207.811 538.789 222.816 527.724L218.551 506.389C197.918 505.22 178.625 506.37 161.902 511.978C157.725 513.407 155.303 517.602 156.384 521.737Z" fill="#102048"/>
<path d="M180.424 533.521C180.316 533.521 180.21 533.486 180.123 533.42C180.037 533.354 179.974 533.262 179.945 533.157L174.791 514.696C174.756 514.569 174.772 514.432 174.837 514.317C174.903 514.202 175.011 514.117 175.138 514.082C175.266 514.046 175.402 514.063 175.517 514.128C175.633 514.193 175.717 514.301 175.753 514.429L180.903 532.874C180.939 533.001 180.923 533.137 180.858 533.252C180.794 533.367 180.687 533.452 180.56 533.489C180.516 533.505 180.471 533.516 180.424 533.521Z" fill="white"/>
<path d="M191.563 531.025C191.454 531.025 191.348 530.99 191.261 530.924C191.173 530.859 191.11 530.767 191.08 530.662L185.93 512.201C185.906 512.136 185.895 512.067 185.9 511.999C185.904 511.93 185.922 511.863 185.953 511.801C185.985 511.74 186.028 511.686 186.082 511.642C186.135 511.598 186.197 511.566 186.263 511.548C186.33 511.529 186.399 511.525 186.467 511.534C186.536 511.544 186.601 511.568 186.66 511.604C186.718 511.64 186.769 511.688 186.808 511.745C186.847 511.802 186.874 511.866 186.887 511.934L192.041 530.395C192.063 530.469 192.067 530.547 192.054 530.622C192.04 530.698 192.008 530.77 191.962 530.831C191.915 530.893 191.855 530.942 191.785 530.976C191.716 531.01 191.64 531.027 191.563 531.025Z" fill="white"/>
<path d="M204.496 441.715L156.54 455.957L192.153 504.777L243.281 508.845L313.801 479.012L287.005 438.665L204.496 441.715Z" fill="#FBC343"/>
<path d="M263.615 448.496C368.934 417.306 385.849 510.429 221.539 527.382C215.734 520.847 208.952 509.507 206.259 500.031L293.028 459.912L263.615 448.496Z" fill="#FBC343"/>
<path d="M268.087 515.239C263.164 513.642 258.445 510.541 258.445 510.541L241.518 515.854L245.395 534.275L262.98 537.867C268.334 528.048 268.649 519.997 268.087 515.239Z" fill="#F9B384"/>
<path d="M206.65 500.678L205.9 499.385C224 488.859 270.369 463.569 309.872 456.112L310.151 457.585C270.88 465.018 224.67 490.192 206.65 500.678Z" fill="#E49B31"/>
<path d="M204.496 441.714C106.473 423.069 81.0845 517.306 245.395 534.274C251.505 527.468 255.97 519.348 258.445 510.54C233.204 493.644 204.987 477.582 174.053 462.282L204.496 441.714Z" fill="#FBC343"/>
<path d="M258.042 511.171C253.378 508.201 248.519 505.064 243.377 501.739C217.553 485.058 188.287 466.154 163.421 455.373L164.016 454C188.993 464.829 218.319 483.769 244.202 500.482C249.345 503.807 254.204 506.944 258.859 509.91L258.042 511.171Z" fill="#E49B31"/>
<path d="M132.575 488.447L131.267 487.725C134.945 481.059 140.841 476.549 148.784 474.365L149.183 475.806C141.536 477.926 136.102 482.061 132.575 488.447Z" fill="#E49B31"/>
<path d="M337.167 482.776C333.641 476.389 328.207 472.254 320.559 470.134L320.958 468.689C328.901 470.893 334.797 475.387 338.476 482.053L337.167 482.776Z" fill="#E49B31"/>
<path d="M236.22 533.448L235.126 532.426C242.966 524.024 247.781 515.151 249.847 505.308L251.311 505.615C249.189 515.734 244.25 524.838 236.22 533.448Z" fill="#E49B31"/>
<path d="M316.977 509.75C304.418 501.987 280.071 515.402 273.959 516.077C272.176 516.276 270.113 515.885 268.087 515.239C268.649 519.997 268.334 528.048 262.98 537.847L265.965 538.458C265.965 538.458 286.61 546.041 308.511 541.619C328.726 537.551 326.847 515.853 316.977 509.75Z" fill="#102048"/>
<path d="M299.858 535.145C299.807 535.145 299.755 535.137 299.707 535.121C299.581 535.081 299.476 534.992 299.414 534.875C299.353 534.758 299.341 534.621 299.379 534.494C300.871 529.768 301.522 520.468 297.201 514.221C297.126 514.112 297.097 513.978 297.121 513.848C297.145 513.717 297.22 513.602 297.329 513.527C297.438 513.452 297.572 513.423 297.702 513.447C297.833 513.471 297.948 513.545 298.023 513.654C302.547 520.193 301.885 529.88 300.333 534.81C300.298 534.908 300.234 534.993 300.149 535.053C300.064 535.113 299.962 535.145 299.858 535.145Z" fill="white"/>
<path d="M290.029 537.013C289.978 537.019 289.927 537.019 289.877 537.013C289.751 536.972 289.646 536.884 289.586 536.766C289.525 536.649 289.514 536.512 289.554 536.386C291.046 531.656 291.696 522.36 287.372 516.113C287.334 516.059 287.308 515.998 287.295 515.934C287.281 515.87 287.28 515.804 287.292 515.739C287.304 515.675 287.328 515.613 287.364 515.558C287.399 515.503 287.445 515.456 287.499 515.418C287.553 515.381 287.614 515.355 287.678 515.341C287.742 515.327 287.808 515.326 287.873 515.338C287.937 515.35 287.999 515.375 288.054 515.41C288.109 515.446 288.156 515.492 288.193 515.546C292.717 522.084 292.055 531.772 290.503 536.701C290.465 536.795 290.399 536.876 290.315 536.931C290.23 536.987 290.13 537.015 290.029 537.013Z" fill="white"/>
<path d="M187.154 320.188C187.154 320.188 211.84 299.184 210.927 295.192C210.273 292.338 203.279 296.522 203.279 296.522C203.279 296.522 213.089 284.882 212.59 283.465C211.697 280.943 204.915 285.649 204.915 285.649C204.915 285.649 209.499 279.047 207.309 277.973C205.118 276.899 200.339 280.967 200.339 280.967C200.339 280.967 203.132 277.298 201.815 276.336C200.499 275.374 194.846 279.33 194.846 279.33C194.846 279.33 196.876 274.708 192.564 276.46C188.251 278.212 158.004 305.998 158.004 305.998L187.154 320.188Z" fill="#F9B384"/>
<path d="M197.255 295.276C197.13 295.276 197.009 295.229 196.916 295.145C192.679 291.273 190.812 290.331 186.145 288.89C186.078 288.875 186.015 288.846 185.959 288.805C185.904 288.764 185.858 288.712 185.823 288.652C185.789 288.593 185.767 288.527 185.76 288.458C185.752 288.39 185.759 288.321 185.779 288.255C185.799 288.189 185.833 288.129 185.878 288.077C185.923 288.025 185.979 287.982 186.041 287.953C186.103 287.923 186.17 287.907 186.239 287.905C186.308 287.902 186.376 287.914 186.44 287.94C191.283 289.429 193.222 290.403 197.61 294.41C197.684 294.478 197.736 294.567 197.758 294.664C197.781 294.762 197.774 294.864 197.738 294.957C197.702 295.051 197.638 295.131 197.556 295.188C197.473 295.245 197.375 295.276 197.275 295.276H197.255Z" fill="#E28B6D"/>
<path d="M189.815 306.668H189.747C189.616 306.649 189.498 306.579 189.418 306.474C189.339 306.369 189.303 306.236 189.32 306.105C189.807 302.632 190.916 300.461 192.663 299.467C194.171 298.621 196.13 298.709 198.492 299.726C198.552 299.753 198.607 299.79 198.652 299.838C198.698 299.885 198.734 299.941 198.758 300.002C198.782 300.063 198.794 300.128 198.793 300.194C198.792 300.26 198.777 300.325 198.751 300.385C198.725 300.445 198.687 300.5 198.64 300.545C198.593 300.591 198.537 300.627 198.476 300.651C198.415 300.675 198.349 300.687 198.284 300.686C198.218 300.685 198.153 300.671 198.093 300.644C196.031 299.754 194.371 299.651 193.146 300.337C191.694 301.155 190.753 303.131 190.306 306.241C190.289 306.359 190.23 306.467 190.14 306.545C190.05 306.624 189.934 306.667 189.815 306.668Z" fill="#E28B6D"/>
<path d="M188.654 285.672C188.554 285.673 188.457 285.643 188.374 285.587C188.291 285.531 188.227 285.451 188.19 285.358C188.153 285.265 188.145 285.163 188.166 285.065C188.188 284.968 188.239 284.879 188.311 284.81L194.507 278.967C194.604 278.883 194.73 278.84 194.858 278.847C194.986 278.854 195.107 278.91 195.195 279.004C195.282 279.097 195.331 279.221 195.33 279.35C195.329 279.478 195.278 279.601 195.189 279.693L188.994 285.533C188.903 285.621 188.781 285.671 188.654 285.672Z" fill="#E28B6D"/>
<path d="M194.387 287.668C194.258 287.666 194.134 287.617 194.04 287.528C193.947 287.434 193.895 287.307 193.895 287.175C193.895 287.043 193.947 286.916 194.04 286.822L199.976 280.607C200.021 280.559 200.076 280.521 200.136 280.495C200.196 280.468 200.26 280.454 200.326 280.452C200.391 280.451 200.457 280.462 200.518 280.486C200.579 280.51 200.635 280.545 200.682 280.591C200.73 280.636 200.768 280.69 200.794 280.75C200.821 280.81 200.835 280.875 200.836 280.941C200.838 281.006 200.826 281.071 200.803 281.133C200.779 281.194 200.743 281.25 200.698 281.297L194.746 287.512C194.7 287.561 194.645 287.601 194.583 287.628C194.521 287.654 194.454 287.668 194.387 287.668Z" fill="#E28B6D"/>
<path d="M200.267 291.161C200.17 291.16 200.075 291.131 199.994 291.077C199.913 291.024 199.85 290.948 199.811 290.859C199.772 290.77 199.76 290.671 199.776 290.575C199.792 290.479 199.835 290.39 199.9 290.318L204.568 285.309C204.658 285.212 204.784 285.155 204.916 285.151C205.049 285.146 205.177 285.195 205.274 285.285C205.371 285.376 205.428 285.501 205.432 285.633C205.437 285.766 205.389 285.895 205.298 285.992L200.611 290.985C200.568 291.036 200.516 291.077 200.457 291.107C200.398 291.137 200.333 291.156 200.267 291.161Z" fill="#E28B6D"/>
<path d="M280.41 460.674L190.15 464.167L180.177 381.841C180.177 381.841 210.392 353.161 222.017 342.604L241.641 341.598C302.531 369.287 292.562 403.874 280.41 460.674Z" fill="#3A6BEA"/>
<path d="M241.641 341.598C241.641 341.598 311.304 347.557 333.27 395.312C354.756 442.037 266.447 458.678 266.447 458.678L241.641 341.598Z" fill="#3A6BEA"/>
<path d="M162.013 351.828L190.801 316.779L163.88 300.457C152.65 308.269 130.936 325.963 112.533 346.001C108.472 350.423 105.3 355.581 103.7 361.276C102.367 365.932 102.078 370.826 102.855 375.606C104.849 387.84 114.476 397.284 127.317 398.789C138.284 400.074 180.177 396.793 214.087 386.814L224.06 348.3C218.934 345.406 180.843 344.899 162.013 351.828Z" fill="#3A6BEA"/>
<g opacity="0.8">
<path opacity="0.8" d="M299.779 360.546L300.229 360.442L299.284 359.891C294.178 361.089 288.912 362.286 283.725 362.897C280.606 363.272 270.161 363.963 267.133 357.013C265.618 353.557 266.762 349.709 268.478 347.01L267.732 346.795C265.977 349.657 264.848 353.668 266.447 357.313C269.683 364.737 280.558 364.03 283.809 363.631C289.151 362.997 294.553 361.751 299.779 360.546Z" fill="white"/>
<path opacity="0.8" d="M332.288 414.408C328.961 413.119 325.506 411.79 321.916 412.129C315.577 412.732 310.151 419.002 309.824 426.099C309.597 430.945 311.448 436.026 314.978 440.497L315.613 440.098C312.162 435.755 310.35 430.821 310.57 426.127C310.881 419.378 316.003 413.422 321.988 412.855C325.422 412.536 328.63 413.769 332.029 415.083C333.226 415.554 334.47 416.025 335.723 416.428C335.791 416.184 335.851 415.945 335.911 415.701C334.682 415.326 333.477 414.863 332.288 414.408Z" fill="white"/>
<path opacity="0.8" d="M156.456 390.602C152.108 387.01 145.35 386.044 137.921 387.964C131.299 389.68 125.618 393.073 121.712 397.568C121.972 397.647 122.219 397.743 122.482 397.819C126.276 393.556 131.75 390.335 138.109 388.69C145.29 386.826 151.816 387.736 155.981 391.181C157.894 392.831 159.397 394.904 160.37 397.236L161.171 397.16C160.145 394.629 158.528 392.381 156.456 390.602Z" fill="white"/>
<path opacity="0.8" d="M117.141 341.107C125.291 339.079 133.242 336.234 140.578 332.006C143.347 330.41 146.479 328.374 148.677 325.384C151.018 322.191 151.796 318.411 150.759 315.25C150.349 314.037 149.653 312.942 148.729 312.057L148.154 312.54C149.02 313.357 149.671 314.376 150.049 315.505C151.011 318.435 150.276 321.972 148.078 324.957C145.956 327.835 142.892 329.819 140.203 331.376C133.286 335.367 125.802 338.122 118.114 340.113L117.141 341.107Z" fill="white"/>
</g>
<path d="M248.02 323.292V324.57L247.821 344.42L247.793 346.571C247.642 349.748 246.275 352.744 243.974 354.938C241.674 357.133 238.618 358.357 235.44 358.357C232.262 358.357 229.205 357.133 226.905 354.938C224.605 352.744 223.238 349.748 223.087 346.571L222.847 322.039L248.02 323.292Z" fill="#F9B384"/>
<path d="M248.004 324.57L247.805 344.42C236.778 339.93 232.246 327.987 232.246 327.987L248.004 324.57Z" fill="#102048"/>
<path d="M252.369 289.932C256.318 294.678 267.86 321.561 256.163 330.733C242.998 341.056 222.971 324.091 222.971 324.091L220.282 292.778L237.668 288.191L252.369 289.932Z" fill="#F9B384"/>
<path d="M211.438 288.191C211.438 288.191 172.872 308.317 204.317 366.326C208.354 373.774 217.302 377.028 224.954 373.391C226.888 372.463 228.611 371.146 230.015 369.523C231.418 367.899 232.474 366.005 233.114 363.956C233.755 361.907 233.967 359.749 233.738 357.614C233.509 355.48 232.844 353.415 231.783 351.549C226.641 342.409 221.678 330.638 223.805 321.876L211.438 288.191Z" fill="#102048"/>
<path d="M222.444 305.114C226.518 301.038 226.518 294.429 222.444 290.353C218.37 286.276 211.765 286.276 207.691 290.353C203.617 294.429 203.617 301.038 207.691 305.114C211.765 309.19 218.37 309.19 222.444 305.114Z" fill="#FBC343"/>
<path d="M227.898 310.273C226.773 303.762 226.087 299.296 232.685 295.943C232.685 295.943 255.864 300.158 260.292 291.408C264.72 282.659 257.974 268.844 243.852 278.44C207.712 271.375 202.865 305.219 213.823 316.499L224.603 314.839C225.122 314.761 225.62 314.581 226.068 314.308C226.516 314.035 226.905 313.676 227.212 313.25C227.519 312.825 227.738 312.342 227.855 311.831C227.973 311.319 227.988 310.79 227.898 310.273Z" fill="#102048"/>
<path d="M245.85 311.833C246.7 311.833 247.39 311.144 247.39 310.293C247.39 309.442 246.7 308.752 245.85 308.752C244.999 308.752 244.31 309.442 244.31 310.293C244.31 311.144 244.999 311.833 245.85 311.833Z" fill="#102048"/>
<path d="M256.278 306.692C257.129 306.692 257.818 306.002 257.818 305.151C257.818 304.3 257.129 303.61 256.278 303.61C255.428 303.61 254.738 304.3 254.738 305.151C254.738 306.002 255.428 306.692 256.278 306.692Z" fill="#102048"/>
<path d="M255.213 315.038C255.127 315.039 255.043 315.014 254.972 314.967C254.9 314.92 254.843 314.853 254.81 314.774C254.776 314.695 254.766 314.608 254.782 314.524C254.798 314.439 254.838 314.361 254.898 314.3C255.516 313.649 256.191 312.735 255.907 312.073C255.624 311.41 254.363 311.087 253.789 311.087C252.56 311.087 251.97 308.895 251.866 308.456C251.84 308.344 251.858 308.226 251.918 308.127C251.977 308.029 252.074 307.958 252.185 307.929C252.241 307.916 252.299 307.913 252.356 307.922C252.413 307.931 252.467 307.951 252.516 307.981C252.565 308.011 252.607 308.051 252.641 308.097C252.675 308.144 252.699 308.197 252.712 308.253C252.939 309.179 253.446 310.213 253.789 310.213C254.379 310.213 256.183 310.492 256.709 311.725C257.088 312.612 256.689 313.677 255.512 314.919C255.432 314.997 255.325 315.04 255.213 315.038Z" fill="#102048"/>
<path d="M255.293 320.89C255.206 320.892 255.12 320.865 255.049 320.814C252.145 318.854 249.217 320.499 249.189 320.515C249.089 320.564 248.974 320.574 248.867 320.542C248.761 320.509 248.67 320.438 248.614 320.341C248.558 320.245 248.541 320.13 248.567 320.022C248.592 319.913 248.657 319.818 248.75 319.756C248.89 319.676 252.189 317.828 255.532 320.091C255.611 320.143 255.67 320.219 255.702 320.307C255.734 320.396 255.736 320.492 255.709 320.582C255.681 320.671 255.626 320.75 255.55 320.806C255.474 320.861 255.383 320.891 255.289 320.89H255.293Z" fill="#102048"/>
<path d="M245.172 303.614C246.049 305.263 244.521 305.61 242.73 306.548C240.939 307.486 239.108 307.849 238.693 307.059C238.278 306.269 239.383 304.864 241.174 303.91C242.966 302.956 244.493 302.337 245.172 303.614Z" fill="#102048"/>
<path d="M251.703 300.632C252.101 302.105 253.187 301.463 254.782 301.032C256.378 300.6 257.671 299.81 257.487 299.108C257.304 298.405 255.859 298.174 254.26 298.593C252.66 299.012 251.403 299.495 251.703 300.632Z" fill="#102048"/>
<path opacity="0.4" d="M241.823 320.799C243.667 319.097 243.783 316.22 242.082 314.375C240.38 312.529 237.505 312.413 235.661 314.116C233.816 315.818 233.7 318.694 235.402 320.54C237.103 322.386 239.978 322.502 241.823 320.799Z" fill="#EB5D60"/>
<path d="M227.013 321.798C229.09 319.105 228.295 315.008 225.238 312.647C222.18 310.286 218.017 310.554 215.94 313.247C213.863 315.94 214.658 320.037 217.716 322.398C220.773 324.759 224.936 324.49 227.013 321.798Z" fill="#F9B384"/>
<path d="M224.204 319.785C224.146 319.785 224.089 319.774 224.036 319.753C223.983 319.731 223.934 319.699 223.894 319.659C223.853 319.618 223.82 319.57 223.798 319.517C223.776 319.464 223.765 319.407 223.765 319.349C223.77 318.72 223.619 318.099 223.326 317.542C223.033 316.985 222.607 316.509 222.085 316.156C221.678 315.859 221.203 315.667 220.703 315.597C220.204 315.528 219.694 315.583 219.221 315.757C219.12 315.779 219.015 315.765 218.924 315.717C218.833 315.67 218.761 315.592 218.722 315.497C218.682 315.401 218.678 315.295 218.708 315.197C218.739 315.099 218.803 315.014 218.89 314.959C219.495 314.729 220.147 314.651 220.789 314.733C221.431 314.814 222.044 315.052 222.572 315.426C223.212 315.857 223.735 316.44 224.095 317.123C224.456 317.805 224.642 318.566 224.639 319.338C224.64 319.396 224.63 319.454 224.609 319.508C224.588 319.562 224.556 319.611 224.516 319.653C224.475 319.695 224.427 319.728 224.373 319.75C224.319 319.773 224.262 319.785 224.204 319.785Z" fill="#102048"/>
<path d="M161.648 351.478L145.904 368.52L146.636 369.197L162.38 352.156L161.648 351.478Z" fill="#102048"/>
<path d="M272.575 424.73L272.284 423.776C283.745 420.28 294.872 416.097 304.953 403.483L305.751 404.106C295.47 416.943 284.192 421.186 272.575 424.73Z" fill="#102048"/>
<path d="M279.544 386.088H182.036C178.529 386.088 175.689 389.165 175.689 392.957V462.622C175.689 466.418 178.529 469.496 182.036 469.496H279.544C283.051 469.496 285.896 466.418 285.896 462.622V392.957C285.896 389.177 283.051 386.088 279.544 386.088Z" fill="#D3DFFF"/>
<path d="M235.936 423.385C236.028 423.389 236.118 423.411 236.202 423.449C236.285 423.488 236.36 423.542 236.422 423.61C236.484 423.677 236.533 423.756 236.564 423.842C236.596 423.929 236.61 424.02 236.607 424.112V431.464C236.613 431.649 236.546 431.829 236.421 431.966C236.295 432.102 236.121 432.183 235.936 432.191H225.644C225.459 432.183 225.285 432.102 225.159 431.966C225.034 431.829 224.967 431.649 224.974 431.464V424.112C224.97 424.02 224.984 423.929 225.016 423.842C225.048 423.756 225.096 423.677 225.158 423.61C225.22 423.542 225.295 423.488 225.379 423.449C225.462 423.411 225.552 423.389 225.644 423.385H235.936ZM235.936 421.39H225.644C225.29 421.393 224.941 421.467 224.615 421.605C224.29 421.744 223.995 421.946 223.748 422.199C223.5 422.451 223.305 422.75 223.173 423.079C223.041 423.407 222.975 423.758 222.979 424.112V431.464C222.975 431.818 223.041 432.169 223.173 432.498C223.305 432.826 223.5 433.125 223.748 433.378C223.995 433.63 224.29 433.832 224.615 433.971C224.941 434.11 225.29 434.183 225.644 434.187H235.936C236.29 434.183 236.64 434.11 236.965 433.971C237.29 433.832 237.585 433.63 237.832 433.378C238.08 433.125 238.275 432.826 238.407 432.498C238.539 432.169 238.605 431.818 238.601 431.464V424.112C238.605 423.758 238.539 423.407 238.407 423.079C238.275 422.75 238.08 422.451 237.832 422.199C237.585 421.946 237.29 421.744 236.965 421.605C236.64 421.467 236.29 421.393 235.936 421.39Z" fill="#1F3C88"/>
</g>
<defs>
<filter id="filter0_d_124_2288" x="197.495" y="228.025" width="28.5649" height="28.5771" filterUnits="userSpaceOnUse" color-interpolation-filters="sRGB">
<feFlood flood-opacity="0" result="BackgroundImageFix"/>
<feColorMatrix in="SourceAlpha" type="matrix" values="0 0 0 0 0 0 0 0 0 0 0 0 0 0 0 0 0 0 127 0" result="hardAlpha"/>
<feOffset dy="4"/>
<feGaussianBlur stdDeviation="2"/>
<feColorMatrix type="matrix" values="0 0 0 0 0 0 0 0 0 0 0 0 0 0 0 0 0 0 0.25 0"/>
<feBlend mode="normal" in2="BackgroundImageFix" result="effect1_dropShadow_124_2288"/>
<feBlend mode="normal" in="SourceGraphic" in2="effect1_dropShadow_124_2288" result="shape"/>
</filter>
<filter id="filter1_d_124_2288" x="209.581" y="252.228" width="19.6064" height="19.5391" filterUnits="userSpaceOnUse" color-interpolation-filters="sRGB">
<feFlood flood-opacity="0" result="BackgroundImageFix"/>
<feColorMatrix in="SourceAlpha" type="matrix" values="0 0 0 0 0 0 0 0 0 0 0 0 0 0 0 0 0 0 127 0" result="hardAlpha"/>
<feOffset dy="4"/>
<feGaussianBlur stdDeviation="2"/>
<feColorMatrix type="matrix" values="0 0 0 0 0 0 0 0 0 0 0 0 0 0 0 0 0 0 0.25 0"/>
<feBlend mode="normal" in2="BackgroundImageFix" result="effect1_dropShadow_124_2288"/>
<feBlend mode="normal" in="SourceGraphic" in2="effect1_dropShadow_124_2288" result="shape"/>
</filter>
<clipPath id="clip0_124_2288">
<rect width="651" height="543" fill="white"/>
</clipPath>
</defs>
</svg>
