<svg width="431" height="482" viewBox="0 0 431 482" fill="none" xmlns="http://www.w3.org/2000/svg">
<circle cx="215" cy="219" r="212.5" fill="#FFC158" stroke="#FFC158" stroke-width="5"/>
<path d="M295.714 206.494L306.835 175.35C308.644 163.066 314.949 157.465 320.909 155.408L325.91 180.302L321.813 188.771L309.309 214.72C307.553 218.67 308.325 221.105 307.154 225.543L293.346 218.264C293.666 214.258 294.461 210.306 295.714 206.494Z" fill="#EDEDED"/>
<g style="mix-blend-mode:multiply" opacity="0.15">
<path d="M308.351 205.33L313.033 175.35L321.813 188.879L309.309 214.719C307.553 218.67 308.324 221.105 307.154 225.542L304.121 223.973C305.744 216.586 306.648 211.337 308.351 205.33Z" fill="#3C3C3B"/>
</g>
<path d="M351.158 325.36L351.876 335.805C348.95 338.321 346.103 340.459 343.895 340.324C342.051 343.992 339.464 347.222 336.305 349.801C333.145 352.38 329.485 354.249 325.565 355.287C318.541 355.476 316.014 352.581 316.333 348.631C317.956 338.835 330.673 334.506 332.881 327.714L351.158 325.36Z" fill="#1D1D1B"/>
<path d="M331.365 327.687C335.278 329.89 339.662 331.089 344.135 331.178C345.658 331.174 347.157 330.795 348.505 330.074C349.853 329.353 351.01 328.312 351.877 327.038C351.989 320.695 352.522 314.367 353.473 308.097C356.489 295.782 357.326 283.019 355.947 270.405L366.27 234.823L364.939 230.278L356.958 200.324L339.452 203.598C333.972 224.108 330.114 244.186 334.929 264.831L335.435 277.17C334.929 296.489 334.105 319.164 331.365 327.687Z" fill="#3C3C3B"/>
<g style="mix-blend-mode:multiply" opacity="0.3">
<path d="M344.134 331.069C345.648 331.078 347.141 330.716 348.488 330.014C349.836 329.312 350.998 328.292 351.876 327.038C351.988 320.695 352.522 314.367 353.472 308.097C356.488 295.782 357.326 283.019 355.946 270.405L366.269 234.824L364.939 230.278L351.876 223.216C354.536 237.854 354.536 252.114 348.763 265.67C352.648 285.72 349.827 307.935 344.134 331.069Z" fill="#3F668A"/>
</g>
<path d="M398.779 351.58L399.843 364.487C398.473 367.15 396.352 369.337 393.751 370.764C389.6 378.882 383.854 383.184 376.671 383.887C370.312 384.483 366.375 382.264 366.029 378.259C366.641 369.411 380.182 364.081 381.566 356.883L398.779 351.58Z" fill="#1D1D1B"/>
<path d="M340.968 205.925L343.468 212.203L345.277 216.749C347.938 224.866 353.046 229.168 359.99 230.278C361.692 250.328 363.555 270.189 370.632 283.231C371.35 290.076 374.808 294.27 376.564 300.846C380.034 319.34 381.701 338.137 381.539 356.964C383.553 358.381 385.881 359.266 388.315 359.54C390.748 359.814 393.211 359.468 395.48 358.534L396.518 358.02C397.394 357.548 398.146 356.869 398.71 356.04C399.275 355.211 399.636 354.257 399.763 353.257C399.152 323.331 405.909 307.258 392.394 281.31C393.591 258.283 391.995 249.435 389.547 227.356C392.394 214.151 390.372 204.843 384.732 198.376C384.145 197.703 383.523 197.061 382.87 196.455L375.819 197.997L340.968 205.925Z" fill="#3C3C3B"/>
<path d="M320.854 191.693C325.762 198.924 332.303 204.854 339.929 208.983C341.038 210.092 342.22 211.123 343.468 212.068C356.398 221.998 372.413 219.455 380.315 211.337C381.843 209.843 383.062 208.054 383.903 206.074C384.743 204.095 385.188 201.966 385.21 199.81C385.051 199.296 384.864 198.782 384.705 198.295C383.268 194.236 382.044 190.34 380.741 186.606C376.511 173.78 372.919 163.146 366.933 156.842C361.373 152.594 349.746 149.834 343.494 152.594C332.613 146.37 321.493 152.296 312.713 158.601C307.844 175.783 316.145 180.545 320.854 191.693Z" fill="#EDEDED"/>
<g style="mix-blend-mode:multiply" opacity="0.15">
<path d="M362.357 180.68C367.482 185.909 371.998 191.72 375.819 197.997C378.259 202.118 379.767 206.739 380.236 211.526C385.078 215.855 386.035 221.456 382.896 228.492C385.716 250.138 390.345 275.302 383.907 282.743C398.353 293.134 395.081 326.767 395.4 358.506L396.438 357.992C397.325 357.533 398.091 356.862 398.67 356.038C399.249 355.214 399.624 354.26 399.763 353.257C399.151 323.331 405.909 307.258 392.394 281.309C393.591 258.283 391.995 249.435 389.547 227.355C392.394 214.151 390.372 204.843 384.732 198.376C383.295 194.317 382.071 190.421 380.768 186.687L362.357 180.68Z" fill="#3C3C3B"/>
</g>
<path d="M422.856 232.686L426.873 240.127L429.693 247.081L430.065 253.088C430.278 254.441 429.081 255.415 428.868 253.765L429.693 260.096C430.065 261.909 428.442 262.802 427.831 261.098L425.755 253.224V265.346C425.755 267.159 423.973 268.051 423.494 265.968L421.658 253.602L421.046 261.098L419.636 266.509C418.918 268.511 416.816 268.593 416.976 266.509L417.88 259.312C417.88 259.312 417.375 254.252 416.976 251.952C416.16 250.613 415.272 249.321 414.315 248.083L408.409 255.902C406.627 257.58 404.951 256.119 406.175 253.846L410.804 243.023L414.395 237.611L414.688 237.151L414.156 232.984L421.738 230.278L422.856 232.686Z" fill="#FCAF75"/>
<path d="M366.934 156.842C379.571 162.064 392.687 172.103 406.069 184.928C413.545 197.131 418.573 214.692 423.229 233.416C421.42 235.771 418.414 236.122 414.423 236.122C408.863 223.188 399.817 211.77 395.241 198.241C386.675 197.131 374.41 187.959 362.358 180.653C353.472 166.718 352.381 158.952 366.934 156.842Z" fill="#EDEDED"/>
<path d="M220.715 358.858C220.715 359.474 220.895 360.077 221.232 360.589C221.57 361.102 222.049 361.501 222.61 361.735C223.17 361.97 223.787 362.03 224.381 361.908C224.975 361.785 225.52 361.486 225.947 361.048C226.374 360.611 226.663 360.054 226.778 359.448C226.893 358.843 226.829 358.216 226.593 357.648C226.358 357.08 225.961 356.596 225.455 356.257C224.948 355.919 224.354 355.741 223.748 355.746C223.347 355.746 222.951 355.827 222.581 355.984C222.211 356.14 221.876 356.37 221.594 356.659C221.312 356.949 221.089 357.292 220.938 357.669C220.787 358.047 220.711 358.451 220.715 358.858Z" fill="#030403"/>
<path d="M227.899 390.274C227.888 390.891 228.059 391.498 228.388 392.017C228.718 392.536 229.192 392.943 229.75 393.187C230.308 393.431 230.925 393.5 231.522 393.386C232.119 393.272 232.669 392.98 233.102 392.547C233.536 392.114 233.832 391.56 233.955 390.955C234.077 390.35 234.02 389.721 233.79 389.15C233.56 388.578 233.168 388.089 232.664 387.744C232.159 387.4 231.566 387.216 230.958 387.216C230.56 387.212 230.165 387.289 229.796 387.44C229.426 387.592 229.09 387.816 228.806 388.1C228.522 388.384 228.296 388.722 228.14 389.095C227.984 389.468 227.902 389.868 227.899 390.274Z" fill="#030403"/>
<path d="M178.707 404.722C178.707 405.337 178.886 405.939 179.222 406.451C179.558 406.962 180.036 407.361 180.595 407.597C181.154 407.832 181.769 407.894 182.363 407.774C182.956 407.654 183.502 407.357 183.929 406.922C184.357 406.487 184.649 405.933 184.767 405.329C184.885 404.725 184.824 404.1 184.593 403.531C184.361 402.963 183.969 402.477 183.466 402.135C182.963 401.793 182.371 401.61 181.766 401.61C180.957 401.617 180.183 401.948 179.61 402.53C179.038 403.112 178.713 403.899 178.707 404.722Z" fill="#030403"/>
<path d="M141.833 382.426C141.833 383.041 142.013 383.643 142.349 384.155C142.685 384.666 143.163 385.065 143.722 385.301C144.281 385.536 144.896 385.598 145.49 385.478C146.083 385.358 146.629 385.061 147.056 384.626C147.484 384.191 147.776 383.637 147.894 383.033C148.012 382.429 147.951 381.804 147.72 381.235C147.488 380.667 147.096 380.181 146.593 379.839C146.09 379.497 145.498 379.314 144.893 379.314C144.082 379.314 143.303 379.642 142.73 380.226C142.156 380.809 141.833 381.601 141.833 382.426Z" fill="#030403"/>
<path d="M164.474 352.202C164.474 352.818 164.654 353.421 164.991 353.933C165.329 354.445 165.808 354.844 166.369 355.079C166.929 355.314 167.546 355.374 168.14 355.251C168.734 355.129 169.279 354.83 169.706 354.392C170.133 353.954 170.422 353.397 170.537 352.792C170.652 352.187 170.588 351.56 170.352 350.992C170.116 350.424 169.72 349.94 169.213 349.601C168.707 349.263 168.113 349.085 167.507 349.09C166.7 349.097 165.928 349.428 165.36 350.011C164.792 350.594 164.474 351.381 164.474 352.202Z" fill="#030403"/>
<path d="M164.261 349.767V345.492L169.928 348.09L191.185 368.248L222.046 352.933L226.516 351.283V355.585L200.47 373.687L234.79 381.913V386.188L231.89 389.489L194.511 380.533L184.88 403.559L178.601 402.991V398.716L181.554 379.342L141.302 381.074L140.291 377.394V373.119L179.506 371.739L164.261 349.767Z" fill="#030403"/>
<path d="M164.261 345.492L169.928 343.814L191.185 363.973L222.046 348.658L226.516 351.283L200.47 369.412L234.79 381.913L231.89 385.214L194.511 376.257L184.88 399.284L178.601 398.716L181.554 375.067L141.302 376.799L140.291 373.119L179.506 367.463L164.261 345.492Z" fill="#878787"/>
<path d="M185.332 367.923C184.875 368.142 184.488 368.488 184.218 368.922C183.947 369.355 183.803 369.858 183.803 370.372C183.803 370.886 183.947 371.389 184.218 371.822C184.488 372.256 184.875 372.602 185.332 372.821C186.626 373.489 188.057 373.837 189.509 373.837C190.96 373.837 192.391 373.489 193.686 372.821C194.143 372.602 194.529 372.256 194.8 371.822C195.07 371.389 195.214 370.886 195.214 370.372C195.214 369.858 195.07 369.355 194.8 368.922C194.529 368.488 194.143 368.142 193.686 367.923C192.391 367.255 190.96 366.907 189.509 366.907C188.057 366.907 186.626 367.255 185.332 367.923Z" fill="#030403"/>
<path d="M195.389 331.746H183.604V370.358H195.389V331.746Z" fill="#030403"/>
<path d="M189.935 295.461L236.599 322.844C238.754 324.116 240.484 323.087 240.484 320.544C240.335 317.345 239.443 314.227 237.88 311.447C236.317 308.667 234.127 306.304 231.491 304.553L189.935 280.2C187.807 278.929 186.051 279.957 186.051 282.473V288.615C186.132 289.985 186.525 291.316 187.2 292.504C187.874 293.692 188.81 294.704 189.935 295.461Z" fill="#4A4A49"/>
<path d="M173.627 194.155L176.021 210.39L185.519 274.599C185.641 275.251 185.837 275.887 186.104 276.493C186.689 277.74 187.612 278.792 188.765 279.524L195.23 283.312C195.538 283.537 195.897 283.68 196.273 283.727C196.65 283.775 197.032 283.725 197.385 283.582C197.822 283.256 198.151 282.8 198.327 282.278C198.503 281.756 198.518 281.191 198.369 280.66L197.278 273.463L186.743 204.248L185.945 198.836C185.773 197.75 185.354 196.719 184.721 195.826C184.088 194.934 183.259 194.204 182.3 193.695L176.287 191.287C176.001 191.131 175.681 191.049 175.356 191.049C175.031 191.049 174.711 191.131 174.425 191.287C174.03 191.633 173.744 192.089 173.603 192.599C173.461 193.109 173.469 193.65 173.627 194.155Z" fill="#4A4A49"/>
<path d="M196.957 348.036L239.711 322.844L187.353 279.795L144.44 305.04L196.957 348.036Z" fill="#4A4A49"/>
<path d="M132.335 216.181L174.45 191.368L197.463 283.447L155.109 308.314L132.335 216.181Z" fill="#4A4A49"/>
<path d="M147.421 320.463L194.059 347.846C196.213 349.118 197.943 348.089 197.943 345.573C197.797 342.37 196.905 339.248 195.342 336.463C193.779 333.678 191.588 331.311 188.95 329.555L147.421 305.202C145.266 303.93 143.51 304.959 143.51 307.475V313.617C143.588 314.99 143.983 316.326 144.662 317.515C145.342 318.704 146.287 319.714 147.421 320.463Z" fill="#1D1D1B"/>
<path d="M155.774 305.581L143.403 223.865C143.231 222.779 142.812 221.748 142.18 220.855C141.547 219.963 140.718 219.233 139.758 218.724L133.719 216.316C131.937 215.585 130.713 216.884 131.059 219.184L143.004 299.52C143.172 300.517 143.539 301.469 144.084 302.316C144.629 303.163 145.339 303.888 146.17 304.444L152.635 308.232C154.657 309.423 156.173 308.151 155.774 305.581Z" fill="#1D1D1B"/>
<path d="M245.166 382.615C242.505 385.321 242.239 390.273 243.09 395.252C243.698 396.524 244.565 397.651 245.634 398.556C246.702 399.461 247.949 400.124 249.289 400.501C251.958 401.484 254.539 402.697 257.005 404.127C264.427 411.974 271.291 412.921 273.845 411.974C282.385 408.754 273.207 401.15 270.732 399.446C270.014 398.932 260.49 389.705 260.49 389.705L258.228 386.052L258.494 378.124L246.097 374.39L245.166 382.615Z" fill="black"/>
<path d="M270.733 324.981C269.083 344.68 263.017 359.534 258.228 385.997C256.766 387.142 255.073 387.945 253.27 388.347C251.467 388.749 249.599 388.742 247.799 388.324C246.767 387.976 245.845 387.354 245.13 386.521C244.414 385.688 243.93 384.676 243.729 383.589C242.984 360.996 243.17 343.516 249.316 328.905C230.693 320.571 206.004 318.081 190.786 304.985C184.88 299.844 180.41 295.217 178.947 290.347C178.192 288.047 178.326 285.542 179.32 283.339C179.907 281.981 180.706 280.729 181.687 279.632L186.529 276.114L207.467 273.057C210.128 274.491 213.081 276.141 216.22 277.981C238.914 291.077 270.839 312.859 270.733 324.981Z" fill="#4A4A49"/>
<g style="mix-blend-mode:multiply" opacity="0.5">
<path d="M249.29 387.864L247.8 388.378C246.768 388.03 245.846 387.408 245.13 386.575C244.414 385.743 243.931 384.73 243.729 383.643C242.984 361.05 243.171 343.57 249.316 328.959C230.693 320.625 206.004 318.135 190.786 305.039C184.88 299.844 180.411 295.217 178.948 290.347L179.32 283.339C179.907 281.981 180.707 280.729 181.688 279.632L186.53 276.114L207.467 273.057C210.128 274.491 213.081 276.141 216.22 277.981C217.817 298.004 236.998 312.129 258.229 325.522C250.327 344.22 248.119 365.298 249.29 387.864Z" fill="#3C3C3B"/>
</g>
<path d="M211.324 402.016C208.664 404.721 208.664 409.375 209.223 414.652C211.157 417.373 213.99 419.294 217.204 420.063C217.204 420.063 229.07 431.536 240.35 429.831C251.63 428.127 240.35 419.874 240.35 419.874L227.34 408.401L224.84 404.857V397.416L212.442 393.682L211.324 402.016Z" fill="black"/>
<path d="M242.238 339.592C240.615 359.291 229.548 378.502 224.759 404.992C220.369 408.374 216.538 408.969 213.452 405.425C212.49 404.253 211.693 402.951 211.084 401.555C210.339 378.989 211.856 359.074 217.975 344.463C200.424 337.132 184.049 327.172 169.395 314.915C164.839 310.777 162.036 305.004 161.574 298.809C161.113 292.613 163.029 286.477 166.921 281.688L168.996 281.363H169.395L203.608 288.588L209.248 295.217C211.909 298.112 214.356 301.035 216.831 303.93C229.494 318.243 240.588 331.881 242.238 339.592Z" fill="#4A4A49"/>
<g style="mix-blend-mode:multiply" opacity="0.5">
<path d="M215.633 406.156L213.452 405.344C212.49 404.172 211.693 402.87 211.084 401.474C210.339 378.908 211.856 358.993 217.975 344.382C200.429 337.076 184.055 327.144 169.395 314.915C164.839 310.777 162.036 305.004 161.574 298.809C161.113 292.613 163.029 286.477 166.921 281.688L168.996 281.363L209.248 295.217C211.909 298.112 214.356 301.035 216.831 303.93C212.468 304.606 202.837 304.823 182.83 304.606C189.96 319.894 206.774 332.909 227.127 341.892C217.709 358.154 215.367 380.991 215.633 406.156Z" fill="#3C3C3B"/>
</g>
<path d="M219.413 479.755L161.894 445.986C159.364 444.331 157.26 442.085 155.756 439.435C154.252 436.785 153.392 433.808 153.248 430.752V347.467C153.248 343.03 155.695 340.026 159.313 340.026C160.857 340.073 162.361 340.53 163.676 341.352L221.195 375.121C223.725 376.776 225.829 379.022 227.333 381.672C228.837 384.322 229.697 387.299 229.842 390.355V473.64C229.842 478.077 227.394 481.081 223.776 481.081C222.233 481.034 220.728 480.577 219.413 479.755ZM156.813 347.467V430.752C156.959 433.171 157.655 435.522 158.846 437.621C160.037 439.719 161.691 441.509 163.676 442.847L221.195 476.508C221.993 477.023 222.911 477.312 223.856 477.347C226.117 477.347 226.356 474.641 226.356 473.531V390.355C226.21 387.936 225.514 385.585 224.323 383.486C223.132 381.387 221.478 379.598 219.493 378.26L161.894 344.491C161.096 343.976 160.178 343.687 159.234 343.652C157.052 343.652 156.813 346.331 156.813 347.467Z" fill="#575756"/>
<path d="M351.211 402.205L293.665 368.409C291.136 366.756 289.033 364.509 287.534 361.859C286.034 359.208 285.181 356.231 285.046 353.175V269.918C285.046 265.453 287.467 262.477 291.111 262.477C292.644 262.517 294.139 262.965 295.448 263.775L352.967 297.571C355.501 299.216 357.609 301.455 359.113 304.102C360.618 306.748 361.476 309.724 361.613 312.778V396.063C361.613 400.527 359.192 403.504 355.547 403.504C354.015 403.463 352.52 403.015 351.211 402.205ZM288.584 269.918V353.175C288.729 355.595 289.424 357.946 290.615 360.045C291.806 362.144 293.461 363.933 295.448 365.27L352.967 399.066C353.768 399.574 354.684 399.863 355.627 399.905C357.889 399.905 358.288 397.199 358.288 396.063V312.778C358.115 310.333 357.386 307.963 356.158 305.854C354.93 303.746 353.236 301.957 351.211 300.629L293.692 266.914C292.891 266.406 291.975 266.117 291.032 266.075C288.85 266.075 288.584 268.754 288.584 269.918Z" fill="#575756"/>
<path d="M148.352 343.625L225.239 388.758L363.396 307.557V303.552L286.509 262.396L148.352 339.62V343.625Z" fill="#575756"/>
<path d="M148.352 339.619L225.239 384.78L363.396 303.551L286.509 258.391L148.352 339.619Z" fill="#B2B2B2"/>
<g style="mix-blend-mode:multiply" opacity="0.5">
<path d="M240.989 316.81L225.824 307.773L208.558 304.337L218.668 296.625L231.438 301.495L240.989 316.81Z" fill="#B2B2B2"/>
</g>
<g style="mix-blend-mode:multiply" opacity="0.5">
<path d="M266.476 299.195L263.576 296.246L264.667 294.352L257.59 289.644L255.861 286.261L244.926 282.852L255.861 276.412L264.986 282.203L270.28 286.829L270.733 293.107L271.212 296.192L266.476 299.195Z" fill="#B2B2B2"/>
</g>
<path d="M191.37 341.947L181.607 347.684C181.474 347.75 181.329 347.785 181.181 347.785C181.033 347.785 180.887 347.75 180.755 347.684L162.132 336.86C162.084 336.839 162.041 336.805 162.009 336.763C161.976 336.72 161.955 336.67 161.946 336.617C161.946 336.617 161.946 336.427 162.132 336.346L171.869 330.393C172.002 330.327 172.147 330.292 172.295 330.292C172.443 330.292 172.588 330.327 172.721 330.393L191.344 341.217C191.61 341.596 191.61 341.812 191.37 341.947Z" fill="#4A4A49"/>
<path d="M161.946 335.48V336.482L191.53 341.731V340.73L161.946 335.48Z" fill="#4A4A49"/>
<path d="M191.37 340.974L181.607 346.629C181.474 346.695 181.329 346.73 181.181 346.73C181.033 346.73 180.887 346.695 180.755 346.629L162.132 335.805C162.132 335.805 161.946 335.643 161.946 335.535C161.946 335.427 161.946 335.372 162.132 335.291L171.869 329.582C172.002 329.515 172.147 329.48 172.295 329.48C172.443 329.48 172.588 329.515 172.721 329.582L191.344 340.405C191.38 340.404 191.417 340.409 191.452 340.422C191.486 340.434 191.518 340.454 191.545 340.479C191.572 340.504 191.594 340.534 191.61 340.568C191.626 340.602 191.635 340.639 191.636 340.676C191.638 340.713 191.633 340.75 191.62 340.786C191.608 340.821 191.589 340.853 191.564 340.881C191.539 340.908 191.509 340.931 191.476 340.947C191.443 340.963 191.407 340.972 191.37 340.974Z" fill="#878787"/>
<path d="M180.596 345.952L163.809 336.102L168.145 333.559L169.555 332.72L171.763 331.421L172.561 330.961L173.333 330.501L190.12 340.35L180.596 345.952Z" fill="#3F76AB"/>
<path d="M169.476 332.423L167.082 333.83C167.033 333.871 166.972 333.895 166.909 333.895C166.845 333.895 166.784 333.871 166.736 333.83L166.097 333.478V333.261L168.518 331.855C168.572 331.828 168.631 331.814 168.691 331.814C168.751 331.814 168.81 331.828 168.864 331.855L169.476 332.233C169.476 332.233 169.582 332.369 169.476 332.423Z" fill="white"/>
<path d="M167.002 333.776H166.816L166.204 333.424L168.599 331.909C168.628 331.896 168.66 331.89 168.692 331.89C168.724 331.89 168.755 331.896 168.785 331.909L169.397 332.261L167.002 333.776Z" fill="#4A4A49"/>
<path d="M185.597 343.923C185.597 343.923 185.597 343.923 185.438 343.923L184.879 343.57C184.879 343.57 184.879 343.57 185.012 343.57L185.597 343.923Z" fill="#273340"/>
<path d="M185.917 343.762C185.917 343.762 185.917 343.762 185.758 343.762L185.172 343.436C185.172 343.436 185.172 343.436 185.332 343.436L185.917 343.762Z" fill="#273340"/>
<path d="M186.211 343.57H186.078L185.492 343.219C185.492 343.219 185.492 343.219 185.652 343.219L186.211 343.57Z" fill="#273340"/>
<path d="M186.528 343.408C186.528 343.408 186.528 343.408 186.368 343.408L185.81 343.057C185.81 343.057 185.81 343.057 185.943 343.057L186.528 343.408Z" fill="#273340"/>
<path d="M186.928 343.22C186.928 343.22 186.928 343.22 186.768 343.22L186.183 342.867C186.183 342.867 186.183 342.867 186.343 342.867L186.928 343.22Z" fill="#273340"/>
<path opacity="0.5" d="M185.597 343.923C185.597 343.923 185.597 343.923 185.438 343.923L184.879 343.57C184.879 343.57 184.879 343.57 185.012 343.57L185.597 343.923Z" fill="black"/>
<path opacity="0.5" d="M185.917 343.762C185.917 343.762 185.917 343.762 185.758 343.762L185.172 343.436C185.172 343.436 185.172 343.436 185.332 343.436L185.917 343.762Z" fill="black"/>
<path opacity="0.5" d="M186.211 343.57H186.078L185.492 343.219C185.492 343.219 185.492 343.219 185.652 343.219L186.211 343.57Z" fill="black"/>
<path opacity="0.5" d="M186.528 343.408C186.528 343.408 186.528 343.408 186.368 343.408L185.81 343.057C185.81 343.057 185.81 343.057 185.943 343.057L186.528 343.408Z" fill="black"/>
<path opacity="0.5" d="M186.928 343.22C186.928 343.22 186.928 343.22 186.768 343.22L186.183 342.867C186.183 342.867 186.183 342.867 186.343 342.867L186.928 343.22Z" fill="black"/>
<path opacity="0.5" d="M183.922 344.572C183.922 344.572 183.922 344.763 183.922 344.817C183.863 344.844 183.8 344.858 183.736 344.858C183.671 344.858 183.608 344.844 183.549 344.817C183.549 344.817 183.549 344.654 183.549 344.572C183.608 344.545 183.671 344.531 183.736 344.531C183.8 344.531 183.863 344.545 183.922 344.572Z" fill="black"/>
<path d="M218.082 205.926C227.82 204.438 231.012 209.065 233.194 219.861L242.159 252.331C245.485 255.199 247.48 259.366 250.779 263.478L240.749 271.866C236.173 268.159 231.651 264.101 227.101 259.744L221.78 241.128L215.182 217.94L211.458 210.877L218.082 205.926Z" fill="#55B2E6"/>
<g style="mix-blend-mode:multiply" opacity="0.5">
<path d="M221.832 241.102L229.813 225.462C231.596 238.396 236.917 247.65 237.475 259.339L244.978 268.484L240.801 271.812C236.172 268.16 231.649 264.101 227.1 259.745L221.832 241.102Z" fill="#3F76AB"/>
</g>
<path d="M196.159 191.422C176.738 197.835 180.888 216.45 186.129 231.062L199.83 217.966L196.159 191.422Z" fill="#1D1D1B"/>
<path d="M233.193 253.494C233.206 253.611 233.206 253.729 233.193 253.846C232.74 265.183 217.523 264.128 217.523 264.128L211.377 277.657C209.807 297.41 176.286 302.388 166.921 281.689C173.678 271.948 173.678 271.948 174.264 265.237C173.732 263.452 173.253 261.72 172.88 260.042C169.798 248.422 171.226 236.041 176.871 225.462C182.378 218.237 194.723 210.986 202.491 208.036L225.211 207.495L229.734 224.271C228.537 245.35 233.326 244.619 233.193 253.494Z" fill="#55B2E6"/>
<path d="M198.715 204.141C197.491 208.443 194.165 215.126 193.394 219.239C192.462 224.299 201.668 232.173 207.813 231.713C212.176 230.847 213.267 225.165 213.932 219.943L198.715 204.141Z" fill="#FCAF75"/>
<g style="mix-blend-mode:multiply" opacity="0.3">
<path d="M201.88 207.441C201.88 207.441 198.262 237.746 212.522 235.257C221.887 233.606 219.918 217.94 219.918 217.94L201.88 207.441Z" fill="#FCAF75"/>
</g>
<path d="M210.871 179.679C225.211 181.681 229.654 190.259 228.217 201.867C228.057 211.608 220.076 224.514 214.516 224.271C206.534 224.731 202.677 215.315 195.893 205.33C190.705 188.635 197.569 177.785 210.871 179.679Z" fill="#FCAF75"/>
<path d="M228.084 202.191C225.078 205.438 220.316 207.278 214.356 208.685C209.301 210.795 204.433 210.579 202.491 213.447L196.664 210.985C190.811 204.139 190.226 184.522 200.256 180.382C216.405 173.726 235.56 190.204 228.084 202.191Z" fill="#1D1D1B"/>
<path d="M202.279 210.445C201.401 206.873 198.953 204.519 196.958 206.575C196 207.549 196.053 209.281 196.958 211.554C197.193 212.251 197.608 212.87 198.161 213.347C198.714 213.823 199.383 214.139 200.097 214.26C201.959 214.612 202.891 213.205 202.279 210.445Z" fill="#FCAF75"/>
<g style="mix-blend-mode:multiply" opacity="0.5">
<path d="M233.166 253.846C232.714 265.183 217.496 264.128 217.496 264.128L211.35 277.657C209.807 297.409 176.286 302.388 166.921 281.688C173.678 271.947 173.678 271.947 174.264 265.237C173.732 263.451 173.253 261.719 172.88 260.042L186.395 245.322L194.19 263.153C200.496 277.007 215.474 271.081 216.565 259.907C218.853 263.478 230.053 262.748 233.166 253.846Z" fill="#3F76AB"/>
</g>
<g style="mix-blend-mode:multiply" opacity="0.5">
<path d="M247.958 315.457L249.794 316.269C251.364 316.702 252.109 315.944 251.045 314.348C251.124 315.863 249.901 315.998 247.958 315.457Z" fill="#FCAF75"/>
</g>
<path d="M330.086 167.692L328.463 172.968L325.483 171.859V165.906L328.463 163.85L330.086 167.692Z" fill="black"/>
<path d="M328.463 172.969C327.638 187.532 327.638 202.132 328.463 216.695L323.621 221.376L320.269 213.691C321.149 199.645 322.926 185.671 325.59 171.859L328.463 172.969Z" fill="black"/>
<path d="M336.738 142.203C337.057 142.203 342.803 149.401 342.803 149.401C350.439 153.811 340.622 170.182 330.193 168.477L321.546 162.389L336.738 142.203Z" fill="#FCAF75"/>
<path d="M341.047 147.209C343.166 148.651 345.175 150.252 347.06 151.998C347.06 151.998 342.91 171.859 330.086 172.968C329.52 170.83 328.744 168.754 327.772 166.772C335.726 165.554 341.047 153.297 341.047 147.209Z" fill="#DADADA"/>
<path d="M327.772 166.772L323.09 171.345C323.09 171.345 318.594 152.675 322.531 148.698C326.469 144.72 327.772 166.772 327.772 166.772Z" fill="#DADADA"/>
<path d="M323.994 122.505C333.359 122.505 338.706 127.078 339.052 137.008C338.786 147.453 338.281 153.73 333.332 160.873C331.978 162.857 330.178 164.483 328.082 165.618C325.986 166.752 323.654 167.361 321.28 167.395C315.587 167.097 307.18 153.243 306.355 143.204C304.972 133.058 313.485 125.292 323.994 122.505Z" fill="#FCAF75"/>
<path d="M307.526 150.51C309.654 155.597 322.052 154.677 327.506 148.454L328.117 152.188L333.252 147.94L337.615 153.703L339.185 151.43C343.149 143.313 342.963 130 331.656 123.29C316.385 117.121 297.655 135.033 307.526 150.51Z" fill="black"/>
<path d="M334.502 152.297C335.131 151.332 335.557 150.244 335.753 149.104C335.831 148.518 335.773 147.921 335.583 147.362C335.394 146.803 335.078 146.297 334.662 145.884C334.213 145.489 333.646 145.259 333.053 145.23C332.46 145.2 331.875 145.374 331.39 145.722C331.08 145.99 330.835 146.327 330.674 146.707C330.512 147.087 330.439 147.5 330.459 147.913C330.489 148.735 330.641 149.547 330.911 150.321C331.097 151.025 331.31 151.728 331.523 152.432C331.553 152.688 331.638 152.934 331.771 153.154C331.905 153.373 332.083 153.561 332.294 153.704C332.511 153.801 332.751 153.835 332.986 153.801C333.221 153.768 333.442 153.668 333.624 153.514C334.007 153.184 334.308 152.767 334.502 152.297Z" fill="#FCAF75"/>
<path d="M289.514 262.992L264.506 277.685L300.129 298.601L325.111 283.908L289.514 262.992Z" fill="white"/>
<path d="M317.768 283.799L299.704 294.406L300.795 295.055L318.859 284.448L317.768 283.799Z" fill="#1D1D1B"/>
<path d="M314.815 282.067L296.751 292.674L297.416 293.053L315.48 282.446L314.815 282.067Z" fill="#1D1D1B"/>
<path d="M313.033 281.012L294.968 291.618L295.633 292.024L313.698 281.418L313.033 281.012Z" fill="#1D1D1B"/>
<path d="M311.25 279.957L293.186 290.564L293.851 290.97L311.916 280.363L311.25 279.957Z" fill="#1D1D1B"/>
<path d="M307.686 277.873L289.595 288.48L290.26 288.859L308.325 278.252L307.686 277.873Z" fill="#1D1D1B"/>
<path d="M305.877 276.818L287.812 287.425L288.478 287.831L306.542 277.224L305.877 276.818Z" fill="#1D1D1B"/>
<path d="M292.948 282.311L286.031 286.369L286.696 286.775L293.613 282.716L292.948 282.311Z" fill="#1D1D1B"/>
<path d="M302.31 274.734L284.246 285.341L284.911 285.72L302.976 275.113L302.31 274.734Z" fill="#1D1D1B"/>
<path d="M300.528 273.68L282.464 284.286L283.129 284.665L301.193 274.058L300.528 273.68Z" fill="#1D1D1B"/>
<path d="M294.516 275.113L280.681 283.231L281.346 283.637L295.181 275.492L294.516 275.113Z" fill="#1D1D1B"/>
<path d="M283.369 275.356L275.334 280.092L275.973 280.47L284.034 275.735L283.369 275.356Z" fill="#1D1D1B"/>
<path d="M281.588 274.302L273.526 279.037L274.191 279.415L282.253 274.708L281.588 274.302Z" fill="#1D1D1B"/>
<path d="M280.31 267.212C279.805 268.808 281.64 270.053 282.518 268.754L282.971 268.375C282.705 269.485 284.54 270.892 285.418 269.539L286.482 267.942C286.935 269.295 287.547 269.891 288.691 268.673L291.537 262.747L295.395 258.093L296.007 260.799L295.156 263.803C294.703 265.724 296.512 266.806 297.284 264.993L298.162 262.828L298.694 261.611L298.987 258.283C298.409 255.949 297.513 253.708 296.326 251.626L297.603 249.922L292.149 247.676L290.074 249.624C286.967 251.357 284.375 253.908 282.572 257.011L280.044 263.64C279.219 265.453 279.486 266.968 280.709 266.157L280.31 267.212Z" fill="#FCAF75"/>
<path d="M307.154 225.461C304.585 235.14 301.331 244.617 297.417 253.818L295.422 252.249C294.689 251.482 293.806 250.881 292.83 250.484C291.853 250.088 290.805 249.906 289.755 249.949C289.516 240.695 291.511 229.547 293.267 218.264L307.154 225.461Z" fill="#EDEDED"/>
<g style="mix-blend-mode:multiply" opacity="0.15">
<path d="M307.153 225.461C304.584 235.14 301.33 244.617 297.416 253.818L295.42 252.249C299.035 243.039 301.943 233.558 304.12 223.892L307.153 225.461Z" fill="#3C3C3B"/>
</g>
<path d="M272.407 293.946L247.426 308.612L283.049 329.528L308.031 314.862L272.407 293.946Z" fill="white"/>
<path d="M300.689 314.754L282.624 325.361L283.688 325.983L301.753 315.376L300.689 314.754Z" fill="#1D1D1B"/>
<path d="M297.735 312.995L279.671 323.602L280.336 324.008L298.4 313.401L297.735 312.995Z" fill="#1D1D1B"/>
<path d="M295.926 311.967L277.888 322.574L278.553 322.952L296.591 312.346L295.926 311.967Z" fill="#1D1D1B"/>
<path d="M294.144 310.911L276.08 321.518L276.745 321.897L294.81 311.29L294.144 310.911Z" fill="#1D1D1B"/>
<path d="M290.58 308.801L272.515 319.408L273.18 319.813L291.245 309.207L290.58 308.801Z" fill="#1D1D1B"/>
<path d="M288.797 307.772L270.733 318.379L271.398 318.758L289.462 308.151L288.797 307.772Z" fill="#1D1D1B"/>
<path d="M275.866 313.266L268.949 317.325L269.614 317.703L276.531 313.644L275.866 313.266Z" fill="#1D1D1B"/>
<path d="M285.23 305.662L267.166 316.269L267.831 316.648L285.896 306.041L285.23 305.662Z" fill="#1D1D1B"/>
<path d="M283.422 304.606L265.384 315.213L266.022 315.619L284.087 305.012L283.422 304.606Z" fill="#1D1D1B"/>
<path d="M277.41 306.041L263.575 314.158L264.24 314.564L278.075 306.447L277.41 306.041Z" fill="#1D1D1B"/>
<path d="M266.289 306.285L258.228 311.02L258.893 311.426L266.955 306.691L266.289 306.285Z" fill="#1D1D1B"/>
<path d="M264.507 305.256L256.446 309.964L257.111 310.37L265.172 305.635L264.507 305.256Z" fill="#1D1D1B"/>
<path d="M267.858 299.791C268.942 299.23 270.14 298.938 271.356 298.938C272.572 298.938 273.771 299.23 274.855 299.791C275.281 299.933 275.651 300.208 275.914 300.578C276.177 300.947 276.319 301.391 276.319 301.847C276.319 302.303 276.177 302.747 275.914 303.116C275.651 303.486 275.281 303.761 274.855 303.903C273.771 304.464 272.572 304.756 271.356 304.756C270.14 304.756 268.942 304.464 267.858 303.903C267.432 303.761 267.061 303.486 266.798 303.116C266.536 302.747 266.394 302.303 266.394 301.847C266.394 301.391 266.536 300.947 266.798 300.578C267.061 300.208 267.432 299.933 267.858 299.791ZM268.097 299.791C267.703 299.927 267.36 300.186 267.118 300.53C266.875 300.875 266.745 301.288 266.745 301.712C266.745 302.135 266.875 302.548 267.118 302.893C267.36 303.238 267.703 303.496 268.097 303.633C269.112 304.154 270.233 304.425 271.37 304.425C272.506 304.425 273.627 304.154 274.642 303.633C275.036 303.496 275.379 303.238 275.621 302.893C275.864 302.548 275.994 302.135 275.994 301.712C275.994 301.288 275.864 300.875 275.621 300.53C275.379 300.186 275.036 299.927 274.642 299.791C273.617 299.291 272.491 299.042 271.354 299.066C270.217 299.089 269.102 299.384 268.097 299.926V299.791Z" fill="#1D71B8"/>
<path d="M268.365 300.088C269.292 299.608 270.317 299.357 271.358 299.357C272.398 299.357 273.424 299.608 274.351 300.088C274.708 300.217 275.016 300.455 275.235 300.77C275.453 301.085 275.57 301.461 275.57 301.846C275.57 302.232 275.453 302.608 275.235 302.923C275.016 303.238 274.708 303.476 274.351 303.605C273.424 304.085 272.398 304.335 271.358 304.335C270.317 304.335 269.292 304.085 268.365 303.605C268.008 303.476 267.699 303.238 267.481 302.923C267.262 302.608 267.145 302.232 267.145 301.846C267.145 301.461 267.262 301.085 267.481 300.77C267.699 300.455 268.008 300.217 268.365 300.088ZM268.524 300.088C268.183 300.206 267.887 300.431 267.677 300.729C267.468 301.027 267.355 301.385 267.355 301.752C267.355 302.119 267.468 302.476 267.677 302.774C267.887 303.073 268.183 303.297 268.524 303.416C269.402 303.87 270.373 304.106 271.358 304.106C272.342 304.106 273.313 303.87 274.191 303.416C274.532 303.297 274.828 303.073 275.038 302.774C275.248 302.476 275.361 302.119 275.361 301.752C275.361 301.385 275.248 301.027 275.038 300.729C274.828 300.431 274.532 300.206 274.191 300.088C273.303 299.661 272.331 299.446 271.348 299.46C270.366 299.474 269.4 299.716 268.524 300.169V300.088Z" fill="#1D71B8"/>
<path d="M269.588 300.792C270.142 300.511 270.752 300.364 271.371 300.364C271.989 300.364 272.6 300.511 273.153 300.792C273.372 300.864 273.563 301.005 273.699 301.195C273.834 301.384 273.907 301.613 273.907 301.847C273.907 302.081 273.834 302.31 273.699 302.499C273.563 302.689 273.372 302.83 273.153 302.902C272.6 303.184 271.989 303.33 271.371 303.33C270.752 303.33 270.142 303.184 269.588 302.902C269.369 302.83 269.178 302.689 269.042 302.499C268.907 302.31 268.834 302.081 268.834 301.847C268.834 301.613 268.907 301.384 269.042 301.195C269.178 301.005 269.369 300.864 269.588 300.792ZM269.748 300.792C269.554 300.859 269.385 300.987 269.266 301.157C269.147 301.327 269.083 301.53 269.083 301.739C269.083 301.947 269.147 302.151 269.266 302.321C269.385 302.491 269.554 302.618 269.748 302.686C270.249 302.952 270.806 303.09 271.371 303.09C271.936 303.09 272.492 302.952 272.994 302.686C273.188 302.618 273.356 302.491 273.475 302.321C273.595 302.151 273.659 301.947 273.659 301.739C273.659 301.53 273.595 301.327 273.475 301.157C273.356 300.987 273.188 300.859 272.994 300.792C272.484 300.543 271.923 300.422 271.358 300.441C270.793 300.46 270.24 300.617 269.748 300.9V300.792Z" fill="#1D71B8"/>
<path d="M272.674 300.359L273.1 299.953L272.807 300.278L273.419 300.061L273.1 300.494L273.366 300.143L272.754 300.359H272.674Z" fill="#1D71B8"/>
<path d="M272.222 300.25C272.176 300.138 272.176 300.011 272.222 299.898C272.674 299.898 272.541 300.196 272.541 300.196C272.541 300.196 272.248 300.25 272.222 300.25ZM272.222 300.25C272.286 300.291 272.359 300.313 272.435 300.313C272.51 300.313 272.584 300.291 272.648 300.25C272.605 300.186 272.543 300.138 272.471 300.114C272.398 300.089 272.32 300.09 272.248 300.115L272.222 300.25Z" fill="#1D71B8"/>
<path d="M272.062 299.736H271.85V300.169V299.736H271.663H272.062Z" fill="#1D71B8"/>
<path d="M271.529 300.169H271.157V299.79L271.503 300.25L271.529 300.169ZM271.529 300.007L271.37 299.736L271.237 300.034L271.529 300.007Z" fill="#1D71B8"/>
<path d="M270.971 300.169L270.812 299.98H270.652V300.223V300.007L270.838 299.709C270.893 299.859 270.937 300.013 270.971 300.169ZM270.572 299.763C270.576 299.788 270.584 299.812 270.596 299.834C270.609 299.856 270.625 299.875 270.645 299.89C270.665 299.905 270.688 299.916 270.712 299.922C270.736 299.928 270.761 299.929 270.785 299.925V299.736L270.572 299.763Z" fill="#1D71B8"/>
<path d="M270.227 300.304L270.041 300.142L269.642 299.953C269.781 299.99 269.915 300.045 270.041 300.115V299.817V300.142L270.227 300.304Z" fill="#1D71B8"/>
<path d="M269.694 300.467H269.455H269.321C269.002 300.224 269.162 300.169 269.162 300.169L269.694 300.467ZM269.029 300.224C269.268 300.386 269.401 300.224 269.401 300.224L269.162 300.034L269.029 300.224Z" fill="#1D71B8"/>
<path d="M268.843 300.792H268.976C268.976 300.602 268.604 300.412 268.604 300.412L269.109 300.575C268.988 300.631 268.857 300.66 268.724 300.66C268.591 300.66 268.459 300.631 268.338 300.575L268.843 300.792Z" fill="#1D71B8"/>
<path d="M268.896 300.981C268.901 301.026 268.901 301.072 268.896 301.117C268.178 300.764 268.896 300.981 268.896 300.981ZM268.896 300.981H268.577C268.577 301.226 268.71 301.226 268.737 301.226L268.896 300.981Z" fill="#1D71B8"/>
<path d="M268.578 301.523V301.305H267.859C268.125 301.277 268.392 301.277 268.658 301.305C268.634 301.379 268.608 301.452 268.578 301.523Z" fill="#1D71B8"/>
<path d="M268.523 301.576H267.725C267.99 301.549 268.257 301.549 268.523 301.576Z" fill="#1D71B8"/>
<path d="M267.912 301.93C267.912 301.685 268.285 301.685 268.285 301.685H267.779C267.886 301.93 267.886 301.93 267.912 301.93Z" fill="#1D71B8"/>
<path d="M269.907 303.334L269.454 303.74L269.747 303.416L269.162 303.605L269.508 303.199L269.188 303.524L269.827 303.334H269.907Z" fill="#1D71B8"/>
<path d="M270.306 303.335C270.354 303.457 270.354 303.592 270.306 303.714C269.881 303.714 270.014 303.389 270.014 303.389L270.306 303.335ZM270.306 303.497C270.246 303.449 270.171 303.423 270.094 303.423C270.017 303.423 269.942 303.449 269.881 303.497C269.941 303.544 270.012 303.573 270.086 303.583C270.161 303.592 270.237 303.582 270.306 303.551V303.497Z" fill="#1D71B8"/>
<path d="M270.359 303.958H270.572V303.524V303.958H270.758H270.359Z" fill="#1D71B8"/>
<path d="M270.998 303.497H271.37V303.876L271.025 303.389L270.998 303.497ZM270.998 303.659V303.957V303.686V303.659Z" fill="#1D71B8"/>
<path d="M271.558 303.525V303.742V303.498V303.742L271.398 304.039L271.558 303.525ZM271.93 303.958C271.93 303.769 271.717 303.796 271.717 303.796V303.985L271.93 303.958Z" fill="#1D71B8"/>
<path d="M272.248 303.335L272.434 303.497L272.833 303.741L272.434 303.551V303.822V303.524L272.248 303.335Z" fill="#1D71B8"/>
<path d="M272.807 303.335L273.046 303.47H273.179C273.498 303.741 273.179 303.795 273.179 303.795L272.807 303.335ZM273.445 303.66C273.232 303.47 273.099 303.66 273.099 303.66L273.312 303.849L273.445 303.66Z" fill="#1D71B8"/>
<path d="M273.659 303.064H273.526C273.526 303.227 273.872 303.497 273.872 303.497L273.393 303.335C273.509 303.276 273.636 303.245 273.766 303.245C273.895 303.245 274.023 303.276 274.138 303.335L273.659 303.064Z" fill="#1D71B8"/>
<path d="M273.633 302.875C273.633 302.875 274.324 303.174 273.633 302.875V302.875ZM273.633 302.875H273.952C273.952 302.631 273.952 302.631 273.819 302.631L273.633 302.875Z" fill="#1D71B8"/>
<path d="M274.058 302.388V302.577L274.776 302.794C274.507 302.747 274.24 302.683 273.978 302.604C273.999 302.53 274.026 302.458 274.058 302.388Z" fill="#1D71B8"/>
<path d="M274.111 302.361C274.376 302.333 274.644 302.333 274.909 302.361C274.643 302.376 274.377 302.376 274.111 302.361Z" fill="#1D71B8"/>
<path d="M274.722 302.091C274.722 302.308 274.27 302.254 274.27 302.254H274.722V302.091Z" fill="#1D71B8"/>
<path d="M269.907 300.981C270.362 300.754 270.863 300.636 271.37 300.636C271.877 300.636 272.378 300.754 272.833 300.981C273.009 301.045 273.16 301.162 273.268 301.317C273.375 301.472 273.432 301.657 273.432 301.847C273.432 302.036 273.375 302.221 273.268 302.376C273.16 302.531 273.009 302.648 272.833 302.712C272.378 302.939 271.877 303.057 271.37 303.057C270.863 303.057 270.362 302.939 269.907 302.712C269.082 302.225 269.082 301.468 269.907 300.981ZM270.067 300.981C269.322 301.387 269.322 302.09 270.067 302.496C270.476 302.719 270.933 302.835 271.397 302.835C271.861 302.835 272.318 302.719 272.727 302.496C272.891 302.451 273.035 302.352 273.139 302.216C273.242 302.079 273.298 301.911 273.298 301.738C273.298 301.566 273.242 301.398 273.139 301.261C273.035 301.124 272.891 301.026 272.727 300.981C272.309 300.775 271.848 300.677 271.383 300.695C270.919 300.714 270.467 300.849 270.067 301.089V300.981Z" fill="#1D71B8"/>
<path d="M274.137 300.927L273.977 300.765C274.11 300.765 274.243 300.765 274.243 300.765H274.483L274.323 300.954H274.642H274.27V301.171C274.137 301.171 274.27 300.954 274.27 300.954H273.924L274.137 300.927Z" fill="#1D71B8"/>
<path d="M268.417 302.686L268.231 302.523H268.524H268.736V302.713H269.056H268.683V302.902V302.686H268.337H268.417Z" fill="#1D71B8"/>
<path d="M247.771 273.571L256.099 279.795L257.296 283.502C258.112 285.488 259.254 287.318 260.675 288.913L261.313 288.751L265.144 287.75V287.317C265.809 286.234 268.23 286.559 270.465 286.776L270.811 287.75C270.442 287.73 270.075 287.822 269.758 288.015C269.44 288.208 269.186 288.492 269.028 288.832L269.481 289.59L271.237 292.701L271.449 293.053L272.647 292.296H273.125C273.561 292.263 273.974 292.082 274.296 291.781L276.797 289.969C277.074 289.733 277.279 289.422 277.387 289.072C277.495 288.722 277.503 288.348 277.409 287.993C277.548 287.839 277.645 287.651 277.692 287.447C277.738 287.243 277.733 287.031 277.675 286.83V286.64C277.848 286.197 277.848 285.703 277.675 285.26L276.797 282.933L276.637 282.257C276.53 281.831 276.291 281.452 275.956 281.174C275.62 280.896 275.207 280.735 274.775 280.715L265.996 278.252C264.639 277.803 263.219 277.584 261.792 277.603L252.88 268.457L247.771 273.571Z" fill="#FCAF75"/>
<g style="mix-blend-mode:multiply" opacity="0.5">
<path d="M265.012 287.696V287.371C265.677 286.289 268.098 286.614 270.333 286.83L270.678 287.804C270.309 287.784 269.943 287.876 269.625 288.069C269.308 288.262 269.054 288.546 268.896 288.886L269.348 289.644L271.822 288.805C271.127 287.676 270.699 286.398 270.572 285.071C268.743 285.892 266.67 285.95 264.799 285.234C264.639 286.058 264.713 286.912 265.012 287.696Z" fill="#FCAF75"/>
</g>
<g style="mix-blend-mode:multiply" opacity="0.5">
<path d="M270.918 290.726V292.755L271.131 293.107L272.328 292.349H272.807C273.243 292.317 273.655 292.136 273.977 291.835L276.478 290.022C276.755 289.787 276.96 289.476 277.068 289.126C277.177 288.776 277.184 288.401 277.09 288.047C277.229 287.893 277.326 287.705 277.373 287.501C277.42 287.297 277.414 287.084 277.356 286.884V286.694C277.529 286.251 277.529 285.757 277.356 285.314L277.09 285.774L276.079 283.285L276.877 286.424L276.558 287.073C275.97 285.596 275.525 284.065 275.228 282.5C275.143 282.217 274.981 281.964 274.759 281.772C274.537 281.58 274.266 281.457 273.977 281.418C274.225 281.541 274.437 281.728 274.591 281.961C274.745 282.194 274.836 282.464 274.855 282.744C275.095 284.392 275.542 286.001 276.185 287.533C276.322 287.861 276.362 288.222 276.3 288.573C276.239 288.923 276.079 289.248 275.84 289.508C275.281 290.104 274.456 290.482 273.924 289.86C274.14 289.624 274.282 289.328 274.329 289.009C274.377 288.69 274.328 288.364 274.19 288.074C273.512 286.814 273.104 285.421 272.993 283.988C272.833 282.663 272.142 282.446 271.237 282.446C271.62 282.501 271.975 282.681 272.249 282.959C272.522 283.238 272.699 283.599 272.753 283.988C272.757 285.454 273.094 286.899 273.738 288.209C273.881 288.489 273.916 288.813 273.838 289.118C273.759 289.423 273.572 289.688 273.312 289.86C272.646 290.438 271.793 290.746 270.918 290.726Z" fill="#FCAF75"/>
</g>
<path d="M266.449 299.142C266.662 300.089 268.843 300.44 271.371 299.926C273.898 299.412 275.76 298.194 275.548 297.22C275.335 296.246 273.153 295.921 270.652 296.435C268.151 296.95 266.262 298.167 266.449 299.142Z" fill="#1D1D1B"/>
<path d="M266.129 297.599L275.228 295.678L275.547 297.22L266.475 299.195L266.129 297.599Z" fill="#1D1D1B"/>
<path d="M266.129 297.598C266.315 298.545 268.523 298.897 271.024 298.383C273.525 297.869 275.414 296.651 275.228 295.677C275.041 294.703 272.833 294.378 270.332 294.892C267.832 295.407 265.943 296.624 266.129 297.598Z" fill="#292928"/>
<path d="M266.289 297.247C266.501 298.194 268.603 298.573 271.024 298.059C273.445 297.545 275.254 296.354 275.068 295.353C274.882 294.352 272.753 294.027 270.332 294.514C267.911 295.001 266.102 296.273 266.289 297.247Z" fill="#3C3C3B"/>
<path d="M267.779 296.868C267.938 297.518 269.322 297.761 270.891 297.41C272.461 297.058 273.552 296.273 273.552 295.624C273.552 294.974 272.009 294.704 270.466 295.056C268.923 295.407 267.646 296.219 267.779 296.868Z" fill="#1D1D1B"/>
<path d="M268.205 291.943L270.998 291.186C271.292 292.76 272.109 294.183 273.313 295.217L267.992 296.3C268.565 294.918 268.641 293.375 268.205 291.943Z" fill="#1D1D1B"/>
<path d="M266.741 290.916C266.9 291.809 267.991 292.323 269.667 291.971C271.343 291.62 272.142 290.835 271.982 289.807C271.822 288.778 270.465 288.454 269.029 288.751C267.592 289.049 266.555 290.023 266.741 290.916Z" fill="#3C3C3B"/>
<path d="M267.115 290.131C267.115 290.563 268.232 290.699 269.403 290.455C270.573 290.212 271.451 289.616 271.345 289.184C271.239 288.751 270.228 288.588 269.057 288.859C267.886 289.129 267.009 289.806 267.115 290.131Z" fill="#525250"/>
<path d="M260.57 288.967L262.246 290.374C263.242 291.226 264.291 292.012 265.385 292.728C266.768 293.675 268.232 295.434 269.056 294.649C270.599 293.432 266.529 290.32 266.529 290.32C265.852 289.606 265.343 288.746 265.039 287.804C263.664 287.533 262.24 287.825 261.075 288.615L260.57 288.967Z" fill="#FCAF75"/>
<path d="M262.245 277.468C259.159 277.468 258.441 280.174 257.19 283.502C256.818 283.285 257.19 283.258 256.871 283.015C255.541 283.015 241.813 272.651 240.749 271.812C243.09 267.077 246.07 263.37 250.779 263.424C254.37 268.484 257.35 271.109 262.245 277.468Z" fill="#55B2E6"/>
<g style="mix-blend-mode:multiply" opacity="0.5">
<path d="M256.871 283.015C251.225 279.703 245.835 275.958 240.749 271.813C241.527 270.088 242.529 268.477 243.728 267.023L256.871 283.015Z" fill="#3F76AB"/>
</g>
<path d="M221.806 301.305L227.34 304.282C227.434 304.614 227.55 304.939 227.685 305.256C229.096 308.202 231.349 310.645 234.15 312.264L240.988 316.864C243.036 317.486 243.169 316.593 242.557 315.105L245.377 317.08C247.293 318.271 248.836 317.08 248.038 315.511L249.874 316.323C251.443 316.756 252.188 315.998 251.124 314.402C250.991 314.182 250.839 313.973 250.672 313.779L249.554 312.697C251.151 313.509 252.774 312.697 250.698 310.559C247.386 306.742 243.725 303.254 239.764 300.142C236.992 298.768 233.982 297.959 230.905 297.761L224.919 295.731L221.806 301.305Z" fill="#FCAF75"/>
<path d="M176.898 225.488C170.3 231.062 168.545 236.636 169.742 248.461C171.151 264.086 175.802 279.229 183.39 292.89C194.777 299.249 210.633 302.712 227.686 305.256C227.464 303.73 227.759 302.172 228.523 300.839C229.287 299.507 230.474 298.478 231.89 297.923C216.566 290.455 199.539 280.2 193.313 280.687C192.854 268.221 191.006 255.849 187.806 243.807C185.598 235.013 182.379 228.221 176.898 225.488Z" fill="#55B2E6"/>
<g style="mix-blend-mode:multiply" opacity="0.5">
<path d="M227.712 305.283C229.11 308.222 231.356 310.658 234.15 312.264L240.988 316.864C243.036 317.486 243.169 316.594 242.557 315.105L245.377 317.081C247.293 318.271 248.836 317.081 248.038 315.511C247.133 317.784 245.005 315.863 242.025 313.969C243.435 316.675 240.562 315.971 239.045 314.375C234.829 311.958 231.006 308.891 227.712 305.283Z" fill="#FCAF75"/>
</g>
<path d="M226.962 364.155L217.953 369.445L219.642 372.421L228.651 367.131L226.962 364.155Z" fill="#333332"/>
<path d="M185.544 350.471L220.37 370.819C220.37 372.415 219.279 373.064 217.949 372.28L187.965 354.746C187.258 354.279 186.669 353.649 186.248 352.905C185.827 352.162 185.586 351.327 185.544 350.471Z" fill="#333332"/>
<path d="M264.826 344.49L230.107 324.305L185.544 350.47L220.37 370.818L264.826 344.49Z" fill="#575756"/>
<path d="M215.981 362.538L217.949 363.702L215.502 365.136L213.533 363.972L215.981 362.538Z" fill="#DADADA"/>
<path d="M223.827 360.266L221.38 361.7L219.385 360.537L221.832 359.103L223.827 360.266Z" fill="#DADADA"/>
<path d="M224.76 357.37L226.755 358.534L224.308 359.968L222.312 358.804L224.76 357.37Z" fill="#DADADA"/>
<path d="M227.712 355.639L229.681 356.802L227.233 358.263L225.264 357.073L227.712 355.639Z" fill="#DADADA"/>
<path d="M230.639 353.934L232.608 355.097L230.16 356.531L228.192 355.368L230.639 353.934Z" fill="#DADADA"/>
<path d="M238.488 351.661L236.014 353.095L234.045 351.932L236.493 350.471L238.488 351.661Z" fill="#DADADA"/>
<path d="M239.419 348.766L241.414 349.929L238.966 351.363L236.971 350.2L239.419 348.766Z" fill="#DADADA"/>
<path d="M242.371 347.034L244.34 348.198L241.892 349.632L239.897 348.468L242.371 347.034Z" fill="#DADADA"/>
<path d="M234.31 338.294L232.341 337.158L234.789 335.696L236.757 336.86L234.31 338.294Z" fill="#DADADA"/>
<path d="M237.238 336.59L235.269 335.426L237.717 333.992L239.685 335.156L237.238 336.59Z" fill="#DADADA"/>
<path d="M238.195 333.694L240.642 332.26L242.638 333.423L240.19 334.857L238.195 333.694Z" fill="#DADADA"/>
<path d="M203.104 357.371L201.135 356.207L203.583 354.773L205.552 355.937L203.104 357.371Z" fill="#DADADA"/>
<path d="M206.03 355.665L204.061 354.502L206.509 353.067L208.477 354.231L206.03 355.665Z" fill="#DADADA"/>
<path d="M223.138 345.627L218.695 348.225L217.764 348.766L217.285 349.063L216.061 349.767L214.358 350.768L211.911 352.202L208.984 353.934L206.989 352.77L215.024 348.062L215.29 347.9L221.169 344.437L223.138 345.627Z" fill="#DADADA"/>
<path d="M223.643 345.33L221.647 344.167L224.095 342.732L226.09 343.896L223.643 345.33Z" fill="#DADADA"/>
<path d="M226.568 343.598L224.573 342.434L227.02 341L229.016 342.164L226.568 343.598Z" fill="#DADADA"/>
<path d="M227.501 340.73L229.948 339.296L231.944 340.459L229.496 341.893L227.501 340.73Z" fill="#DADADA"/>
<path d="M234.789 338.592L237.236 337.158L239.231 338.322L236.784 339.756L234.789 338.592Z" fill="#DADADA"/>
<path d="M237.717 336.86L240.191 335.426L242.16 336.589L239.712 338.023L237.717 336.86Z" fill="#DADADA"/>
<path d="M240.668 335.156L243.116 333.694L245.084 334.885L242.637 336.319L240.668 335.156Z" fill="#DADADA"/>
<path d="M203.583 357.668L206.03 356.234L208.026 357.398L205.578 358.832L203.583 357.668Z" fill="#DADADA"/>
<path d="M210.952 355.666L208.504 357.1L206.509 355.936L208.983 354.502L210.952 355.666Z" fill="#DADADA"/>
<path d="M213.878 353.934L211.431 355.395L209.462 354.232L211.91 352.771L213.878 353.934Z" fill="#DADADA"/>
<path d="M216.804 352.229L214.357 353.663L212.388 352.499L214.836 351.065L216.804 352.229Z" fill="#DADADA"/>
<path d="M219.759 350.498L217.285 351.932L215.316 350.768L217.764 349.334L219.759 350.498Z" fill="#DADADA"/>
<path d="M222.684 348.792L220.237 350.227L218.241 349.063L220.689 347.629L222.684 348.792Z" fill="#DADADA"/>
<path d="M225.61 347.061L223.162 348.495L221.167 347.332L223.641 345.897L225.61 347.061Z" fill="#DADADA"/>
<path d="M228.537 345.329L226.09 346.791L224.121 345.627L226.569 344.166L228.537 345.329Z" fill="#DADADA"/>
<path d="M231.463 343.624L229.015 345.058L227.046 343.895L229.494 342.461L231.463 343.624Z" fill="#DADADA"/>
<path d="M237.264 340.026L239.712 338.592L241.681 339.755L239.233 341.189L237.264 340.026Z" fill="#DADADA"/>
<path d="M244.607 338.05L242.159 339.484L240.19 338.321L242.638 336.887L244.607 338.05Z" fill="#DADADA"/>
<path d="M243.115 336.59L245.563 335.156L247.558 336.32L245.111 337.754L243.115 336.59Z" fill="#DADADA"/>
<path d="M206.056 359.102L208.504 357.668L210.473 358.831L208.025 360.265L206.056 359.102Z" fill="#DADADA"/>
<path d="M213.401 357.126L210.953 358.56L208.984 357.397L211.432 355.936L213.401 357.126Z" fill="#DADADA"/>
<path d="M211.91 355.666L214.357 354.231L216.353 355.395L213.905 356.829L211.91 355.666Z" fill="#DADADA"/>
<path d="M214.835 353.934L217.283 352.5L219.278 353.663L216.831 355.097L214.835 353.934Z" fill="#DADADA"/>
<path d="M217.79 352.229L220.237 350.795L222.206 351.958L219.758 353.392L217.79 352.229Z" fill="#DADADA"/>
<path d="M220.715 350.497L223.162 349.063L225.131 350.227L222.684 351.661L220.715 350.497Z" fill="#DADADA"/>
<path d="M228.086 348.496L225.611 349.93L223.643 348.793L226.09 347.332L228.086 348.496Z" fill="#DADADA"/>
<path d="M226.568 347.061L229.016 345.627L231.011 346.791L228.563 348.225L226.568 347.061Z" fill="#DADADA"/>
<path d="M234.418 344.788L231.491 346.493L229.496 345.329L232.449 343.625L229.975 342.164L232.423 340.729L234.897 342.191L235.695 342.651L236.865 343.327L235.243 344.301L234.418 344.788Z" fill="#DADADA"/>
<path d="M241.707 342.651L239.712 341.488L242.159 340.054L244.155 341.217L241.707 342.651Z" fill="#DADADA"/>
<path d="M245.111 338.321L247.08 339.485L244.633 340.919L242.664 339.756L245.111 338.321Z" fill="#DADADA"/>
<path d="M245.591 338.051L248.039 336.59L250.007 337.753L247.56 339.187L245.591 338.051Z" fill="#DADADA"/>
<path d="M208.504 360.563L210.952 359.129L212.947 360.293L210.499 361.727L208.504 360.563Z" fill="#DADADA"/>
<path d="M213.427 359.995L211.458 358.831L213.905 357.397L215.874 358.561L213.427 359.995Z" fill="#DADADA"/>
<path d="M214.383 357.127L216.831 355.666L218.8 356.829L216.352 358.291L214.383 357.127Z" fill="#DADADA"/>
<path d="M219.759 353.961L221.754 355.124L219.28 356.559L217.311 355.395L219.759 353.961Z" fill="#DADADA"/>
<path d="M220.236 353.664L222.684 352.229L224.679 353.393L222.232 354.827L220.236 353.664Z" fill="#DADADA"/>
<path d="M223.162 351.959L225.61 350.524L227.605 351.661L225.158 353.122L223.162 351.959Z" fill="#DADADA"/>
<path d="M228.085 351.39L226.116 350.227L228.564 348.793L230.533 349.956L228.085 351.39Z" fill="#DADADA"/>
<path d="M229.042 348.495L231.489 347.061L233.458 348.224L231.01 349.658L229.042 348.495Z" fill="#DADADA"/>
<path d="M234.896 345.059L235.801 344.545L237.344 343.625L239.339 344.788L237.769 345.708L236.865 346.222L233.938 347.954L231.97 346.791L234.896 345.059Z" fill="#DADADA"/>
<path d="M249.076 344.085L246.628 345.546L244.633 344.382L247.107 342.948L249.076 344.085Z" fill="#DADADA"/>
<path d="M250.034 341.217L252.003 342.38L249.556 343.814L247.587 342.651L250.034 341.217Z" fill="#DADADA"/>
<path d="M252.96 339.485L254.929 340.649L252.481 342.083L250.512 340.919L252.96 339.485Z" fill="#DADADA"/>
<path d="M206.749 341.217L212.628 344.653C212.776 344.734 212.94 344.776 213.107 344.776C213.274 344.776 213.439 344.734 213.586 344.653L222.445 339.458C222.712 339.296 222.712 339.052 222.445 338.89L216.593 335.454C216.441 335.373 216.272 335.331 216.1 335.331C215.929 335.331 215.76 335.373 215.608 335.454L206.749 340.649C206.483 340.703 206.483 340.946 206.749 341.217Z" fill="#878787"/>
<path d="M264.958 345.086L274.535 309.45C275.17 309.992 275.661 310.687 275.963 311.472C276.265 312.256 276.369 313.106 276.264 313.942L267.964 344.869C267.591 346.168 266.261 346.276 264.984 345.113L264.958 345.086Z" fill="#4A4A49"/>
<path d="M230.028 335.588L222.739 371.955L267.275 345.789L274.538 309.45L230.028 335.588Z" fill="#4A4A49"/>
<path d="M220.396 371.251L229.973 335.615C230.608 336.157 231.099 336.852 231.401 337.637C231.704 338.421 231.807 339.271 231.702 340.107L223.402 370.98C223.029 372.279 221.699 372.387 220.422 371.224L220.396 371.251Z" fill="#333332"/>
<path d="M248.783 342.19C248.544 343.732 249.475 344.355 250.885 343.57C251.636 343.117 252.289 342.514 252.806 341.798C253.322 341.082 253.691 340.268 253.891 339.403C254.131 337.861 253.199 337.238 251.789 337.996C251.037 338.453 250.382 339.061 249.866 339.781C249.349 340.502 248.981 341.321 248.783 342.19Z" fill="#DADADA"/>
<circle cx="57" cy="54" r="50" fill="white" stroke="#FFC158" stroke-width="8"/>
<path d="M63.0137 46.86V50H52.1137V47.52L57.3537 42.62C57.8603 42.14 58.2003 41.7333 58.3737 41.4C58.547 41.0533 58.6337 40.7067 58.6337 40.36C58.6337 39.9067 58.4803 39.5533 58.1737 39.3C57.867 39.0467 57.4203 38.92 56.8337 38.92C56.3137 38.92 55.8337 39.04 55.3937 39.28C54.967 39.5067 54.6137 39.84 54.3337 40.28L51.3937 38.64C51.9403 37.7333 52.707 37.02 53.6937 36.5C54.6803 35.98 55.847 35.72 57.1937 35.72C58.2603 35.72 59.2003 35.8933 60.0137 36.24C60.8403 36.5867 61.4803 37.0867 61.9337 37.74C62.4003 38.38 62.6337 39.1267 62.6337 39.98C62.6337 40.74 62.467 41.46 62.1337 42.14C61.8137 42.8067 61.187 43.5667 60.2537 44.42L57.6137 46.86H63.0137ZM52.7359 58V72H33.7559V58H37.6559V68.86H41.3159V58H45.2159V68.86H48.8359V58H52.7359ZM65.3885 69.28H59.4685L58.3685 72H54.3285L60.5085 58H64.4085L70.6085 72H66.4885L65.3885 69.28ZM64.2285 66.36L62.4285 61.88L60.6285 66.36H64.2285ZM82.4529 61.14H76.1129V72H72.2129V58H82.4729L82.4529 61.14Z" fill="black"/>
</svg>
