<svg width="430" height="430" viewBox="0 0 430 430" fill="none" xmlns="http://www.w3.org/2000/svg">
<circle cx="215" cy="215" r="212.5" fill="#FFC158" stroke="#FFC158" stroke-width="5"/>
<circle cx="61" cy="80" r="50" fill="white" stroke="#FFC158" stroke-width="8"/>
<path d="M63.3346 67.6C64.4946 67.84 65.3813 68.32 65.9946 69.04C66.6213 69.7467 66.9346 70.6067 66.9346 71.62C66.9346 72.4467 66.7079 73.2133 66.2546 73.92C65.8146 74.6267 65.1346 75.2 64.2146 75.64C63.3079 76.0667 62.1813 76.28 60.8346 76.28C59.8479 76.28 58.8679 76.16 57.8946 75.92C56.9346 75.68 56.1013 75.34 55.3946 74.9L56.8346 71.92C57.3813 72.2933 57.9946 72.58 58.6746 72.78C59.3679 72.98 60.0479 73.08 60.7146 73.08C61.3946 73.08 61.9346 72.9533 62.3346 72.7C62.7346 72.4467 62.9346 72.0867 62.9346 71.62C62.9346 70.7133 62.2213 70.26 60.7946 70.26H59.1346V67.76L61.6346 65.06H56.1146V62H66.2346V64.48L63.3346 67.6ZM56.7359 84V98H37.7559V84H41.6559V94.86H45.3159V84H49.2159V94.86H52.8359V84H56.7359ZM69.3885 95.28H63.4685L62.3685 98H58.3285L64.5085 84H68.4085L74.6085 98H70.4885L69.3885 95.28ZM68.2285 92.36L66.4285 87.88L64.6285 92.36H68.2285ZM86.4529 87.14H80.1129V98H76.2129V84H86.4729L86.4529 87.14Z" fill="black"/>
<g clip-path="url(#clip0_4668_44)">
<path d="M313.888 107.063C311.462 116.218 312.091 127.444 308.946 140.741C304.633 154.068 300.56 176.76 286.184 193.088C285.225 194.559 278.127 180.902 278.457 179.311C284.806 150.196 284.956 151.126 288.999 138.55C290.826 128.915 292.833 119.52 293.971 107.814C294.66 100.1 297.565 95.8077 301.578 94.1868C310.623 91.2153 319.099 98.419 313.888 107.063Z" fill="#1D1D1B"/>
<path d="M319.909 300.122C320.562 303.36 320.774 306.672 320.538 309.968C319.909 312.969 312.092 314.83 312.092 314.83C312.092 314.83 301.13 325.185 291.816 324.465C286.335 324.045 284.478 322.604 283.609 320.983C283.296 320.106 283.225 319.16 283.404 318.246C283.583 317.332 284.006 316.483 284.628 315.791C285.706 314.29 297.087 309.457 299.932 304.895C301.34 302.674 303.646 298.021 303.646 298.021L304.604 289.317L319.58 288.687L318.831 298.952L319.909 300.122Z" fill="black"/>
<path d="M333.206 191.257L323.622 239.672C327.086 259.754 326.362 280.337 321.495 300.124C318.5 308.078 307.988 305.857 301.429 300.124C303.289 282.45 303.919 264.668 303.315 246.906L301.429 234.09C301.429 234.09 299.871 227.606 299.961 203.114C299.991 190.657 307.119 163.253 307.119 163.253L333.206 191.257Z" fill="#1D1D1B"/>
<path d="M353.182 316.932C354.303 320.561 354.73 324.37 354.44 328.158C353.849 329.564 352.986 330.84 351.902 331.911C350.818 332.983 349.532 333.829 348.121 334.401C346.595 337.758 344.162 340.62 341.098 342.662C338.033 344.705 334.458 345.846 330.78 345.957C318.799 346.257 318.799 341.395 318.949 341.395C319.036 340.405 319.326 339.444 319.8 338.571C320.274 337.698 320.922 336.933 321.705 336.322C325.936 333.001 329.994 329.464 333.864 325.727C335.059 324.085 336.064 322.313 336.859 320.444L337.399 311.77H353.392L353.182 316.932Z" fill="black"/>
<path d="M325.089 201.672C325.089 226.194 324.161 240.692 330.6 253.118C331.333 258.679 332.394 264.191 333.775 269.627C335.692 276.14 335.362 304.655 334.583 321.554C335.462 322.834 336.584 323.927 337.886 324.771C339.187 325.615 340.642 326.193 342.168 326.472C343.693 326.751 345.258 326.725 346.773 326.396C348.288 326.067 349.723 325.442 350.996 324.555C353.089 323.114 354.623 320.994 355.339 318.552C359.682 291.868 362.587 270.888 352.044 251.377C355.399 234.239 355.039 217.4 353.931 198.79C355.295 189.329 354.084 179.675 350.427 170.846C349.603 168.939 348.663 167.084 347.612 165.293L304.124 175.618C308.706 191.256 316.583 199.751 325.089 201.672Z" fill="#3C3C3B"/>
<g style="mix-blend-mode:multiply" opacity="0.25">
<path d="M345.006 252.999C358.364 266.746 354.53 293.37 350.996 324.376C353.1 322.945 354.636 320.821 355.339 318.373C359.682 291.869 362.587 270.888 352.044 251.378C355.399 234.239 355.039 217.401 353.931 198.791C355.295 189.33 354.084 179.676 350.427 170.847L324.79 210.617C339.795 220.042 353.272 230.157 345.006 252.999Z" fill="black"/>
</g>
<path d="M299.603 122.581C299.872 140.2 304.125 175.618 304.125 175.618C347.493 201.972 353.154 178.89 353.154 178.89L355.041 138.309L356.239 111.565C352.259 106.837 347.33 103.002 341.773 100.309C330.392 92.7155 320.029 89.5039 306.132 93.4359C303.579 100.37 301.576 107.496 300.142 114.747C299.896 116.386 299.786 118.042 299.812 119.699C299.633 120.6 299.563 121.56 299.603 122.581Z" fill="#EDEDED"/>
<path d="M338.508 98.5092L332.039 85.0322L314.069 94.0369L317.902 104.152C321.107 116.398 340.545 108.865 338.508 98.5092Z" fill="#FFC794"/>
<g style="mix-blend-mode:multiply" opacity="0.3">
<path d="M317.004 97.7579C317.004 105.082 318.321 109.104 322.724 109.554C328.235 109.554 334.255 101.03 332.158 95.9269V89.9238L317.004 97.7579Z" fill="#CEA55F"/>
</g>
<path d="M319.699 116.818V111.416L322.454 109.555L323.952 113.036L322.454 117.809C321.675 129.141 321.675 140.514 322.454 151.847L317.992 156.049L314.997 149.085C315.743 138.225 317.315 127.439 319.699 116.818Z" fill="black"/>
<path d="M322.454 109.555L317.182 113.127C317.182 113.127 313.379 99.4394 317.003 95.8676C320.627 92.2957 322.454 109.555 322.454 109.555Z" fill="#C6C6C6"/>
<path d="M318.95 90.0146C315.328 105.776 314.88 122.103 317.632 138.039L316.644 197.71C316.615 198.818 316.306 199.901 315.745 200.856C315.185 201.812 314.392 202.609 313.44 203.173C312.488 203.737 311.408 204.049 310.303 204.081C309.197 204.112 308.102 203.862 307.12 203.353C302.774 200.958 298.971 197.688 295.948 193.748L296.936 126.874C296.937 119.023 298.18 111.222 300.62 103.762L306.041 93.4364L318.95 90.0146Z" fill="#3C3C3B"/>
<path d="M319.429 88.874C319.429 88.874 315.566 91.0051 315.446 90.9451C315.326 90.8851 310.774 99.4395 310.774 99.4395L314.038 102.021C312.701 102.24 311.38 102.551 310.085 102.951C309.755 107.964 314.757 131.286 317.423 136.569C315.506 118.559 315.296 102.021 319.429 88.874Z" fill="black"/>
<path d="M336.92 95.2666L340.304 99.4087C340.304 99.4087 334.703 115.287 324.64 115.287C324.094 113.311 323.362 111.391 322.454 109.554C329.732 108.443 336.92 100.789 336.92 95.2666Z" fill="#C6C6C6"/>
<path d="M323.532 64.2012C332.308 64.2912 337.309 68.5834 337.669 78.0083C337.399 87.9735 334.075 96.0176 326.347 101.48C324.703 102.983 322.745 104.1 320.615 104.749C318.486 105.398 316.239 105.563 314.038 105.232C308.677 105.442 307.748 92.1456 307 82.5707C307.569 72.5155 313.679 66.8726 323.532 64.2012Z" fill="#FFC794"/>
<path d="M307.119 78.7886C309.096 83.6211 317.751 87.1029 326.467 84.7917L327.455 92.6858L331.079 90.7648L334.553 94.6368L335.871 92.7458C342.46 79.3589 340.543 69.5438 330.51 64.201C317.482 59.0384 304.303 71.6449 307.119 78.7886Z" fill="black"/>
<path d="M332.368 94.1565C333.249 93.455 333.974 92.5755 334.494 91.5751C334.745 91.0717 334.875 90.5168 334.875 89.9543C334.875 89.3917 334.745 88.8369 334.494 88.3335C334.255 87.8241 333.846 87.4139 333.338 87.173C332.83 86.9321 332.254 86.8755 331.709 87.0128C331.349 87.1666 331.026 87.3963 330.762 87.6864C330.499 87.9764 330.301 88.32 330.181 88.6936C329.956 89.4437 329.835 90.2215 329.822 91.0048C329.822 91.6952 329.822 92.4156 329.822 93.1059C329.738 93.5934 329.834 94.0947 330.092 94.5166C330.259 94.6682 330.464 94.773 330.685 94.8204C330.905 94.8678 331.135 94.8562 331.35 94.7868C331.72 94.6314 332.063 94.4187 332.368 94.1565Z" fill="#FFC794"/>
<path d="M316.583 138.309V197.23C316.583 204.793 323.921 211.787 331.348 213.558L332.427 213.798C341.921 215.449 350.067 213.798 356.147 206.864L357.285 142.781L357.824 113.126C352.019 106.473 345.219 100.762 337.668 96.1973C338.507 104.331 326.347 120.66 316.583 138.309Z" fill="#3C3C3B"/>
<g style="mix-blend-mode:multiply" opacity="0.25">
<path d="M331.349 213.558L332.427 213.798C341.921 215.449 350.068 213.798 356.148 206.865L357.286 142.782L340.963 129.875C348.81 163.552 347.582 192.457 331.349 213.558Z" fill="black"/>
</g>
<path d="M340.603 98.149V113.157H335.721L338.716 118.74L316.583 138.04C326.377 121.591 336.32 105.023 337.548 96.2881L340.603 98.149Z" fill="black"/>
<path d="M373.579 201.072L374.148 209.446L373.818 216.92L371.662 222.443C371.272 223.734 369.805 224.094 370.284 222.443L368.367 228.446C367.978 230.247 366.151 230.277 366.271 228.446L367.648 220.492L362.677 231.418C361.898 233.038 359.891 233.189 360.371 230.997L363.845 218.991L360.161 225.475L356.567 229.857C355.069 231.328 353.153 230.547 354.051 228.686L357.885 222.683C357.885 222.683 359.532 218.211 360.131 216.08C360.131 215.72 359.232 211.427 359.232 211.427L350.607 215.93C348.271 216.68 347.342 214.669 349.439 213.138L358.034 205.364L363.665 202.002L364.025 201.702L365.282 197.74L373.609 198.371L373.579 201.072Z" fill="#FFC794"/>
<path d="M357.406 112.256C366.75 122.281 371.393 133.927 378.221 151.096C379.758 168.249 378.749 185.536 375.226 202.392C371.019 203.546 366.539 203.163 362.587 201.312C362.887 187.354 361.479 172.347 362.887 158.449C355.549 153.827 348.211 140.44 340.274 128.704C337.908 112.406 347.373 103.521 357.406 112.256Z" fill="#3C3C3B"/>
<path d="M318.411 150.135C317.849 150.135 317.393 149.436 317.393 148.574C317.393 147.712 317.849 147.014 318.411 147.014C318.974 147.014 319.429 147.712 319.429 148.574C319.429 149.436 318.974 150.135 318.411 150.135Z" fill="black"/>
<path d="M317.393 168.055C317.393 168.925 317.842 169.616 318.411 169.616C318.98 169.616 319.429 168.925 319.429 168.055C319.429 167.184 318.98 166.464 318.411 166.464C317.842 166.464 317.393 167.034 317.393 168.055Z" fill="black"/>
<path d="M317.393 187.204C317.393 188.075 317.842 188.795 318.411 188.795C318.98 188.795 319.429 188.075 319.429 187.204C319.429 186.334 318.98 185.644 318.411 185.644C317.842 185.644 317.393 186.334 317.393 187.204Z" fill="black"/>
<path d="M266.326 199.031L269.321 206.595L269.501 207.075L270.459 206.775C271.148 206.415 281.93 200.322 282.14 200.081C284.398 197.264 286.087 194.032 287.112 190.567L287.561 186.905L287.411 186.274L286.004 180.271L283.009 179.221C281.092 179.221 281.212 180.391 282.08 181.052L283.158 182.462L278.187 186.064L274.533 187.085L276.869 183.663C277.923 183.185 278.926 182.602 279.864 181.922C280.942 181.172 281.511 179.581 280.133 179.491L273.514 182.192L268.842 189.066L266.326 199.031Z" fill="#FCAF75"/>
<g style="mix-blend-mode:multiply" opacity="0.3">
<path d="M287.592 186.905L287.443 186.274L281.452 195.699C277.14 199.781 273.036 201.552 269.233 200.352V206.595L269.412 207.075L270.371 206.775C271.06 206.415 281.842 200.322 282.051 200.082L287.592 186.905Z" fill="#FCAF75"/>
</g>
<path d="M159.735 237.091L160.364 243.904L161.681 247.836L164.676 253.119C165.545 254.59 167.013 254.29 166.983 252.939L168.39 255.43C169.648 257.381 171.385 255.731 170.517 253.689L168.39 248.497L171.775 255.1C173.152 256.991 175.009 255.791 174.201 253.209L171.206 245.945L174.201 251.648C175.159 252.939 177.196 252.129 176.687 249.757L173.811 240.092C173.555 238.896 173.67 237.65 174.141 236.521C174.77 235.29 179.562 237.871 179.562 237.871C181.269 238.832 182.796 239.702 183.964 240.423C185.582 240.663 186.271 240.243 186.061 239.162L182.737 235.68L178.993 232.408L177.345 230.968C175.162 229.374 172.69 228.222 170.068 227.576L169.888 226.886L169.469 225.505L165.845 226.075L160.453 226.886L160.723 231.088L160.394 233.009L159.735 237.091Z" fill="#FCAF75"/>
<g style="mix-blend-mode:multiply" opacity="0.3">
<path d="M174.65 236.04L167.312 234.329L163.359 240.963L166.773 252.969C166.624 249.787 166.504 245.975 168.6 245.225L172.344 244.654L169.349 242.643L169.798 239.642L176.148 238.651L174.65 236.04Z" fill="#FCAF75"/>
</g>
<path d="M176.236 147.884L174.049 174.058L172.252 195.819C170.665 208.425 168.868 218.571 170.006 225.174C170.128 225.778 170.128 226.401 170.006 227.005C169.632 227.928 169.076 228.765 168.371 229.466C167.666 230.168 166.826 230.719 165.903 231.087C164.158 232.002 162.307 232.697 160.392 233.158C157.247 220.191 154.821 207.705 155.87 197.62L157.966 171.957C158.565 157.159 162.039 146.023 176.236 147.884Z" fill="#EDEDED"/>
<g style="mix-blend-mode:multiply" opacity="0.3">
<path d="M178.991 232.529L165.903 231.088C167.706 230.338 169.139 228.903 169.886 227.096L170.096 227.786C172.708 228.417 175.177 229.537 177.374 231.088L178.991 232.529Z" fill="#FCAF75"/>
</g>
<g style="mix-blend-mode:multiply" opacity="0.15">
<path d="M172.344 195.819C170.756 208.425 168.959 218.57 170.097 225.174C170.219 225.778 170.219 226.401 170.097 227.005C169.713 227.936 169.143 228.778 168.422 229.48C167.701 230.182 166.844 230.729 165.904 231.087C165.904 229.466 165.904 227.875 165.904 226.254C165.066 201.912 157.758 181.501 166.084 170.275L174.051 174.057L172.344 195.819Z" fill="#3C3C3B"/>
</g>
<path d="M237.514 385.788C237.514 381.075 233.92 379.274 228.529 378.704C223.857 378.704 217.567 380.805 209.271 382.726L199.837 387.889C198.208 392.084 197.966 396.693 199.148 401.036C200.298 402.218 201.714 403.107 203.277 403.629C204.84 404.151 206.505 404.291 208.133 404.037L218.736 399.535L219.514 398.004C228.11 396.954 237.544 393.172 237.514 385.788Z" fill="#1D1D1B"/>
<path d="M203.072 366.937C203.072 363.125 199.657 362.435 194.536 362.045C185.281 362.045 184.892 366.697 176.386 366.487L168.03 371.59C166.573 376.152 166.449 381.036 167.67 385.667C168.979 386.666 170.478 387.384 172.076 387.776C173.673 388.168 175.334 388.227 176.955 387.948L185.551 382.876L186.299 381.315C194.356 380.114 203.072 374.111 203.072 366.937Z" fill="#1D1D1B"/>
<path d="M172.792 236.04L203.581 249.097C203.702 253.917 203.502 258.74 202.982 263.534C201.035 277.762 195.315 299.253 195.315 299.253C191.182 317.532 189.534 340.194 188.576 364.116C188.396 372.731 175.637 380.265 167.611 372.13C165.245 342.955 165.245 314.621 172.103 295.831C168.839 281.033 171.924 264.495 172.852 247.416C171.894 246.906 173.661 236.4 172.792 236.04Z" fill="#1D1D1B"/>
<path d="M195.825 266.686C195.825 283.735 195.645 297.512 199.748 312.31C193.968 331.07 195.525 358.954 199.508 388.099C201.499 390.494 204.312 392.055 207.393 392.477C210.474 392.9 213.602 392.151 216.161 390.38C217.7 389.285 218.901 387.779 219.626 386.033C220.352 384.287 220.573 382.371 220.264 380.505L223.259 315.732C223.259 315.732 227.782 294.271 228.95 280.073C230.118 265.876 225.086 233.399 225.086 233.399C222.373 234.138 219.611 234.68 216.82 235.02C198.49 237.331 181.658 230.788 176.417 220.282C176.147 221.033 175.878 221.813 175.638 222.593C173.662 228.989 172.554 235.622 172.344 242.314C171.685 257.291 186.36 262.814 195.825 266.686Z" fill="#3C3C3B"/>
<path d="M229.249 179.101C228.023 188.152 227.472 197.282 227.601 206.415C227.601 209.717 227.601 212.958 227.422 216.11C227.279 221.932 226.547 227.725 225.235 233.399C222.694 234.56 220.083 235.563 217.418 236.401C201.604 241.413 187.198 238.952 175.787 222.653C169.367 205.423 165.189 187.436 163.358 169.136C163.358 158.24 166.952 150.496 176.207 147.885C192.679 151.877 209.481 162.052 226.493 176.79L229.249 179.101Z" fill="#EDEDED"/>
<path d="M211.547 149.085L209.96 164.093C200.376 164.093 185.371 157.369 187.258 152.087L192.289 142.392L211.547 149.085Z" fill="#FCAF75"/>
<path d="M216.131 150.946C212.297 155.299 206.577 154.728 200.706 153.167C192.171 149.205 186.031 143.352 186.869 132.157C186.18 124.052 189.864 115.588 203.612 116.008C212.357 116.308 219.845 119.49 220.354 128.855C220.264 129.035 220.803 146.624 216.131 150.946Z" fill="#FCAF75"/>
<path d="M210.5 158.87L214.004 166.794C197.591 164.933 182.886 158.78 186.54 151.186L189.535 147.704C187.318 153.047 203.432 159.71 210.5 158.87Z" fill="#C6C6C6"/>
<path d="M220.264 126.603C219.461 129.826 217.471 132.625 214.693 134.437C214.98 136.898 215.07 139.377 214.963 141.851C214.573 141.851 210.77 145.273 210.77 145.273L208.823 150.766C202.264 155.508 192.53 151.906 189.565 147.764C187.828 145.543 185.971 136.629 186.57 128.104C187.588 120.96 192.74 114.027 203.701 113.547C214.663 113.066 221.222 119.28 220.264 126.603Z" fill="#1D1D1B"/>
<path d="M213.794 142.902C214.842 141.732 213.255 139 212.057 138.64C210.859 138.28 209.511 140.471 209.361 141.642C209.209 142.428 209.216 143.236 209.38 144.02C209.545 144.803 209.864 145.546 210.32 146.204C211.428 147.855 213.315 146.204 213.734 144.883C214.153 143.563 213.135 143.653 213.794 142.902Z" fill="#FCAF75"/>
<path d="M216.849 201.492C217.238 203.519 217.738 205.524 218.347 207.495C220.997 210.752 224.012 213.693 227.332 216.26C233.028 220.638 239.611 223.711 246.62 225.265C257.881 220.822 261.595 217.611 271.06 206.565C272.527 203.563 271.688 200.562 267.226 197.11C257.612 200.592 254.317 200.112 247.878 203.113C240.81 191.587 233.741 179.521 226.523 176.729C217.269 181.322 214.573 189.816 216.849 201.492Z" fill="#EDEDED"/>
<g style="mix-blend-mode:multiply" opacity="0.25">
<path d="M229.01 280.043C227.842 294.27 223.259 315.731 223.259 315.731L220.264 380.505C220.582 382.373 220.369 384.293 219.649 386.044C218.928 387.796 217.73 389.309 216.191 390.41C219.006 363.156 220.264 337.583 216.191 317.833C222.181 295.381 225.176 271.879 218.078 254.56C218.078 247.626 218.887 241.383 217.419 236.34C220.084 235.502 222.695 234.5 225.236 233.339C225.236 233.339 230.148 265.876 229.01 280.043Z" fill="black"/>
</g>
<g style="mix-blend-mode:multiply" opacity="0.15">
<path d="M271.03 206.475C262.194 215.87 258.63 220.282 246.59 225.084C239.585 223.55 233.007 220.474 227.332 216.08C227.19 221.902 226.458 227.695 225.146 233.369C222.605 234.53 219.994 235.532 217.329 236.37C217.224 235.916 217.074 235.473 216.88 235.049C215.942 232.848 214.484 230.909 212.631 229.397C210.779 227.886 208.588 226.849 206.247 226.375C212.926 222.533 215.232 213.498 216.85 201.522C217.239 198.941 217.598 196.179 217.988 193.298C220.415 198.178 223.633 202.621 227.512 206.445C232.574 211.307 238.713 214.489 247.998 219.321C251.562 221.152 259.739 210.077 271.03 206.475Z" fill="#3C3C3B"/>
</g>
<path d="M276.96 180.872L274.534 187.205V193.959C274.534 196.18 276.96 195.85 277.049 194.259L278.188 186.065C281.314 184.929 284.069 182.957 286.154 180.362C285.482 179.345 284.476 178.597 283.311 178.246C282.146 177.895 280.895 177.964 279.775 178.441C277.342 179.018 275.164 180.378 273.575 182.313L276.96 180.872Z" fill="#FFC794"/>
<path d="M276.959 202.332V200.141C276.958 199.535 277.195 198.953 277.618 198.52C280.613 195.249 283.758 192.517 286.184 193.087V196.089L280.194 202.362L275.342 203.953L276.959 202.332Z" fill="#FFC794"/>
</g>
<defs>
<clipPath id="clip0_4668_44">
<rect width="229" height="348" fill="white" transform="matrix(-1 0 0 1 379 63)"/>
</clipPath>
</defs>
</svg>
