<svg width="1280" height="1010" viewBox="0 0 1280 1010" fill="none" xmlns="http://www.w3.org/2000/svg">
<path d="M56.8838 1009.18C56.6082 983.406 56.2224 895.126 56.8838 883.216C57.5452 871.306 85.2703 870.259 99.0502 871.224C264.684 871.224 602.733 871.224 629.851 871.224C656.97 871.224 662.096 860.747 661.27 855.509C661.821 729.797 662.592 474.236 661.27 457.695C659.947 441.153 635.363 439.224 623.237 440.326C247.873 440.326 66.4994 441.322 24.2144 440.326C18.0498 440.804 5.62065 438.257 5.22079 424.253C4.82092 410.249 5.05418 376.576 5.22079 361.49" stroke="#FFD998" stroke-opacity="0.51" stroke-width="10"/>
<path d="M939.429 379.539C997.312 146 1092.54 31.7272 1280 1.99969L1280 742C1228.8 646 1070.21 733.359 997.312 789.039C606.89 1088.86 523.492 640.101 565.33 466.177C607.169 292.253 865.389 678.267 939.429 379.539Z" fill="#FFD998"/>
</svg>
