<svg width="122" height="122" viewBox="0 0 122 122" fill="none" xmlns="http://www.w3.org/2000/svg">
<g filter="url(#filter0_d_4673_50)">
<circle cx="61" cy="57" r="57" fill="white"/>
</g>
<path d="M61 48.9293C56.5559 48.9293 52.9291 52.5561 52.9291 57.0002C52.9291 61.4444 56.5559 65.0711 61 65.0711C65.4442 65.0711 69.0709 61.4444 69.0709 57.0002C69.0709 52.5561 65.4442 48.9293 61 48.9293ZM85.2067 57.0002C85.2067 53.6581 85.237 50.3461 85.0493 47.01C84.8616 43.135 83.9776 39.6959 81.144 36.8623C78.3043 34.0227 74.8713 33.1448 70.9963 32.9571C67.6541 32.7694 64.3422 32.7997 61.0061 32.7997C57.6639 32.7997 54.352 32.7694 51.0159 32.9571C47.1409 33.1448 43.7018 34.0288 40.8682 36.8623C38.0286 39.702 37.1506 43.135 36.9629 47.01C36.7752 50.3522 36.8055 53.6641 36.8055 57.0002C36.8055 60.3364 36.7752 63.6543 36.9629 66.9905C37.1506 70.8655 38.0346 74.3045 40.8682 77.1381C43.7079 79.9778 47.1409 80.8557 51.0159 81.0434C54.3581 81.2311 57.67 81.2008 61.0061 81.2008C64.3483 81.2008 67.6602 81.2311 70.9963 81.0434C74.8713 80.8557 78.3104 79.9717 81.144 77.1381C83.9836 74.2985 84.8616 70.8655 85.0493 66.9905C85.243 63.6543 85.2067 60.3424 85.2067 57.0002ZM61 69.4184C54.128 69.4184 48.5819 63.8723 48.5819 57.0002C48.5819 50.1282 54.128 44.5821 61 44.5821C67.8721 44.5821 73.4182 50.1282 73.4182 57.0002C73.4182 63.8723 67.8721 69.4184 61 69.4184ZM73.9268 46.9737C72.3223 46.9737 71.0266 45.678 71.0266 44.0735C71.0266 42.469 72.3223 41.1733 73.9268 41.1733C75.5313 41.1733 76.827 42.469 76.827 44.0735C76.8275 44.4545 76.7528 44.8318 76.6072 45.1839C76.4616 45.536 76.248 45.8559 75.9786 46.1253C75.7092 46.3947 75.3893 46.6083 75.0372 46.7539C74.6851 46.8995 74.3078 46.9742 73.9268 46.9737Z" fill="#FFC158"/>
<defs>
<filter id="filter0_d_4673_50" x="0" y="0" width="122" height="122" filterUnits="userSpaceOnUse" color-interpolation-filters="sRGB">
<feFlood flood-opacity="0" result="BackgroundImageFix"/>
<feColorMatrix in="SourceAlpha" type="matrix" values="0 0 0 0 0 0 0 0 0 0 0 0 0 0 0 0 0 0 127 0" result="hardAlpha"/>
<feOffset dy="4"/>
<feGaussianBlur stdDeviation="2"/>
<feColorMatrix type="matrix" values="0 0 0 0 1 0 0 0 0 0.756863 0 0 0 0 0.345098 0 0 0 0.3 0"/>
<feBlend mode="normal" in2="BackgroundImageFix" result="effect1_dropShadow_4673_50"/>
<feBlend mode="normal" in="SourceGraphic" in2="effect1_dropShadow_4673_50" result="shape"/>
</filter>
</defs>
</svg>
