<svg width="1920" height="1417" viewBox="0 0 1920 1417" fill="none" xmlns="http://www.w3.org/2000/svg">
<path d="M6 1279V0H1920V258.975L1658 227.223C1486.28 236.075 1322 274.851 1254 393.92C1178.14 526.759 1072.42 1022.01 650 932.533C262 850.351 78 1182.76 6 1279Z" fill="#FFC158" stroke="#FFC158" stroke-width="10"/>
<g filter="url(#filter0_d_4645_42)">
<path d="M1242 392C1373.2 126.81 1756.67 223.374 1926 244V280C1806 322.725 1557.2 363.919 1522 540.712C1478 761.704 1262 1039.98 766 956C369.2 888.818 110 1004 -2 1407V1031.31L-1.99973 1031.31C142 951.757 358 832.421 558 823.582C758 814.742 1078 723.487 1242 392Z" fill="#FFD998"/>
<path d="M1242 392C1373.2 126.81 1756.67 223.374 1926 244V280C1806 322.725 1557.2 363.919 1522 540.712C1478 761.704 1262 1039.98 766 956C369.2 888.818 110 1004 -2 1407V1031.31L-1.99973 1031.31C142 951.757 358 832.421 558 823.582C758 814.742 1078 723.487 1242 392Z" stroke="#FFD998" stroke-width="10"/>
</g>
<g clip-path="url(#clip0_4645_42)">
<path d="M1400.89 936.498V900.642C1400.89 882.112 1418.55 866.964 1440.27 866.964C1440.27 866.964 1480.03 867.798 1493.34 867.798C1506.66 867.798 1544.66 866.964 1544.66 866.964C1566.38 866.964 1584 882.066 1584 900.642V936.498H1400.89Z" fill="#1A3248"/>
<path d="M1594.4 902.912H1389.75V919.821H1594.4V902.912Z" fill="#3E99D5"/>
<path d="M1594.4 897.632H1389.75V902.913H1594.4V897.632Z" fill="white"/>
<path d="M1610.67 917.598H1373.43V939H1610.67V917.598Z" fill="#1A3248"/>
<path d="M1610.67 913.289H1373.43V917.551H1610.67V913.289Z" fill="white"/>
<path d="M1552.93 777.046L1713.25 845.886L1714.08 846.303C1720.88 850.055 1721.99 861.59 1716.58 872.013C1711.17 882.436 1701.37 887.903 1694.62 884.15L1542.07 799.514L1552.93 777.046Z" fill="#1A3248"/>
<path d="M1523.21 827.772C1519.32 823.603 1510.68 817.674 1492.47 808.733C1484.87 804.945 1477.06 801.603 1469.07 798.726C1465.72 797.396 1462.21 796.509 1458.63 796.086C1458.63 796.086 1477.12 764.723 1482.43 753.837C1487.75 742.951 1500.32 710.708 1500.32 710.708C1504.25 714.877 1512.9 720.807 1531.02 729.701C1549.14 738.596 1559.22 741.839 1564.9 742.348C1564.9 742.348 1547.06 772.506 1541.79 783.022C1536.52 793.538 1523.21 827.772 1523.21 827.772Z" fill="#F8B345"/>
<path d="M1455.53 802.432C1458.44 796.456 1522.98 828.143 1520.25 834.072C1517.52 840.002 1500.51 837.732 1482.71 828.977C1464.91 820.221 1452.62 808.501 1455.53 802.432ZM1567.96 736.001C1570.87 730.072 1558.71 718.166 1540.96 709.457C1523.21 700.748 1506.33 698.431 1503.42 704.361C1500.51 710.291 1565.09 741.931 1567.96 736.001Z" fill="#1A3248"/>
<path d="M1589.13 826.29L1539.53 798.819L1551.59 774.174L1603.83 796.595L1589.13 826.29Z" fill="white"/>
<path d="M1604.73 794.834L1588.2 828.143L1592.26 830.164L1608.78 796.856L1604.73 794.834Z" fill="#F8B345"/>
<g style="mix-blend-mode:multiply" opacity="0.4">
<path d="M1389.75 902.912V897.631H1401.07C1402.87 880.445 1419.56 866.964 1440.27 866.964C1440.27 866.964 1477.72 867.751 1492.05 867.798V939H1373.43V913.289H1389.75V902.912Z" fill="#B3A281"/>
</g>
<g style="mix-blend-mode:multiply" opacity="0.4">
<path d="M1694.62 884.151L1593.47 828.004L1592.41 830.135L1588.34 828.097L1589.5 825.827L1589.22 826.29L1539.66 798.819L1545.63 786.636L1717.09 871.272L1716.72 872.014C1711.22 882.622 1701.37 887.903 1694.62 884.151Z" fill="#B3A281"/>
</g>
<g style="mix-blend-mode:multiply" opacity="0.4">
<path d="M1520.11 834.073C1517.2 840.002 1500.37 837.732 1482.57 828.977C1464.78 820.221 1452.62 808.501 1455.53 802.432C1458.44 796.364 1522.98 828.143 1520.11 834.073Z" fill="#B3A281"/>
</g>
<g style="mix-blend-mode:multiply" opacity="0.4">
<path d="M1523.21 827.773C1519.32 823.603 1510.68 817.674 1492.47 808.733C1484.87 804.945 1477.06 801.604 1469.07 798.727C1465.72 797.396 1462.21 796.509 1458.63 796.086C1458.63 796.086 1475.73 767.133 1481.74 755.181L1541.19 784.551C1535.46 796.735 1523.21 827.773 1523.21 827.773Z" fill="#B3A281"/>
</g>
<path d="M1016.09 688.055C1015.72 688.142 1015.34 688.142 1014.98 688.055C1014.35 687.763 1013.86 687.234 1013.62 686.584C1013.38 685.934 1013.4 685.214 1013.68 684.581L1092.55 507.803C1092.75 507.332 1093.08 506.931 1093.51 506.65C1093.94 506.37 1094.44 506.223 1094.95 506.228C1095.46 506.229 1095.96 506.379 1096.39 506.658C1096.81 506.938 1097.15 507.335 1097.35 507.803L1176.31 684.488C1176.57 684.799 1176.75 685.166 1176.85 685.561C1176.94 685.955 1176.95 686.365 1176.86 686.761C1176.77 687.156 1176.59 687.525 1176.33 687.84C1176.08 688.155 1175.76 688.407 1175.39 688.577C1175.02 688.746 1174.62 688.828 1174.22 688.817C1173.81 688.806 1173.41 688.702 1173.06 688.513C1172.7 688.323 1172.39 688.054 1172.15 687.726C1171.92 687.397 1171.76 687.019 1171.69 686.619L1095.14 515.215L1018.67 686.619C1018.44 687.095 1018.07 687.487 1017.6 687.744C1017.14 688.001 1016.61 688.109 1016.09 688.055Z" fill="#3E99D5"/>
<path d="M1094.95 688.055C1094.26 688.055 1093.61 687.782 1093.12 687.295C1092.63 686.809 1092.36 686.149 1092.36 685.461V514.659C1092.36 513.971 1092.63 513.311 1093.12 512.824C1093.61 512.338 1094.26 512.064 1094.95 512.064C1095.64 512.064 1096.3 512.338 1096.78 512.824C1097.27 513.311 1097.54 513.971 1097.54 514.659V685.553C1097.52 686.225 1097.23 686.861 1096.75 687.328C1096.27 687.795 1095.62 688.055 1094.95 688.055Z" fill="#3E99D5"/>
<path d="M1016.13 691.344C1023.85 721.965 1056.21 744.989 1095 744.989C1133.78 744.989 1166.14 721.826 1173.86 691.344H1016.13Z" fill="#F8B345"/>
<path d="M1178.99 679.763H1011V691.344H1178.99V679.763Z" fill="#1A3248"/>
<path d="M1314.35 688.055C1313.98 688.072 1313.61 687.992 1313.29 687.823C1312.65 687.539 1312.15 687.015 1311.9 686.363C1311.65 685.712 1311.66 684.988 1311.94 684.349L1390.81 507.803C1391.01 507.332 1391.35 506.931 1391.77 506.65C1392.2 506.37 1392.7 506.223 1393.21 506.228C1393.72 506.229 1394.22 506.379 1394.65 506.658C1395.08 506.938 1395.41 507.335 1395.62 507.803L1474.62 684.488C1474.77 684.809 1474.86 685.158 1474.88 685.514C1474.89 685.87 1474.84 686.225 1474.71 686.558C1474.58 686.891 1474.39 687.196 1474.15 687.453C1473.9 687.71 1473.61 687.915 1473.28 688.055C1472.97 688.2 1472.62 688.281 1472.28 688.292C1471.93 688.303 1471.59 688.244 1471.26 688.119C1470.94 687.993 1470.64 687.804 1470.4 687.563C1470.15 687.321 1469.95 687.031 1469.81 686.712L1393.21 515.307L1316.75 686.712C1316.52 687.139 1316.17 687.492 1315.74 687.73C1315.32 687.968 1314.83 688.08 1314.35 688.055Z" fill="#3E99D5"/>
<path d="M1393.21 688.055C1392.53 688.055 1391.87 687.782 1391.38 687.295C1390.9 686.809 1390.63 686.149 1390.63 685.461V514.659C1390.63 513.971 1390.9 513.311 1391.38 512.824C1391.87 512.338 1392.53 512.064 1393.21 512.064C1393.9 512.064 1394.56 512.338 1395.04 512.824C1395.53 513.311 1395.8 513.971 1395.8 514.659V685.553C1395.78 686.225 1395.5 686.861 1395.01 687.328C1394.53 687.795 1393.88 688.055 1393.21 688.055Z" fill="#3E99D5"/>
<path d="M1314.39 691.344C1322.11 721.965 1354.47 744.989 1393.26 744.989C1432.05 744.989 1464.4 721.826 1472.12 691.344H1314.39Z" fill="#F8B345"/>
<path d="M1477.26 679.763H1309.26V691.344H1477.26V679.763Z" fill="#1A3248"/>
<path d="M1253.98 461.94H1234.33V827.078H1253.98V461.94Z" fill="#96CFE4"/>
<path d="M1260.96 703.481H1227.3V827.078H1260.96V703.481Z" fill="#1A3248"/>
<path d="M1331.59 827.078H1156.66V843.941H1331.59V827.078Z" fill="#3E99D5"/>
<path d="M1331.59 820.036H1156.66V827.078H1331.59V820.036Z" fill="white"/>
<path d="M1354.84 841.67H1133.41V863.026H1354.84V841.67Z" fill="#1A3248"/>
<path d="M1266.55 446.468C1266.55 450.912 1265.23 455.255 1262.77 458.95C1260.31 462.645 1256.81 465.525 1252.71 467.225C1248.61 468.926 1244.1 469.371 1239.75 468.504C1235.41 467.637 1231.41 465.497 1228.27 462.355C1225.14 459.213 1223 455.209 1222.14 450.851C1221.27 446.493 1221.72 441.975 1223.41 437.87C1225.11 433.764 1227.99 430.255 1231.67 427.787C1235.36 425.318 1239.69 424 1244.13 424C1250.07 424 1255.78 426.367 1259.98 430.581C1264.19 434.794 1266.55 440.509 1266.55 446.468Z" fill="#F8B345"/>
<path d="M1080.34 496.731L1084.04 495.666C1086.44 495.11 1089.96 494.044 1094.44 493.118C1098.93 492.191 1104.38 490.848 1110.62 489.782C1116.86 488.717 1123.89 487.327 1131.56 486.215C1146.96 483.945 1164.89 481.953 1184.08 480.61C1188.7 480.239 1193.79 479.961 1198.73 479.684C1203.68 479.406 1208.67 479.174 1213.71 479.035C1223.79 478.664 1234.05 478.572 1244.27 478.479C1254.48 478.386 1264.75 478.479 1274.82 478.989C1279.86 478.989 1284.9 479.313 1289.85 479.591C1294.79 479.869 1299.65 480.1 1304.46 480.471C1314.07 481.12 1323.36 482 1332.19 482.926C1341.02 483.853 1349.34 484.965 1357.02 486.076L1368.02 487.837L1377.96 489.69C1384.2 490.755 1389.65 492.052 1394.14 493.072C1398.62 494.091 1402.14 495.064 1404.54 495.666L1408.24 496.731L1410.41 497.426C1411.96 498.006 1413.25 499.102 1414.09 500.529C1414.92 501.957 1415.23 503.629 1414.98 505.263C1414.72 506.896 1413.91 508.392 1412.69 509.496C1411.46 510.6 1409.89 511.246 1408.24 511.324H1080.34C1078.45 511.312 1076.64 510.55 1075.31 509.204C1073.97 507.859 1073.22 506.04 1073.22 504.143C1073.22 502.622 1073.7 501.138 1074.6 499.911C1075.5 498.685 1076.76 497.781 1078.22 497.334L1080.34 496.731Z" fill="#1A3248"/>
<path d="M1354.84 835.509H1133.41V841.67H1354.84V835.509Z" fill="white"/>
<path d="M1100.54 502.753C1100.53 503.85 1100.2 504.92 1099.59 505.829C1098.97 506.737 1098.1 507.442 1097.09 507.856C1096.07 508.269 1094.96 508.373 1093.89 508.153C1092.81 507.933 1091.83 507.4 1091.06 506.621C1090.29 505.842 1089.76 504.851 1089.55 503.774C1089.34 502.697 1089.45 501.582 1089.88 500.569C1090.3 499.556 1091.01 498.69 1091.92 498.081C1092.83 497.472 1093.9 497.147 1095 497.147C1095.73 497.147 1096.45 497.293 1097.13 497.575C1097.81 497.857 1098.42 498.271 1098.94 498.792C1099.45 499.313 1099.86 499.931 1100.13 500.611C1100.41 501.291 1100.55 502.019 1100.54 502.753Z" fill="white"/>
<path d="M1398.81 502.753C1398.8 503.85 1398.47 504.92 1397.85 505.829C1397.24 506.737 1396.37 507.442 1395.35 507.856C1394.34 508.269 1393.22 508.373 1392.15 508.153C1391.08 507.933 1390.09 507.4 1389.32 506.621C1388.55 505.842 1388.03 504.851 1387.82 503.774C1387.61 502.697 1387.72 501.582 1388.14 500.569C1388.56 499.556 1389.27 498.69 1390.18 498.081C1391.09 497.472 1392.17 497.147 1393.26 497.147C1393.99 497.147 1394.72 497.293 1395.39 497.575C1396.07 497.857 1396.68 498.271 1397.2 498.792C1397.72 499.313 1398.12 499.931 1398.4 500.611C1398.68 501.291 1398.81 502.019 1398.81 502.753Z" fill="white"/>
<path d="M1259.43 494.925C1259.43 497.957 1258.53 500.922 1256.85 503.444C1255.17 505.965 1252.78 507.93 1249.98 509.091C1247.19 510.252 1244.11 510.555 1241.14 509.964C1238.18 509.372 1235.45 507.912 1233.31 505.767C1231.17 503.623 1229.71 500.89 1229.12 497.916C1228.53 494.942 1228.83 491.858 1229.99 489.057C1231.15 486.255 1233.11 483.86 1235.63 482.175C1238.14 480.49 1241.1 479.591 1244.13 479.591C1248.19 479.591 1252.08 481.206 1254.95 484.082C1257.82 486.958 1259.43 490.858 1259.43 494.925Z" fill="white"/>
<g style="mix-blend-mode:multiply" opacity="0.3">
<path d="M1397.24 511.416H1408.05C1409.7 511.338 1411.27 510.692 1412.5 509.588C1413.73 508.484 1414.54 506.989 1414.79 505.355C1415.05 503.721 1414.73 502.05 1413.9 500.622C1413.07 499.194 1411.77 498.098 1410.23 497.518L1408.05 496.824L1404.36 495.758C1401.95 495.156 1398.44 494.09 1393.95 493.164C1389.47 492.237 1384.01 490.848 1377.77 489.782L1367.84 487.929L1356.83 486.169C1349.16 485.057 1340.79 483.991 1332.01 483.019C1323.23 482.046 1313.93 481.212 1304.27 480.563C1299.65 480.193 1294.56 479.961 1289.66 479.683C1284.76 479.405 1279.68 479.22 1274.64 479.081C1267.8 478.803 1260.77 478.71 1253.88 478.664V466.666C1258.44 464.443 1262.1 460.74 1264.29 456.162C1266.47 451.583 1267.05 446.398 1265.92 441.45C1264.79 436.503 1262.02 432.085 1258.06 428.917C1254.1 425.748 1249.19 424.015 1244.13 424V863.026H1354.85V835.509H1331.73V820.036H1260.96V703.481H1253.93V511.416H1389.19L1314.03 679.763H1309.4V691.344H1314.53C1322.25 721.965 1354.61 744.989 1393.4 744.989C1432.18 744.989 1464.54 721.826 1472.26 691.344H1477.4V679.763H1472.77L1397.24 511.416ZM1390.63 679.763H1319.8L1390.63 521.283V679.763ZM1395.8 679.763V521.283L1466.72 679.763H1395.8Z" fill="#B3A281"/>
</g>
</g>
<g clip-path="url(#clip1_4645_42)">
<path d="M1669.78 618.866C1669.78 618.866 1677.86 627.606 1686.06 629.432C1694.26 631.258 1700 633.601 1700.06 638.611C1700.12 643.62 1676.46 646.93 1667.07 641.872C1653.05 634.334 1651.63 636.609 1650.08 632.84C1648.53 629.07 1651.94 618.983 1651.84 617.782C1651.72 616.308 1669.78 618.866 1669.78 618.866Z" fill="#202338"/>
<path d="M1587.33 621.151C1587.33 621.151 1593.27 629.656 1601.23 631.619C1609.19 633.581 1614.15 637.233 1614.54 642.106C1614.93 646.979 1596.01 653.355 1582.79 644.801C1574.08 639.177 1570.84 639.499 1569.08 635.925C1567.33 632.351 1570 622.342 1569.82 621.18C1569.63 619.744 1587.33 621.151 1587.33 621.151Z" fill="#202338"/>
<path d="M1668.87 614.686C1669.25 616.06 1669.56 617.456 1669.78 618.866C1669.62 618.954 1651.25 621.073 1651.84 617.782C1652.29 615.126 1652.94 612.226 1652.94 612.226L1668.87 614.686Z" fill="#81807E"/>
<path d="M1587.09 616.942C1587.25 618.34 1587.33 619.745 1587.34 621.151C1587.19 621.239 1569.72 624.422 1569.78 621.151C1569.94 619.193 1570.32 617.26 1570.92 615.39L1587.09 616.942Z" fill="#81807E"/>
<path d="M1652.21 369.723C1652.21 369.723 1658.87 432.394 1662.34 453.848C1666.39 478.934 1667.77 499.665 1668.9 512.643C1670.31 528.979 1670.59 609.316 1671.59 614.081C1672.59 618.846 1649.5 615.39 1649.5 615.39C1649.5 615.39 1638.15 510.426 1633.9 493.035C1630 476.844 1615.38 407.103 1611.73 411.546C1608.08 415.989 1603.67 492.908 1601.01 505.68C1598.34 518.453 1590.28 618.446 1590.28 618.446C1590.28 618.446 1571.91 621.981 1567.02 617.977C1567.02 617.977 1564.8 531.811 1566.5 507.868C1567.15 498.737 1555.46 398.441 1570.4 358.063C1578.4 336.737 1652.21 369.723 1652.21 369.723Z" fill="#292C47"/>
<path d="M1537.96 378.619C1537.96 378.619 1549.2 381.929 1553.91 381.089C1558.62 380.249 1556.23 324.335 1556.42 312.735C1556.56 303.292 1561.9 278.381 1561.9 278.381C1562.42 280.247 1569.63 306.104 1569.87 318.525C1570.14 331.425 1568.14 380.738 1568.14 380.738L1586.03 388.901L1647.88 390.62L1656.89 390.747C1656.89 390.747 1655.46 361.511 1654.94 351.501C1654.61 345.125 1653.34 333.729 1653.66 322.626C1653.66 322.626 1653.45 310.909 1654.63 305.88C1654.76 283.635 1656.15 261.605 1656.15 261.605C1656.92 251.515 1657.46 242.075 1657.76 233.287C1655.26 231.998 1652.23 230.494 1649.82 229.381C1642.37 226.012 1631.93 221.432 1625.21 218.454C1621.31 216.716 1617.46 215.378 1617.46 215.378C1617.46 215.378 1590.76 212.888 1588.58 213.073C1585.73 213.823 1582.92 214.752 1580.18 215.856C1570.69 219.342 1552.41 226.432 1549.5 228.463C1545.23 231.392 1536.2 301.7 1535.79 306.671C1535.06 315.488 1537.96 378.619 1537.96 378.619Z" fill="white"/>
<path d="M1588.72 212.965C1590.67 230.415 1610.7 230.415 1610.7 230.415C1610.7 230.415 1618.99 223.404 1618.72 218.209V217.867C1618.6 216.891 1617.47 215.729 1617.37 213.815C1617.37 213.297 1617.37 212.77 1617.37 212.243C1617.37 210.915 1617.45 209.606 1617.53 208.698C1617.61 207.79 1617.67 207.38 1617.67 207.38C1617.67 207.38 1614.44 204.089 1610.34 200.173C1603.18 193.338 1593.32 184.549 1593.31 188.016C1593.32 188.24 1593.35 188.463 1593.4 188.68C1595.06 196.551 1588.72 212.965 1588.72 212.965Z" fill="#FFC7AB"/>
<path d="M1598.56 202.409C1598.56 202.409 1601.07 215.104 1617.63 218.033L1618.72 218.209V217.867C1618.6 216.891 1617.47 215.729 1617.37 213.815C1617.37 213.297 1617.37 212.77 1617.37 212.242C1616.63 212.408 1606.42 214.713 1598.56 202.409Z" fill="#A77860"/>
<path d="M1590.59 357.077C1590.59 357.077 1588.97 366.969 1588.84 369.547L1585.39 368.883C1585.39 368.883 1586.37 358.415 1586.91 356.667L1590.59 357.077Z" fill="#5D676C"/>
<path d="M1592.83 186.942C1593.81 191.375 1594.89 194.675 1595.13 195.945C1595.52 197.327 1596.11 198.644 1596.89 199.851C1599.61 204.44 1605.15 210.934 1611.81 212.243C1612.55 212.394 1613.3 212.473 1614.05 212.477C1616.85 212.477 1620.3 212.018 1622.83 209.118C1642.76 186.238 1637.88 162.754 1637.88 162.754C1637.88 162.754 1602.9 144.073 1594.41 153.682C1588.47 160.42 1590.63 176.532 1592.83 186.942Z" fill="#FFC7AB"/>
<path d="M1637.88 162.754C1637.88 162.754 1641.41 163.35 1643.8 157.159C1646.19 150.968 1644.86 148.898 1644.86 148.898C1644.86 148.898 1630.89 139.133 1625.53 137.092C1620.17 135.051 1606.73 131.174 1602.67 133.977C1602.67 133.977 1595.31 130.481 1590.2 142.511C1582.08 161.602 1592.29 184.198 1592.29 184.198C1592.29 184.198 1595.27 171.211 1598.64 170.156C1602 169.101 1603.57 173.749 1603.57 173.749L1609.35 176.161C1609.35 176.161 1604.78 154.923 1615.95 156.68C1627.13 158.438 1631.35 162.451 1637.88 162.754Z" fill="#1A3248"/>
<path d="M1604.64 168.564C1605.43 162.705 1595.29 158.155 1594.57 164.297C1593.85 170.439 1597.73 177.372 1600.2 177.714C1602.66 178.056 1604.04 173.037 1604.64 168.564Z" fill="#FFC7AB"/>
<path d="M1534.41 414.68C1534.41 414.68 1535.45 400.814 1539.28 398.715C1543.12 396.615 1540.85 400.882 1540.85 400.882C1540.85 400.882 1538.56 410.921 1538.04 414.993C1538.01 415.208 1534.41 414.68 1534.41 414.68Z" fill="#434343"/>
<path d="M1572.25 424.475L1521.77 409.808L1520.98 470.262L1570.98 500.27L1572.25 424.475Z" fill="#5A5C5A"/>
<path d="M1570.98 500.27L1564.61 501.315L1516 471.053L1517.56 410.022L1521.77 409.808L1570.98 500.27Z" fill="#5A5C5A"/>
<path d="M1652.96 270.687C1652.96 270.813 1653.53 272.171 1654.25 274.592C1654 273.239 1653.56 271.925 1652.96 270.687Z" fill="#E2D2CA"/>
<path d="M1602.37 223.238L1610.7 230.416C1610.7 230.416 1601.08 229.8 1599.29 228.248L1602.37 223.238Z" fill="#45403D"/>
<path d="M1655.19 381.431C1655.19 381.431 1616.06 384.653 1581.79 381.431V392.319C1581.79 392.319 1633.25 399.515 1656.87 390.239L1655.19 381.431Z" fill="#292C47"/>
<path d="M1622.1 217.066L1621.81 216.959C1621.81 216.959 1628.18 231.44 1632.96 263.831C1634.79 276.252 1638.19 297.178 1640.66 318.515C1642.61 335.349 1647.06 352.624 1648.46 365.513C1649.92 378.862 1654.31 418.195 1654.31 418.195L1665.04 411.663C1666.56 410.286 1668.7 408.508 1668.08 406.594C1665.15 397.386 1659.51 366.968 1656.18 340.456C1656.18 340.456 1656.18 340.456 1656.18 340.398C1656.03 339.119 1655.87 337.859 1655.72 336.599C1655.72 336.534 1655.72 336.469 1655.72 336.404C1655.09 331.092 1654.57 326.014 1654.19 321.366C1653.96 317.87 1654.12 314.358 1654.67 310.898C1654.59 287.091 1656.2 261.682 1656.2 261.682C1656.98 251.41 1657.53 241.808 1657.83 232.876C1655.26 231.821 1652.55 230.698 1649.87 229.458C1644.8 227.124 1638.39 224.244 1632.69 221.646L1625.26 218.336L1622.1 217.066Z" fill="#1A3248"/>
<path d="M1670.06 305.625C1670.06 305.625 1661.91 306.094 1657.15 305.947C1653.47 305.83 1643.64 309.853 1641.69 312.06C1639.74 314.267 1635.74 326.346 1634.51 327.323C1633.28 328.299 1635.63 329.793 1637.86 328.524C1637.86 328.524 1640.97 333.768 1646.03 330.848C1651.09 327.928 1655.96 324.403 1658.66 323.163C1661.36 321.923 1676.21 316.005 1676.21 316.005C1676.21 316.005 1674.07 303.614 1670.06 305.625Z" fill="#FFC7AB"/>
<path d="M1557.24 313.232C1556.41 324.032 1561.14 383.774 1556.42 384.614C1551.7 385.453 1534.41 381.772 1534.41 381.772C1534.41 381.772 1532.23 317.323 1532.94 310.585C1533.43 305.703 1541.53 231.929 1545.79 228.97C1548.25 227.261 1566.52 220.992 1575.48 217.564C1577.13 216.939 1578.71 216.344 1580.18 215.807C1582.13 217.857 1602.24 253.968 1603.81 283.322C1604.29 292.257 1602.14 311.113 1600.49 326.532C1598.73 342.966 1596.78 355.826 1595.37 369.546C1592.56 396.634 1590.59 418.195 1590.59 418.195L1562.8 406.194C1558.29 404.007 1552.08 395.052 1553.74 390.453C1560.18 373.003 1568.29 343.171 1568.3 327.86C1568.3 327.86 1565.19 290.352 1562.73 282.101C1562.69 282.101 1558.29 299.502 1557.24 313.232Z" fill="#1A3248"/>
<path d="M1552.08 383.959C1552.08 383.959 1553.45 389.975 1555.3 396.009C1557.16 402.044 1558.9 403.919 1558.06 407.395C1557.43 409.983 1554.37 411.887 1553.62 411.047C1552.87 410.208 1552.64 400.111 1548.33 400.091C1544.02 400.071 1549.42 412.6 1546.87 411.653C1544.32 410.706 1534.51 405.315 1535.17 400.238C1535.83 395.16 1539.89 391.547 1539.75 383.94C1539.63 377.046 1541.89 374.175 1541.89 374.175L1552.08 383.959Z" fill="#FFC7AB"/>
<path d="M1548.76 399.584C1548.76 399.584 1554.5 401.097 1553.86 419.914L1547.37 418.772C1547.37 418.772 1547.64 408.362 1545.79 402.669C1545.79 402.708 1546.23 399.027 1548.76 399.584Z" fill="#5A5C5A"/>
<path d="M1557.93 343.435L1557.64 390.912C1557.64 390.912 1547.89 390.492 1534.37 385.668L1533.4 318.71L1557.93 343.435Z" fill="#1A3248"/>
<path d="M1619.8 224.508C1619.8 224.508 1620.52 234.419 1611.86 234.644C1603.2 234.868 1596.33 226.832 1596.33 226.832L1610.7 230.416L1619.47 223.238L1619.8 224.508Z" fill="#5C5552"/>
<path d="M1589.88 209.704C1589.88 209.704 1598.09 219.908 1602.37 223.238L1595.35 234.644L1583.28 214.704L1589.88 209.704Z" fill="#7A716D"/>
<path d="M1618.11 225.113L1610.7 230.416C1610.7 230.416 1617.21 218.923 1617.34 213.815L1618.11 225.113Z" fill="#45403D"/>
<path d="M1617.34 213.815L1622.1 217.067L1627.39 232.369L1618.11 225.113L1617.34 213.815Z" fill="#7A716D"/>
<path d="M1671.58 305.049L1668.54 305.703C1668.54 305.703 1673.51 312.597 1673.41 318.456L1676.88 317.558C1676.88 317.558 1676.79 307.793 1671.58 305.049Z" fill="#7A716D"/>
<path d="M1713.04 300.547C1701.87 308.271 1676.66 323.182 1676.66 323.182C1676.66 323.182 1674.17 306.211 1671.58 305.049C1671.58 305.049 1688.83 292.657 1694.14 287.15C1694.14 287.15 1676.09 275.256 1664.24 267.239C1661.31 265.286 1658.88 263.597 1657.35 262.523C1656.88 262.181 1656.49 261.898 1656.19 261.673C1651.32 258.011 1637.73 238.628 1628.56 220.338C1628.56 220.338 1652.11 226.91 1661.42 233.921C1672.61 242.358 1680.06 249.545 1683.06 251.547C1686.05 253.549 1719.54 278.478 1720.95 282.336C1722.35 286.193 1724.2 292.823 1713.04 300.547Z" fill="#1A3248"/>
<path d="M1668.54 305.703C1668.54 305.703 1671.95 307.588 1673.53 317.099C1673.53 317.099 1673.23 317.617 1670.13 318.456C1670.13 318.456 1668.53 307.852 1664.78 305.869C1666.02 305.612 1667.29 305.556 1668.54 305.703Z" fill="#292C47"/>
<path d="M1671.03 307.851L1665.64 308.544C1665.53 308.564 1665.41 308.547 1665.3 308.497C1665.19 308.446 1665.11 308.364 1665.05 308.261L1664.07 306.591C1664.03 306.51 1664.01 306.419 1664.01 306.326C1664 306.234 1664.03 306.142 1664.07 306.06C1664.11 305.977 1664.17 305.906 1664.25 305.853C1664.32 305.799 1664.41 305.764 1664.5 305.752L1669.9 305.058C1670.02 305.042 1670.13 305.061 1670.24 305.111C1670.34 305.162 1670.43 305.242 1670.49 305.342L1671.46 307.021C1671.51 307.102 1671.53 307.193 1671.53 307.285C1671.53 307.377 1671.51 307.468 1671.47 307.549C1671.42 307.631 1671.36 307.701 1671.29 307.754C1671.21 307.806 1671.13 307.84 1671.03 307.851Z" fill="#292C47"/>
<path d="M1670.25 307.432L1666.22 307.95C1666.13 307.963 1666.04 307.949 1665.96 307.911C1665.89 307.872 1665.82 307.811 1665.78 307.735L1665.08 306.485C1665.04 306.424 1665.02 306.356 1665.02 306.286C1665.02 306.216 1665.04 306.147 1665.07 306.085C1665.1 306.023 1665.15 305.97 1665.2 305.931C1665.26 305.891 1665.33 305.867 1665.4 305.86L1669.43 305.342C1669.52 305.327 1669.61 305.339 1669.69 305.378C1669.77 305.416 1669.84 305.479 1669.88 305.557L1670.59 306.807C1670.62 306.869 1670.63 306.937 1670.63 307.007C1670.63 307.077 1670.62 307.145 1670.58 307.207C1670.55 307.268 1670.5 307.321 1670.45 307.36C1670.39 307.399 1670.32 307.424 1670.25 307.432Z" fill="#454A78"/>
</g>
<defs>
<filter id="filter0_d_4645_42" x="-11" y="204.908" width="1946" height="1211.43" filterUnits="userSpaceOnUse" color-interpolation-filters="sRGB">
<feFlood flood-opacity="0" result="BackgroundImageFix"/>
<feColorMatrix in="SourceAlpha" type="matrix" values="0 0 0 0 0 0 0 0 0 0 0 0 0 0 0 0 0 0 127 0" result="hardAlpha"/>
<feOffset dy="4"/>
<feGaussianBlur stdDeviation="2"/>
<feColorMatrix type="matrix" values="0 0 0 0 1 0 0 0 0 1 0 0 0 0 1 0 0 0 0.25 0"/>
<feBlend mode="normal" in2="BackgroundImageFix" result="effect1_dropShadow_4645_42"/>
<feBlend mode="normal" in="SourceGraphic" in2="effect1_dropShadow_4645_42" result="shape"/>
</filter>
<clipPath id="clip0_4645_42">
<rect width="709" height="515" fill="white" transform="translate(1011 424)"/>
</clipPath>
<clipPath id="clip1_4645_42">
<rect width="206" height="516" fill="white" transform="translate(1516 133)"/>
</clipPath>
</defs>
</svg>
