<svg width="206" height="516" viewBox="0 0 206 516" fill="none" xmlns="http://www.w3.org/2000/svg">
<g clip-path="url(#clip0_124_2240)">
<path d="M153.776 485.866C153.776 485.866 161.859 494.606 170.059 496.432C178.26 498.258 184.003 500.601 184.061 505.611C184.12 510.62 160.455 513.93 151.065 508.872C137.054 501.334 135.63 503.609 134.08 499.84C132.529 496.07 135.942 485.983 135.845 484.782C135.718 483.308 153.776 485.866 153.776 485.866Z" fill="#202338"/>
<path d="M71.3349 488.151C71.3349 488.151 77.273 496.656 85.2295 498.619C93.1859 500.581 98.149 504.233 98.539 509.106C98.929 513.979 80.0129 520.355 66.7912 511.801C58.0839 506.177 54.837 506.499 53.0819 502.925C51.3268 499.351 53.9985 489.342 53.8229 488.18C53.6279 486.744 71.3349 488.151 71.3349 488.151Z" fill="#202338"/>
<path d="M152.869 481.686C153.254 483.06 153.557 484.456 153.776 485.866C153.62 485.954 135.25 488.073 135.845 484.782C136.293 482.126 136.937 479.226 136.937 479.226L152.869 481.686Z" fill="#81807E"/>
<path d="M71.0914 483.942C71.2482 485.34 71.3296 486.745 71.3351 488.151C71.1889 488.239 53.7159 491.422 53.7841 488.151C53.9415 486.193 54.3243 484.26 54.925 482.39L71.0914 483.942Z" fill="#81807E"/>
<path d="M136.205 236.723C136.205 236.723 142.875 299.394 146.336 320.848C150.393 345.934 151.767 366.665 152.898 379.643C154.312 395.979 154.585 476.316 155.59 481.081C156.594 485.846 133.505 482.39 133.505 482.39C133.505 482.39 122.155 377.426 117.904 360.035C114.003 343.844 99.3776 274.103 95.7309 278.546C92.0842 282.989 87.6672 359.908 85.0053 372.68C82.3434 385.453 74.2797 485.446 74.2797 485.446C74.2797 485.446 55.9096 488.981 51.0246 484.977C51.0246 484.977 48.8015 398.811 50.4981 374.868C51.1514 365.737 39.4604 265.441 54.3983 225.063C62.4035 203.737 136.205 236.723 136.205 236.723Z" fill="#292C47"/>
<path d="M21.9583 245.619C21.9583 245.619 33.2007 248.929 37.9102 248.089C42.6197 247.249 40.2308 191.335 40.4161 179.735C40.5624 170.292 45.8959 145.381 45.8959 145.381C46.4224 147.247 53.6281 173.104 53.8719 185.525C54.1351 198.425 52.1363 247.738 52.1363 247.738L70.0285 255.901L131.876 257.62L140.886 257.747C140.886 257.747 139.462 228.511 138.936 218.501C138.614 212.125 137.337 200.729 137.658 189.626C137.658 189.626 137.454 177.909 138.633 172.88C138.76 150.635 140.155 128.605 140.155 128.605C140.922 118.515 141.458 109.075 141.763 100.287C139.257 98.9978 136.235 97.494 133.817 96.3808C126.367 93.0119 115.934 88.4322 109.206 85.4538C105.306 83.7157 101.464 82.3779 101.464 82.3779C101.464 82.3779 74.7576 79.8878 72.5832 80.0734C69.7257 80.8226 66.9185 81.7522 64.1782 82.8564C54.6909 86.3425 36.4086 93.4318 33.503 95.4629C29.2322 98.3924 20.2032 168.7 19.7937 173.671C19.0624 182.488 21.9583 245.619 21.9583 245.619Z" fill="white"/>
<path d="M72.7197 79.9654C74.6698 97.4154 94.6975 97.4154 94.6975 97.4154C94.6975 97.4154 102.985 90.4042 102.722 85.2092V84.8674C102.595 83.891 101.474 82.7289 101.367 80.815C101.367 80.2974 101.367 79.7701 101.367 79.2428C101.367 77.9148 101.455 76.6063 101.533 75.6981C101.611 74.79 101.669 74.3799 101.669 74.3799C101.669 74.3799 98.4417 71.0891 94.3367 67.1733C87.1798 60.3379 77.322 51.5494 77.3122 55.016C77.317 55.2399 77.3464 55.4626 77.4 55.68C79.0576 63.5505 72.7197 79.9654 72.7197 79.9654Z" fill="#FFC7AB"/>
<path d="M82.5581 69.4092C82.5581 69.4092 85.0738 82.1036 101.63 85.0331L102.722 85.2089V84.8671C102.595 83.8906 101.474 82.7286 101.367 80.8147C101.367 80.2971 101.367 79.7698 101.367 79.2425C100.626 79.4085 90.4171 81.713 82.5581 69.4092Z" fill="#A77860"/>
<path d="M74.5918 224.077C74.5918 224.077 72.9732 233.969 72.8367 236.547L69.3948 235.883C69.3948 235.883 70.3698 225.415 70.9061 223.667L74.5918 224.077Z" fill="#5D676C"/>
<path d="M76.8344 53.9415C77.8094 58.3748 78.8917 61.6754 79.1258 62.9448C79.517 64.3274 80.1118 65.6438 80.8906 66.8508C83.611 71.4403 89.1493 77.934 95.809 79.2425C96.547 79.3944 97.2982 79.4729 98.0516 79.4769C100.85 79.4769 104.302 79.0179 106.827 76.1177C126.757 53.2384 121.882 29.7537 121.882 29.7537C121.882 29.7537 86.8969 11.0733 78.414 20.682C72.4661 27.4199 74.6307 43.5321 76.8344 53.9415Z" fill="#FFC7AB"/>
<path d="M121.882 29.7541C121.882 29.7541 125.412 30.3497 127.801 24.1588C130.19 17.9678 128.863 15.8976 128.863 15.8976C128.863 15.8976 114.891 6.13264 109.528 4.09177C104.165 2.05089 90.729 -1.8258 86.6728 0.976744C86.6728 0.976744 79.3111 -2.51911 74.2018 9.51132C66.0796 28.6018 76.2885 51.1979 76.2885 51.1979C76.2885 51.1979 79.2721 38.2105 82.6361 37.1559C86 36.1013 87.5698 40.7494 87.5698 40.7494L93.3519 43.1614C93.3519 43.1614 88.7789 21.9226 99.9531 23.6803C111.127 25.438 115.349 29.4514 121.882 29.7541Z" fill="#1A3248"/>
<path d="M88.6423 35.5642C89.432 29.7052 79.2915 25.1548 78.5699 31.2969C77.8484 37.4391 81.7291 44.3722 84.196 44.714C86.6629 45.0557 88.0377 40.0366 88.6423 35.5642Z" fill="#FFC7AB"/>
<path d="M18.4089 281.68C18.4089 281.68 19.4522 267.814 23.2842 265.715C27.1162 263.615 24.8541 267.882 24.8541 267.882C24.8541 267.882 22.5627 277.921 22.0361 281.993C22.0069 282.208 18.4089 281.68 18.4089 281.68Z" fill="#434343"/>
<path d="M56.2508 291.475L5.77222 276.808L4.98242 337.262L54.9833 367.27L56.2508 291.475Z" fill="#5A5C5A"/>
<path d="M54.9834 367.27L48.6065 368.315L0 338.053L1.56009 277.022L5.77233 276.808L54.9834 367.27Z" fill="#5A5C5A"/>
<path d="M136.956 137.687C136.956 137.813 137.532 139.171 138.253 141.592C137.996 140.239 137.56 138.925 136.956 137.687Z" fill="#E2D2CA"/>
<path d="M86.3705 90.2383L94.6975 97.4155C94.6975 97.4155 85.0834 96.8003 83.2893 95.2477L86.3705 90.2383Z" fill="#45403D"/>
<path d="M139.189 248.431C139.189 248.431 100.06 251.653 65.7869 248.431V259.319C65.7869 259.319 117.25 266.515 140.866 257.239L139.189 248.431Z" fill="#292C47"/>
<path d="M106.096 84.0664L105.813 83.959C105.813 83.959 112.18 98.4404 116.958 130.831C118.791 143.252 122.194 164.178 124.661 185.515C126.611 202.349 131.057 219.624 132.461 232.513C133.924 245.862 138.312 285.195 138.312 285.195L149.037 278.663C150.558 277.286 152.703 275.508 152.079 273.594C149.154 264.386 143.509 233.968 140.184 207.456C140.184 207.456 140.184 207.456 140.184 207.398C140.028 206.119 139.872 204.859 139.716 203.599C139.72 203.534 139.72 203.469 139.716 203.404C139.092 198.092 138.565 193.014 138.195 188.366C137.956 184.87 138.116 181.358 138.672 177.898C138.594 154.091 140.203 128.682 140.203 128.682C140.983 118.41 141.526 108.808 141.832 99.8759C139.257 98.8212 136.547 97.6983 133.865 96.4581C128.795 94.1243 122.389 91.2436 116.695 88.6462L109.265 85.3358L106.096 84.0664Z" fill="#1A3248"/>
<path d="M154.059 172.625C154.059 172.625 145.907 173.094 141.149 172.947C137.473 172.83 127.645 176.853 125.694 179.06C123.744 181.267 119.737 193.346 118.508 194.323C117.28 195.299 119.63 196.793 121.862 195.524C121.862 195.524 124.973 200.768 130.033 197.848C135.094 194.928 139.959 191.403 142.66 190.163C145.361 188.923 160.211 183.005 160.211 183.005C160.211 183.005 158.066 170.614 154.059 172.625Z" fill="#FFC7AB"/>
<path d="M41.2351 180.232C40.4063 191.032 45.1353 250.774 40.416 251.614C35.6968 252.453 18.409 248.772 18.409 248.772C18.409 248.772 16.2347 184.323 16.9367 177.585C17.434 172.703 25.5269 98.9286 29.7879 95.9698C32.2548 94.2609 50.5176 87.9918 59.4784 84.5643C61.1262 83.9394 62.7058 83.3437 64.1782 82.8066C66.1283 84.8573 86.2437 120.968 87.8135 150.322C88.2913 159.257 86.1364 178.113 84.4886 193.532C82.7335 209.966 80.7834 222.826 79.3695 236.546C76.5614 263.634 74.5917 285.195 74.5917 285.195L46.8027 273.194C42.2882 271.007 36.077 262.052 37.7444 257.453C44.1798 240.003 52.2922 210.171 52.302 194.86C52.302 194.86 49.1915 157.352 46.7344 149.101C46.6857 149.101 42.2882 166.502 41.2351 180.232Z" fill="#1A3248"/>
<path d="M36.077 250.959C36.077 250.959 37.4518 256.975 39.3044 263.009C41.157 269.044 42.9024 270.919 42.0638 274.395C41.43 276.983 38.3684 278.887 37.6176 278.047C36.8668 277.208 36.6425 267.111 32.3328 267.091C28.023 267.071 33.4248 279.6 30.8702 278.653C28.3155 277.706 18.5065 272.315 19.1695 267.238C19.8326 262.16 23.8888 258.547 23.7523 250.94C23.6255 244.046 25.8877 241.175 25.8877 241.175L36.077 250.959Z" fill="#FFC7AB"/>
<path d="M32.762 266.584C32.762 266.584 38.4953 268.097 37.8615 286.914L31.3677 285.772C31.3677 285.772 31.6407 275.362 29.7881 269.669C29.7881 269.708 30.2269 266.027 32.762 266.584Z" fill="#5A5C5A"/>
<path d="M41.9274 210.435L41.6447 257.912C41.6447 257.912 31.8941 257.492 18.3701 252.668L17.395 185.71L41.9274 210.435Z" fill="#1A3248"/>
<path d="M103.804 91.5077C103.804 91.5077 104.516 101.419 95.8576 101.644C87.1991 101.868 80.3347 93.8318 80.3347 93.8318L94.6973 97.4155L103.473 90.2383L103.804 91.5077Z" fill="#5C5552"/>
<path d="M73.8799 76.7041C73.8799 76.7041 82.0899 86.9085 86.3704 90.2383L79.35 101.644L67.2788 81.7038L73.8799 76.7041Z" fill="#7A716D"/>
<path d="M102.108 92.1135L94.6973 97.4159C94.6973 97.4159 101.211 85.9225 101.337 80.8154L102.108 92.1135Z" fill="#45403D"/>
<path d="M101.337 80.8154L106.096 84.0672L111.39 99.3689L102.108 92.1135L101.337 80.8154Z" fill="#7A716D"/>
<path d="M155.58 172.049L152.538 172.703C152.538 172.703 157.51 179.597 157.413 185.456L160.884 184.558C160.884 184.558 160.787 174.793 155.58 172.049Z" fill="#7A716D"/>
<path d="M197.039 167.547C185.865 175.271 160.66 190.182 160.66 190.182C160.66 190.182 158.174 173.211 155.58 172.049C155.58 172.049 172.829 159.657 178.143 154.15C178.143 154.15 160.095 142.256 148.238 134.239C145.313 132.286 142.875 130.597 141.354 129.523C140.876 129.181 140.486 128.898 140.194 128.673C135.318 125.011 121.726 105.628 112.561 87.3379C112.561 87.3379 136.108 93.9097 145.42 100.921C156.614 109.358 164.063 116.545 167.056 118.547C170.05 120.549 203.543 145.478 204.947 149.336C206.351 153.193 208.204 159.823 197.039 167.547Z" fill="#1A3248"/>
<path d="M152.538 172.703C152.538 172.703 155.95 174.588 157.53 184.099C157.53 184.099 157.228 184.617 154.127 185.456C154.127 185.456 152.528 174.852 148.784 172.869C150.018 172.612 151.286 172.556 152.538 172.703Z" fill="#292C47"/>
<path d="M155.034 174.851L149.642 175.544C149.526 175.564 149.406 175.547 149.3 175.497C149.194 175.446 149.105 175.364 149.047 175.261L148.072 173.591C148.029 173.51 148.006 173.419 148.005 173.326C148.005 173.234 148.026 173.142 148.069 173.06C148.111 172.977 148.172 172.906 148.247 172.853C148.322 172.799 148.41 172.764 148.501 172.752L153.903 172.058C154.017 172.042 154.134 172.061 154.238 172.111C154.342 172.162 154.429 172.242 154.488 172.342L155.463 174.021C155.506 174.102 155.53 174.193 155.53 174.285C155.531 174.377 155.509 174.468 155.467 174.549C155.425 174.631 155.363 174.701 155.288 174.754C155.212 174.806 155.125 174.84 155.034 174.851Z" fill="#292C47"/>
<path d="M154.254 174.432L150.217 174.95C150.131 174.963 150.042 174.949 149.964 174.911C149.886 174.872 149.821 174.811 149.778 174.735L149.076 173.485C149.042 173.424 149.023 173.356 149.022 173.286C149.02 173.216 149.036 173.147 149.068 173.085C149.1 173.023 149.147 172.97 149.205 172.931C149.262 172.891 149.329 172.867 149.398 172.86L153.435 172.342C153.522 172.327 153.613 172.339 153.693 172.378C153.774 172.416 153.84 172.479 153.883 172.557L154.585 173.807C154.617 173.869 154.634 173.937 154.634 174.007C154.633 174.077 154.616 174.145 154.583 174.207C154.551 174.268 154.504 174.321 154.446 174.36C154.389 174.399 154.323 174.424 154.254 174.432Z" fill="#454A78"/>
</g>
<defs>
<clipPath id="clip0_124_2240">
<rect width="206" height="516" fill="white"/>
</clipPath>
</defs>
</svg>
