<svg width="709" height="515" viewBox="0 0 709 515" fill="none" xmlns="http://www.w3.org/2000/svg">
<g clip-path="url(#clip0_124_2198)">
<path d="M389.887 512.498V476.642C389.887 458.112 407.547 442.964 429.274 442.964C429.274 442.964 469.03 443.798 482.344 443.798C495.657 443.798 533.657 442.964 533.657 442.964C555.384 442.964 572.997 458.066 572.997 476.642V512.498H389.887Z" fill="#1A3248"/>
<path d="M583.399 478.912H378.747V495.821H583.399V478.912Z" fill="#3E99D5"/>
<path d="M583.399 473.632H378.747V478.913H583.399V473.632Z" fill="white"/>
<path d="M599.67 493.598H362.428V515H599.67V493.598Z" fill="#1A3248"/>
<path d="M599.67 489.289H362.428V493.551H599.67V489.289Z" fill="white"/>
<path d="M541.932 353.046L702.251 421.886L703.083 422.303C709.878 426.055 710.988 437.59 705.579 448.013C700.17 458.436 690.37 463.903 683.621 460.15L531.068 375.514L541.932 353.046Z" fill="#1A3248"/>
<path d="M512.207 403.772C508.324 399.603 499.679 393.674 481.465 384.733C473.869 380.945 466.059 377.603 458.074 374.726C454.72 373.396 451.208 372.509 447.626 372.086C447.626 372.086 466.118 340.723 471.434 329.837C476.75 318.951 489.324 286.708 489.324 286.708C493.254 290.877 501.898 296.807 520.02 305.701C538.141 314.596 548.219 317.839 553.905 318.348C553.905 318.348 536.061 348.506 530.791 359.022C525.521 369.538 512.207 403.772 512.207 403.772Z" fill="#F8B345"/>
<path d="M444.529 378.432C447.441 372.456 511.975 404.143 509.248 410.072C506.52 416.002 489.508 413.732 471.711 404.977C453.913 396.221 441.616 384.501 444.529 378.432ZM556.955 312.001C559.868 306.072 547.71 294.166 529.958 285.457C512.207 276.748 495.333 274.431 492.421 280.361C489.508 286.291 554.089 317.931 556.955 312.001Z" fill="#1A3248"/>
<path d="M578.129 402.29L528.526 374.819L540.592 350.174L592.829 372.595L578.129 402.29Z" fill="white"/>
<path d="M593.727 370.834L577.199 404.143L581.255 406.164L597.784 372.856L593.727 370.834Z" fill="#F8B345"/>
<g style="mix-blend-mode:multiply" opacity="0.4">
<path d="M378.746 478.912V473.631H390.072C391.875 456.445 408.563 442.964 429.274 442.964C429.274 442.964 466.718 443.751 481.049 443.798V515H362.428V489.289H378.746V478.912Z" fill="#B3A281"/>
</g>
<g style="mix-blend-mode:multiply" opacity="0.4">
<path d="M683.62 460.151L582.473 404.004L581.41 406.135L577.342 404.097L578.497 401.827L578.22 402.29L528.664 374.819L534.627 362.636L706.087 447.272L705.717 448.014C700.216 458.622 690.369 463.903 683.62 460.151Z" fill="#B3A281"/>
</g>
<g style="mix-blend-mode:multiply" opacity="0.4">
<path d="M509.11 410.073C506.198 416.002 489.371 413.732 471.573 404.977C453.775 396.221 441.617 384.501 444.53 378.432C447.442 372.364 511.976 404.143 509.11 410.073Z" fill="#B3A281"/>
</g>
<g style="mix-blend-mode:multiply" opacity="0.4">
<path d="M512.207 403.773C508.324 399.603 499.679 393.674 481.465 384.733C473.869 380.945 466.059 377.604 458.074 374.727C454.72 373.396 451.208 372.509 447.626 372.086C447.626 372.086 464.731 343.133 470.741 331.181L530.19 360.551C524.458 372.735 512.207 403.773 512.207 403.773Z" fill="#B3A281"/>
</g>
<path d="M5.08562 264.055C4.72086 264.142 4.34091 264.142 3.97615 264.055C3.34804 263.763 2.86008 263.234 2.61784 262.584C2.3756 261.934 2.39857 261.214 2.68176 260.581L81.5469 83.8027C81.7476 83.3317 82.0831 82.9308 82.5108 82.6505C82.9386 82.3702 83.4396 82.2231 83.9507 82.2276C84.4605 82.229 84.959 82.3786 85.3856 82.6581C85.8123 82.9377 86.1489 83.3353 86.3546 83.8027L165.312 260.488C165.571 260.799 165.755 261.166 165.849 261.561C165.944 261.955 165.947 262.365 165.857 262.761C165.768 263.156 165.589 263.525 165.334 263.84C165.08 264.155 164.756 264.407 164.389 264.577C164.021 264.746 163.62 264.828 163.215 264.817C162.811 264.806 162.414 264.702 162.057 264.513C161.699 264.323 161.39 264.054 161.153 263.726C160.915 263.397 160.757 263.019 160.689 262.619L84.1357 91.2148L7.6744 262.619C7.44101 263.095 7.06778 263.487 6.60493 263.744C6.14209 264.001 5.61186 264.109 5.08562 264.055Z" fill="#3E99D5"/>
<path d="M83.9503 264.055C83.2638 264.055 82.6053 263.782 82.1198 263.295C81.6343 262.809 81.3616 262.149 81.3616 261.461V90.6587C81.3616 89.9706 81.6343 89.3108 82.1198 88.8243C82.6053 88.3378 83.2638 88.0645 83.9503 88.0645C84.6369 88.0645 85.2954 88.3378 85.7809 88.8243C86.2664 89.3108 86.5391 89.9706 86.5391 90.6587V261.553C86.5152 262.225 86.2319 262.861 85.749 263.328C85.266 263.795 84.6212 264.055 83.9503 264.055Z" fill="#3E99D5"/>
<path d="M5.13086 267.344C12.8509 297.965 45.2106 320.989 83.996 320.989C122.781 320.989 155.141 297.826 162.861 267.344H5.13086Z" fill="#F8B345"/>
<path d="M167.993 255.763H0V267.344H167.993V255.763Z" fill="#1A3248"/>
<path d="M303.348 264.055C302.98 264.072 302.613 263.992 302.285 263.823C301.649 263.539 301.15 263.015 300.899 262.363C300.648 261.712 300.664 260.988 300.945 260.349L379.81 83.8027C380.01 83.3317 380.346 82.9308 380.774 82.6505C381.201 82.3702 381.702 82.2231 382.214 82.2276C382.723 82.229 383.222 82.3786 383.648 82.6581C384.075 82.9377 384.412 83.3353 384.617 83.8027L463.621 260.488C463.774 260.809 463.861 261.158 463.877 261.514C463.892 261.87 463.835 262.225 463.71 262.558C463.585 262.891 463.394 263.196 463.148 263.453C462.902 263.71 462.607 263.915 462.281 264.055C461.966 264.2 461.625 264.281 461.278 264.292C460.932 264.303 460.587 264.244 460.263 264.119C459.94 263.993 459.645 263.804 459.396 263.563C459.147 263.321 458.949 263.031 458.813 262.712L382.214 91.3074L305.752 262.712C305.518 263.139 305.168 263.492 304.743 263.73C304.318 263.968 303.835 264.08 303.348 264.055Z" fill="#3E99D5"/>
<path d="M382.214 264.055C381.527 264.055 380.869 263.782 380.383 263.295C379.898 262.809 379.625 262.149 379.625 261.461V90.6587C379.625 89.9706 379.898 89.3108 380.383 88.8243C380.869 88.3378 381.527 88.0645 382.214 88.0645C382.901 88.0645 383.559 88.3378 384.045 88.8243C384.53 89.3108 384.803 89.9706 384.803 90.6587V261.553C384.779 262.225 384.496 262.861 384.013 263.328C383.53 263.795 382.885 264.055 382.214 264.055Z" fill="#3E99D5"/>
<path d="M303.395 267.344C311.115 297.965 343.474 320.989 382.26 320.989C421.045 320.989 453.405 297.826 461.125 267.344H303.395Z" fill="#F8B345"/>
<path d="M466.256 255.763H298.263V267.344H466.256V255.763Z" fill="#1A3248"/>
<path d="M242.975 37.9404H223.328V403.078H242.975V37.9404Z" fill="#96CFE4"/>
<path d="M249.955 279.481H216.301V403.078H249.955V279.481Z" fill="#1A3248"/>
<path d="M320.591 403.078H145.664V419.941H320.591V403.078Z" fill="#3E99D5"/>
<path d="M320.591 396.036H145.664V403.078H320.591V396.036Z" fill="white"/>
<path d="M343.844 417.67H122.412V439.026H343.844V417.67Z" fill="#1A3248"/>
<path d="M255.549 22.4678C255.549 26.9116 254.234 31.2555 251.771 34.9503C249.307 38.6451 245.805 41.5249 241.709 43.2254C237.612 44.926 233.104 45.3709 228.755 44.504C224.405 43.637 220.41 41.4972 217.275 38.355C214.139 35.2128 212.004 31.2094 211.139 26.8511C210.274 22.4928 210.718 17.9752 212.415 13.8698C214.112 9.76431 216.985 6.25531 220.672 3.78651C224.359 1.31772 228.694 0 233.129 0C239.075 0 244.778 2.36714 248.982 6.58068C253.187 10.7942 255.549 16.509 255.549 22.4678Z" fill="#F8B345"/>
<path d="M69.3424 72.7313L73.0406 71.6658C75.4445 71.1099 78.9578 70.0444 83.4419 69.1179C87.926 68.1914 93.381 66.8479 99.6217 65.7825C105.863 64.717 112.889 63.3272 120.563 62.2154C135.957 59.9454 153.894 57.9535 173.078 56.61C177.701 56.2394 182.786 55.9615 187.732 55.6835C192.679 55.4056 197.671 55.1739 202.71 55.0349C212.788 54.6643 223.051 54.5717 233.267 54.479C243.484 54.3864 253.746 54.479 263.824 54.9886C268.863 54.9886 273.902 55.3129 278.848 55.5909C283.794 55.8688 288.648 56.1004 293.456 56.471C303.072 57.1196 312.363 57.9998 321.193 58.9263C330.022 59.8528 338.344 60.9646 346.017 62.0764L357.02 63.8368L366.959 65.6898C373.199 66.7553 378.654 68.0524 383.138 69.0716C387.623 70.0907 391.136 71.0636 393.54 71.6658L397.238 72.7313L399.411 73.4262C400.956 74.0056 402.255 75.1017 403.087 76.5295C403.919 77.9573 404.234 79.6291 403.979 81.2627C403.724 82.8963 402.913 84.3915 401.685 85.4958C400.457 86.6001 398.886 87.2458 397.238 87.3238H69.3424C67.45 87.3116 65.6393 86.5496 64.3055 85.2044C62.9718 83.8591 62.2232 82.0397 62.2232 80.1433C62.2156 78.6215 62.697 77.1377 63.5961 75.9113C64.4953 74.6849 65.7644 73.7811 67.2159 73.3335L69.3424 72.7313Z" fill="#1A3248"/>
<path d="M343.844 411.509H122.412V417.67H343.844V411.509Z" fill="white"/>
<path d="M89.5438 78.7528C89.5346 79.8503 89.2016 80.9205 88.5865 81.8286C87.9714 82.7366 87.1019 83.4419 86.0875 83.8556C85.073 84.2692 83.9591 84.3727 82.8861 84.153C81.8131 83.9333 80.829 83.4003 80.0578 82.621C79.2866 81.8418 78.7628 80.8512 78.5525 79.7741C78.3422 78.697 78.4547 77.5817 78.8759 76.5686C79.2971 75.5555 80.0081 74.69 80.9193 74.0812C81.8305 73.4724 82.9012 73.1475 83.9964 73.1475C84.7288 73.1474 85.454 73.2927 86.13 73.575C86.8061 73.8573 87.4197 74.2709 87.9354 74.792C88.4511 75.3131 88.8588 75.9314 89.1348 76.6113C89.4109 77.2911 89.5499 78.0189 89.5438 78.7528Z" fill="white"/>
<path d="M387.808 78.7528C387.799 79.8503 387.466 80.9205 386.851 81.8286C386.236 82.7366 385.366 83.4419 384.352 83.8556C383.337 84.2692 382.224 84.3727 381.151 84.153C380.077 83.9333 379.093 83.4003 378.322 82.621C377.551 81.8418 377.027 80.8512 376.817 79.7741C376.607 78.697 376.719 77.5817 377.14 76.5686C377.561 75.5555 378.272 74.69 379.184 74.0812C380.095 73.4724 381.166 73.1475 382.261 73.1475C382.993 73.1474 383.718 73.2927 384.394 73.575C385.071 73.8573 385.684 74.2709 386.2 74.792C386.716 75.3131 387.123 75.9314 387.399 76.6113C387.675 77.2911 387.814 78.0189 387.808 78.7528Z" fill="white"/>
<path d="M248.43 70.9245C248.43 73.9573 247.532 76.9219 245.851 79.4435C244.17 81.9651 241.78 83.9305 238.984 85.0911C236.188 86.2516 233.111 86.5553 230.143 85.9636C227.175 85.372 224.449 83.9116 222.309 81.7671C220.169 79.6227 218.711 76.8905 218.121 73.916C217.531 70.9416 217.834 67.8585 218.992 65.0566C220.15 62.2547 222.111 59.8599 224.627 58.175C227.144 56.4901 230.102 55.5908 233.128 55.5908C237.187 55.5908 241.079 57.2063 243.948 60.082C246.818 62.9576 248.43 66.8578 248.43 70.9245Z" fill="white"/>
<g style="mix-blend-mode:multiply" opacity="0.3">
<path d="M386.236 87.4161H397.054C398.702 87.3381 400.273 86.6924 401.501 85.5881C402.729 84.4839 403.539 82.9886 403.795 81.355C404.05 79.7215 403.735 78.0496 402.903 76.6218C402.07 75.194 400.772 74.0979 399.226 73.5185L397.054 72.8236L393.355 71.7581C390.951 71.1559 387.438 70.0904 382.954 69.1639C378.47 68.2374 373.015 66.8476 366.774 65.7821L356.835 63.9291L345.833 62.1687C338.159 61.0569 329.792 59.9914 321.008 59.0186C312.225 58.0458 302.933 57.2119 293.272 56.5634C288.649 56.1928 283.564 55.9611 278.664 55.6832C273.763 55.4052 268.678 55.2199 263.639 55.081C256.798 54.803 249.771 54.7103 242.883 54.664V42.6657C247.436 40.4427 251.104 36.7403 253.289 32.1616C255.474 27.5829 256.048 22.3976 254.917 17.4504C253.786 12.5031 251.017 8.08538 247.06 4.91667C243.104 1.74796 238.194 0.0149807 233.129 0V439.026H343.845V411.509H320.731V396.036H249.956V279.481H242.929V87.4161H378.193L303.026 255.763H298.403V267.344H303.534C311.254 297.965 343.614 320.989 382.399 320.989C421.185 320.989 453.544 297.826 461.264 267.344H466.396V255.763H461.773L386.236 87.4161ZM379.626 255.763H308.804L379.626 97.2834V255.763ZM384.803 255.763V97.2834L455.717 255.763H384.803Z" fill="#B3A281"/>
</g>
</g>
<defs>
<clipPath id="clip0_124_2198">
<rect width="709" height="515" fill="white"/>
</clipPath>
</defs>
</svg>
