<svg width="375" height="754" viewBox="0 0 375 754" fill="none" xmlns="http://www.w3.org/2000/svg">
<path d="M2 678.182V0L374 4.73517V296C330 291.2 305.667 320.667 299 336C263.8 492.8 169.777 506.98 127.166 494.47C51.7555 450.893 15.9937 627.151 2 678.182Z" fill="#FFC158" stroke="#FFC158" stroke-width="10"/>
<g filter="url(#filter0_d_124_3376)">
<path d="M241.961 307.643C278.25 218.929 342.064 234.817 375 243.724V335.743C351.66 354.195 319 335.743 296.421 371.868C243.198 457.023 245.851 587.491 149.378 551.223C72.1992 522.208 21.7842 571.953 0 746V583.749C28.0083 549.39 72.0996 489.818 111 486C149.9 482.183 187 442 241.961 307.643Z" fill="#FFD998"/>
</g>
<defs>
<filter id="filter0_d_124_3376" x="-4" y="236.59" width="383" height="517.41" filterUnits="userSpaceOnUse" color-interpolation-filters="sRGB">
<feFlood flood-opacity="0" result="BackgroundImageFix"/>
<feColorMatrix in="SourceAlpha" type="matrix" values="0 0 0 0 0 0 0 0 0 0 0 0 0 0 0 0 0 0 127 0" result="hardAlpha"/>
<feOffset dy="4"/>
<feGaussianBlur stdDeviation="2"/>
<feColorMatrix type="matrix" values="0 0 0 0 1 0 0 0 0 1 0 0 0 0 1 0 0 0 0.25 0"/>
<feBlend mode="normal" in2="BackgroundImageFix" result="effect1_dropShadow_124_3376"/>
<feBlend mode="normal" in="SourceGraphic" in2="effect1_dropShadow_124_3376" result="shape"/>
</filter>
</defs>
</svg>
